%FSLAX35Y35*%
%MOIN*%
G04 EasyPC Gerber Version 18.0.8 Build 3632 *
%ADD84O,0.07000X0.12000*%
%ADD99R,0.02180X0.04937*%
%ADD104R,0.04937X0.04937*%
%ADD75R,0.08874X0.08874*%
%ADD73C,0.07000*%
%ADD135C,0.08000*%
%ADD100C,0.08087*%
%ADD85C,0.08874*%
%ADD74C,0.09661*%
%ADD78C,0.10843*%
%ADD72C,0.11236*%
%ADD98R,0.04937X0.02180*%
%ADD101C,0.12024*%
%ADD103R,0.09902X0.02496*%
X0Y0D02*
D02*
D72*
X98856Y409305D03*
X145116Y57927D03*
X366573Y383715D03*
X374447Y56943D03*
D02*
D73*
X134289Y345683D03*
Y385683D03*
X148069Y345683D03*
Y385683D03*
X164467Y125053D03*
X166730Y24955D03*
X194467Y125053D03*
X196730Y24955D03*
X279959Y45230D03*
Y85230D03*
X336258Y125801D03*
Y133301D03*
Y140801D03*
X339014Y155860D03*
Y163360D03*
Y170860D03*
X346888Y243951D03*
Y283951D03*
X356986Y137750D03*
X357321Y150545D03*
X357518Y162848D03*
X357774Y175644D03*
X360667Y243951D03*
Y283951D03*
X396986Y137750D03*
X397321Y150545D03*
X397518Y162848D03*
X397774Y175644D03*
D02*
D74*
X128581Y288537D03*
Y308222D03*
X138581Y288537D03*
Y308222D03*
X150037Y245919D03*
Y259699D03*
X158108Y288537D03*
Y308537D03*
X160037Y245919D03*
Y259699D03*
X178974Y318596D03*
Y328596D03*
X185077Y236077D03*
Y246077D03*
X212537Y236077D03*
Y246077D03*
X217557Y55014D03*
Y65014D03*
X227242Y249659D03*
X234683Y310722D03*
Y320722D03*
X236494Y295132D03*
X237242Y249659D03*
X246494Y295132D03*
X262242Y249856D03*
X270116Y281195D03*
Y291195D03*
X272242Y249856D03*
X283896Y281195D03*
Y291195D03*
X289801Y210486D03*
Y220486D03*
X313266Y279384D03*
X321297Y210329D03*
Y220329D03*
X323266Y279384D03*
X326848Y92967D03*
X336848D03*
D02*
D75*
X112636Y215031D03*
X115195Y66768D03*
Y106138D03*
X207732Y192770D03*
X244427Y66178D03*
X297872Y102826D03*
X312815Y180959D03*
X346888Y221689D03*
X377579Y29778D03*
X395626Y220427D03*
D02*
D78*
X163817Y346313D03*
Y364030D03*
Y377809D03*
Y395526D03*
X189407Y346313D03*
Y364030D03*
Y377809D03*
Y395526D03*
D02*
D84*
X246494Y405368D03*
X256494D03*
X266494D03*
X276494D03*
X286494D03*
X296494D03*
D02*
D85*
X98856Y316785D03*
Y326785D03*
Y336785D03*
Y346785D03*
Y356785D03*
X108856Y316785D03*
Y326785D03*
Y336785D03*
Y346785D03*
Y356785D03*
X112636Y228811D03*
X115195Y52989D03*
Y92359D03*
X175746Y66234D03*
Y76234D03*
Y86234D03*
Y96234D03*
X185746Y56234D03*
Y66234D03*
Y76234D03*
Y86234D03*
Y96234D03*
X221511Y192770D03*
X244427Y52398D03*
X256652Y174384D03*
Y184384D03*
Y194384D03*
Y204384D03*
X266652Y174384D03*
Y184384D03*
Y194384D03*
Y204384D03*
X297872Y116606D03*
X299036Y180959D03*
X301376Y296667D03*
Y306667D03*
X311376Y296667D03*
Y306667D03*
X321376Y296667D03*
Y306667D03*
X331376Y296667D03*
Y306667D03*
X346888Y207910D03*
X363800Y29778D03*
X409405Y220427D03*
X425982Y159187D03*
Y169187D03*
Y179187D03*
D02*
D98*
X178581Y266589D03*
Y268557D03*
Y270526D03*
Y272494D03*
Y274463D03*
Y276431D03*
Y278400D03*
Y280368D03*
Y282337D03*
Y284305D03*
Y286274D03*
Y288242D03*
Y290211D03*
Y292179D03*
Y294148D03*
Y296116D03*
X221888Y266589D03*
Y268557D03*
Y270526D03*
Y272494D03*
Y274463D03*
Y276431D03*
Y278400D03*
Y280368D03*
Y282337D03*
Y284305D03*
Y286274D03*
Y288242D03*
Y290211D03*
Y292179D03*
Y294148D03*
Y296116D03*
D02*
D99*
X185470Y259699D03*
Y303006D03*
X187439Y259699D03*
Y303006D03*
X189407Y259699D03*
Y303006D03*
X191376Y259699D03*
Y303006D03*
X193344Y259699D03*
Y303006D03*
X195313Y259699D03*
Y303006D03*
X197281Y259699D03*
Y303006D03*
X199250Y259699D03*
Y303006D03*
X201219Y259699D03*
Y303006D03*
X203187Y259699D03*
Y303006D03*
X205156Y259699D03*
Y303006D03*
X207124Y259699D03*
Y303006D03*
X209093Y259699D03*
Y303006D03*
X211061Y259699D03*
Y303006D03*
X213030Y259699D03*
Y303006D03*
X214998Y259699D03*
Y303006D03*
D02*
D100*
X175746Y56234D03*
D02*
D101*
X180746Y52848D03*
Y68439D03*
Y84030D03*
Y99620D03*
D02*
D103*
X290281Y235073D03*
Y237632D03*
Y240191D03*
Y242750D03*
Y245309D03*
Y247868D03*
Y250427D03*
Y252986D03*
Y255545D03*
Y258104D03*
Y260663D03*
Y263222D03*
Y265781D03*
Y268341D03*
X316880Y235073D03*
Y237632D03*
Y240191D03*
Y242750D03*
Y245309D03*
Y247868D03*
Y250427D03*
Y252986D03*
Y255545D03*
Y258104D03*
Y260663D03*
Y263222D03*
Y265781D03*
Y268341D03*
D02*
D104*
X207715Y405211D03*
Y410211D03*
X212715Y405211D03*
Y410211D03*
X217715Y405211D03*
Y410211D03*
X222715Y405211D03*
Y410211D03*
X227715Y405211D03*
Y410211D03*
D02*
D135*
X233049Y102317D03*
X243049D03*
X253049D03*
X309919Y64620D03*
X319919D03*
X329919D03*
X0Y0D02*
M02*
