%FSLAX35Y35*%
%MOIN*%
G04 EasyPC Gerber Version 18.0.8 Build 3632 *
%ADD89C,0.00100*%
%ADD88C,0.00394*%
%ADD10C,0.00500*%
%ADD11C,0.00512*%
%ADD86C,0.00787*%
%ADD12C,0.01000*%
%ADD90C,0.01969*%
X0Y0D02*
D02*
D10*
X102054Y120612D02*
X101741Y120299D01*
X101116Y119987*
X100178*
X99554Y120299*
X99241Y120612*
X98928Y121237*
Y122487*
X99241Y123112*
X99554Y123424*
X100178Y123737*
X101116*
X101741Y123424*
X102054Y123112*
X104554Y119987D02*
X105804D01*
X105178D02*
Y123737D01*
X104554Y123112*
X108635Y68626D02*
Y66126D01*
X107385Y67376D02*
X109885D01*
X108635Y107996D02*
Y105496D01*
X107385Y106746D02*
X109885D01*
X112636Y205923D02*
G75*
G02X96636Y221923J16000D01*
G01*
G75*
G02X112636Y237923I16000*
G01*
G75*
G02X128636Y221923J-16000*
G01*
G75*
G02X112636Y205923I-16000*
G01*
X115195Y75876D02*
G75*
G02X131195Y59876J-16000D01*
G01*
G75*
G02X115195Y43876I-16000*
G01*
G75*
G02X99195Y59876J16000*
G01*
G75*
G02X115195Y75876I16000*
G01*
Y115246D02*
G75*
G02X131195Y99246J-16000D01*
G01*
G75*
G02X115195Y83246I-16000*
G01*
G75*
G02X99195Y99246J16000*
G01*
G75*
G02X115195Y115246I16000*
G01*
X120128Y199137D02*
X119815Y198825D01*
X119190Y198512*
X118252*
X117628Y198825*
X117315Y199137*
X117002Y199762*
Y201012*
X117315Y201637*
X117628Y201950*
X118252Y202262*
X119190*
X119815Y201950*
X120128Y201637*
X122315Y198825D02*
X122940Y198512D01*
X123565*
X124190Y198825*
X124502Y199450*
X124190Y200075*
X123565Y200387*
X122940*
X123565D02*
X124190Y200700D01*
X124502Y201325*
X124190Y201950*
X123565Y202262*
X122940*
X122315Y201950*
X127315Y198825D02*
X127940Y198512D01*
X128565*
X129190Y198825*
X129502Y199450*
X129190Y200075*
X128565Y200387*
X127940*
X128565D02*
X129190Y200700D01*
X129502Y201325*
X129190Y201950*
X128565Y202262*
X127940*
X127315Y201950*
X124324Y38820D02*
X124011Y38508D01*
X123386Y38195*
X122449*
X121824Y38508*
X121511Y38820*
X121199Y39445*
Y40695*
X121511Y41320*
X121824Y41633*
X122449Y41945*
X123386*
X124011Y41633*
X124324Y41320*
X126824Y38195D02*
X128074D01*
X127449D02*
Y41945D01*
X126824Y41320*
X131511Y38508D02*
X132136Y38195D01*
X132761*
X133386Y38508*
X133699Y39133*
X133386Y39758*
X132761Y40070*
X132136*
X132761D02*
X133386Y40383D01*
X133699Y41008*
X133386Y41633*
X132761Y41945*
X132136*
X131511Y41633*
X119196Y213174D02*
Y215674D01*
X120446Y214424D02*
X117946D01*
X130456Y278850D02*
X130143Y278537D01*
X129518Y278225*
X128581*
X127956Y278537*
X127643Y278850*
X127331Y279475*
Y280725*
X127643Y281350*
X127956Y281663*
X128581Y281975*
X129518*
X130143Y281663*
X130456Y281350*
X132331Y279163D02*
X132643Y279787D01*
X133268Y280100*
X133893*
X134518Y279787*
X134831Y279163*
X134518Y278537*
X133893Y278225*
X133268*
X132643Y278537*
X132331Y279163*
Y280100*
X132643Y281037*
X133268Y281663*
X133893Y281975*
X130456Y298535D02*
X130143Y298222D01*
X129518Y297910*
X128581*
X127956Y298222*
X127643Y298535*
X127331Y299160*
Y300410*
X127643Y301035*
X127956Y301348*
X128581Y301660*
X129518*
X130143Y301348*
X130456Y301035*
X132331Y297910D02*
X134831Y301660D01*
X132331*
X131312Y259096D02*
X131000Y258783D01*
X130374Y258471*
X129437*
X128812Y258783*
X128500Y259096*
X128187Y259721*
Y260971*
X128500Y261596*
X128812Y261909*
X129437Y262221*
X130374*
X131000Y261909*
X131312Y261596*
X133812Y258471D02*
X135062D01*
X134437D02*
Y262221D01*
X133812Y261596*
X140687Y258471D02*
X138187D01*
X140374Y260659*
X140687Y261283*
X140374Y261909*
X139750Y262221*
X138812*
X138187Y261909*
X129289Y375683D02*
X139289D01*
Y355683*
X129289*
Y375683*
X134289Y355683D02*
Y350683D01*
Y380683D02*
Y375683D01*
X136206Y359010D02*
X132456D01*
Y361197*
X132769Y361822*
X133394Y362135*
X134019Y361822*
X134331Y361197*
Y359010*
Y361197D02*
X136206Y362135D01*
Y364635D02*
Y365885D01*
Y365260D02*
X132456D01*
X133081Y364635*
X136206Y369010D02*
X132456Y371510D01*
Y369010*
X143049Y319859D02*
Y321109D01*
X143362Y321734*
X143674Y322046*
X144299Y322359*
X144924*
X145549Y322046*
X145862Y321734*
X146174Y321109*
Y319859*
X145862Y319234*
X145549Y318921*
X144924Y318609*
X144299*
X143674Y318921*
X143362Y319234*
X143049Y319859*
X145237Y319546D02*
X146174Y318609D01*
X148362Y318921D02*
X148987Y318609D01*
X149612*
X150237Y318921*
X150549Y319546*
X150237Y320171*
X149612Y320484*
X148987*
X149612D02*
X150237Y320796D01*
X150549Y321421*
X150237Y322046*
X149612Y322359*
X148987*
X148362Y322046*
X143069Y375683D02*
X153069D01*
Y355683*
X143069*
Y375683*
X149422Y234391D02*
X149110Y234079D01*
X148485Y233766*
X147547*
X146922Y234079*
X146610Y234391*
X146297Y235016*
Y236266*
X146610Y236891*
X146922Y237204*
X147547Y237516*
X148485*
X149110Y237204*
X149422Y236891*
X151922Y233766D02*
X153172D01*
X152547D02*
Y237516D01*
X151922Y236891*
X157860Y233766D02*
Y237516D01*
X156297Y235016*
X158797*
X148069Y355683D02*
Y350683D01*
Y380683D02*
Y375683D01*
X149789Y358124D02*
X146039D01*
Y360311*
X146351Y360937*
X146976Y361249*
X147601Y360937*
X147914Y360311*
Y358124*
Y360311D02*
X149789Y361249D01*
Y363749D02*
Y364999D01*
Y364374D02*
X146039D01*
X146664Y363749*
X149476Y368437D02*
X149789Y369061D01*
Y369687*
X149476Y370311*
X148851Y370624*
X148226Y370311*
X147914Y369687*
Y369061*
Y369687D02*
X147601Y370311D01*
X146976Y370624*
X146351Y370311*
X146039Y369687*
Y369061*
X146351Y368437*
X151809Y335590D02*
X152122Y334965D01*
X152746Y334652*
X153996*
X154622Y334965*
X154934Y335590*
X154622Y336215*
X153996Y336527*
X152746*
X152122Y336840*
X151809Y337465*
X152122Y338090*
X152746Y338402*
X153996*
X154622Y338090*
X154934Y337465*
X156809Y338402D02*
X157122Y334652D01*
X158372Y336527*
X159622Y334652*
X159934Y338402*
X163372Y334652D02*
Y338402D01*
X161809Y335902*
X164309*
X161922Y322777D02*
X161610Y322465D01*
X160985Y322152*
X160047*
X159422Y322465*
X159110Y322777*
X158797Y323402*
Y324652*
X159110Y325277*
X159422Y325590*
X160047Y325902*
X160985*
X161610Y325590*
X161922Y325277*
X164422Y322152D02*
X165672D01*
X165047D02*
Y325902D01*
X164422Y325277*
X169735Y324027D02*
X170360D01*
X170985Y324340*
X171297Y324965*
X170985Y325590*
X170360Y325902*
X169735*
X169110Y325590*
X168797Y324965*
X169110Y324340*
X169735Y324027*
X169110Y323715*
X168797Y323090*
X169110Y322465*
X169735Y322152*
X170360*
X170985Y322465*
X171297Y323090*
X170985Y323715*
X170360Y324027*
X168108Y288537D02*
Y308537D01*
G75*
G03X148108I-10000*
G01*
Y288537*
G75*
G03X168108I10000*
G01*
X169919Y403995D02*
X170232Y403370D01*
X170857Y403057*
X172107*
X172732Y403370*
X173044Y403995*
X172732Y404620*
X172107Y404933*
X170857*
X170232Y405245*
X169919Y405870*
X170232Y406495*
X170857Y406807*
X172107*
X172732Y406495*
X173044Y405870*
X174919Y406807D02*
X175232Y403057D01*
X176482Y404933*
X177732Y403057*
X178044Y406807*
X179919Y403370D02*
X180544Y403057D01*
X181482*
X182107Y403370*
X182419Y403995*
Y404307*
X182107Y404933*
X181482Y405245*
X179919*
Y406807*
X182419*
X171730Y24955D02*
X174230D01*
X171967Y125053D02*
X169467D01*
X175800Y222876D02*
X175488Y222563D01*
X174863Y222250*
X173925*
X173300Y222563*
X172988Y222876*
X172675Y223500*
Y224750*
X172988Y225376*
X173300Y225688*
X173925Y226000*
X174863*
X175488Y225688*
X175800Y225376*
X180175Y222250D02*
X177675D01*
X179863Y224438*
X180175Y225063*
X179863Y225688*
X179238Y226000*
X178300*
X177675Y225688*
X182675Y222563D02*
X183300Y222250D01*
X184238*
X184863Y222563*
X185175Y223188*
Y223500*
X184863Y224126*
X184238Y224438*
X182675*
Y226000*
X185175*
X174230Y19955D02*
Y29955D01*
X189230*
Y19955*
X174230*
X176120Y23038D02*
Y26788D01*
X177995*
X178620Y26476*
X178933Y26163*
X179245Y25538*
Y24288*
X178933Y23663*
X178620Y23350*
X177995Y23038*
X176120*
X183620D02*
X181120D01*
X183307Y25226*
X183620Y25850*
X183307Y26476*
X182683Y26788*
X181745*
X181120Y26476*
X176907Y349030D02*
G75*
G03Y361530J6250D01*
G01*
G75*
G03Y349030J-6250*
G01*
Y380526D02*
G75*
G03Y393026J6250D01*
G01*
G75*
G03Y380526J-6250*
G01*
X178285Y123235D02*
Y126985D01*
X180161*
X180785Y126672*
X181098Y126360*
X181411Y125735*
Y124485*
X181098Y123860*
X180785Y123547*
X180161Y123235*
X178285*
X183911D02*
X185161D01*
X184535D02*
Y126985D01*
X183911Y126360*
X180549Y301037D02*
Y261667D01*
X219919*
Y301037*
X180549*
X185864Y411754D02*
X186177Y411441D01*
X186802Y411128*
X187427Y411441*
X187739Y411754*
Y414878*
X188364*
X187739D02*
X186489D01*
X190864Y411128D02*
Y414878D01*
X193052*
X193677Y414566*
X193989Y413941*
X193677Y413316*
X193052Y413004*
X190864*
X198364Y411128D02*
X195864D01*
X198052Y413316*
X198364Y413941*
X198052Y414566*
X197427Y414878*
X196489*
X195864Y414566*
X186842Y365157D02*
X166842D01*
Y345157*
X186842*
Y365157*
Y396653D02*
X166842D01*
Y376653*
X186842*
Y396653*
X186967Y130053D02*
Y120053D01*
X171967*
Y130053*
X186967*
X189230Y24955D02*
X191730D01*
X189467Y125053D02*
X186967D01*
X192439Y45053D02*
Y107415D01*
X169053*
Y45053*
X192439*
Y68439D02*
Y84030D01*
X190100*
Y68439*
X192439*
X198624Y192770D02*
G75*
G02X214624Y208770I16000D01*
G01*
G75*
G02X230624Y192770J-16000*
G01*
G75*
G02X214624Y176770I-16000*
G01*
G75*
G02X198624Y192770J16000*
G01*
X202715Y415211D02*
Y400211D01*
X232715*
Y415211*
X202715*
X206909Y76154D02*
X206597Y75841D01*
X205972Y75528*
X205034*
X204409Y75841*
X204097Y76154*
X203784Y76778*
Y78028*
X204097Y78654*
X204409Y78966*
X205034Y79278*
X205972*
X206597Y78966*
X206909Y78654*
X211284Y75528D02*
X208784D01*
X210972Y77716*
X211284Y78341*
X210972Y78966*
X210347Y79278*
X209409*
X208784Y78966*
X213784Y76466D02*
X214097Y77091D01*
X214722Y77404*
X215347*
X215972Y77091*
X216284Y76466*
X215972Y75841*
X215347Y75528*
X214722*
X214097Y75841*
X213784Y76466*
Y77404*
X214097Y78341*
X214722Y78966*
X215347Y79278*
X205994Y310341D02*
X207244D01*
X206620D02*
Y314091D01*
X205994D02*
X207244D01*
X213182Y310966D02*
X212870Y310654D01*
X212244Y310341*
X211307*
X210682Y310654*
X210370Y310966*
X210057Y311591*
Y312841*
X210370Y313466*
X210682Y313779*
X211307Y314091*
X212244*
X212870Y313779*
X213182Y313466*
X215057Y310654D02*
X215682Y310341D01*
X216620*
X217244Y310654*
X217557Y311279*
Y311591*
X217244Y312216*
X216620Y312529*
X215057*
Y314091*
X217557*
X205874Y186210D02*
X208374D01*
X207124Y184960D02*
Y187460D01*
X220584Y225139D02*
X220271Y224827D01*
X219646Y224514*
X218709*
X218084Y224827*
X217771Y225139*
X217459Y225764*
Y227014*
X217771Y227639*
X218084Y227952*
X218709Y228264*
X219646*
X220271Y227952*
X220584Y227639*
X224959Y224514D02*
X222459D01*
X224646Y226702*
X224959Y227327*
X224646Y227952*
X224021Y228264*
X223084*
X222459Y227952*
X229021Y224514D02*
Y228264D01*
X227459Y225764*
X229959*
X223143Y333506D02*
X222830Y333193D01*
X222205Y332880*
X221268*
X220643Y333193*
X220330Y333506*
X220018Y334130*
Y335380*
X220330Y336006*
X220643Y336318*
X221268Y336630*
X222205*
X222830Y336318*
X223143Y336006*
X225643Y332880D02*
X226893D01*
X226268D02*
Y336630D01*
X225643Y336006*
X230018Y332880D02*
X232518Y336630D01*
X230018*
X224498Y112802D02*
X225748D01*
X225124D02*
Y116552D01*
X224498D02*
X225748D01*
X231686Y113427D02*
X231374Y113114D01*
X230748Y112802*
X229811*
X229186Y113114*
X228874Y113427*
X228561Y114052*
Y115302*
X228874Y115927*
X229186Y116239*
X229811Y116552*
X230748*
X231374Y116239*
X231686Y115927*
X233561Y112802D02*
X236061Y116552D01*
X233561*
X227749Y174332D02*
X227437Y174020D01*
X226811Y173707*
X225874*
X225249Y174020*
X224937Y174332*
X224624Y174957*
Y176207*
X224937Y176832*
X225249Y177145*
X225874Y177457*
X226811*
X227437Y177145*
X227749Y176832*
X231187Y173707D02*
Y177457D01*
X229624Y174957*
X232124*
X235249Y173707D02*
X236499D01*
X235874D02*
Y177457D01*
X235249Y176832*
X236726Y257226D02*
X236413Y256913D01*
X235788Y256601*
X234850*
X234226Y256913*
X233913Y257226*
X233600Y257851*
Y259101*
X233913Y259726*
X234226Y260039*
X234850Y260351*
X235788*
X236413Y260039*
X236726Y259726*
X239538Y258476D02*
X240163D01*
X240788Y258789*
X241100Y259413*
X240788Y260039*
X240163Y260351*
X239538*
X238913Y260039*
X238600Y259413*
X238913Y258789*
X239538Y258476*
X238913Y258163*
X238600Y257539*
X238913Y256913*
X239538Y256601*
X240163*
X240788Y256913*
X241100Y257539*
X240788Y258163*
X240163Y258476*
X237867Y68035D02*
Y65535D01*
X236617Y66785D02*
X239117D01*
X244427Y75285D02*
G75*
G02X260427Y59285J-16000D01*
G01*
G75*
G02X244427Y43285I-16000*
G01*
G75*
G02X228427Y59285J16000*
G01*
G75*
G02X244427Y75285I16000*
G01*
X248340Y304175D02*
X248027Y303862D01*
X247402Y303550*
X246465*
X245840Y303862*
X245527Y304175*
X245215Y304800*
Y306050*
X245527Y306675*
X245840Y306987*
X246465Y307300*
X247402*
X248027Y306987*
X248340Y306675*
X250840Y303550D02*
X252090D01*
X251465D02*
Y307300D01*
X250840Y306675*
X256152Y303550D02*
X256777Y303862D01*
X257402Y304487*
X257715Y305425*
Y306362*
X257402Y306987*
X256777Y307300*
X256152*
X255527Y306987*
X255215Y306362*
X255527Y305737*
X256152Y305425*
X256777*
X257402Y305737*
X257715Y306362*
X251981Y237049D02*
X251669Y236736D01*
X251044Y236424*
X250106*
X249481Y236736*
X249169Y237049*
X248856Y237674*
Y238924*
X249169Y239549*
X249481Y239861*
X250106Y240174*
X251044*
X251669Y239861*
X251981Y239549*
X254169Y236736D02*
X254794Y236424D01*
X255419*
X256044Y236736*
X256356Y237361*
X256044Y237986*
X255419Y238299*
X254794*
X255419D02*
X256044Y238611D01*
X256356Y239236*
X256044Y239861*
X255419Y240174*
X254794*
X254169Y239861*
X261356Y236424D02*
X258856D01*
X261044Y238611*
X261356Y239236*
X261044Y239861*
X260419Y240174*
X259481*
X258856Y239861*
X253556Y273269D02*
X253244Y272957D01*
X252619Y272644*
X251681*
X251056Y272957*
X250744Y273269*
X250431Y273894*
Y275144*
X250744Y275769*
X251056Y276082*
X251681Y276394*
X252619*
X253244Y276082*
X253556Y275769*
X255744Y272957D02*
X256369Y272644D01*
X256994*
X257619Y272957*
X257931Y273582*
X257619Y274207*
X256994Y274519*
X256369*
X256994D02*
X257619Y274832D01*
X257931Y275457*
X257619Y276082*
X256994Y276394*
X256369*
X255744Y276082*
X260744Y272957D02*
X261369Y272644D01*
X261994*
X262619Y272957*
X262931Y273582*
Y275457*
X262619Y276082*
X261994Y276394*
X261369*
X260744Y276082*
X260431Y275457*
Y273582*
X260744Y272957*
X262619Y276082*
X256115Y38722D02*
X255803Y38409D01*
X255178Y38097*
X254240*
X253615Y38409*
X253303Y38722*
X252990Y39347*
Y40597*
X253303Y41222*
X253615Y41535*
X254240Y41847*
X255178*
X255803Y41535*
X256115Y41222*
X260490Y38097D02*
X257990D01*
X260178Y40285*
X260490Y40909*
X260178Y41535*
X259553Y41847*
X258615*
X257990Y41535*
X262990Y38097D02*
X265490Y41847D01*
X262990*
X263049Y91317D02*
Y108317D01*
X223049*
Y91317*
X263049*
Y96317D02*
X223049D01*
X270660Y231306D02*
X271910D01*
X271285D02*
Y235056D01*
X270660D02*
X271910D01*
X277848Y231931D02*
X277535Y231618D01*
X276910Y231306*
X275972*
X275348Y231618*
X275035Y231931*
X274722Y232556*
Y233806*
X275035Y234431*
X275348Y234743*
X275972Y235056*
X276910*
X277535Y234743*
X277848Y234431*
X280660Y233181D02*
X281285D01*
X281910Y233493*
X282222Y234118*
X281910Y234743*
X281285Y235056*
X280660*
X280035Y234743*
X279722Y234118*
X280035Y233493*
X280660Y233181*
X280035Y232868*
X279722Y232243*
X280035Y231618*
X280660Y231306*
X281285*
X281910Y231618*
X282222Y232243*
X281910Y232868*
X281285Y233181*
X274324Y215198D02*
X274011Y214886D01*
X273386Y214573*
X272449*
X271824Y214886*
X271511Y215198*
X271199Y215823*
Y217073*
X271511Y217698*
X271824Y218011*
X272449Y218323*
X273386*
X274011Y218011*
X274324Y217698*
X276511Y214886D02*
X277136Y214573D01*
X277761*
X278386Y214886*
X278699Y215511*
X278386Y216136*
X277761Y216448*
X277136*
X277761D02*
X278386Y216761D01*
X278699Y217386*
X278386Y218011*
X277761Y218323*
X277136*
X276511Y218011*
X281824Y214573D02*
X283074D01*
X282449D02*
Y218323D01*
X281824Y217698*
X280426Y301517D02*
X280114Y301205D01*
X279489Y300892*
X278551*
X277926Y301205*
X277614Y301517*
X277301Y302142*
Y303392*
X277614Y304017*
X277926Y304330*
X278551Y304642*
X279489*
X280114Y304330*
X280426Y304017*
X284801Y300892D02*
X282301D01*
X284489Y303080*
X284801Y303705*
X284489Y304330*
X283864Y304642*
X282926*
X282301Y304330*
X288239Y302767D02*
X288864D01*
X289489Y303080*
X289801Y303705*
X289489Y304330*
X288864Y304642*
X288239*
X287614Y304330*
X287301Y303705*
X287614Y303080*
X288239Y302767*
X287614Y302455*
X287301Y301830*
X287614Y301205*
X288239Y300892*
X288864*
X289489Y301205*
X289801Y301830*
X289489Y302455*
X288864Y302767*
X281312Y124746D02*
X281000Y124433D01*
X280374Y124120*
X279437*
X278812Y124433*
X278500Y124746*
X278187Y125370*
Y126620*
X278500Y127246*
X278812Y127558*
X279437Y127870*
X280374*
X281000Y127558*
X281312Y127246*
X285687Y124120D02*
X283187D01*
X285374Y126308*
X285687Y126933*
X285374Y127558*
X284750Y127870*
X283812*
X283187Y127558*
X279959Y50230D02*
Y55230D01*
Y75230D02*
Y80230D01*
X281494Y395368D02*
X241494D01*
Y415368*
X301494*
Y395368*
X281494*
X281956Y58069D02*
X278206D01*
Y60257*
X278519Y60882*
X279144Y61194*
X279769Y60882*
X280081Y60257*
Y58069*
Y60257D02*
X281956Y61194D01*
Y63694D02*
Y64944D01*
Y64319D02*
X278206D01*
X278831Y63694*
X281956Y68694D02*
Y69944D01*
Y69319D02*
X278206D01*
X278831Y68694*
X284959Y55230D02*
X274959D01*
Y75230*
X284959*
Y55230*
X289186Y162443D02*
X288874Y162130D01*
X288248Y161817*
X287311*
X286686Y162130*
X286374Y162443*
X286061Y163067*
Y164317*
X286374Y164943*
X286686Y165255*
X287311Y165567*
X288248*
X288874Y165255*
X289186Y164943*
X291374Y162130D02*
X291998Y161817D01*
X292624*
X293248Y162130*
X293561Y162755*
X293248Y163380*
X292624Y163693*
X291998*
X292624D02*
X293248Y164005D01*
X293561Y164630*
X293248Y165255*
X292624Y165567*
X291998*
X291374Y165255*
X296061Y161817D02*
X298561Y165567D01*
X296061*
X299127Y284883D02*
X298815Y284571D01*
X298189Y284258*
X297252*
X296627Y284571*
X296315Y284883*
X296002Y285508*
Y286758*
X296315Y287383*
X296627Y287696*
X297252Y288008*
X298189*
X298815Y287696*
X299127Y287383*
X303502Y284258D02*
X301002D01*
X303189Y286446*
X303502Y287071*
X303189Y287696*
X302565Y288008*
X301627*
X301002Y287696*
X306939Y284258D02*
X307565Y284571D01*
X308189Y285196*
X308502Y286133*
Y287071*
X308189Y287696*
X307565Y288008*
X306939*
X306315Y287696*
X306002Y287071*
X306315Y286446*
X306939Y286133*
X307565*
X308189Y286446*
X308502Y287071*
X297224Y268864D02*
G75*
G03Y267817J-524D01*
G01*
G75*
G03Y268864J524*
G01*
G36*
G75*
G03Y267817J-524*
G01*
G75*
G03Y268864J524*
G01*
G37*
X297872Y93719D02*
G75*
G02X281872Y109719J16000D01*
G01*
G75*
G02X297872Y125719I16000*
G01*
G75*
G02X313872Y109719J-16000*
G01*
G75*
G02X297872Y93719I-16000*
G01*
X299919Y70620D02*
X339919D01*
X299919Y75620D02*
Y58620D01*
X339919*
Y75620*
X299919*
X304836Y214509D02*
X304523Y214197D01*
X303898Y213884*
X302961*
X302336Y214197*
X302023Y214509*
X301711Y215134*
Y216384*
X302023Y217009*
X302336Y217322*
X302961Y217634*
X303898*
X304523Y217322*
X304836Y217009*
X307023Y214197D02*
X307648Y213884D01*
X308273*
X308898Y214197*
X309211Y214822*
X308898Y215447*
X308273Y215759*
X307648*
X308273D02*
X308898Y216072D01*
X309211Y216697*
X308898Y217322*
X308273Y217634*
X307648*
X307023Y217322*
X313273Y213884D02*
Y217634D01*
X311711Y215134*
X314211*
X306337Y406537D02*
X306649Y406224D01*
X307274Y405912*
X307899Y406224*
X308212Y406537*
Y409662*
X308837*
X308212D02*
X306962D01*
X311337Y405912D02*
Y409662D01*
X313524*
X314149Y409350*
X314462Y408724*
X314149Y408100*
X313524Y407787*
X311337*
X316962Y405912D02*
X318212D01*
X317587D02*
Y409662D01*
X316962Y409037*
X304432Y100969D02*
Y103469D01*
X305682Y102219D02*
X303182D01*
X310461Y269089D02*
Y234433D01*
X296701*
Y269089*
X302581*
Y268089*
X304581*
Y269089*
X310461*
X312097Y49711D02*
X313347D01*
X312722D02*
Y53461D01*
X312097D02*
X313347D01*
X319285Y50336D02*
X318972Y50024D01*
X318347Y49711*
X317409*
X316785Y50024*
X316472Y50336*
X316159Y50961*
Y52211*
X316472Y52836*
X316785Y53149*
X317409Y53461*
X318347*
X318972Y53149*
X319285Y52836*
X323659Y49711D02*
X321159D01*
X323347Y51899*
X323659Y52524*
X323347Y53149*
X322722Y53461*
X321785*
X321159Y53149*
X314673Y187519D02*
X312173D01*
X313423Y188769D02*
Y186269D01*
X321923Y180959D02*
G75*
G02X305923Y164959I-16000D01*
G01*
G75*
G02X289923Y180959J16000*
G01*
G75*
G02X305923Y196959I16000*
G01*
G75*
G02X321923Y180959J-16000*
G01*
X323299Y271057D02*
Y232514D01*
X283862*
Y271057*
X323299*
X333758Y112989D02*
Y114239D01*
X334070Y114864*
X334383Y115176*
X335008Y115489*
X335633*
X336258Y115176*
X336570Y114864*
X336883Y114239*
Y112989*
X336570Y112364*
X336258Y112051*
X335633Y111739*
X335008*
X334383Y112051*
X334070Y112364*
X333758Y112989*
X335945Y112676D02*
X336883Y111739D01*
X339383D02*
X340633D01*
X340008D02*
Y115489D01*
X339383Y114864*
X333797Y180685D02*
Y181935D01*
X334110Y182561*
X334422Y182873*
X335047Y183185*
X335672*
X336297Y182873*
X336610Y182561*
X336922Y181935*
Y180685*
X336610Y180061*
X336297Y179748*
X335672Y179435*
X335047*
X334422Y179748*
X334110Y180061*
X333797Y180685*
X335985Y180373D02*
X336922Y179435D01*
X341297D02*
X338797D01*
X340985Y181623*
X341297Y182248*
X340985Y182873*
X340360Y183185*
X339422*
X338797Y182873*
X336258Y145801D02*
G75*
G02X348758Y133301J-12500D01*
G01*
G75*
G02X336258Y120801I-12500*
G01*
X334758*
G75*
G02X328758Y123301I18J8493*
G01*
Y143301*
G75*
G02X334758Y145801I6018J-5993*
G01*
X336258*
X340328Y223547D02*
Y221047D01*
X339078Y222297D02*
X341578D01*
X339014Y150860D02*
G75*
G02X326514Y163360J12500D01*
G01*
G75*
G02X339014Y175860I12500*
G01*
X340514*
G75*
G02X346514Y173360I-18J-8493*
G01*
Y153360*
G75*
G02X340514Y150860I-6018J5993*
G01*
X339014*
X346888Y230797D02*
G75*
G02X362888Y214797J-16000D01*
G01*
G75*
G02X346888Y198797I-16000*
G01*
G75*
G02X330888Y214797J16000*
G01*
G75*
G02X346888Y230797I16000*
G01*
Y248951D02*
Y253951D01*
Y273951D02*
Y278951D01*
X350308Y90986D02*
X349996Y90673D01*
X349370Y90361*
X348433*
X347808Y90673*
X347496Y90986*
X347183Y91611*
Y92861*
X347496Y93486*
X347808Y93798*
X348433Y94111*
X349370*
X349996Y93798*
X350308Y93486*
X352496Y90673D02*
X353120Y90361D01*
X353746*
X354370Y90673*
X354683Y91298*
X354370Y91923*
X353746Y92236*
X353120*
X353746D02*
X354370Y92548D01*
X354683Y93173*
X354370Y93798*
X353746Y94111*
X353120*
X352496Y93798*
X348509Y256057D02*
X344759D01*
Y258244*
X345072Y258870*
X345697Y259182*
X346322Y258870*
X346634Y258244*
Y256057*
Y258244D02*
X348509Y259182D01*
Y262620D02*
X344759D01*
X347259Y261057*
Y263557*
X348509Y266682D02*
Y267932D01*
Y267307D02*
X344759D01*
X345384Y266682*
X351888Y253951D02*
X341888D01*
Y273951*
X351888*
Y253951*
X362316Y199549D02*
X362004Y199236D01*
X361378Y198924*
X360441*
X359816Y199236*
X359504Y199549*
X359191Y200174*
Y201424*
X359504Y202049*
X359816Y202361*
X360441Y202674*
X361378*
X362004Y202361*
X362316Y202049*
X364504Y199236D02*
X365128Y198924D01*
X365754*
X366378Y199236*
X366691Y199861*
X366378Y200486*
X365754Y200799*
X365128*
X365754D02*
X366378Y201111D01*
X366691Y201736*
X366378Y202361*
X365754Y202674*
X365128*
X364504Y202361*
X369191Y199236D02*
X369816Y198924D01*
X370754*
X371378Y199236*
X371691Y199861*
Y200174*
X371378Y200799*
X370754Y201111*
X369191*
Y202674*
X371691*
X360667Y248951D02*
Y253951D01*
Y273951D02*
Y278951D01*
X362321Y150545D02*
X367321D01*
X362518Y162848D02*
X367518D01*
X362683Y256156D02*
X358933D01*
Y258343*
X359245Y258968*
X359870Y259281*
X360495Y258968*
X360807Y258343*
Y256156*
Y258343D02*
X362683Y259281D01*
Y262718D02*
X358933D01*
X361433Y261156*
Y263656*
X362370Y266468D02*
X362683Y267093D01*
Y267718*
X362370Y268343*
X361745Y268656*
X359870*
X359245Y268343*
X358933Y267718*
Y267093*
X359245Y266468*
X359870Y266156*
X361745*
X362370Y266468*
X359245Y268343*
X365667Y253951D02*
X355667D01*
Y273951*
X365667*
Y253951*
X366986Y137750D02*
X361986D01*
X367321Y145545D02*
Y155545D01*
X387321*
Y145545*
X367321*
X367518Y157848D02*
Y167848D01*
X387518*
Y157848*
X367518*
X367774Y175644D02*
X362774D01*
X369722Y161030D02*
Y164780D01*
X371910*
X372535Y164468*
X372848Y163843*
X372535Y163218*
X371910Y162905*
X369722*
X371910D02*
X372848Y161030D01*
X375348D02*
X376598D01*
X375972D02*
Y164780D01*
X375348Y164155*
X379722Y161343D02*
X380348Y161030D01*
X381285*
X381910Y161343*
X382222Y161968*
Y162280*
X381910Y162905*
X381285Y163218*
X379722*
Y164780*
X382222*
X369919Y136325D02*
Y140075D01*
X372107*
X372732Y139763*
X373044Y139138*
X372732Y138513*
X372107Y138200*
X369919*
X372107D02*
X373044Y136325D01*
X375544D02*
X376794D01*
X376169D02*
Y140075D01*
X375544Y139450*
X381482Y136325D02*
Y140075D01*
X379919Y137575*
X382419*
X370018Y173727D02*
Y177477D01*
X372205*
X372830Y177165*
X373143Y176539*
X372830Y175915*
X372205Y175602*
X370018*
X372205D02*
X373143Y173727D01*
X375643D02*
X376893D01*
X376268D02*
Y177477D01*
X375643Y176852*
X380018Y174665D02*
X380330Y175289D01*
X380955Y175602*
X381580*
X382205Y175289*
X382518Y174665*
X382205Y174039*
X381580Y173727*
X380955*
X380330Y174039*
X380018Y174665*
Y175602*
X380330Y176539*
X380955Y177165*
X381580Y177477*
X370116Y148136D02*
Y151886D01*
X372304*
X372929Y151574*
X373241Y150949*
X372929Y150324*
X372304Y150011*
X370116*
X372304D02*
X373241Y148136D01*
X375741D02*
X376991D01*
X376366D02*
Y151886D01*
X375741Y151261*
X382616Y148136D02*
X380116D01*
X382304Y150324*
X382616Y150949*
X382304Y151574*
X381679Y151886*
X380741*
X380116Y151574*
X379437Y36337D02*
X376937D01*
X378187Y37587D02*
Y35087D01*
X386037Y238722D02*
X385724Y238409D01*
X385099Y238097*
X384161*
X383537Y238409*
X383224Y238722*
X382911Y239347*
Y240597*
X383224Y241222*
X383537Y241535*
X384161Y241847*
X385099*
X385724Y241535*
X386037Y241222*
X388224Y238409D02*
X388849Y238097D01*
X389474*
X390099Y238409*
X390411Y239035*
X390099Y239659*
X389474Y239972*
X388849*
X389474D02*
X390099Y240285D01*
X390411Y240909*
X390099Y241535*
X389474Y241847*
X388849*
X388224Y241535*
X392911Y239035D02*
X393224Y239659D01*
X393849Y239972*
X394474*
X395099Y239659*
X395411Y239035*
X395099Y238409*
X394474Y238097*
X393849*
X393224Y238409*
X392911Y239035*
Y239972*
X393224Y240909*
X393849Y241535*
X394474Y241847*
X386518Y220427D02*
G75*
G02X402518Y236427I16000D01*
G01*
G75*
G02X418518Y220427J-16000*
G01*
G75*
G02X402518Y204427I-16000*
G01*
G75*
G02X386518Y220427J16000*
G01*
X386687Y29778D02*
G75*
G02X370687Y13778I-16000D01*
G01*
G75*
G02X354687Y29778J16000*
G01*
G75*
G02X370687Y45778I16000*
G01*
G75*
G02X386687Y29778J-16000*
G01*
X386986Y142750D02*
Y132750D01*
X366986*
Y142750*
X386986*
X387321Y150545D02*
X392321D01*
X387518Y162848D02*
X392518D01*
X387774Y180644D02*
Y170644D01*
X367774*
Y180644*
X387774*
X394600Y23860D02*
X394287Y23547D01*
X393662Y23235*
X392724*
X392100Y23547*
X391787Y23860*
X391474Y24485*
Y25735*
X391787Y26360*
X392100Y26672*
X392724Y26985*
X393662*
X394287Y26672*
X394600Y26360*
X398037Y23235D02*
Y26985D01*
X396474Y24485*
X398974*
X391986Y137750D02*
X386986D01*
X392774Y175644D02*
X387774D01*
X393768Y213867D02*
X396268D01*
X395018Y212617D02*
Y215117D01*
X435825Y6864D02*
X85431D01*
Y424187*
X435825*
Y6864*
D02*
D11*
X126081Y283537D02*
X140831D01*
G75*
G03Y293537J5000*
G01*
X126081*
G75*
G03Y283537J-5000*
G01*
Y303222D02*
X140831D01*
G75*
G03Y313222J5000*
G01*
X126081*
G75*
G03Y303222J-5000*
G01*
X147537Y240919D02*
X162287D01*
G75*
G03Y250919J5000*
G01*
X147537*
G75*
G03Y240919J-5000*
G01*
Y254699D02*
X162287D01*
G75*
G03Y264699J5000*
G01*
X147537*
G75*
G03Y254699J-5000*
G01*
X173974Y331096D02*
Y316346D01*
G75*
G03X183974I5000*
G01*
Y331096*
G75*
G03X173974I-5000*
G01*
X190077Y233577D02*
Y248327D01*
G75*
G03X180077I-5000*
G01*
Y233577*
G75*
G03X190077I5000*
G01*
X212557Y67514D02*
Y52764D01*
G75*
G03X222557I5000*
G01*
Y67514*
G75*
G03X212557I-5000*
G01*
X217537Y233577D02*
Y248327D01*
G75*
G03X207537I-5000*
G01*
Y233577*
G75*
G03X217537I5000*
G01*
X229683Y323222D02*
Y308472D01*
G75*
G03X239683I5000*
G01*
Y323222*
G75*
G03X229683I-5000*
G01*
X239742Y254659D02*
X224992D01*
G75*
G03Y244659J-5000*
G01*
X239742*
G75*
G03Y254659J5000*
G01*
X248994Y300132D02*
X234244D01*
G75*
G03Y290132J-5000*
G01*
X248994*
G75*
G03Y300132J5000*
G01*
X259742Y244856D02*
X274492D01*
G75*
G03Y254856J5000*
G01*
X259742*
G75*
G03Y244856J-5000*
G01*
X265116Y293695D02*
Y278945D01*
G75*
G03X275116I5000*
G01*
Y293695*
G75*
G03X265116I-5000*
G01*
X278896D02*
Y278945D01*
G75*
G03X288896I5000*
G01*
Y293695*
G75*
G03X278896I-5000*
G01*
X294801Y207986D02*
Y222736D01*
G75*
G03X284801I-5000*
G01*
Y207986*
G75*
G03X294801I5000*
G01*
X316297Y222829D02*
Y208079D01*
G75*
G03X326297I5000*
G01*
Y222829*
G75*
G03X316297I-5000*
G01*
X325766Y284384D02*
X311016D01*
G75*
G03Y274384J-5000*
G01*
X325766*
G75*
G03Y284384J5000*
G01*
X339348Y97967D02*
X324598D01*
G75*
G03Y87967J-5000*
G01*
X339348*
G75*
G03Y97967J5000*
G01*
D02*
D12*
X175467Y120353D02*
Y129753D01*
X185730Y29655D02*
Y20255D01*
D02*
D86*
X169833Y33606D02*
X172785D01*
X176476Y32129D02*
X177953D01*
X177215D02*
Y36558D01*
X176476Y35820*
X184596Y32129D02*
X181644D01*
X184228Y34713*
X184596Y35451*
X184228Y36189*
X183489Y36558*
X182382*
X181644Y36189*
X187549Y36558D02*
X189395Y32129D01*
X191240Y36558*
X169833Y111558D02*
X172785D01*
X171309Y110082D02*
Y113035D01*
X176476Y110082D02*
X177953D01*
X177215D02*
Y114511D01*
X176476Y113773*
X184596Y110082D02*
X181644D01*
X184228Y112665*
X184596Y113404*
X184228Y114142*
X183489Y114511*
X182382*
X181644Y114142*
X187549Y114511D02*
X189395Y110082D01*
X191240Y114511*
X276612Y358715D02*
Y364620D01*
X274152D02*
X279073D01*
X282026Y358715D02*
Y364620D01*
Y361175D02*
X282518Y362159D01*
X283502Y362652*
X284486*
X285470Y362159*
X285963Y361175*
Y358715*
X289900D02*
Y362652D01*
Y361175D02*
X290392Y362159D01*
X291376Y362652*
X292360*
X293344Y362159*
X297774Y360191D02*
X298266Y359207D01*
X299250Y358715*
X300234*
X301219Y359207*
X301711Y360191*
Y361175*
X301219Y362159*
X300234Y362652*
X299250*
X298266Y362159*
X297774Y361175*
Y360191*
X305648Y362652D02*
Y360191D01*
X306140Y359207*
X307124Y358715*
X308108*
X309093Y359207*
X309585Y360191*
Y362652D02*
Y358715D01*
X317459Y361175D02*
X316967Y362159D01*
X315982Y362652*
X314998*
X314014Y362159*
X313522Y361175*
Y360683*
X314014Y359699*
X314998Y359207*
X315982*
X316967Y359699*
X317459Y360683*
Y362652D02*
Y358715D01*
X316967Y357730*
X315982Y357238*
X314506*
X313522Y357730*
X321396Y358715D02*
Y364620D01*
Y361175D02*
X321888Y362159D01*
X322872Y362652*
X323856*
X324841Y362159*
X325333Y361175*
Y358715*
X337144D02*
Y364620D01*
Y361667D02*
X342065D01*
Y358715D02*
Y364620D01*
X345018Y360191D02*
X345510Y359207D01*
X346494Y358715*
X347478*
X348463Y359207*
X348955Y360191*
Y361175*
X348463Y362159*
X347478Y362652*
X346494*
X345510Y362159*
X345018Y361175*
Y360191*
X355352Y358715D02*
X354860D01*
Y364620*
X364703Y359207D02*
X364211Y358715D01*
X363226*
X362242*
X361258Y359207*
X360766Y360191*
Y361667*
X361258Y362159*
X362242Y362652*
X363226*
X364211Y362159*
X364703Y361667*
Y361175*
X364211Y360683*
X363226Y360191*
X362242*
X361258Y360683*
X360766Y361175*
X381435Y359699D02*
X380943Y359207D01*
X379959Y358715*
X378482*
X377498Y359207*
X377006Y359699*
X376514Y360683*
Y362652*
X377006Y363636*
X377498Y364128*
X378482Y364620*
X379959*
X380943Y364128*
X381435Y363636*
X386848Y358715D02*
X386356D01*
Y364620*
X392262Y360191D02*
X392754Y359207D01*
X393738Y358715*
X394722*
X395707Y359207*
X396199Y360191*
Y361175*
X395707Y362159*
X394722Y362652*
X393738*
X392754Y362159*
X392262Y361175*
Y360191*
X400136Y362652D02*
Y360191D01*
X400628Y359207*
X401612Y358715*
X402596*
X403581Y359207*
X404073Y360191*
Y362652D02*
Y358715D01*
X411947Y361175D02*
X411455Y362159D01*
X410470Y362652*
X409486*
X408502Y362159*
X408010Y361175*
Y360191*
X408502Y359207*
X409486Y358715*
X410470*
X411455Y359207*
X411947Y360191*
Y358715D02*
Y364620D01*
X415884Y359207D02*
X416868Y358715D01*
X418837*
X419821Y359207*
Y360191*
X418837Y360683*
X416868*
X415884Y361175*
Y362159*
X416868Y362652*
X418837*
X419821Y362159*
X302695Y350250D02*
X302203Y349758D01*
X301219Y349266*
X299742*
X298758Y349758*
X298266Y350250*
X297774Y351234*
Y353203*
X298266Y354187*
X298758Y354679*
X299742Y355171*
X301219*
X302203Y354679*
X302695Y354187*
X305648Y350742D02*
X306140Y349758D01*
X307124Y349266*
X308108*
X309093Y349758*
X309585Y350742*
Y351726*
X309093Y352711*
X308108Y353203*
X307124*
X306140Y352711*
X305648Y351726*
Y350742*
X313522Y349266D02*
Y353203D01*
Y351726D02*
X314014Y352711D01*
X314998Y353203*
X315982*
X316967Y352711*
X317459Y351726*
Y349266*
X322380Y353203D02*
X324348D01*
X323364Y354187D02*
Y349758D01*
X323856Y349266*
X324348*
X324841Y349758*
X329270Y349266D02*
Y353203D01*
Y351726D02*
X329762Y352711D01*
X330746Y353203*
X331730*
X332715Y352711*
X337144Y350742D02*
X337636Y349758D01*
X338620Y349266*
X339604*
X340589Y349758*
X341081Y350742*
Y351726*
X340589Y352711*
X339604Y353203*
X338620*
X337636Y352711*
X337144Y351726*
Y350742*
X352892Y349266D02*
Y355171D01*
X356337*
X357321Y354679*
X357813Y353695*
X357321Y352711*
X356337Y352219*
X352892*
X365687Y350250D02*
X365195Y349758D01*
X364211Y349266*
X362734*
X361750Y349758*
X361258Y350250*
X360766Y351234*
Y353203*
X361258Y354187*
X361750Y354679*
X362734Y355171*
X364211*
X365195Y354679*
X365687Y354187*
X372085Y352219D02*
X373069Y351726D01*
X373561Y350742*
X373069Y349758*
X372085Y349266*
X368640*
Y355171*
X372085*
X373069Y354679*
X373561Y353695*
X373069Y352711*
X372085Y352219*
X368640*
X378974Y349266D02*
X378482D01*
Y355171*
X392262Y353203D02*
X394230Y349266D01*
X396199Y353203*
X401120Y349266D02*
X403089D01*
X402104D02*
Y355171D01*
X401120Y354187*
X408502Y349266D02*
X408994Y349758D01*
X408502Y350250*
X408010Y349758*
X408502Y349266*
X416376Y349758D02*
X417360Y349266D01*
X418344*
X419329Y349758*
X419821Y350742*
X419329Y351726*
X418344Y352219*
X417360*
X418344D02*
X419329Y352711D01*
X419821Y353695*
X419329Y354679*
X418344Y355171*
X417360*
X416376Y354679*
X364703Y339817D02*
X360766D01*
X364211Y343262*
X364703Y344246*
X364211Y345230*
X363226Y345722*
X361750*
X360766Y345230*
X369132Y340309D02*
X370116Y339817D01*
X371100*
X372085Y340309*
X372577Y341293*
Y344246*
X372085Y345230*
X371100Y345722*
X370116*
X369132Y345230*
X368640Y344246*
Y341293*
X369132Y340309*
X372085Y345230*
X377498Y339817D02*
X379467D01*
X378482D02*
Y345722D01*
X377498Y344738*
X384388Y340309D02*
X385372Y339817D01*
X386848*
X387833Y340309*
X388325Y341293*
Y341785*
X387833Y342770*
X386848Y343262*
X384388*
Y345722*
X388325*
X393246Y339817D02*
X395215D01*
X394230D02*
Y345722D01*
X393246Y344738*
X401120Y339817D02*
X403089D01*
X402104D02*
Y345722D01*
X401120Y344738*
X411947Y339817D02*
X408010D01*
X411455Y343262*
X411947Y344246*
X411455Y345230*
X410470Y345722*
X408994*
X408010Y345230*
X417360Y342770D02*
X418344D01*
X419329Y343262*
X419821Y344246*
X419329Y345230*
X418344Y345722*
X417360*
X416376Y345230*
X415884Y344246*
X416376Y343262*
X417360Y342770*
X416376Y342278*
X415884Y341293*
X416376Y340309*
X417360Y339817*
X418344*
X419329Y340309*
X419821Y341293*
X419329Y342278*
X418344Y342770*
D02*
D88*
X234486Y408419D02*
X235667D01*
X235077D02*
Y411963D01*
X234486Y411372*
X273266Y418065D02*
Y421608D01*
X275333*
X275923Y421313*
X276219Y420722*
X275923Y420132*
X275333Y419837*
X273266*
X275333D02*
X276219Y418065D01*
X277990D02*
X280352Y420427D01*
Y418065D02*
X277990Y420427D01*
X284585Y418262D02*
Y421805D01*
X283108D02*
X286061D01*
X287833Y418262D02*
X290195Y420624D01*
Y418262D02*
X287833Y420624D01*
D02*
D89*
X183502Y296116D02*
G75*
G03Y300046J1965D01*
G01*
G75*
G03Y296116J-1965*
G01*
G75*
G03Y300046J1965*
G01*
G75*
G03Y296116J-1965*
G01*
X364526Y326726D02*
Y327278D01*
X363974Y327553*
X357360*
X357085Y325900*
X358187*
X357911Y323695*
X357360Y322593*
X356258Y322317*
X355431Y322593*
X355156Y323419*
Y323695*
X356533Y329758*
X357085Y330860*
X358187Y331136*
X359014Y330860*
X359289Y330033*
X359014Y329758*
Y329482*
X359289Y329207*
X359841Y328931*
X364250*
X365077Y329207*
X365352Y329758*
X365628Y330860*
Y331411*
X365352Y331963*
X364801Y332514*
X363148Y333065*
X353778*
X352675Y332789*
X351848Y332514*
X351022Y331687*
X350470Y330860*
X348817Y322593*
Y322041*
Y321490*
X349368Y320939*
X350195Y320388*
X351297*
X362596*
X363148Y320663*
X363423Y321215*
X364526Y326726*
X384644Y332238D02*
Y332789D01*
X384093Y333065*
X379683*
X379132Y332789*
X378581Y332514*
X374998Y327002*
X373620Y332514*
X373344Y332789*
X372793Y333065*
X368384*
X367833Y332789*
X367281Y332238*
X365077Y321215*
Y320663*
X365628Y320388*
X370313*
X370864Y320663*
X371140Y321215*
X372242Y326451*
X373620Y321766*
X374171*
X377478Y326451*
X376100Y321215*
Y320939*
X376376Y320663*
X376927Y320388*
X381337*
X381888Y320663*
X382439Y321215*
X384644Y332238*
X400077Y323970D02*
Y324797D01*
X399801Y325624*
X399250Y326451*
X398423Y326726*
X397321Y327002*
X393187Y327553*
X392360Y328104*
X392085Y328931*
Y329758*
X392911Y330860*
X393738Y331136*
X394565Y330860*
X394841Y330033*
Y329758*
X394565Y329207*
X394841Y328656*
X395392*
X400077*
X400904Y328931*
X401179Y329482*
X401455Y330860*
Y331411*
Y331963*
X400904Y332514*
X399250Y333065*
X389329*
X388226Y332789*
X387124Y332514*
X386297Y331687*
X386022Y330860*
X385746Y329482*
X385470Y328931*
X385746Y327829*
X386297Y327278*
X387124Y326726*
X388502Y326451*
X392360Y325900*
X392911Y325624*
X393187Y325073*
X393463Y324246*
Y323695*
X392911Y322868*
X391809Y322317*
X391258Y322593*
X390982Y323419*
Y323695*
Y324246*
Y324522*
X390431Y324797*
X385470*
X384919Y324522*
X384644Y323970*
X384093Y322317*
Y322041*
X384368Y321490*
X384919Y320939*
X386573Y320388*
X396494*
X397596*
X398423Y320939*
X399250Y321490*
X399801Y322593*
X400077Y323970*
X419368Y332238D02*
X419093Y332789D01*
X418541Y333065*
X413856*
X413305Y332789*
X412754Y332238*
X411652Y326451*
X409171Y332514*
X408896Y332789*
X408344Y333065*
X404211*
X403659Y332789*
X403384Y332238*
X400904Y321215*
X401179Y320663*
X401455Y320388*
X406415*
X406967Y320663*
X407242Y321215*
X408620Y326726*
X411100Y320939*
Y320663*
X411376*
X411927Y320388*
X416061*
X416612Y320663*
X416888Y321215*
X419368Y332238*
X426258D02*
Y332789D01*
X425707Y333065*
X421848*
X421297Y332789*
X420746Y332238*
X420195Y325073*
Y324522*
X420746Y324246*
X422951*
X423778Y324522*
X424053Y325073*
X426258Y332238*
X423502Y322593D02*
X423226Y323144D01*
X422675Y323419*
X420470*
X419919Y323144*
X419644Y322593*
X419368Y321215*
Y320939*
X419644Y320663*
X419919Y320388*
X422124*
X422675Y320663*
X423226Y321215*
X423502Y322593*
X350178Y320399D02*
X362619D01*
X365606D02*
X370335D01*
X376905D02*
X381359D01*
X386540D02*
X397613D01*
X401444D02*
X406437D01*
X411905D02*
X416083D01*
X419908D02*
X422146D01*
X350038Y320493D02*
X362806D01*
X365419D02*
X370522D01*
X376718D02*
X381546D01*
X386259D02*
X397754D01*
X401350D02*
X406625D01*
X411718D02*
X416270D01*
X419815D02*
X422333D01*
X349897Y320586D02*
X362993D01*
X365231D02*
X370710D01*
X376530D02*
X381733D01*
X385978D02*
X397894D01*
X401256D02*
X406812D01*
X411530D02*
X416458D01*
X419721D02*
X422521D01*
X349757Y320680D02*
X363156D01*
X365077D02*
X370872D01*
X376359D02*
X381904D01*
X385696D02*
X398035D01*
X401171D02*
X406975D01*
X411100D02*
X416620D01*
X419627D02*
X422692D01*
X349616Y320774D02*
X363203D01*
X365077D02*
X370919D01*
X376266D02*
X381998D01*
X385415D02*
X398175D01*
X401124D02*
X407022D01*
X411100D02*
X416667D01*
X419533D02*
X422785D01*
X349476Y320867D02*
X363250D01*
X365077D02*
X370966D01*
X376172D02*
X382092D01*
X385134D02*
X398316D01*
X401077D02*
X407069D01*
X411100D02*
X416714D01*
X419440D02*
X422879D01*
X349346Y320961D02*
X363296D01*
X365077D02*
X371013D01*
X376100D02*
X382185D01*
X384897D02*
X398456D01*
X401030D02*
X407115D01*
X411091D02*
X416761D01*
X419368D02*
X422973D01*
X349252Y321055D02*
X363343D01*
X365077D02*
X371060D01*
X376100D02*
X382279D01*
X384804D02*
X398597D01*
X400983D02*
X407162D01*
X411051D02*
X416808D01*
X419368D02*
X423067D01*
X349159Y321148D02*
X363390D01*
X365077D02*
X371107D01*
X376100D02*
X382373D01*
X384710D02*
X398737D01*
X400937D02*
X407209D01*
X411011D02*
X416855D01*
X419368D02*
X423160D01*
X349065Y321242D02*
X363429D01*
X365082D02*
X371146D01*
X376107D02*
X382444D01*
X384616D02*
X398878D01*
X400910D02*
X407249D01*
X410970D02*
X416894D01*
X419374D02*
X423232D01*
X348971Y321336D02*
X363448D01*
X365101D02*
X371165D01*
X376132D02*
X382463D01*
X384522D02*
X399019D01*
X400931D02*
X407272D01*
X410930D02*
X416915D01*
X419393D02*
X423251D01*
X348878Y321430D02*
X363466D01*
X365120D02*
X371185D01*
X376157D02*
X382482D01*
X384429D02*
X399159D01*
X400952D02*
X407296D01*
X410890D02*
X416936D01*
X419411D02*
X423269D01*
X348817Y321523D02*
X363485D01*
X365139D02*
X371205D01*
X376181D02*
X382501D01*
X384352D02*
X399267D01*
X400973D02*
X407319D01*
X410850D02*
X416957D01*
X419430D02*
X423288D01*
X348817Y321617D02*
X363504D01*
X365157D02*
X371224D01*
X376206D02*
X382519D01*
X384305D02*
X399313D01*
X400994D02*
X407343D01*
X410810D02*
X416978D01*
X419448D02*
X423307D01*
X348817Y321711D02*
X363522D01*
X365176D02*
X371244D01*
X376231D02*
X382538D01*
X384258D02*
X399360D01*
X401015D02*
X407366D01*
X410770D02*
X417000D01*
X419467D02*
X423326D01*
X348817Y321804D02*
X363541D01*
X365195D02*
X371264D01*
X373609D02*
X374198D01*
X376256D02*
X382557D01*
X384211D02*
X399407D01*
X401036D02*
X407390D01*
X410730D02*
X417020D01*
X419486D02*
X423344D01*
X348817Y321898D02*
X363560D01*
X365213D02*
X371283D01*
X373581D02*
X374265D01*
X376280D02*
X382576D01*
X384164D02*
X399454D01*
X401057D02*
X407413D01*
X410689D02*
X417042D01*
X419505D02*
X423363D01*
X348817Y321992D02*
X363579D01*
X365232D02*
X371304D01*
X373554D02*
X374331D01*
X376305D02*
X382594D01*
X384117D02*
X399501D01*
X401078D02*
X407437D01*
X410649D02*
X417063D01*
X419524D02*
X423382D01*
X348817Y322085D02*
X363597D01*
X365251D02*
X371323D01*
X373526D02*
X374397D01*
X376330D02*
X382613D01*
X384093D02*
X399548D01*
X401100D02*
X407460D01*
X410609D02*
X417084D01*
X419542D02*
X423400D01*
X348817Y322179D02*
X363616D01*
X365270D02*
X371343D01*
X373498D02*
X374463D01*
X376354D02*
X382632D01*
X384093D02*
X399594D01*
X401120D02*
X407483D01*
X410569D02*
X417105D01*
X419561D02*
X423419D01*
X348817Y322273D02*
X363635D01*
X365289D02*
X371363D01*
X373471D02*
X374529D01*
X376379D02*
X382651D01*
X384093D02*
X399641D01*
X401142D02*
X407507D01*
X410529D02*
X417126D01*
X419580D02*
X423438D01*
X348817Y322367D02*
X356109D01*
X356456D02*
X363654D01*
X365307D02*
X371382D01*
X373443D02*
X374595D01*
X376404D02*
X382669D01*
X384109D02*
X391710D01*
X391908D02*
X399688D01*
X401163D02*
X407530D01*
X410489D02*
X417147D01*
X419598D02*
X423457D01*
X348817Y322460D02*
X355828D01*
X356831D02*
X363672D01*
X365326D02*
X371402D01*
X373416D02*
X374661D01*
X376428D02*
X382688D01*
X384140D02*
X391522D01*
X392096D02*
X399735D01*
X401184D02*
X407554D01*
X410448D02*
X417168D01*
X419617D02*
X423476D01*
X348817Y322554D02*
X355547D01*
X357206D02*
X363691D01*
X365344D02*
X371422D01*
X373388D02*
X374728D01*
X376453D02*
X382707D01*
X384172D02*
X391335D01*
X392283D02*
X399782D01*
X401205D02*
X407577D01*
X410408D02*
X417189D01*
X419636D02*
X423494D01*
X348828Y322648D02*
X355413D01*
X357388D02*
X363710D01*
X365363D02*
X371441D01*
X373361D02*
X374794D01*
X376478D02*
X382726D01*
X384203D02*
X391239D01*
X392470D02*
X399812D01*
X401226D02*
X407600D01*
X410368D02*
X417210D01*
X419671D02*
X423474D01*
X348847Y322741D02*
X355381D01*
X357435D02*
X363729D01*
X365382D02*
X371461D01*
X373333D02*
X374860D01*
X376502D02*
X382744D01*
X384234D02*
X391208D01*
X392658D02*
X399831D01*
X401247D02*
X407624D01*
X410328D02*
X417231D01*
X419718D02*
X423428D01*
X348865Y322835D02*
X355350D01*
X357481D02*
X363747D01*
X365401D02*
X371481D01*
X373306D02*
X374926D01*
X376527D02*
X382763D01*
X384265D02*
X391177D01*
X392845D02*
X399850D01*
X401268D02*
X407647D01*
X410288D02*
X417252D01*
X419765D02*
X423381D01*
X348884Y322929D02*
X355319D01*
X357528D02*
X363766D01*
X365420D02*
X371501D01*
X373278D02*
X374992D01*
X376552D02*
X382782D01*
X384296D02*
X391146D01*
X392952D02*
X399869D01*
X401289D02*
X407671D01*
X410248D02*
X417274D01*
X419812D02*
X423334D01*
X348903Y323022D02*
X355288D01*
X357575D02*
X363785D01*
X365438D02*
X371520D01*
X373250D02*
X375058D01*
X376576D02*
X382800D01*
X384328D02*
X391115D01*
X393014D02*
X399887D01*
X401310D02*
X407694D01*
X410207D02*
X417294D01*
X419859D02*
X423287D01*
X348922Y323116D02*
X355257D01*
X357622D02*
X363804D01*
X365457D02*
X371540D01*
X373223D02*
X375124D01*
X376601D02*
X382819D01*
X384359D02*
X391083D01*
X393077D02*
X399906D01*
X401331D02*
X407718D01*
X410167D02*
X417316D01*
X419906D02*
X423240D01*
X348941Y323210D02*
X355225D01*
X357669D02*
X363822D01*
X365476D02*
X371560D01*
X373195D02*
X375191D01*
X376626D02*
X382838D01*
X384390D02*
X391052D01*
X393139D02*
X399925D01*
X401352D02*
X407741D01*
X410127D02*
X417337D01*
X420052D02*
X423094D01*
X348959Y323304D02*
X355194D01*
X357716D02*
X363841D01*
X365494D02*
X371580D01*
X373168D02*
X375257D01*
X376650D02*
X382857D01*
X384421D02*
X391021D01*
X393202D02*
X399943D01*
X401374D02*
X407765D01*
X410087D02*
X417358D01*
X420239D02*
X422907D01*
X348978Y323397D02*
X355163D01*
X357763D02*
X363860D01*
X365513D02*
X371599D01*
X373140D02*
X375323D01*
X376675D02*
X382876D01*
X384453D02*
X390990D01*
X393264D02*
X399962D01*
X401394D02*
X407788D01*
X410047D02*
X417379D01*
X420426D02*
X422719D01*
X348996Y323491D02*
X355156D01*
X357809D02*
X363878D01*
X365532D02*
X371619D01*
X373113D02*
X375389D01*
X376700D02*
X382894D01*
X384484D02*
X390982D01*
X393327D02*
X399981D01*
X401416D02*
X407811D01*
X410007D02*
X417400D01*
X349015Y323585D02*
X355156D01*
X357856D02*
X363897D01*
X365551D02*
X371639D01*
X373085D02*
X375455D01*
X376724D02*
X382913D01*
X384515D02*
X390982D01*
X393389D02*
X400000D01*
X401437D02*
X407835D01*
X409967D02*
X417421D01*
X349034Y323678D02*
X355156D01*
X357903D02*
X363916D01*
X365570D02*
X371658D01*
X373057D02*
X375521D01*
X376749D02*
X382932D01*
X384546D02*
X390982D01*
X393452D02*
X400019D01*
X401458D02*
X407858D01*
X409926D02*
X417442D01*
X349053Y323772D02*
X355173D01*
X357921D02*
X363935D01*
X365588D02*
X371678D01*
X373030D02*
X375587D01*
X376773D02*
X382950D01*
X384578D02*
X390982D01*
X393463D02*
X400037D01*
X401479D02*
X407881D01*
X409886D02*
X417463D01*
X349072Y323866D02*
X355194D01*
X357933D02*
X363954D01*
X365607D02*
X371698D01*
X373002D02*
X375654D01*
X376798D02*
X382969D01*
X384609D02*
X390982D01*
X393463D02*
X400056D01*
X401500D02*
X407905D01*
X409846D02*
X417484D01*
X349090Y323959D02*
X355216D01*
X357944D02*
X363972D01*
X365626D02*
X371718D01*
X372975D02*
X375720D01*
X376823D02*
X382988D01*
X384640D02*
X390982D01*
X393463D02*
X400074D01*
X401521D02*
X407928D01*
X409806D02*
X417506D01*
X349109Y324053D02*
X355237D01*
X357956D02*
X363991D01*
X365644D02*
X371737D01*
X372947D02*
X375786D01*
X376847D02*
X383007D01*
X384685D02*
X390982D01*
X393463D02*
X400077D01*
X401542D02*
X407952D01*
X409766D02*
X417526D01*
X349128Y324147D02*
X355258D01*
X357968D02*
X364010D01*
X365663D02*
X371757D01*
X372920D02*
X375852D01*
X376872D02*
X383026D01*
X384732D02*
X390982D01*
X393463D02*
X400077D01*
X401563D02*
X407975D01*
X409726D02*
X417548D01*
X349146Y324241D02*
X355280D01*
X357980D02*
X364028D01*
X365682D02*
X371777D01*
X372892D02*
X375918D01*
X376897D02*
X383044D01*
X384779D02*
X390982D01*
X393463D02*
X400077D01*
X401584D02*
X407999D01*
X409685D02*
X417569D01*
X349165Y324334D02*
X355301D01*
X357991D02*
X364047D01*
X365701D02*
X371796D01*
X372865D02*
X375984D01*
X376921D02*
X383063D01*
X384826D02*
X390982D01*
X393433D02*
X400077D01*
X401606D02*
X408022D01*
X409645D02*
X417590D01*
X420570D02*
X423215D01*
X349184Y324428D02*
X355322D01*
X358003D02*
X364066D01*
X365719D02*
X371816D01*
X372837D02*
X376050D01*
X376946D02*
X383081D01*
X384872D02*
X390982D01*
X393402D02*
X400077D01*
X401626D02*
X408046D01*
X409605D02*
X417611D01*
X420382D02*
X423496D01*
X349203Y324522D02*
X355343D01*
X358015D02*
X364085D01*
X365738D02*
X371836D01*
X372809D02*
X376117D01*
X376971D02*
X383100D01*
X384919D02*
X390982D01*
X393371D02*
X400077D01*
X401648D02*
X408069D01*
X409565D02*
X417632D01*
X420195D02*
X423778D01*
X349222Y324615D02*
X355365D01*
X358026D02*
X364104D01*
X365757D02*
X371856D01*
X372782D02*
X376183D01*
X376995D02*
X383119D01*
X385107D02*
X390795D01*
X393339D02*
X400077D01*
X401669D02*
X408093D01*
X409525D02*
X417653D01*
X420195D02*
X423824D01*
X349240Y324709D02*
X355386D01*
X358038D02*
X364122D01*
X365776D02*
X371876D01*
X372754D02*
X376249D01*
X377020D02*
X383138D01*
X385294D02*
X390607D01*
X393308D02*
X400077D01*
X401690D02*
X408116D01*
X409485D02*
X417674D01*
X420195D02*
X423871D01*
X349259Y324803D02*
X355407D01*
X358050D02*
X364141D01*
X365794D02*
X371895D01*
X372727D02*
X376315D01*
X377044D02*
X383157D01*
X393277D02*
X400075D01*
X401711D02*
X408139D01*
X409444D02*
X417695D01*
X420195D02*
X423918D01*
X349278Y324896D02*
X355429D01*
X358061D02*
X364159D01*
X365813D02*
X371915D01*
X372699D02*
X376381D01*
X377069D02*
X383175D01*
X393246D02*
X400044D01*
X401732D02*
X408163D01*
X409404D02*
X417716D01*
X420195D02*
X423965D01*
X349296Y324990D02*
X355450D01*
X358073D02*
X364178D01*
X365832D02*
X371935D01*
X372672D02*
X376447D01*
X377094D02*
X383194D01*
X393215D02*
X400013D01*
X401753D02*
X408186D01*
X409364D02*
X417737D01*
X420195D02*
X424012D01*
X349315Y325084D02*
X355471D01*
X358085D02*
X364197D01*
X365851D02*
X371954D01*
X372644D02*
X376513D01*
X377119D02*
X383213D01*
X393181D02*
X399981D01*
X401774D02*
X408209D01*
X409324D02*
X417758D01*
X420196D02*
X424057D01*
X349334Y325178D02*
X355493D01*
X358097D02*
X364216D01*
X365869D02*
X371974D01*
X372617D02*
X376580D01*
X377143D02*
X383231D01*
X393135D02*
X399950D01*
X401795D02*
X408233D01*
X409284D02*
X417780D01*
X420203D02*
X424085D01*
X349353Y325271D02*
X355514D01*
X358108D02*
X364235D01*
X365888D02*
X371994D01*
X372589D02*
X376646D01*
X377168D02*
X383250D01*
X393088D02*
X399919D01*
X401816D02*
X408256D01*
X409244D02*
X417800D01*
X420210D02*
X424114D01*
X349371Y325365D02*
X355535D01*
X358120D02*
X364253D01*
X365907D02*
X372013D01*
X372561D02*
X376712D01*
X377193D02*
X383269D01*
X393041D02*
X399887D01*
X401837D02*
X408280D01*
X409204D02*
X417822D01*
X420217D02*
X424143D01*
X349390Y325459D02*
X355556D01*
X358132D02*
X364272D01*
X365926D02*
X372033D01*
X372534D02*
X376778D01*
X377217D02*
X383288D01*
X392994D02*
X399856D01*
X401858D02*
X408303D01*
X409163D02*
X417843D01*
X420224D02*
X424172D01*
X349409Y325552D02*
X355578D01*
X358144D02*
X364291D01*
X365944D02*
X372053D01*
X372506D02*
X376844D01*
X377242D02*
X383307D01*
X392947D02*
X399825D01*
X401880D02*
X408327D01*
X409123D02*
X417864D01*
X420232D02*
X424201D01*
X349428Y325646D02*
X355599D01*
X358155D02*
X364309D01*
X365963D02*
X372073D01*
X372479D02*
X376910D01*
X377267D02*
X383325D01*
X392867D02*
X399787D01*
X401901D02*
X408350D01*
X409083D02*
X417885D01*
X420239D02*
X424230D01*
X349446Y325740D02*
X355620D01*
X358167D02*
X364328D01*
X365982D02*
X372093D01*
X372451D02*
X376976D01*
X377291D02*
X383344D01*
X392680D02*
X399724D01*
X401922D02*
X408374D01*
X409043D02*
X417906D01*
X420246D02*
X424258D01*
X349465Y325833D02*
X355642D01*
X358179D02*
X364347D01*
X366000D02*
X372112D01*
X372424D02*
X377043D01*
X377316D02*
X383363D01*
X392493D02*
X399661D01*
X401943D02*
X408397D01*
X409003D02*
X417927D01*
X420254D02*
X424287D01*
X349484Y325927D02*
X355663D01*
X357089D02*
X364366D01*
X366019D02*
X372132D01*
X372396D02*
X377109D01*
X377341D02*
X383381D01*
X392167D02*
X399599D01*
X401964D02*
X408420D01*
X408963D02*
X417948D01*
X420261D02*
X424316D01*
X349503Y326021D02*
X355684D01*
X357105D02*
X364385D01*
X366038D02*
X372152D01*
X372369D02*
X377175D01*
X377365D02*
X383400D01*
X391511D02*
X399537D01*
X401985D02*
X408444D01*
X408922D02*
X417969D01*
X420268D02*
X424345D01*
X349521Y326115D02*
X355706D01*
X357120D02*
X364403D01*
X366057D02*
X372171D01*
X372341D02*
X377241D01*
X377390D02*
X383419D01*
X390856D02*
X399474D01*
X402006D02*
X408467D01*
X408882D02*
X417990D01*
X420275D02*
X424374D01*
X349540Y326208D02*
X355727D01*
X357136D02*
X364422D01*
X366076D02*
X372191D01*
X372313D02*
X377307D01*
X377415D02*
X383438D01*
X390200D02*
X399412D01*
X402027D02*
X408491D01*
X408842D02*
X418011D01*
X420282D02*
X424402D01*
X349559Y326302D02*
X355748D01*
X357152D02*
X364441D01*
X366094D02*
X372211D01*
X372286D02*
X377373D01*
X377439D02*
X383456D01*
X389544D02*
X399349D01*
X402048D02*
X408514D01*
X408802D02*
X418032D01*
X420289D02*
X424431D01*
X349578Y326396D02*
X355769D01*
X357167D02*
X364459D01*
X366113D02*
X372231D01*
X372258D02*
X377439D01*
X377464D02*
X383475D01*
X388888D02*
X399287D01*
X402069D02*
X408537D01*
X408762D02*
X418054D01*
X420296D02*
X424460D01*
X349596Y326489D02*
X355791D01*
X357183D02*
X364478D01*
X366132D02*
X383494D01*
X388309D02*
X399134D01*
X402091D02*
X408561D01*
X408722D02*
X411636D01*
X411659D02*
X418075D01*
X420304D02*
X424489D01*
X349615Y326583D02*
X355812D01*
X357198D02*
X364497D01*
X366150D02*
X383513D01*
X387841D02*
X398853D01*
X402111D02*
X408584D01*
X408681D02*
X411598D01*
X411677D02*
X418096D01*
X420311D02*
X424518D01*
X349634Y326677D02*
X355833D01*
X357214D02*
X364516D01*
X366169D02*
X383531D01*
X387372D02*
X398572D01*
X402133D02*
X408608D01*
X408641D02*
X411559D01*
X411694D02*
X418117D01*
X420318D02*
X424547D01*
X349652Y326770D02*
X355854D01*
X357230D02*
X364526D01*
X366188D02*
X383550D01*
X387058D02*
X398247D01*
X402154D02*
X411521D01*
X411713D02*
X418138D01*
X420326D02*
X424576D01*
X349671Y326864D02*
X355876D01*
X357245D02*
X364526D01*
X366207D02*
X383569D01*
X386917D02*
X397872D01*
X402175D02*
X411482D01*
X411730D02*
X418159D01*
X420333D02*
X424604D01*
X349690Y326958D02*
X355897D01*
X357261D02*
X364526D01*
X366226D02*
X383588D01*
X386777D02*
X397497D01*
X402196D02*
X411444D01*
X411748D02*
X418180D01*
X420340D02*
X424633D01*
X349709Y327052D02*
X355919D01*
X357277D02*
X364526D01*
X366244D02*
X374985D01*
X375030D02*
X383606D01*
X386636D02*
X396949D01*
X402217D02*
X411406D01*
X411766D02*
X418201D01*
X420347D02*
X424662D01*
X349728Y327145D02*
X355940D01*
X357292D02*
X364526D01*
X366263D02*
X374962D01*
X375091D02*
X383625D01*
X386496D02*
X396246D01*
X402238D02*
X411367D01*
X411784D02*
X418222D01*
X420354D02*
X424691D01*
X349746Y327239D02*
X355961D01*
X357308D02*
X364526D01*
X366281D02*
X374939D01*
X375152D02*
X383644D01*
X386355D02*
X395543D01*
X402259D02*
X411329D01*
X411802D02*
X418243D01*
X420361D02*
X424720D01*
X349765Y327333D02*
X355982D01*
X357324D02*
X364415D01*
X366300D02*
X374915D01*
X375213D02*
X383663D01*
X386242D02*
X394841D01*
X402280D02*
X411291D01*
X411820D02*
X418265D01*
X420369D02*
X424748D01*
X349784Y327426D02*
X356004D01*
X357339D02*
X364228D01*
X366319D02*
X374892D01*
X375274D02*
X383681D01*
X386148D02*
X394138D01*
X402301D02*
X411252D01*
X411837D02*
X418285D01*
X420376D02*
X424777D01*
X349802Y327520D02*
X356025D01*
X357355D02*
X364041D01*
X366338D02*
X374869D01*
X375335D02*
X383700D01*
X386055D02*
X393435D01*
X402322D02*
X411214D01*
X411855D02*
X418307D01*
X420383D02*
X424806D01*
X349821Y327614D02*
X356046D01*
X366357D02*
X374845D01*
X375396D02*
X383719D01*
X385961D02*
X393096D01*
X402343D02*
X411176D01*
X411873D02*
X418328D01*
X420390D02*
X424835D01*
X349840Y327707D02*
X356067D01*
X366375D02*
X374822D01*
X375457D02*
X383737D01*
X385867D02*
X392956D01*
X402365D02*
X411137D01*
X411891D02*
X418349D01*
X420398D02*
X424864D01*
X349859Y327801D02*
X356089D01*
X366394D02*
X374798D01*
X375517D02*
X383756D01*
X385774D02*
X392815D01*
X402385D02*
X411099D01*
X411909D02*
X418370D01*
X420405D02*
X424893D01*
X349878Y327895D02*
X356110D01*
X366413D02*
X374775D01*
X375578D02*
X383775D01*
X385730D02*
X392674D01*
X402407D02*
X411061D01*
X411927D02*
X418391D01*
X420412D02*
X424922D01*
X349896Y327989D02*
X356131D01*
X366431D02*
X374751D01*
X375639D02*
X383794D01*
X385706D02*
X392534D01*
X402428D02*
X411022D01*
X411944D02*
X418412D01*
X420419D02*
X424950D01*
X349915Y328082D02*
X356153D01*
X366450D02*
X374728D01*
X375700D02*
X383813D01*
X385683D02*
X392393D01*
X402449D02*
X410984D01*
X411962D02*
X418433D01*
X420426D02*
X424979D01*
X349933Y328176D02*
X356174D01*
X366469D02*
X374704D01*
X375761D02*
X383831D01*
X385659D02*
X392336D01*
X402470D02*
X410946D01*
X411980D02*
X418454D01*
X420433D02*
X425008D01*
X349952Y328270D02*
X356195D01*
X366488D02*
X374681D01*
X375822D02*
X383850D01*
X385636D02*
X392305D01*
X402491D02*
X410907D01*
X411998D02*
X418475D01*
X420441D02*
X425037D01*
X349971Y328363D02*
X356217D01*
X366507D02*
X374657D01*
X375883D02*
X383869D01*
X385613D02*
X392274D01*
X402512D02*
X410869D01*
X412016D02*
X418496D01*
X420448D02*
X425066D01*
X349990Y328457D02*
X356238D01*
X366525D02*
X374634D01*
X375944D02*
X383887D01*
X385589D02*
X392243D01*
X402533D02*
X410831D01*
X412034D02*
X418517D01*
X420455D02*
X425094D01*
X350009Y328551D02*
X356259D01*
X366544D02*
X374611D01*
X376005D02*
X383906D01*
X385566D02*
X392211D01*
X402554D02*
X410793D01*
X412052D02*
X418539D01*
X420463D02*
X425123D01*
X350027Y328644D02*
X356280D01*
X366563D02*
X374587D01*
X376066D02*
X383925D01*
X385542D02*
X392180D01*
X402575D02*
X410754D01*
X412069D02*
X418559D01*
X420470D02*
X425152D01*
X350046Y328738D02*
X356302D01*
X366581D02*
X374564D01*
X376126D02*
X383944D01*
X385519D02*
X392149D01*
X394799D02*
X400325D01*
X402596D02*
X410716D01*
X412087D02*
X418581D01*
X420477D02*
X425181D01*
X350065Y328832D02*
X356323D01*
X366600D02*
X374541D01*
X376187D02*
X383963D01*
X385495D02*
X392118D01*
X394752D02*
X400606D01*
X402617D02*
X410678D01*
X412105D02*
X418602D01*
X420484D02*
X425210D01*
X350083Y328926D02*
X356344D01*
X366619D02*
X374517D01*
X376248D02*
X383981D01*
X385472D02*
X392087D01*
X394706D02*
X400887D01*
X402639D02*
X410639D01*
X412123D02*
X418623D01*
X420491D02*
X425239D01*
X350102Y329019D02*
X356366D01*
X359664D02*
X364515D01*
X366638D02*
X374494D01*
X376309D02*
X384000D01*
X385515D02*
X392085D01*
X394659D02*
X400948D01*
X402659D02*
X410601D01*
X412141D02*
X418644D01*
X420498D02*
X425267D01*
X350121Y329113D02*
X356387D01*
X359477D02*
X364796D01*
X366656D02*
X374470D01*
X376370D02*
X384019D01*
X385561D02*
X392085D01*
X394612D02*
X400994D01*
X402681D02*
X410563D01*
X412159D02*
X418665D01*
X420506D02*
X425296D01*
X350140Y329207D02*
X356408D01*
X359289D02*
X365077D01*
X366675D02*
X374447D01*
X376431D02*
X384037D01*
X385608D02*
X392085D01*
X394565D02*
X401041D01*
X402702D02*
X410524D01*
X412176D02*
X418686D01*
X420513D02*
X425325D01*
X350159Y329300D02*
X356430D01*
X359196D02*
X365124D01*
X366694D02*
X374423D01*
X376492D02*
X384056D01*
X385655D02*
X392085D01*
X394612D02*
X401088D01*
X402723D02*
X410486D01*
X412194D02*
X418707D01*
X420520D02*
X425354D01*
X350177Y329394D02*
X356451D01*
X359102D02*
X365170D01*
X366713D02*
X374400D01*
X376553D02*
X384075D01*
X385702D02*
X392085D01*
X394659D02*
X401135D01*
X402744D02*
X410448D01*
X412212D02*
X418728D01*
X420527D02*
X425383D01*
X350196Y329488D02*
X356472D01*
X359014D02*
X365217D01*
X366731D02*
X374376D01*
X376614D02*
X384094D01*
X385747D02*
X392085D01*
X394706D02*
X401180D01*
X402765D02*
X410409D01*
X412230D02*
X418749D01*
X420535D02*
X425411D01*
X350215Y329581D02*
X356493D01*
X359014D02*
X365264D01*
X366750D02*
X374353D01*
X376675D02*
X384112D01*
X385766D02*
X392085D01*
X394752D02*
X401199D01*
X402786D02*
X410371D01*
X412248D02*
X418770D01*
X420542D02*
X425441D01*
X350233Y329675D02*
X356515D01*
X359014D02*
X365311D01*
X366769D02*
X374330D01*
X376735D02*
X384131D01*
X385785D02*
X392085D01*
X394799D02*
X401218D01*
X402807D02*
X410333D01*
X412266D02*
X418791D01*
X420549D02*
X425469D01*
X350252Y329769D02*
X356539D01*
X359025D02*
X365355D01*
X366788D02*
X374306D01*
X376796D02*
X384150D01*
X385804D02*
X392093D01*
X394841D02*
X401237D01*
X402828D02*
X410294D01*
X412283D02*
X418813D01*
X420556D02*
X425498D01*
X350271Y329863D02*
X356586D01*
X359119D02*
X365379D01*
X366806D02*
X374283D01*
X376857D02*
X384169D01*
X385822D02*
X392163D01*
X394841D02*
X401255D01*
X402849D02*
X410256D01*
X412302D02*
X418833D01*
X420563D02*
X425527D01*
X350290Y329956D02*
X356633D01*
X359212D02*
X365402D01*
X366825D02*
X374259D01*
X376919D02*
X384187D01*
X385841D02*
X392233D01*
X394841D02*
X401274D01*
X402870D02*
X410217D01*
X412319D02*
X418855D01*
X420570D02*
X425556D01*
X350308Y330050D02*
X356680D01*
X359284D02*
X365426D01*
X366844D02*
X374236D01*
X376979D02*
X384206D01*
X385859D02*
X392304D01*
X394835D02*
X401293D01*
X402891D02*
X410179D01*
X412337D02*
X418876D01*
X420578D02*
X425585D01*
X350327Y330144D02*
X356726D01*
X359253D02*
X365449D01*
X366863D02*
X374213D01*
X377040D02*
X384225D01*
X385878D02*
X392374D01*
X394804D02*
X401311D01*
X402913D02*
X410141D01*
X412355D02*
X418897D01*
X420585D02*
X425613D01*
X350346Y330237D02*
X356773D01*
X359221D02*
X365472D01*
X366881D02*
X374189D01*
X377101D02*
X384244D01*
X385897D02*
X392444D01*
X394772D02*
X401330D01*
X402934D02*
X410102D01*
X412373D02*
X418918D01*
X420592D02*
X425642D01*
X350365Y330331D02*
X356820D01*
X359190D02*
X365496D01*
X366900D02*
X374166D01*
X377162D02*
X384262D01*
X385916D02*
X392515D01*
X394741D02*
X401349D01*
X402955D02*
X410064D01*
X412391D02*
X418939D01*
X420599D02*
X425671D01*
X350383Y330425D02*
X356867D01*
X359159D02*
X365519D01*
X366919D02*
X374142D01*
X377223D02*
X384281D01*
X385935D02*
X392585D01*
X394710D02*
X401368D01*
X402976D02*
X410026D01*
X412409D02*
X418960D01*
X420607D02*
X425700D01*
X350402Y330519D02*
X356914D01*
X359128D02*
X365543D01*
X366937D02*
X374119D01*
X377284D02*
X384300D01*
X385953D02*
X392655D01*
X394679D02*
X401386D01*
X402997D02*
X409987D01*
X412426D02*
X418981D01*
X420614D02*
X425729D01*
X350421Y330612D02*
X356961D01*
X359096D02*
X365566D01*
X366956D02*
X374095D01*
X377344D02*
X384319D01*
X385972D02*
X392726D01*
X394648D02*
X401405D01*
X403018D02*
X409949D01*
X412444D02*
X419002D01*
X420621D02*
X425757D01*
X350440Y330706D02*
X357007D01*
X359065D02*
X365589D01*
X366975D02*
X374072D01*
X377406D02*
X384337D01*
X385991D02*
X392796D01*
X394617D02*
X401424D01*
X403039D02*
X409911D01*
X412462D02*
X419023D01*
X420628D02*
X425786D01*
X350458Y330800D02*
X357054D01*
X359034D02*
X365613D01*
X366994D02*
X374048D01*
X377467D02*
X384356D01*
X386009D02*
X392866D01*
X394585D02*
X401443D01*
X403060D02*
X409872D01*
X412480D02*
X419044D01*
X420635D02*
X425815D01*
X350493Y330893D02*
X357217D01*
X358915D02*
X365628D01*
X367013D02*
X374025D01*
X377528D02*
X384375D01*
X386033D02*
X393011D01*
X394466D02*
X401455D01*
X403081D02*
X409834D01*
X412498D02*
X419065D01*
X420643D02*
X425844D01*
X350555Y330987D02*
X357592D01*
X358633D02*
X365628D01*
X367031D02*
X374002D01*
X377588D02*
X384393D01*
X386064D02*
X393292D01*
X394185D02*
X401455D01*
X403102D02*
X409796D01*
X412516D02*
X419087D01*
X420650D02*
X425873D01*
X350617Y331081D02*
X357967D01*
X358352D02*
X365628D01*
X367050D02*
X373978D01*
X377649D02*
X384412D01*
X386095D02*
X393573D01*
X393904D02*
X401455D01*
X403123D02*
X409757D01*
X412533D02*
X419108D01*
X420657D02*
X425902D01*
X350680Y331174D02*
X365628D01*
X367069D02*
X373955D01*
X377710D02*
X384431D01*
X386126D02*
X401455D01*
X403144D02*
X409719D01*
X412551D02*
X419129D01*
X420664D02*
X425931D01*
X350743Y331268D02*
X365628D01*
X367087D02*
X373931D01*
X377771D02*
X384450D01*
X386157D02*
X401455D01*
X403166D02*
X409681D01*
X412569D02*
X419150D01*
X420671D02*
X425959D01*
X350805Y331362D02*
X365628D01*
X367106D02*
X373908D01*
X377832D02*
X384469D01*
X386189D02*
X401455D01*
X403187D02*
X409643D01*
X412587D02*
X419171D01*
X420679D02*
X425988D01*
X350867Y331456D02*
X365606D01*
X367125D02*
X373885D01*
X377893D02*
X384487D01*
X386220D02*
X401455D01*
X403208D02*
X409604D01*
X412605D02*
X419192D01*
X420686D02*
X426017D01*
X350930Y331549D02*
X365559D01*
X367144D02*
X373861D01*
X377954D02*
X384506D01*
X386251D02*
X401455D01*
X403229D02*
X409566D01*
X412623D02*
X419213D01*
X420693D02*
X426046D01*
X350992Y331643D02*
X365512D01*
X367163D02*
X373838D01*
X378015D02*
X384525D01*
X386283D02*
X401455D01*
X403250D02*
X409528D01*
X412641D02*
X419234D01*
X420700D02*
X426075D01*
X351071Y331737D02*
X365465D01*
X367181D02*
X373814D01*
X378076D02*
X384543D01*
X386347D02*
X401455D01*
X403271D02*
X409489D01*
X412658D02*
X419255D01*
X420707D02*
X426104D01*
X351165Y331830D02*
X365419D01*
X367200D02*
X373791D01*
X378137D02*
X384562D01*
X386441D02*
X401455D01*
X403292D02*
X409451D01*
X412676D02*
X419276D01*
X420715D02*
X426132D01*
X351259Y331924D02*
X365372D01*
X367219D02*
X373767D01*
X378197D02*
X384581D01*
X386534D02*
X401455D01*
X403313D02*
X409413D01*
X412694D02*
X419297D01*
X420722D02*
X426161D01*
X351352Y332018D02*
X365297D01*
X367237D02*
X373744D01*
X378258D02*
X384600D01*
X386628D02*
X401400D01*
X403334D02*
X409374D01*
X412712D02*
X419319D01*
X420729D02*
X426190D01*
X351446Y332111D02*
X365204D01*
X367256D02*
X373720D01*
X378319D02*
X384619D01*
X386722D02*
X401306D01*
X403356D02*
X409336D01*
X412730D02*
X419340D01*
X420736D02*
X426219D01*
X351540Y332205D02*
X365110D01*
X367275D02*
X373697D01*
X378380D02*
X384637D01*
X386815D02*
X401212D01*
X403376D02*
X409298D01*
X412748D02*
X419361D01*
X420744D02*
X426248D01*
X351633Y332299D02*
X365016D01*
X367342D02*
X373674D01*
X378441D02*
X384644D01*
X386909D02*
X401119D01*
X403414D02*
X409259D01*
X412815D02*
X419338D01*
X420807D02*
X426258D01*
X351727Y332393D02*
X364922D01*
X367436D02*
X373650D01*
X378502D02*
X384644D01*
X387003D02*
X401025D01*
X403461D02*
X409221D01*
X412908D02*
X419291D01*
X420900D02*
X426258D01*
X351821Y332486D02*
X364829D01*
X367530D02*
X373627D01*
X378563D02*
X384644D01*
X387096D02*
X400931D01*
X403508D02*
X409183D01*
X413002D02*
X419244D01*
X420994D02*
X426258D01*
X352047Y332580D02*
X364603D01*
X367623D02*
X373554D01*
X378713D02*
X384644D01*
X387389D02*
X400705D01*
X403555D02*
X409105D01*
X413096D02*
X419197D01*
X421088D02*
X426258D01*
X352328Y332674D02*
X364322D01*
X367717D02*
X373460D01*
X378900D02*
X384644D01*
X387763D02*
X400424D01*
X403602D02*
X409011D01*
X413189D02*
X419150D01*
X421181D02*
X426258D01*
X352609Y332767D02*
X364041D01*
X367811D02*
X373367D01*
X379088D02*
X384644D01*
X388138D02*
X400143D01*
X403648D02*
X408918D01*
X413283D02*
X419104D01*
X421275D02*
X426258D01*
X352962Y332861D02*
X363759D01*
X367976D02*
X373201D01*
X379275D02*
X384500D01*
X388513D02*
X399862D01*
X403803D02*
X408752D01*
X413448D02*
X418949D01*
X421441D02*
X426115D01*
X353337Y332955D02*
X363478D01*
X368163D02*
X373014D01*
X379463D02*
X384313D01*
X388888D02*
X399581D01*
X403990D02*
X408565D01*
X413636D02*
X418762D01*
X421628D02*
X425927D01*
X353711Y333048D02*
X363197D01*
X368351D02*
X372826D01*
X379650D02*
X384126D01*
X389263D02*
X399300D01*
X404178D02*
X408378D01*
X413823D02*
X418574D01*
X421815D02*
X425740D01*
D02*
D90*
X165156Y45053D02*
Y107415D01*
X192439Y41156D02*
X169053D01*
X0Y0D02*
M02*
