%FSLAX35Y35*%
%MOIN*%
G04 EasyPC Gerber Version 18.0.8 Build 3632 *
%ADD10C,0.00500*%
X0Y0D02*
D02*
D10*
X113325Y305927D02*
X113012Y305614D01*
X112387Y305302*
X111762Y305614*
X111450Y305927*
Y309052*
X110825*
X111450D02*
X112700D01*
X108325Y305302D02*
Y309052D01*
X106137*
X105512Y308739*
X105200Y308114*
X105512Y307489*
X106137Y307177*
X108325*
X101762Y305302D02*
Y309052D01*
X103325Y306552*
X100825*
X113856Y311785D02*
Y361785D01*
X93856*
Y311785*
X113856*
X271652Y160946D02*
X271339Y160634D01*
X270714Y160321*
X270089Y160634*
X269776Y160946*
Y164071*
X269152*
X269776D02*
X271026D01*
X266652Y160321D02*
Y164071D01*
X264464*
X263839Y163759*
X263526Y163134*
X263839Y162509*
X264464Y162196*
X266652*
X261652Y160634D02*
X261026Y160321D01*
X260089*
X259464Y160634*
X259152Y161259*
Y161571*
X259464Y162196*
X260089Y162509*
X261652*
Y164071*
X259152*
X271652Y169384D02*
Y209384D01*
X251652*
Y169384*
X271652*
X336376Y311667D02*
X296376D01*
Y291667*
X336376*
Y311667*
X344813D02*
X345126Y311355D01*
X345439Y310730*
X345126Y310105*
X344813Y309792*
X341689*
Y309167*
Y309792D02*
Y311042D01*
X345439Y306667D02*
X341689D01*
Y304480*
X342001Y303855*
X342626Y303542*
X343251Y303855*
X343563Y304480*
Y306667*
X345126Y301355D02*
X345439Y300730D01*
Y300105*
X345126Y299480*
X344501Y299167*
X343876Y299480*
X343563Y300105*
Y300730*
Y300105D02*
X343251Y299480D01*
X342626Y299167*
X342001Y299480*
X341689Y300105*
Y300730*
X342001Y301355*
X430825Y148427D02*
X430512Y148114D01*
X429887Y147802*
X429262Y148114*
X428950Y148427*
Y151552*
X428325*
X428950D02*
X430200D01*
X425825Y147802D02*
Y151552D01*
X423637*
X423012Y151239*
X422700Y150614*
X423012Y149989*
X423637Y149677*
X425825*
X420825Y148739D02*
X420512Y149364D01*
X419887Y149677*
X419262*
X418637Y149364*
X418325Y148739*
X418637Y148114*
X419262Y147802*
X419887*
X420512Y148114*
X420825Y148739*
Y149677*
X420512Y150614*
X419887Y151239*
X419262Y151552*
X430982Y154187D02*
Y184187D01*
X420982*
Y154187*
X430982*
X0Y0D02*
M02*
