%FSLAX35Y35*%
%MOIN*%
G04 EasyPC Gerber Version 18.0.8 Build 3632 *
%ADD25O,0.06000X0.11000*%
%ADD92R,0.01180X0.03937*%
%ADD97R,0.03937X0.03937*%
%ADD18R,0.07874X0.07874*%
%ADD10C,0.00500*%
%ADD29C,0.00800*%
%ADD12C,0.01000*%
%ADD27C,0.01575*%
%ADD16C,0.06000*%
%ADD134C,0.07000*%
%ADD93C,0.07087*%
%ADD26C,0.07874*%
%ADD17C,0.08661*%
%ADD71C,0.09843*%
%ADD94C,0.11024*%
%ADD91R,0.03937X0.01180*%
%ADD96R,0.08902X0.01496*%
X0Y0D02*
D02*
D10*
X96054Y350789D02*
G75*
G02X103705Y347394I2803J-4003D01*
G01*
G75*
G02X108247Y351937I5151J-609*
G01*
G75*
G02X108856Y361672I609J4849*
G01*
G75*
G02X109465Y351937J-4887*
G01*
G75*
G02Y341634I-609J-5151*
G01*
G75*
G02X108856Y331898I-609J-4849*
G01*
G75*
G02X104813Y339530J4887*
G01*
X103404Y340939*
X101432*
G75*
G02X98856Y331898I-2576J-4153*
G01*
G75*
G02X96281Y340939J4887*
G01*
X95745*
X93404Y338597*
Y293793*
X148304Y238892*
X162597*
X166513Y242808*
Y262356*
G75*
G02X166819Y263094I1044J0*
G01*
X174788Y271063*
X173426*
X164644Y262281*
G75*
G02X161469Y254616I-4606J-2582*
G01*
Y251002*
G75*
G02X165318Y245919I-1431J-5083*
G01*
G75*
G02X155200Y243801I-5281*
G01*
G75*
G02X144457Y245919I-5163J2119*
G01*
G75*
G02X155200Y248038I5581*
G01*
G75*
G02X158606Y251002I4837J-2119*
G01*
Y254616*
G75*
G02X155200Y257580I1431J5083*
G01*
G75*
G02X144457Y259699I-5163J2119*
G01*
G75*
G02X155200Y261817I5581*
G01*
G75*
G02X162620Y264305I4837J-2119*
G01*
X171821Y273506*
G75*
G02X172833Y273925I1012J-1012*
G01*
X175362*
Y276301*
X175663*
Y278140*
X164850Y267327*
G75*
G02X164112Y267021I-738J738*
G01*
X121593*
G75*
G02X120854Y267327I0J1044*
G01*
X98118Y290063*
G75*
G02X97813Y290801I738J738*
G01*
Y312011*
G75*
G02X98856Y321672I1044J4774*
G01*
G75*
G02X102576Y319955J-4887*
G01*
Y321766*
G75*
G02X102928Y322615I1201J0*
G01*
X104635Y324322*
G75*
G02X108856Y331672I4221J2463*
G01*
G75*
G02Y321898J-4887*
G01*
G75*
G02X106319Y322609J4887*
G01*
X104979Y321268*
Y319760*
G75*
G02X108856Y321672I3878J-2974*
G01*
G75*
G02Y311898J-4887*
G01*
G75*
G02X104979Y313811J4887*
G01*
Y290315*
X123763Y271530*
X162335*
X173991Y283186*
G75*
G02X174074Y283261I851J-848*
G01*
X170548*
X165736Y278449*
G75*
G02X164998Y278143I-738J738*
G01*
X127203*
G75*
G02X126465Y278449I0J1044*
G01*
X117213Y287701*
G75*
G02X116907Y288439I738J738*
G01*
Y369541*
G75*
G02X117213Y370280I1044J0*
G01*
X130788Y383855*
G75*
G02X130595Y387081I3501J1828*
G01*
X102957Y359444*
G75*
G02X98856Y351898I-4101J-2658*
G01*
G75*
G02Y361672J4887*
G01*
G75*
G02X101194Y361077J-4887*
G01*
X143676Y403560*
G75*
G02X144526Y403912I850J-849*
G01*
X198069*
G75*
G02X198911Y403567I0J-1201*
G01*
X205112Y397465*
G75*
G02X205119Y397457I-885J-843*
G01*
X209942Y392635*
G75*
G02X210017Y392552I-848J-851*
G01*
Y392830*
X205573Y397274*
G75*
G02X205106Y397543I271J1008*
G01*
X197440Y405210*
X107753*
X93502Y390959*
Y353340*
X96054Y350789*
X98856Y321898D02*
G75*
G02Y331672J4887D01*
G01*
G75*
G02Y321898J-4887*
G01*
X93404Y326785D02*
G36*
Y293793D01*
X148304Y238892*
X162597*
X166513Y242808*
Y262356*
G75*
G02X166819Y263094I1044J0*
G01*
X174788Y271063*
X173426*
X164644Y262281*
G75*
G02X161469Y254616I-4606J-2582*
G01*
Y251002*
G75*
G02X165318Y245919I-1431J-5083*
G01*
G75*
G02X155200Y243801I-5281*
G01*
G75*
G02X144457Y245919I-5163J2119*
G01*
G75*
G02X155200Y248038I5581*
G01*
G75*
G02X158606Y251002I4837J-2119*
G01*
Y254616*
G75*
G02X155200Y257580I1431J5083*
G01*
G75*
G02X144457Y259699I-5163J2119*
G01*
G75*
G02X155200Y261817I5581*
G01*
G75*
G02X162620Y264305I4837J-2119*
G01*
X171821Y273506*
G75*
G02X172833Y273925I1012J-1012*
G01*
X175362*
Y276301*
X175663*
Y278140*
X164850Y267327*
G75*
G02X164112Y267021I-738J738*
G01*
X121593*
G75*
G02X120854Y267327I0J1044*
G01*
X98118Y290063*
G75*
G02X97813Y290801I738J738*
G01*
Y312011*
G75*
G02X98856Y321672I1044J4774*
G01*
G75*
G02X102576Y319955J-4887*
G01*
Y321766*
G75*
G02X102928Y322615I1201J0*
G01*
X104635Y324322*
G75*
G02X103969Y326785I4221J2463*
G01*
X103743*
G75*
G02X98856Y321898I-4887*
G01*
G75*
G02X93969Y326785J4887*
G01*
X93404*
G37*
X93969D02*
G36*
G75*
G02X98856Y331672I4887D01*
G01*
G75*
G02X103743Y326785J-4887*
G01*
X103969*
G75*
G02X108856Y331672I4887*
G01*
G75*
G02Y321898J-4887*
G01*
G75*
G02X106319Y322609J4887*
G01*
X104979Y321268*
Y319760*
G75*
G02X108856Y321672I3878J-2974*
G01*
G75*
G02Y311898J-4887*
G01*
G75*
G02X104979Y313811J4887*
G01*
Y290315*
X123763Y271530*
X162335*
X173991Y283186*
G75*
G02X174074Y283261I851J-848*
G01*
X170548*
X165736Y278449*
G75*
G02X164998Y278143I-738J738*
G01*
X127203*
G75*
G02X126465Y278449I0J1044*
G01*
X117213Y287701*
G75*
G02X116907Y288439I738J738*
G01*
Y369541*
G75*
G02X117213Y370280I1044J0*
G01*
X130788Y383855*
G75*
G02X130595Y387081I3501J1828*
G01*
X102957Y359444*
G75*
G02X98856Y351898I-4101J-2658*
G01*
G75*
G02Y361672J4887*
G01*
G75*
G02X101194Y361077J-4887*
G01*
X143676Y403560*
G75*
G02X144526Y403912I850J-849*
G01*
X198069*
G75*
G02X198911Y403567I0J-1201*
G01*
X205112Y397465*
G75*
G02X205119Y397457I-885J-843*
G01*
X209942Y392635*
G75*
G02X210017Y392552I-848J-851*
G01*
Y392830*
X205573Y397274*
G75*
G02X205106Y397543I271J1008*
G01*
X197440Y405210*
X107753*
X93502Y390959*
Y353340*
X96054Y350789*
G75*
G02X103705Y347394I2803J-4003*
G01*
G75*
G02X108247Y351937I5151J-609*
G01*
G75*
G02X108856Y361672I609J4849*
G01*
G75*
G02X109465Y351937J-4887*
G01*
G75*
G02Y341634I-609J-5151*
G01*
G75*
G02X108856Y331898I-609J-4849*
G01*
G75*
G02X104813Y339530J4887*
G01*
X103404Y340939*
X101432*
G75*
G02X98856Y331898I-2576J-4153*
G01*
G75*
G02X96281Y340939J4887*
G01*
X95745*
X93404Y338597*
Y326785*
X93969*
G37*
X99900Y312011D02*
Y291233D01*
X122025Y269109*
X163680*
X175663Y281092*
Y281135*
X175338*
X164177Y269975*
G75*
G02X163030Y269128I-1148J354*
G01*
X123266*
G75*
G02X122417Y269480I0J1201*
G01*
X102928Y288968*
G75*
G02X102576Y289817I849J850*
G01*
Y313616*
G75*
G02X99900Y312011I-3720J3169*
G01*
G36*
Y291233*
X122025Y269109*
X163680*
X175663Y281092*
Y281135*
X175338*
X164177Y269975*
G75*
G02X163030Y269128I-1148J354*
G01*
X123266*
G75*
G02X122417Y269480I0J1201*
G01*
X102928Y288968*
G75*
G02X102576Y289817I849J850*
G01*
Y313616*
G75*
G02X99900Y312011I-3720J3169*
G01*
G37*
X101979Y343026D02*
X103837D01*
G75*
G02X104575Y342720I0J-1044*
G01*
X106328Y340967*
G75*
G02X108247Y341634I2529J-4182*
G01*
G75*
G02X103705Y346176I609J5151*
G01*
G75*
G02X101979Y343026I-4849J609*
G01*
G36*
X103837*
G75*
G02X104575Y342720I0J-1044*
G01*
X106328Y340967*
G75*
G02X108247Y341634I2529J-4182*
G01*
G75*
G02X103705Y346176I609J5151*
G01*
G75*
G02X101979Y343026I-4849J609*
G01*
G37*
X132210Y382325D02*
X118994Y369109D01*
Y288871*
X127635Y280231*
X164566*
X169378Y285043*
G75*
G02X169632Y285230I737J-739*
G01*
X162225*
G75*
G02X152932Y287494I-4117J3307*
G01*
X143757*
G75*
G02X133744Y286419I-5176J1044*
G01*
G75*
G02X123000Y288537I-5163J2119*
G01*
G75*
G02X133744Y290656I5581*
G01*
G75*
G02X143757Y289581I4837J-2119*
G01*
X152932*
G75*
G02X158108Y293818I5176J-1044*
G01*
G75*
G02X163246Y287317J-5281*
G01*
X175452*
G75*
G02X175369Y287393I768J923*
G01*
X164444Y298318*
G75*
G02X164092Y299167I849J850*
G01*
Y300933*
X160943Y304082*
G75*
G02X153006Y307179I-2835J4455*
G01*
X143757*
G75*
G02X133744Y306104I-5176J1044*
G01*
G75*
G02X123000Y308222I-5163J2119*
G01*
G75*
G02X133744Y310341I5581*
G01*
G75*
G02X143757Y309266I4837J-2119*
G01*
X152878*
G75*
G02X158108Y313818I5230J-729*
G01*
G75*
G02X162624Y305800J-5281*
G01*
X166143Y302280*
G75*
G02X166494Y301431I-849J-850*
G01*
Y299665*
X175663Y290496*
Y297656*
X180618*
G75*
G02X183931Y300965I2883J426*
G01*
Y302613*
G75*
G02X183882Y303006I1540J393*
G01*
Y303719*
X177860Y309650*
G75*
G02X177386Y310781I1115J1132*
G01*
Y313560*
G75*
G02X176856Y323433I1589J5036*
G01*
G75*
G02X178974Y334177I2119J5163*
G01*
G75*
G02X181093Y323433J-5581*
G01*
G75*
G02X180563Y313560I-2119J-4837*
G01*
Y311446*
X185865Y306224*
X188364*
Y314806*
G75*
G02X190332Y317666I1044J1389*
G01*
Y322286*
G75*
G02X192301Y325146I1044J1389*
G01*
Y341204*
G75*
G02X189407Y340442I-2893J5109*
G01*
G75*
G02Y352184J5871*
G01*
G75*
G02X194269Y349605J-5871*
G01*
Y356057*
G75*
G02X194575Y356795I1044J0*
G01*
X198317Y360537*
G75*
G02X198300Y360781I1720J245*
G01*
G75*
G02X201775I1737*
G01*
G75*
G02X199793Y359061I-1737*
G01*
X196357Y355625*
Y351324*
G75*
G02X196543Y351579I925J-483*
G01*
X198514Y353549*
G75*
G02X198497Y353793I1720J245*
G01*
G75*
G02X201972I1737*
G01*
G75*
G02X199990Y352073I-1737*
G01*
X198325Y350408*
Y308807*
G75*
G02X200294Y305948I925J-1471*
G01*
Y305923*
X202143*
Y393251*
G75*
G02X202830Y396340I1044J1389*
G01*
X197577Y401509*
X145023*
X132891Y389377*
G75*
G02X138239Y385683I1398J-3694*
G01*
G75*
G02X132210Y382325I-3950*
G01*
X138239Y345683D02*
G75*
G02X130339I-3950D01*
G01*
G75*
G02X138239I3950*
G01*
X152019D02*
G75*
G02X144119I-3950D01*
G01*
G75*
G02X152019I3950*
G01*
X152319Y385683D02*
G75*
G02X143819I-4250D01*
G01*
G75*
G02X152319I4250*
G01*
X163817Y340442D02*
G75*
G02Y352184J5871D01*
G01*
G75*
G02Y340442J-5871*
G01*
Y358158D02*
G75*
G02Y369901J5871D01*
G01*
G75*
G02Y358158J-5871*
G01*
Y371638D02*
G75*
G02Y383980J6171D01*
G01*
G75*
G02Y371638J-6171*
G01*
Y389654D02*
G75*
G02Y401397J5871D01*
G01*
G75*
G02Y389654J-5871*
G01*
X189407Y358158D02*
G75*
G02Y369901J5871D01*
G01*
G75*
G02Y358158J-5871*
G01*
Y371638D02*
G75*
G02Y383980J6171D01*
G01*
G75*
G02Y371638J-6171*
G01*
Y389654D02*
G75*
G02Y401397J5871D01*
G01*
G75*
G02Y389654J-5871*
G01*
X118994Y345683D02*
G36*
Y288871D01*
X127635Y280231*
X164566*
X169378Y285043*
G75*
G02X169632Y285230I737J-739*
G01*
X162225*
G75*
G02X152932Y287494I-4117J3307*
G01*
X143757*
G75*
G02X133744Y286419I-5176J1044*
G01*
G75*
G02X123000Y288537I-5163J2119*
G01*
G75*
G02X133744Y290656I5581*
G01*
G75*
G02X143757Y289581I4837J-2119*
G01*
X152932*
G75*
G02X158108Y293818I5176J-1044*
G01*
G75*
G02X163246Y287317J-5281*
G01*
X175452*
G75*
G02X175369Y287393I768J923*
G01*
X164444Y298318*
G75*
G02X164092Y299167I849J850*
G01*
Y300933*
X160943Y304082*
G75*
G02X153006Y307179I-2835J4455*
G01*
X143757*
G75*
G02X133744Y306104I-5176J1044*
G01*
G75*
G02X123000Y308222I-5163J2119*
G01*
G75*
G02X133744Y310341I5581*
G01*
G75*
G02X143757Y309266I4837J-2119*
G01*
X152878*
G75*
G02X158108Y313818I5230J-729*
G01*
G75*
G02X162624Y305800J-5281*
G01*
X166143Y302280*
G75*
G02X166494Y301431I-849J-850*
G01*
Y299665*
X175663Y290496*
Y297656*
X180618*
G75*
G02X183931Y300965I2883J426*
G01*
Y302613*
G75*
G02X183882Y303006I1540J393*
G01*
Y303719*
X177860Y309650*
G75*
G02X177386Y310781I1115J1132*
G01*
Y313560*
G75*
G02X176856Y323433I1589J5036*
G01*
G75*
G02X178974Y334177I2119J5163*
G01*
G75*
G02X181093Y323433J-5581*
G01*
G75*
G02X180563Y313560I-2119J-4837*
G01*
Y311446*
X185865Y306224*
X188364*
Y314806*
G75*
G02X190332Y317666I1044J1389*
G01*
Y322286*
G75*
G02X192301Y325146I1044J1389*
G01*
Y341204*
G75*
G02X189407Y340442I-2893J5109*
G01*
G75*
G02X183570Y345683J5871*
G01*
X169654*
G75*
G02X163817Y340442I-5837J630*
G01*
G75*
G02X157980Y345683J5871*
G01*
X152019*
G75*
G02X144119I-3950*
G01*
X138239*
G75*
G02X130339I-3950*
G01*
X118994*
G37*
X130339D02*
G36*
G75*
G02X138239I3950D01*
G01*
X144119*
G75*
G02X152019I3950*
G01*
X157980*
G75*
G02X163817Y352184I5837J630*
G01*
G75*
G02X169654Y345683J-5871*
G01*
X183570*
G75*
G02X189407Y352184I5837J630*
G01*
G75*
G02X194269Y349605J-5871*
G01*
Y356057*
G75*
G02X194575Y356795I1044J0*
G01*
X198317Y360537*
G75*
G02X198300Y360781I1720J245*
G01*
G75*
G02X201775I1737*
G01*
G75*
G02X199793Y359061I-1737*
G01*
X196357Y355625*
Y351324*
G75*
G02X196543Y351579I925J-483*
G01*
X198514Y353549*
G75*
G02X198497Y353793I1720J245*
G01*
G75*
G02X201972I1737*
G01*
G75*
G02X199990Y352073I-1737*
G01*
X198325Y350408*
Y308807*
G75*
G02X200294Y305948I925J-1471*
G01*
Y305923*
X202143*
Y364030*
X195279*
G75*
G02X189407Y358158I-5871*
G01*
G75*
G02X183536Y364030J5871*
G01*
X169688*
G75*
G02X163817Y358158I-5871*
G01*
G75*
G02X157946Y364030J5871*
G01*
X118994*
Y345683*
X130339*
G37*
X138239Y385683D02*
G36*
G75*
G02X132210Y382325I-3950D01*
G01*
X127694Y377809*
X157646*
G75*
G02X163817Y383980I6171*
G01*
G75*
G02X169988Y377809J-6171*
G01*
X183236*
G75*
G02X189407Y383980I6171*
G01*
G75*
G02X195579Y377809J-6171*
G01*
X202143*
Y385683*
X152319*
G75*
G02X143819I-4250*
G01*
X138239*
G37*
X143819D02*
G36*
G75*
G02X152319I4250D01*
G01*
X202143*
Y393251*
G75*
G02X201693Y395526I1044J1389*
G01*
X195279*
G75*
G02X189407Y389654I-5871*
G01*
G75*
G02X183536Y395526J5871*
G01*
X169688*
G75*
G02X163817Y389654I-5871*
G01*
G75*
G02X157946Y395526J5871*
G01*
X139039*
X132891Y389377*
G75*
G02X138239Y385683I1398J-3694*
G01*
X143819*
G37*
X157946Y364030D02*
G36*
G75*
G02X163817Y369901I5871D01*
G01*
G75*
G02X169688Y364030J-5871*
G01*
X183536*
G75*
G02X189407Y369901I5871*
G01*
G75*
G02X195279Y364030J-5871*
G01*
X202143*
Y377809*
X195579*
G75*
G02X189407Y371638I-6171*
G01*
G75*
G02X183236Y377809J6171*
G01*
X169988*
G75*
G02X163817Y371638I-6171*
G01*
G75*
G02X157646Y377809J6171*
G01*
X127694*
X118994Y369109*
Y364030*
X157946*
G37*
Y395526D02*
G36*
G75*
G02X163817Y401397I5871D01*
G01*
G75*
G02X169688Y395526J-5871*
G01*
X183536*
G75*
G02X189407Y401397I5871*
G01*
G75*
G02X195279Y395526J-5871*
G01*
X201693*
G75*
G02X202830Y396340I1494J-886*
G01*
X197577Y401509*
X145023*
X139039Y395526*
X157946*
G37*
X176355Y91385D02*
G75*
G02X179021Y90257I-609J-5152D01*
G01*
G75*
G02X182471I1725J-6227*
G01*
G75*
G02X185137Y91385I3275J-4023*
G01*
G75*
G02X181871Y93257I609J4849*
G01*
G75*
G02X180746Y93158I-1126J6363*
G01*
G75*
G02X179621Y93257I1J6462*
G01*
G75*
G02X176355Y91385I-3876J2977*
G01*
G36*
G75*
G02X179021Y90257I-609J-5152*
G01*
G75*
G02X182471I1725J-6227*
G01*
G75*
G02X185137Y91385I3275J-4023*
G01*
G75*
G02X181871Y93257I609J4849*
G01*
G75*
G02X180746Y93158I-1126J6363*
G01*
G75*
G02X179621Y93257I1J6462*
G01*
G75*
G02X176355Y91385I-3876J2977*
G01*
G37*
X186665Y251113D02*
G75*
G02X190175Y247454I-1589J-5036D01*
G01*
Y255669*
X186665Y252239*
Y251113*
G36*
G75*
G02X190175Y247454I-1589J-5036*
G01*
Y255669*
X186665Y252239*
Y251113*
G37*
X187195Y241240D02*
G75*
G02X190175Y238347I-2119J-5163D01*
G01*
Y244700*
G75*
G02X187195Y241240I-5098J1377*
G01*
G36*
G75*
G02X190175Y238347I-2119J-5163*
G01*
Y244700*
G75*
G02X187195Y241240I-5098J1377*
G01*
G37*
X204231Y305923D02*
X207891D01*
Y391288*
X204889Y394290*
G75*
G02X204231Y393251I-1702J350*
G01*
Y305923*
G36*
X207891*
Y391288*
X204889Y394290*
G75*
G02X204231Y393251I-1702J350*
G01*
Y305923*
G37*
X205742Y252608D02*
X205609Y252475D01*
Y232670*
X205822Y232457*
G75*
G02X205726Y232927I1106J470*
G01*
Y252415*
G75*
G02X205742Y252608I1200J-1*
G01*
G36*
X205609Y252475*
Y232670*
X205822Y232457*
G75*
G02X205726Y232927I1106J470*
G01*
Y252415*
G75*
G02X205742Y252608I1200J-1*
G01*
G37*
X208128Y239498D02*
G75*
G02X210419Y241240I4409J-3421D01*
G01*
G75*
G02X208128Y243170I2119J4837*
G01*
Y239498*
G36*
G75*
G02X210419Y241240I4409J-3421*
G01*
G75*
G02X208128Y243170I2119J4837*
G01*
Y239498*
G37*
Y248983D02*
G75*
G02X211986Y251329I4409J-2906D01*
G01*
Y255783*
G75*
G02X211910Y255700I-923J768*
G01*
X208128Y251918*
Y248983*
G36*
G75*
G02X211986Y251329I4409J-2906*
G01*
Y255783*
G75*
G02X211910Y255700I-923J768*
G01*
X208128Y251918*
Y248983*
G37*
X214073Y251129D02*
G75*
G02X214656Y241240I-1536J-5052D01*
G01*
G75*
G02X216309Y231963I-2119J-5163*
G01*
X218139*
X230780Y244698*
G75*
G02X231632Y245054I853J-846*
G01*
X234091*
G75*
G02X232079Y247541I3151J4606*
G01*
G75*
G02X222050Y250623I-4837J2119*
G01*
X215891Y256781*
X214073*
Y251129*
G36*
G75*
G02X214656Y241240I-1536J-5052*
G01*
G75*
G02X216309Y231963I-2119J-5163*
G01*
X218139*
X230780Y244698*
G75*
G02X231632Y245054I853J-846*
G01*
X234091*
G75*
G02X232079Y247541I3151J4606*
G01*
G75*
G02X222050Y250623I-4837J2119*
G01*
X215891Y256781*
X214073*
Y251129*
G37*
Y391863D02*
G75*
G02X214154Y391951I924J-769D01*
G01*
X221513Y399217*
Y402293*
X214073*
Y391863*
G36*
G75*
G02X214154Y391951I924J-769*
G01*
X221513Y399217*
Y402293*
X214073*
Y391863*
G37*
X219269Y229739D02*
X220176D01*
X233089Y242651*
X232132*
X219493Y229916*
G75*
G02X219269Y229739I-853J847*
G01*
G36*
X220176*
X233089Y242651*
X232132*
X219493Y229916*
G75*
G02X219269Y229739I-853J847*
G01*
G37*
X224805Y287475D02*
X251115D01*
X252300Y288661*
G75*
G02X251711Y288478I-590J861*
G01*
X231730*
G75*
G02X230992Y288783I0J1044*
G01*
X228641Y291135*
X224805*
Y287475*
G36*
X251115*
X252300Y288661*
G75*
G02X251711Y288478I-590J861*
G01*
X231730*
G75*
G02X230992Y288783I0J1044*
G01*
X228641Y291135*
X224805*
Y287475*
G37*
X229557Y293104D02*
G75*
G02X229811Y292917I-483J-925D01*
G01*
X232163Y290565*
X233842*
G75*
G02X231619Y293104I2652J4566*
G01*
X229557*
G36*
G75*
G02X229811Y292917I-483J-925*
G01*
X232163Y290565*
X233842*
G75*
G02X231619Y293104I2652J4566*
G01*
X229557*
G37*
X239146Y290565D02*
X243286D01*
G75*
G02X241331Y293013I3208J4567*
G01*
G75*
G02X239146Y290565I-4837J2119*
G01*
G36*
X243286*
G75*
G02X241331Y293013I3208J4567*
G01*
G75*
G02X239146Y290565I-4837J2119*
G01*
G37*
X249702D02*
X251278D01*
X251553Y290840*
Y292775*
G75*
G02X249702Y290565I-5059J2357*
G01*
G36*
X251278*
X251553Y290840*
Y292775*
G75*
G02X249702Y290565I-5059J2357*
G01*
G37*
X257984Y241392D02*
X284581D01*
Y244748*
X284880*
Y248996*
X277452*
G75*
G02X267405Y247738I-5210J860*
G01*
G75*
G02X263121Y244345I-5163J2119*
G01*
G75*
G02X260200Y242651I-1666J-493*
G01*
X258107*
G75*
G02X257984Y241392I-1672J-472*
G01*
G36*
X284581*
Y244748*
X284880*
Y248996*
X277452*
G75*
G02X267405Y247738I-5210J860*
G01*
G75*
G02X263121Y244345I-5163J2119*
G01*
G75*
G02X260200Y242651I-1666J-493*
G01*
X258107*
G75*
G02X257984Y241392I-1672J-472*
G01*
G37*
X259630Y267356D02*
X267661Y259325D01*
X267827*
G75*
G02X267198Y260663I1108J1338*
G01*
G75*
G02X270324Y261707I1737*
G01*
X284880*
Y262041*
X277203*
G75*
G02X276354Y262393I0J1201*
G01*
X271390Y267356*
X259630*
G36*
X267661Y259325*
X267827*
G75*
G02X267198Y260663I1108J1338*
G01*
G75*
G02X270324Y261707I1737*
G01*
X284880*
Y262041*
X277203*
G75*
G02X276354Y262393I0J1201*
G01*
X271390Y267356*
X259630*
G37*
X266049Y253937D02*
G75*
G02X267405Y251975I-3807J-4081D01*
G01*
G75*
G02X269731Y254502I4837J-2119*
G01*
X266781*
G75*
G02X266049Y253937I-1389J1044*
G01*
G36*
G75*
G02X267405Y251975I-3807J-4081*
G01*
G75*
G02X269731Y254502I4837J-2119*
G01*
X266781*
G75*
G02X266049Y253937I-1389J1044*
G01*
G37*
X270043Y259325D02*
X284880D01*
Y259620*
X270324*
G75*
G02X270043Y259325I-1389J1044*
G01*
G36*
X284880*
Y259620*
X270324*
G75*
G02X270043Y259325I-1389J1044*
G01*
G37*
X274754Y254502D02*
G75*
G02X277129Y251858I-2511J-4645D01*
G01*
X284880*
Y254502*
X274754*
G36*
G75*
G02X277129Y251858I-2511J-4645*
G01*
X284880*
Y254502*
X274754*
G37*
X295683Y237290D02*
X295850Y237457D01*
Y240752*
X295683*
Y237290*
G36*
X295850Y237457*
Y240752*
X295683*
Y237290*
G37*
Y244748D02*
X295850D01*
Y248082*
X295683Y248250*
Y244748*
G36*
X295850*
Y248082*
X295683Y248250*
Y244748*
G37*
Y255460D02*
X295980Y255759D01*
X295683Y256055*
Y255460*
G36*
X295980Y255759*
X295683Y256055*
Y255460*
G37*
X408361Y215653D02*
G75*
G02X409405Y225314I1044J4774D01*
G01*
G75*
G02X410449Y215653J-4887*
G01*
Y184737*
X422535Y172651*
G75*
G02X430325Y171429I3447J-3464*
G01*
Y176945*
G75*
G02X425982Y174300I-4343J2242*
G01*
G75*
G02Y184074J4887*
G01*
G75*
G02X430325Y181429J-4887*
G01*
Y418687*
X90931*
Y12364*
X430325*
Y156945*
G75*
G02X425982Y154300I-4343J2242*
G01*
G75*
G02Y164074J4887*
G01*
G75*
G02X430325Y161429J-4887*
G01*
Y166945*
G75*
G02X421386Y170848I-4343J2242*
G01*
X408667Y183567*
G75*
G02X408361Y184305I738J738*
G01*
Y215653*
X94638Y349252D02*
X91720Y352169D01*
G75*
G02X91415Y352907I738J738*
G01*
Y391392*
G75*
G02X91720Y392130I1044J0*
G01*
X106583Y406992*
G75*
G02X107321Y407298I738J-738*
G01*
X197872*
G75*
G02X198610Y406992I0J-1044*
G01*
X206313Y399289*
G75*
G02X206780Y399020I-271J-1008*
G01*
X211799Y394000*
G75*
G02X211986Y393746I-739J-737*
G01*
Y402293*
X204797*
Y406992*
X204496*
Y413429*
X210933*
Y413128*
X214496*
Y413429*
X225933*
Y413128*
X230632*
Y402293*
X229687*
X252868Y379112*
G75*
G02X253626Y378274I-271J-1008*
G01*
X268751Y393399*
X274635Y399384*
G75*
G02X272545Y402868I1859J3484*
G01*
Y407868*
G75*
G02X280443I3949*
G01*
Y402868*
G75*
G02X277593Y399075I-3949*
G01*
G75*
G02X277351Y398719I-1098J485*
G01*
X270461Y391711*
G75*
G02X270454Y391704I-839J878*
G01*
X255668Y376918*
Y371260*
X274188Y389780*
G75*
G02X274193Y389785I848J-843*
G01*
X284189Y399661*
G75*
G02X282545Y402868I2305J3207*
G01*
Y407868*
G75*
G02X290443I3949*
G01*
Y402868*
G75*
G02X286875Y398938I-3949*
G01*
X275884Y388079*
X257636Y369831*
Y288439*
G75*
G02X257284Y287590I-1201J0*
G01*
X253150Y283456*
G75*
G02X252301Y283104I-850J849*
G01*
X224805*
Y275506*
X275194*
G75*
G02X278448Y274659I1517J-847*
G01*
G75*
G02X275494Y273419I-1737*
G01*
X270513*
G75*
G02X267719Y271450I-1578J-728*
G01*
X266863*
G75*
G02X266950Y269758I-1471J-925*
G01*
X271888*
G75*
G02X272737Y269406I0J-1201*
G01*
X277700Y264443*
X284880*
Y270037*
X288850*
Y279006*
G75*
G02X288807Y279254I1430J380*
G01*
G75*
G02X278813Y279764I-4911J1941*
G01*
X275199*
G75*
G02X270116Y275914I-5083J1431*
G01*
G75*
G02X267998Y286032J5281*
G01*
G75*
G02X270116Y296776I2119J5163*
G01*
G75*
G02X272235Y286032J-5581*
G01*
G75*
G02X275199Y282626I-2119J-4837*
G01*
X278813*
G75*
G02X281777Y286032I5083J-1431*
G01*
G75*
G02X283896Y296776I2119J5163*
G01*
G75*
G02X286014Y286032J-5581*
G01*
G75*
G02X288979Y282626I-2119J-4837*
G01*
X290281*
G75*
G02X291713Y281195J-1431*
G01*
Y280815*
X307139*
G75*
G02X307896I378J-1430*
G01*
X308183*
G75*
G02X315108Y284333I5083J-1431*
G01*
X320325Y289549*
G75*
G02X321337Y289969I1012J-1012*
G01*
X345457*
Y305070*
X335665Y314862*
X331241*
X325564Y309186*
G75*
G02X326263Y306667I-4188J-2519*
G01*
G75*
G02X316489I-4887*
G01*
G75*
G02X323431Y311101I4887*
G01*
X329636Y317305*
G75*
G02X330648Y317724I1012J-1012*
G01*
X336258*
G75*
G02X337270Y317305I0J-1431*
G01*
X347900Y306675*
G75*
G02X348319Y305663I-1012J-1012*
G01*
Y287632*
G75*
G02X350569Y285382I-1431J-3681*
G01*
X356986*
G75*
G02X364617Y283951I3681J-1431*
G01*
G75*
G02X356986Y282520I-3950*
G01*
X350569*
G75*
G02X342938Y283951I-3681J1431*
G01*
G75*
G02X344512Y287106I3950*
G01*
X321930*
X317441Y282617*
G75*
G02X318103Y281502I-4175J-3233*
G01*
G75*
G02X328846Y279384I5163J-2119*
G01*
G75*
G02X318103Y277265I-5581*
G01*
G75*
G02X308949Y276343I-4837J2119*
G01*
Y270134*
X311179Y267904*
Y270339*
X322581*
Y266343*
X322281*
Y259148*
X346514*
G75*
G02X347252Y258843I0J-1044*
G01*
X358711Y247383*
G75*
G02X364617Y243951I1956J-3432*
G01*
G75*
G02X356717I-3950*
G01*
G75*
G02X357235Y245907I3950J0*
G01*
X346081Y257061*
X322281*
Y256589*
X335293*
G75*
G02X336031Y256283I0J-1044*
G01*
X344932Y247383*
G75*
G02X350838Y243951I1956J-3432*
G01*
G75*
G02X342938I-3950*
G01*
G75*
G02X343456Y245907I3950J0*
G01*
X334861Y254502*
X322581*
Y248429*
X322281*
Y246353*
X335490*
G75*
G02X336228Y246047I0J-1044*
G01*
X349879Y232396*
X384978*
G75*
G02X385717Y232091I0J-1044*
G01*
X392494Y225313*
X400514*
Y215541*
X390738*
Y224117*
X384546Y230309*
X349447*
G75*
G02X348709Y230614I0J1044*
G01*
X335058Y244265*
X322281*
Y238506*
G75*
G02X322449Y238370I-569J-874*
G01*
X327941Y232878*
G75*
G02X328246Y232140I-738J-738*
G01*
Y221372*
X342002*
Y226577*
X351774*
Y216801*
X342002*
Y219285*
X326474*
G75*
G02X323416Y215492I-5176J1044*
G01*
G75*
G02X321297Y204748I-2119J-5163*
G01*
G75*
G02X319179Y215492J5581*
G01*
G75*
G02X321297Y225609I2119J4837*
G01*
G75*
G02X326159Y222390J-5281*
G01*
Y231707*
X322581Y235286*
Y233075*
X311179*
Y237071*
X311478*
Y246416*
X308561Y243499*
Y185844*
X317703*
Y176073*
X307927*
Y183010*
X306780Y184157*
G75*
G02X306474Y184896I738J738*
G01*
Y243931*
G75*
G02X306780Y244669I1044J0*
G01*
X310717Y248606*
G75*
G02X311179Y248875I738J-739*
G01*
Y254984*
X311478*
Y259620*
X300825*
G75*
G02X299781Y260663J1044*
G01*
Y271302*
G75*
G02X299087Y272691I1044J1389*
G01*
G75*
G02X302562I1737*
G01*
G75*
G02X301869Y271302I-1737*
G01*
Y261707*
X311478*
Y264350*
X311278*
G75*
G02X310266Y264770I0J1431*
G01*
X306506Y268530*
G75*
G02X306087Y269541I1012J1012*
G01*
Y277953*
X291713*
Y270037*
X295683*
Y259253*
G75*
G02X296182Y258954I-350J-1149*
G01*
X298524Y256611*
G75*
G02X298528Y254915I-849J-850*
G01*
X295772Y252140*
G75*
G02X295683Y252059I-852J846*
G01*
Y251850*
G75*
G02X296541Y251439I-154J-1423*
G01*
X298293Y249687*
G75*
G02X298713Y248675I-1012J-1012*
G01*
Y236864*
G75*
G02X298293Y235852I-1431J0*
G01*
X296502Y234061*
G75*
G02X295683Y233655I-1012J1012*
G01*
Y233376*
X291232*
Y225569*
G75*
G02X291920Y215649I-1431J-5083*
G01*
G75*
G02X289801Y204906I-2119J-5163*
G01*
G75*
G02X287683Y215649J5581*
G01*
G75*
G02X288370Y225569I2119J4837*
G01*
Y233376*
X284880*
Y236588*
X253206*
X216524Y199906*
G75*
G02X216081Y199643I-738J738*
G01*
X212620Y196182*
Y187884*
X202844*
Y197656*
X211142*
X214868Y201382*
G75*
G02X215310Y201645I738J-738*
G01*
X252035Y238370*
G75*
G02X252774Y238676I738J-738*
G01*
X284880*
Y238990*
X245988*
X222145Y215147*
G75*
G02X222149Y215031I-1731J-117*
G01*
G75*
G02X218674I-1737*
G01*
G75*
G02X220369Y216768I1737*
G01*
X244641Y241040*
G75*
G02X244748Y241135I850J-848*
G01*
X234525*
X221813Y228424*
G75*
G02X220805Y227651I-1008J271*
G01*
X208108*
G75*
G02X207370Y227957I0J1044*
G01*
X203827Y231500*
G75*
G02X203521Y232238I738J738*
G01*
Y252907*
G75*
G02X203827Y253646I1044J0*
G01*
X206662Y256480*
X205285*
Y256781*
X202262*
Y228607*
G75*
G02X200294Y225748I-1044J-1389*
G01*
Y225163*
G75*
G02X198325Y222303I-1044J-1389*
G01*
Y189659*
X202556Y185428*
X251877*
G75*
G02X256652Y189271I4774J-1044*
G01*
G75*
G02Y179497J-4887*
G01*
G75*
G02X251877Y183340J4887*
G01*
X202124*
G75*
G02X201386Y183646I0J1044*
G01*
X196543Y188488*
G75*
G02X196357Y188743I739J737*
G01*
Y186706*
X207635Y175428*
X251877*
G75*
G02X256652Y179271I4774J-1044*
G01*
G75*
G02Y169497J-4887*
G01*
G75*
G02X251877Y173340J4887*
G01*
X207203*
G75*
G02X206465Y173646I0J1044*
G01*
X194575Y185535*
G75*
G02X194269Y186274I738J738*
G01*
Y205415*
G75*
G02X192577Y205437I-826J1528*
G01*
Y185393*
X211165Y166806*
X257414*
X262467Y171859*
G75*
G02X266652Y179271I4184J2525*
G01*
G75*
G02Y169497J-4887*
G01*
G75*
G02X264176Y170170I0J4887*
G01*
X258761Y164755*
G75*
G02X257911Y164403I-850J849*
G01*
X210667*
G75*
G02X209818Y164755I0J1201*
G01*
X190527Y184046*
G75*
G02X190175Y184896I849J850*
G01*
Y233806*
G75*
G02X185077Y230496I-5098J2270*
G01*
G75*
G02X182958Y241240J5581*
G01*
G75*
G02X183488Y251113I2119J4837*
G01*
Y252907*
G75*
G02X183967Y254044I1589*
G01*
X186460Y256480*
X185600*
Y256781*
X184912*
G75*
G02X184944Y256451I-1706J-331*
G01*
G75*
G02X181469I-1737*
G01*
G75*
G02X182163Y257840I1737*
G01*
Y259699*
G75*
G02X183207Y260743I1044*
G01*
X183931*
Y262616*
X185600*
Y262917*
X189278*
Y262616*
X205285*
Y262917*
X208963*
Y262616*
X216537*
Y260183*
X223419Y253302*
G75*
G02X232079Y251778I3823J-3643*
G01*
G75*
G02X242823Y249659I5163J-2119*
G01*
G75*
G02X240393Y245054I-5581*
G01*
X259400*
G75*
G02X263680Y255249I2842J4803*
G01*
G75*
G02X263654Y255545I1711J297*
G01*
G75*
G02X266781Y256589I1737*
G01*
X284880*
Y256923*
X267163*
G75*
G02X266314Y257275I0J1201*
G01*
X258201Y265387*
X224805*
Y265049*
X218970*
Y297656*
X220457*
Y297927*
G75*
G02X220876Y298939I1431J0*
G01*
X230077Y308140*
G75*
G02X232565Y315559I4606J2582*
G01*
G75*
G02X234683Y326303I2119J5163*
G01*
G75*
G02X236802Y315559J-5581*
G01*
G75*
G02X239059Y313678I-2119J-4837*
G01*
X242898Y317516*
Y372054*
G75*
G02X239442Y376726I1431J4673*
G01*
G75*
G02X249216I4887*
G01*
G75*
G02X245760Y372054I-4887*
G01*
Y316923*
G75*
G02X245341Y315911I-1431J0*
G01*
X239960Y310531*
G75*
G02X232101Y306116I-5277J191*
G01*
X223640Y297656*
X224805*
Y295191*
X231214*
G75*
G02X241331Y297250I5280J-59*
G01*
G75*
G02X251553Y297489I5163J-2119*
G01*
Y377475*
X227154Y401874*
G75*
G02X226898Y402293I739J737*
G01*
X223916*
Y398715*
G75*
G02X223558Y397860I-1201J0*
G01*
X216199Y390594*
Y305923*
X216537*
Y300089*
X189278*
Y299787*
X185866*
G75*
G02X181498Y295964I-2364J-1706*
G01*
Y276301*
X181799*
Y272624*
X181498*
Y265049*
X179624*
Y254985*
G75*
G02X180318Y253596I-1044J-1389*
G01*
G75*
G02X176843I-1737*
G01*
G75*
G02X177537Y254985I1737*
G01*
Y265049*
X175663*
Y266205*
X171711Y262252*
Y192480*
X200929Y163262*
X264894*
X272852Y171220*
Y176524*
X269176Y180200*
G75*
G02X266652Y179497I-2525J4184*
G01*
G75*
G02Y189271J4887*
G01*
G75*
G02X270865Y181908J-4887*
G01*
X274902Y177871*
G75*
G02X275254Y177022I-849J-850*
G01*
Y170722*
G75*
G02X274902Y169873I-1201J0*
G01*
X266241Y161212*
G75*
G02X265392Y160860I-850J849*
G01*
X200431*
G75*
G02X199582Y161212I0J1201*
G01*
X169661Y191133*
G75*
G02X169309Y191982I849J850*
G01*
Y262632*
X168601Y261924*
Y242376*
G75*
G02X168295Y241638I-1044J0*
G01*
X163768Y237110*
G75*
G02X163030Y236805I-738J738*
G01*
X147872*
G75*
G02X147134Y237110I0J1044*
G01*
X91622Y292622*
G75*
G02X91317Y293360I738J738*
G01*
Y339030*
G75*
G02X91622Y339768I1044J0*
G01*
X94575Y342720*
G75*
G02X95313Y343026I738J-738*
G01*
X95734*
G75*
G02X94638Y349252I3122J3759*
G01*
X98856Y415373D02*
G75*
G02Y403237J-6068D01*
G01*
G75*
G02Y415373J6068*
G01*
X107749Y228811D02*
G75*
G02X117523I4887D01*
G01*
G75*
G02X107749I-4887*
G01*
X107750Y210144D02*
Y219919D01*
X117522*
Y210144*
X107750*
X120081Y111026D02*
Y101250D01*
X110309*
Y111026*
X120081*
X120082Y52989D02*
G75*
G02X110308I-4887D01*
G01*
G75*
G02X120082I4887*
G01*
X120382Y71955D02*
Y61581D01*
X110008*
Y71955*
X120382*
Y92359D02*
G75*
G02X110008I-5187D01*
G01*
G75*
G02X120382I5187*
G01*
X145116Y63995D02*
G75*
G02Y51859J-6068D01*
G01*
G75*
G02Y63995J6068*
G01*
X164467Y121103D02*
G75*
G02Y129003J3950D01*
G01*
G75*
G02Y121103J-3950*
G01*
X166730Y28905D02*
G75*
G02Y21005J-3950D01*
G01*
G75*
G02Y28905J3950*
G01*
X174345Y51965D02*
G75*
G02X175746Y60728I1401J4269D01*
G01*
G75*
G02X179190Y59120J-4493*
G01*
G75*
G02X180746Y59310I1556J-6272*
G01*
G75*
G02X181871Y59211I-1J-6462*
G01*
G75*
G02X185137Y61083I3876J-2977*
G01*
G75*
G02X182769Y61987I609J5151*
G01*
G75*
G02X180746Y61677I-2022J6453*
G01*
G75*
G02X178723Y61987I-1J6762*
G01*
G75*
G02X175746Y61047I-2977J4247*
G01*
G75*
G02X174366Y71234J5187*
G01*
G75*
G02Y81234I1380J5000*
G01*
G75*
G02X175137Y91385I1380J5000*
G01*
G75*
G02X174420Y100938I609J4849*
G01*
G75*
G02X187072I6326J-1318*
G01*
G75*
G02X186355Y91385I-1326J-4704*
G01*
G75*
G02X187126Y81234I-609J-5151*
G01*
G75*
G02Y71234I-1380J-5000*
G01*
G75*
G02X186355Y61083I-1380J-5000*
G01*
G75*
G02X187072Y51531I-609J-4849*
G01*
G75*
G02X174345Y51965I-6326J1318*
G01*
X194467Y121103D02*
G75*
G02Y129003J3950D01*
G01*
G75*
G02Y121103J-3950*
G01*
X196730Y28905D02*
G75*
G02Y21005J-3950D01*
G01*
G75*
G02Y28905J3950*
G01*
X215439Y60177D02*
G75*
G02X217557Y70294I2119J4837D01*
G01*
G75*
G02X222156Y67609J-5281*
G01*
X231618*
Y98103*
G75*
G02X233049Y106767I1431J4214*
G01*
G75*
G02X234480Y98103J-4450*
G01*
Y67609*
X239541*
Y71065*
X249313*
Y61289*
X239541*
Y64746*
X222831*
G75*
G02X219676Y60177I-5274J268*
G01*
G75*
G02X217557Y49433I-2119J-5163*
G01*
G75*
G02X215439Y60177J5581*
G01*
X226286Y191726D02*
G75*
G02X221511Y187883I-4774J1044D01*
G01*
G75*
G02Y197657J4887*
G01*
G75*
G02X226286Y193813J-4887*
G01*
X251798*
G75*
G02X256652Y199271I4854J570*
G01*
G75*
G02Y189497J-4887*
G01*
G75*
G02X252550Y191726J4887*
G01*
X226286*
X242244Y402868D02*
Y407868D01*
G75*
G02X250744I4250*
G01*
Y402868*
G75*
G02X242244I-4250*
G01*
X243049Y97567D02*
G75*
G02Y107067J4750D01*
G01*
G75*
G02Y97567J-4750*
G01*
X249614Y52398D02*
G75*
G02X239240I-5187D01*
G01*
G75*
G02X249614I5187*
G01*
X252545Y402868D02*
Y407868D01*
G75*
G02X260443I3949*
G01*
Y402868*
G75*
G02X252545I-3949*
G01*
X252743Y281022D02*
X259958Y288153D01*
Y292179*
G75*
G02X260310Y293028I1201J0*
G01*
X283932Y316650*
G75*
G02X284781Y317002I850J-849*
G01*
X302419*
G75*
G02X303269Y316650I0J-1201*
G01*
X308988Y310931*
G75*
G02X316263Y306667I2388J-4264*
G01*
G75*
G02X306489I-4887*
G01*
G75*
G02X307244Y309278I4887*
G01*
X301922Y314600*
X285279*
X262361Y291681*
Y287652*
G75*
G02X262004Y286797I-1201*
G01*
X254432Y279313*
G75*
G02X254432Y279285I-1729J-38*
G01*
G75*
G02X250957I-1737*
G01*
G75*
G02X252743Y281022I1737*
G01*
X253049Y97867D02*
G75*
G02Y106767J4450D01*
G01*
G75*
G02Y97867J-4450*
G01*
X261500Y203775D02*
G75*
G02X256652Y199497I-4849J609D01*
G01*
G75*
G02Y209271J4887*
G01*
G75*
G02X261500Y204993J-4887*
G01*
G75*
G02X266652Y209571I5151J-609*
G01*
G75*
G02X267261Y199233J-5187*
G01*
G75*
G02X271426Y195428I-609J-4849*
G01*
X285611*
G75*
G02X286349Y195122I0J-1044*
G01*
X296398Y185072*
G75*
G02X299036Y185846I2638J-4114*
G01*
G75*
G02Y176072J-4887*
G01*
G75*
G02X294922Y183596J4887*
G01*
X285178Y193340*
X271426*
G75*
G02X266652Y189497I-4774J1044*
G01*
G75*
G02X266043Y199233J4887*
G01*
G75*
G02X261500Y203775I609J5151*
G01*
X262545Y402868D02*
Y407868D01*
G75*
G02X270443I3949*
G01*
Y402868*
G75*
G02X262545I-3949*
G01*
X276009Y45230D02*
G75*
G02X283909I3950D01*
G01*
G75*
G02X276009I-3950*
G01*
Y85230D02*
G75*
G02X283909I3950D01*
G01*
G75*
G02X276009I-3950*
G01*
X292545Y402868D02*
Y407868D01*
G75*
G02X300443I3949*
G01*
Y402868*
G75*
G02X292545I-3949*
G01*
X292685Y116606D02*
G75*
G02X303059I5187D01*
G01*
G75*
G02X292685I-5187*
G01*
X292986Y97939D02*
Y107715D01*
X302758*
Y97939*
X292986*
X306263Y296667D02*
G75*
G02X296489I-4887D01*
G01*
G75*
G02X306263I4887*
G01*
Y306667D02*
G75*
G02X296489I-4887D01*
G01*
G75*
G02X306263I4887*
G01*
X309919Y69070D02*
G75*
G02Y60170J-4450D01*
G01*
G75*
G02Y69070J4450*
G01*
X316263Y296667D02*
G75*
G02X306489I-4887D01*
G01*
G75*
G02X316263I4887*
G01*
X319919Y69370D02*
G75*
G02Y59870J-4750D01*
G01*
G75*
G02Y69370J4750*
G01*
X326263Y296667D02*
G75*
G02X316489I-4887D01*
G01*
G75*
G02X326263I4887*
G01*
X329919Y69070D02*
G75*
G02Y60170J-4450D01*
G01*
G75*
G02Y69070J4450*
G01*
X332011Y90848D02*
G75*
G02X321268Y92967I-5163J2119D01*
G01*
G75*
G02X332011Y95085I5581*
G01*
G75*
G02X342129Y92967I4837J-2119*
G01*
G75*
G02X332011Y90848I-5281*
G01*
X334602Y136887D02*
G75*
G02X336258Y145051I1656J3914D01*
G01*
G75*
G02X337914Y136887J-4250*
G01*
G75*
G02X337499Y129551I-1656J-3586*
G01*
G75*
G02X336258Y121851I-1241J-3750*
G01*
G75*
G02X335017Y129551J3950*
G01*
G75*
G02X334602Y136887I1241J3750*
G01*
X336263Y296667D02*
G75*
G02X326489I-4887D01*
G01*
G75*
G02X336263I4887*
G01*
Y306667D02*
G75*
G02X326489I-4887D01*
G01*
G75*
G02X336263I4887*
G01*
X337357Y159774D02*
G75*
G02X337773Y167110I1656J3586D01*
G01*
G75*
G02X339014Y174810I1241J3750*
G01*
G75*
G02X340255Y167110J-3950*
G01*
G75*
G02X340670Y159774I-1241J-3750*
G01*
G75*
G02X339014Y151610I-1656J-3914*
G01*
G75*
G02X337357Y159774J4250*
G01*
X352075Y207910D02*
G75*
G02X341701I-5187D01*
G01*
G75*
G02X352075I5187*
G01*
X357321Y154495D02*
G75*
G02Y146595J-3950D01*
G01*
G75*
G02Y154495J3950*
G01*
X357518Y166798D02*
G75*
G02Y158898J-3950D01*
G01*
G75*
G02Y166798J3950*
G01*
X359267Y140975D02*
X370155Y151863D01*
Y172494*
G75*
G02X370461Y173232I1044J0*
G01*
X394364Y197135*
G75*
G02X394363Y197199I1736J64*
G01*
G75*
G02X397838I1737*
G01*
G75*
G02X395691Y195510I-1737*
G01*
X372243Y172062*
Y151431*
G75*
G02X371937Y150693I-1044J0*
G01*
X360596Y139353*
G75*
G02X356986Y133800I-3610J-1603*
G01*
G75*
G02Y141700J3950*
G01*
G75*
G02X359267Y140975I0J-3950*
G01*
X359602Y179145D02*
X382357Y201900D01*
G75*
G02X385830Y201825I1736J-75*
G01*
G75*
G02X383575Y200166I-1737*
G01*
X361132Y177723*
G75*
G02X357774Y171694I-3358J-2079*
G01*
G75*
G02Y179594J3950*
G01*
G75*
G02X359602Y179145I0J-3950*
G01*
X363800Y24591D02*
G75*
G02Y34965J5187D01*
G01*
G75*
G02Y24591J-5187*
G01*
X366573Y389783D02*
G75*
G02Y377646J-6068D01*
G01*
G75*
G02Y389783J6068*
G01*
X374447Y63011D02*
G75*
G02Y50875J-6068D01*
G01*
G75*
G02Y63011J6068*
G01*
X382467Y24892D02*
X372691D01*
Y34663*
X382467*
Y24892*
X396986Y133800D02*
G75*
G02Y141700J3950D01*
G01*
G75*
G02Y133800J-3950*
G01*
X397321Y154495D02*
G75*
G02Y146595J-3950D01*
G01*
G75*
G02Y154495J3950*
G01*
X397518Y166798D02*
G75*
G02Y158898J-3950D01*
G01*
G75*
G02Y166798J3950*
G01*
X397774Y171694D02*
G75*
G02Y179594J3950D01*
G01*
G75*
G02Y171694J-3950*
G01*
X90931Y287144D02*
G36*
Y228811D01*
X107749*
G75*
G02X117523I4887*
G01*
X169309*
Y262632*
X168601Y261924*
Y242376*
G75*
G02X168295Y241638I-1044J0*
G01*
X163768Y237110*
G75*
G02X163030Y236805I-738J738*
G01*
X147872*
G75*
G02X147134Y237110I0J1044*
G01*
X97100Y287144*
X90931*
G37*
X97100D02*
G36*
X91622Y292622D01*
G75*
G02X91317Y293360I738J738*
G01*
Y296667*
X90931*
Y287144*
X97100*
G37*
X256839D02*
G36*
X253150Y283456D01*
G75*
G02X252301Y283104I-850J849*
G01*
X224805*
Y275506*
X275194*
G75*
G02X278448Y274659I1517J-847*
G01*
G75*
G02X275494Y273419I-1737*
G01*
X270513*
G75*
G02X267719Y271450I-1578J-728*
G01*
X266863*
G75*
G02X266950Y269758I-1471J-925*
G01*
X271888*
G75*
G02X272737Y269406I0J-1201*
G01*
X277700Y264443*
X284880*
Y270037*
X288850*
Y279006*
G75*
G02X288807Y279254I1430J380*
G01*
G75*
G02X278813Y279764I-4911J1941*
G01*
X275199*
G75*
G02X270116Y275914I-5083J1431*
G01*
G75*
G02X267998Y286032J5281*
G01*
G75*
G02X266277Y287144I2119J5163*
G01*
X262248*
G75*
G02X262004Y286797I-1089J507*
G01*
X254432Y279313*
G75*
G02Y279285I-1730J-14*
G01*
G75*
G02X250957I-1737*
G01*
G75*
G02X252743Y281022I1737*
G01*
X258938Y287144*
X256839*
G37*
X258938D02*
G36*
X259958Y288153D01*
Y292179*
G75*
G02X260310Y293028I1201J0*
G01*
X263949Y296667*
X257636*
Y288439*
G75*
G02X257284Y287590I-1201J0*
G01*
X256839Y287144*
X258938*
G37*
X266277D02*
G36*
G75*
G02X269022Y296667I3839J4050D01*
G01*
X267346*
X262361Y291681*
Y287652*
G75*
G02X262248Y287144I-1201*
G01*
X266277*
G37*
X362992D02*
G36*
G75*
G02X364617Y283951I-2324J-3194D01*
G01*
G75*
G02X356986Y282520I-3950*
G01*
X350569*
G75*
G02X342938Y283951I-3681J1431*
G01*
G75*
G02X344512Y287106I3950*
G01*
X321930*
X317441Y282617*
G75*
G02X318103Y281502I-4175J-3233*
G01*
G75*
G02X328846Y279384I5163J-2119*
G01*
G75*
G02X318103Y277265I-5581*
G01*
G75*
G02X308949Y276343I-4837J2119*
G01*
Y270134*
X311179Y267904*
Y270339*
X322581*
Y266343*
X322281*
Y259148*
X346514*
G75*
G02X347252Y258843I0J-1044*
G01*
X358711Y247383*
G75*
G02X364617Y243951I1956J-3432*
G01*
G75*
G02X356717I-3950*
G01*
G75*
G02X357235Y245907I3950J0*
G01*
X346081Y257061*
X322281*
Y256589*
X335293*
G75*
G02X336031Y256283I0J-1044*
G01*
X344932Y247383*
G75*
G02X350838Y243951I1956J-3432*
G01*
G75*
G02X342938I-3950*
G01*
G75*
G02X343456Y245907I3950J0*
G01*
X334861Y254502*
X322581*
Y248429*
X322281*
Y246353*
X335490*
G75*
G02X336228Y246047I0J-1044*
G01*
X349879Y232396*
X384978*
G75*
G02X385717Y232091I0J-1044*
G01*
X388996Y228811*
X430325*
Y287144*
X362992*
G37*
X430325D02*
G36*
Y296667D01*
X348319*
Y287632*
G75*
G02X350569Y285382I-1431J-3681*
G01*
X356986*
G75*
G02X362992Y287144I3681J-1431*
G01*
X430325*
G37*
X90931Y409305D02*
G36*
Y383715D01*
X91415*
Y391392*
G75*
G02X91720Y392130I1044J0*
G01*
X106583Y406992*
G75*
G02X107321Y407298I738J-738*
G01*
X197872*
G75*
G02X198610Y406992I0J-1044*
G01*
X206313Y399289*
G75*
G02X206780Y399020I-271J-1008*
G01*
X211799Y394000*
G75*
G02X211986Y393746I-739J-737*
G01*
Y402293*
X204797*
Y406992*
X204496*
Y409305*
X104924*
G75*
G02X98856Y403237I-6068*
G01*
G75*
G02X92788Y409305J6068*
G01*
X90931*
G37*
X92788D02*
G36*
G75*
G02X98856Y415373I6068D01*
G01*
G75*
G02X104924Y409305J-6068*
G01*
X204496*
Y413429*
X210933*
Y413128*
X214496*
Y413429*
X225933*
Y413128*
X230632*
Y409305*
X242494*
G75*
G02X250494I4000J-1437*
G01*
X252816*
G75*
G02X260172I3678J-1437*
G01*
X262816*
G75*
G02X270172I3678J-1437*
G01*
X272816*
G75*
G02X280443Y407868I3678J-1437*
G01*
Y402868*
G75*
G02X277593Y399075I-3949*
G01*
G75*
G02X277351Y398719I-1098J485*
G01*
X270461Y391711*
G75*
G02X270454Y391704I-839J878*
G01*
X255668Y376918*
Y371260*
X274188Y389780*
G75*
G02X274193Y389785I848J-843*
G01*
X284189Y399661*
G75*
G02X282545Y402868I2305J3207*
G01*
Y407868*
G75*
G02X290172Y409305I3949*
G01*
X292816*
G75*
G02X300172I3678J-1437*
G01*
X430325*
Y418687*
X90931*
Y409305*
X92788*
G37*
X230632D02*
G36*
Y402293D01*
X229687*
X252868Y379112*
G75*
G02X253626Y378274I-271J-1008*
G01*
X268751Y393399*
X274635Y399384*
G75*
G02X272545Y402868I1859J3484*
G01*
Y407868*
G75*
G02X272816Y409305I3948J0*
G01*
X270172*
G75*
G02X270443Y407868I-3678J-1437*
G01*
Y402868*
G75*
G02X262545I-3949*
G01*
Y407868*
G75*
G02X262816Y409305I3948J0*
G01*
X260172*
G75*
G02X260443Y407868I-3678J-1437*
G01*
Y402868*
G75*
G02X252545I-3949*
G01*
Y407868*
G75*
G02X252816Y409305I3948J0*
G01*
X250494*
G75*
G02X250744Y407868I-4000J-1437*
G01*
Y402868*
G75*
G02X242244I-4250*
G01*
Y407868*
G75*
G02X242494Y409305I4250J0*
G01*
X230632*
G37*
X290172D02*
G36*
G75*
G02X290443Y407868I-3678J-1437D01*
G01*
Y402868*
G75*
G02X286875Y398938I-3949*
G01*
X275884Y388079*
X271520Y383715*
X360505*
G75*
G02X366573Y389783I6068*
G01*
G75*
G02X372641Y383715J-6068*
G01*
X430325*
Y409305*
X300172*
G75*
G02X300443Y407868I-3678J-1437*
G01*
Y402868*
G75*
G02X292545I-3949*
G01*
Y407868*
G75*
G02X292816Y409305I3948J0*
G01*
X290172*
G37*
X90931Y228811D02*
G36*
Y215031D01*
X107750*
Y219919*
X117522*
Y215031*
X169309*
Y228811*
X117523*
G75*
G02X107749I-4887*
G01*
X90931*
G37*
X388996D02*
G36*
X392494Y225313D01*
X400514*
Y215541*
X390738*
Y224117*
X384546Y230309*
X349447*
G75*
G02X348709Y230614I0J1044*
G01*
X335058Y244265*
X322281*
Y238506*
G75*
G02X322449Y238370I-569J-874*
G01*
X327941Y232878*
G75*
G02X328246Y232140I-738J-738*
G01*
Y221372*
X342002*
Y226577*
X351774*
Y216801*
X342002*
Y219285*
X326474*
G75*
G02X323416Y215492I-5176J1044*
G01*
G75*
G02X324302Y215031I-2119J-5163*
G01*
X408361*
Y215653*
G75*
G02X409405Y225314I1044J4774*
G01*
G75*
G02X410449Y215653J-4887*
G01*
Y184737*
X422535Y172651*
G75*
G02X430325Y171429I3447J-3464*
G01*
Y176945*
G75*
G02X425982Y174300I-4343J2242*
G01*
G75*
G02Y184074J4887*
G01*
G75*
G02X430325Y181429J-4887*
G01*
Y228811*
X388996*
G37*
X90931Y215031D02*
G36*
Y207910D01*
X169309*
Y215031*
X117522*
Y210144*
X107750*
Y215031*
X90931*
G37*
X324302D02*
G36*
G75*
G02X326326Y207910I-3005J-4703D01*
G01*
X341701*
G75*
G02X352075I5187*
G01*
X408361*
Y215031*
X324302*
G37*
X90931Y106138D02*
G36*
Y92359D01*
X110008*
G75*
G02X120382I5187*
G01*
X172769*
G75*
G02X174420Y100938I2977J3876*
G01*
G75*
G02X187072I6326J-1318*
G01*
G75*
G02X188723Y92359I-1326J-4704*
G01*
X231618*
Y98103*
G75*
G02X230768Y106138I1431J4214*
G01*
X120081*
Y101250*
X110309*
Y106138*
X90931*
G37*
X110309D02*
G36*
Y111026D01*
X120081*
Y106138*
X230768*
G75*
G02X233049Y106767I2281J-3821*
G01*
G75*
G02X235330Y106138J-4450*
G01*
X240227*
G75*
G02X243049Y107067I2822J-3821*
G01*
G75*
G02X245871Y106138J-4750*
G01*
X250768*
G75*
G02X253049Y106767I2281J-3821*
G01*
G75*
G02X255330Y106138J-4450*
G01*
X292986*
Y107715*
X302758*
Y106138*
X430325*
Y116606*
X303059*
G75*
G02X292685I-5187*
G01*
X90931*
Y106138*
X110309*
G37*
X235330D02*
G36*
G75*
G02X234480Y98103I-2281J-3821D01*
G01*
Y92359*
X321301*
G75*
G02X321268Y92967I5547J607*
G01*
G75*
G02X332011Y95085I5581*
G01*
G75*
G02X342129Y92967I4837J-2119*
G01*
G75*
G02X342094Y92359I-5281J0*
G01*
X430325*
Y106138*
X302758*
Y97939*
X292986*
Y106138*
X255330*
G75*
G02X253049Y97867I-2281J-3821*
G01*
G75*
G02X250768Y106138J4450*
G01*
X245871*
G75*
G02X243049Y97567I-2822J-3821*
G01*
G75*
G02X240227Y106138J4750*
G01*
X235330*
G37*
X90931Y52989D02*
G36*
Y45230D01*
X276009*
G75*
G02X283909I3950*
G01*
X430325*
Y52989*
X379050*
G75*
G02X374447Y50875I-4603J3954*
G01*
G75*
G02X369844Y52989J6068*
G01*
X249580*
G75*
G02X249614Y52398I-5154J-592*
G01*
G75*
G02X239240I-5187*
G01*
G75*
G02X239274Y52989I5187J-1*
G01*
X222757*
G75*
G02X217557Y49433I-5200J2025*
G01*
G75*
G02X212357Y52989J5581*
G01*
X189400*
G75*
G02X187072Y51531I-3653J3246*
G01*
G75*
G02X174345Y51965I-6326J1318*
G01*
G75*
G02X172639Y52989I1401J4269*
G01*
X148642*
G75*
G02X145116Y51859I-3526J4939*
G01*
G75*
G02X141590Y52989J6068*
G01*
X120082*
G75*
G02X110308I-4887*
G01*
X90931*
G37*
X110308D02*
G36*
G75*
G02X120082I4887D01*
G01*
X141590*
G75*
G02X145116Y63995I3526J4939*
G01*
G75*
G02X148642Y52989J-6068*
G01*
X172639*
G75*
G02X175746Y60728I3107J3246*
G01*
G75*
G02X179190Y59120J-4493*
G01*
G75*
G02X180746Y59310I1556J-6272*
G01*
G75*
G02X181871Y59211I-1J-6462*
G01*
G75*
G02X185137Y61083I3876J-2977*
G01*
G75*
G02X182769Y61987I609J5151*
G01*
G75*
G02X180746Y61677I-2022J6453*
G01*
G75*
G02X178723Y61987I-1J6762*
G01*
G75*
G02X175746Y61047I-2977J4247*
G01*
G75*
G02X170587Y66768J5187*
G01*
X120382*
Y61581*
X110008*
Y66768*
X90931*
Y52989*
X110308*
G37*
X212357D02*
G36*
G75*
G02X215439Y60177I5200J2025D01*
G01*
G75*
G02X212576Y66768I2119J4837*
G01*
X190906*
G75*
G02X186355Y61083I-5159J-533*
G01*
G75*
G02X189400Y52989I-609J-4849*
G01*
X212357*
G37*
X239274D02*
G36*
G75*
G02X249580I5153J-591D01*
G01*
X369844*
G75*
G02X374447Y63011I4603J3954*
G01*
G75*
G02X379050Y52989J-6068*
G01*
X430325*
Y66768*
X333817*
G75*
G02X329919Y60170I-3898J-2148*
G01*
G75*
G02X326022Y66768J4450*
G01*
X324156*
G75*
G02X319919Y59870I-4237J-2148*
G01*
G75*
G02X315683Y66768J4750*
G01*
X313817*
G75*
G02X309919Y60170I-3898J-2148*
G01*
G75*
G02X306022Y66768J4450*
G01*
X249313*
Y61289*
X239541*
Y64746*
X222831*
G75*
G02X219676Y60177I-5274J268*
G01*
G75*
G02X222757Y52989I-2119J-5163*
G01*
X239274*
G37*
X110008Y66768D02*
G36*
Y71955D01*
X120382*
Y66768*
X170587*
G75*
G02X174366Y71234I5159J-533*
G01*
G75*
G02Y81234I1380J5000*
G01*
G75*
G02X170657Y85230I1380J5000*
G01*
X90931*
Y66768*
X110008*
G37*
X212576D02*
G36*
G75*
G02X217557Y70294I4981J-1754D01*
G01*
G75*
G02X222156Y67609J-5281*
G01*
X231618*
Y85230*
X190835*
G75*
G02X187126Y81234I-5089J1004*
G01*
G75*
G02Y71234I-1380J-5000*
G01*
G75*
G02X190906Y66768I-1380J-5000*
G01*
X212576*
G37*
X306022D02*
G36*
G75*
G02X309919Y69070I3898J-2148D01*
G01*
G75*
G02X313817Y66768J-4450*
G01*
X315683*
G75*
G02X319919Y69370I4237J-2148*
G01*
G75*
G02X324156Y66768J-4750*
G01*
X326022*
G75*
G02X329919Y69070I3898J-2148*
G01*
G75*
G02X333817Y66768J-4450*
G01*
X430325*
Y85230*
X283909*
G75*
G02X276009I-3950*
G01*
X234480*
Y67609*
X239541*
Y71065*
X249313*
Y66768*
X306022*
G37*
X90931Y92359D02*
G36*
Y85230D01*
X170657*
G75*
G02X175137Y91385I5089J1004*
G01*
G75*
G02X172769Y92359I609J4849*
G01*
X120382*
G75*
G02X110008I-5187*
G01*
X90931*
G37*
X188723D02*
G36*
G75*
G02X186355Y91385I-2977J3876D01*
G01*
G75*
G02X190835Y85230I-609J-5151*
G01*
X231618*
Y92359*
X188723*
G37*
X234480D02*
G36*
Y85230D01*
X276009*
G75*
G02X283909I3950*
G01*
X430325*
Y92359*
X342094*
G75*
G02X332011Y90848I-5246J608*
G01*
G75*
G02X321301Y92359I-5163J2119*
G01*
X234480*
G37*
X90931Y125053D02*
G36*
Y116606D01*
X292685*
G75*
G02X303059I5187*
G01*
X430325*
Y125053*
X340136*
G75*
G02X336258Y121851I-3878J748*
G01*
G75*
G02X332380Y125053J3950*
G01*
X198417*
G75*
G02X194467Y121103I-3950*
G01*
G75*
G02X190517Y125053J3950*
G01*
X168417*
G75*
G02X164467Y121103I-3950*
G01*
G75*
G02X160517Y125053J3950*
G01*
X90931*
G37*
X160517D02*
G36*
G75*
G02X164467Y129003I3950D01*
G01*
G75*
G02X168417Y125053J-3950*
G01*
X190517*
G75*
G02X194467Y129003I3950*
G01*
G75*
G02X198417Y125053J-3950*
G01*
X332380*
G75*
G02X335017Y129551I3878J748*
G01*
G75*
G02X334602Y136887I1241J3750*
G01*
G75*
G02X333299Y137750I1656J3914*
G01*
X90931*
Y125053*
X160517*
G37*
X430325D02*
G36*
Y137750D01*
X400936*
G75*
G02X396986Y133800I-3950*
G01*
G75*
G02X393036Y137750J3950*
G01*
X360936*
G75*
G02X356986Y133800I-3950*
G01*
G75*
G02X353036Y137750J3950*
G01*
X339217*
G75*
G02X337914Y136887I-2959J3051*
G01*
G75*
G02X337499Y129551I-1656J-3586*
G01*
G75*
G02X340136Y125053I-1241J-3750*
G01*
X430325*
G37*
X90931Y24955D02*
G36*
Y12364D01*
X430325*
Y24955*
X382467*
Y24892*
X372691*
Y24955*
X365709*
G75*
G02X363800Y24591I-1909J4823*
G01*
G75*
G02X361890Y24955J5187*
G01*
X200680*
G75*
G02X196730Y21005I-3950*
G01*
G75*
G02X192780Y24955J3950*
G01*
X170680*
G75*
G02X166730Y21005I-3950*
G01*
G75*
G02X162780Y24955J3950*
G01*
X90931*
G37*
X162780D02*
G36*
G75*
G02X166730Y28905I3950D01*
G01*
G75*
G02X170680Y24955J-3950*
G01*
X192780*
G75*
G02X196730Y28905I3950*
G01*
G75*
G02X200680Y24955J-3950*
G01*
X361890*
G75*
G02X363800Y34965I1909J4823*
G01*
G75*
G02X365709Y24955J-5187*
G01*
X372691*
Y34663*
X382467*
Y24955*
X430325*
Y45230*
X283909*
G75*
G02X276009I-3950*
G01*
X90931*
Y24955*
X162780*
G37*
X90931Y193577D02*
G36*
Y175644D01*
X185150*
X169661Y191133*
G75*
G02X169309Y191982I849J850*
G01*
Y193577*
X90931*
G37*
X169309D02*
G36*
Y207911D01*
X90931*
Y193577*
X169309*
G37*
X212620D02*
G36*
Y187884D01*
X202844*
Y197656*
X211142*
X214868Y201382*
G75*
G02X215310Y201645I738J-738*
G01*
X252035Y238370*
G75*
G02X252774Y238676I738J-738*
G01*
X284880*
Y238990*
X245988*
X222145Y215147*
G75*
G02X222149Y215031I-1731J-117*
G01*
G75*
G02X218674I-1737*
G01*
G75*
G02X220369Y216768I1737*
G01*
X244641Y241040*
G75*
G02X244748Y241135I850J-848*
G01*
X234525*
X221813Y228424*
G75*
G02X220805Y227651I-1008J271*
G01*
X208108*
G75*
G02X207370Y227957I0J1044*
G01*
X203827Y231500*
G75*
G02X203521Y232238I738J738*
G01*
Y252907*
G75*
G02X203827Y253646I1044J0*
G01*
X206662Y256480*
X205285*
Y256781*
X202262*
Y228607*
G75*
G02X200294Y225748I-1044J-1389*
G01*
Y225163*
G75*
G02X198325Y222303I-1044J-1389*
G01*
Y189659*
X202556Y185428*
X251877*
G75*
G02X256652Y189271I4774J-1044*
G01*
G75*
G02Y179497J-4887*
G01*
G75*
G02X251877Y183340J4887*
G01*
X202124*
G75*
G02X201386Y183646I0J1044*
G01*
X196543Y188488*
G75*
G02X196357Y188743I739J737*
G01*
Y186706*
X207635Y175428*
X251877*
G75*
G02X256652Y179271I4774J-1044*
G01*
G75*
G02Y169497J-4887*
G01*
G75*
G02X251877Y173340J4887*
G01*
X207203*
G75*
G02X206465Y173646I0J1044*
G01*
X194575Y185535*
G75*
G02X194269Y186274I738J738*
G01*
Y205415*
G75*
G02X192577Y205437I-826J1528*
G01*
Y185393*
X211165Y166806*
X257414*
X262467Y171859*
G75*
G02X266652Y179271I4184J2525*
G01*
G75*
G02Y169497J-4887*
G01*
G75*
G02X264176Y170170I0J4887*
G01*
X258761Y164755*
G75*
G02X257911Y164403I-850J849*
G01*
X210667*
G75*
G02X209818Y164755I0J1201*
G01*
X190527Y184046*
G75*
G02X190175Y184896I849J850*
G01*
Y233806*
G75*
G02X185077Y230496I-5098J2270*
G01*
G75*
G02X182958Y241240J5581*
G01*
G75*
G02X183488Y251113I2119J4837*
G01*
Y252907*
G75*
G02X183967Y254044I1589*
G01*
X186460Y256480*
X185600*
Y256781*
X184912*
G75*
G02X184944Y256451I-1706J-331*
G01*
G75*
G02X181469I-1737*
G01*
G75*
G02X182163Y257840I1737*
G01*
Y259699*
G75*
G02X183207Y260743I1044*
G01*
X183931*
Y262616*
X185600*
Y262917*
X189278*
Y262616*
X205285*
Y262917*
X208963*
Y262616*
X216537*
Y260183*
X223419Y253302*
G75*
G02X232079Y251778I3823J-3643*
G01*
G75*
G02X242823Y249659I5163J-2119*
G01*
G75*
G02X240393Y245054I-5581*
G01*
X259400*
G75*
G02X263680Y255249I2842J4803*
G01*
G75*
G02X263654Y255545I1711J297*
G01*
G75*
G02X266781Y256589I1737*
G01*
X284880*
Y256923*
X267163*
G75*
G02X266314Y257275I0J1201*
G01*
X258201Y265387*
X224805*
Y265049*
X218970*
Y297656*
X220457*
Y297927*
G75*
G02X220876Y298939I1431J0*
G01*
X230077Y308140*
G75*
G02X232565Y315559I4606J2582*
G01*
G75*
G02X234683Y326303I2119J5163*
G01*
G75*
G02X236802Y315559J-5581*
G01*
G75*
G02X239059Y313678I-2119J-4837*
G01*
X242898Y317516*
Y372054*
G75*
G02X239442Y376726I1431J4673*
G01*
G75*
G02X249216I4887*
G01*
G75*
G02X245760Y372054I-4887*
G01*
Y316923*
G75*
G02X245341Y315911I-1431J0*
G01*
X239960Y310531*
G75*
G02X232101Y306116I-5277J191*
G01*
X223640Y297656*
X224805*
Y295191*
X231214*
G75*
G02X241331Y297250I5280J-59*
G01*
G75*
G02X251553Y297489I5163J-2119*
G01*
Y377475*
X227154Y401874*
G75*
G02X226898Y402293I739J737*
G01*
X223916*
Y398715*
G75*
G02X223558Y397860I-1201J0*
G01*
X216199Y390594*
Y305923*
X216537*
Y300089*
X189278*
Y299787*
X185866*
G75*
G02X181498Y295964I-2364J-1706*
G01*
Y276301*
X181799*
Y272624*
X181498*
Y265049*
X179624*
Y254985*
G75*
G02X180318Y253596I-1044J-1389*
G01*
G75*
G02X176843I-1737*
G01*
G75*
G02X177537Y254985I1737*
G01*
Y265049*
X175663*
Y266205*
X171711Y262252*
Y192480*
X200929Y163262*
X264894*
X272852Y171220*
Y176524*
X269176Y180200*
G75*
G02X266652Y179497I-2525J4184*
G01*
G75*
G02Y189271J4887*
G01*
G75*
G02X270865Y181908J-4887*
G01*
X274902Y177871*
G75*
G02X275254Y177022I-849J-850*
G01*
Y175644*
X353824*
G75*
G02X357774Y179594I3950*
G01*
G75*
G02X359602Y179145I0J-3950*
G01*
X374034Y193577*
X308561*
Y185844*
X317703*
Y176073*
X307927*
Y183010*
X306780Y184157*
G75*
G02X306474Y184896I738J738*
G01*
Y193577*
X287894*
X296398Y185072*
G75*
G02X299036Y185846I2638J-4114*
G01*
G75*
G02Y176072J-4887*
G01*
G75*
G02X294922Y183596J4887*
G01*
X285178Y193340*
X271426*
G75*
G02X266652Y189497I-4774J1044*
G01*
G75*
G02X261832Y193577J4887*
G01*
X261472*
G75*
G02X256652Y189497I-4820J807*
G01*
G75*
G02X252550Y191726J4887*
G01*
X226286*
G75*
G02X221511Y187883I-4774J1044*
G01*
G75*
G02X216691Y193577J4887*
G01*
X212620*
G37*
X216691D02*
G36*
G75*
G02X221511Y197657I4820J-807D01*
G01*
G75*
G02X226286Y193813J-4887*
G01*
X251798*
G75*
G02X256652Y199271I4854J570*
G01*
G75*
G02X261472Y193577J-4887*
G01*
X261832*
G75*
G02X266043Y199233I4820J807*
G01*
G75*
G02X261500Y203775I609J5151*
G01*
G75*
G02X256652Y199497I-4849J609*
G01*
G75*
G02X253268Y207910J4887*
G01*
X224528*
X216524Y199906*
G75*
G02X216081Y199643I-738J738*
G01*
X212620Y196182*
Y193577*
X216691*
G37*
X306474D02*
G36*
Y243931D01*
G75*
G02X306780Y244669I1044J0*
G01*
X310717Y248606*
G75*
G02X311179Y248875I738J-739*
G01*
Y254984*
X311478*
Y259620*
X300825*
G75*
G02X299781Y260663J1044*
G01*
Y271302*
G75*
G02X299087Y272691I1044J1389*
G01*
G75*
G02X302562I1737*
G01*
G75*
G02X301869Y271302I-1737*
G01*
Y261707*
X311478*
Y264350*
X311278*
G75*
G02X310266Y264770I0J1431*
G01*
X306506Y268530*
G75*
G02X306087Y269541I1012J1012*
G01*
Y277953*
X291713*
Y270037*
X295683*
Y259253*
G75*
G02X296182Y258954I-350J-1149*
G01*
X298524Y256611*
G75*
G02X298528Y254915I-849J-850*
G01*
X295772Y252140*
G75*
G02X295683Y252059I-852J846*
G01*
Y251850*
G75*
G02X296541Y251439I-154J-1423*
G01*
X298293Y249687*
G75*
G02X298713Y248675I-1012J-1012*
G01*
Y236864*
G75*
G02X298293Y235852I-1431J0*
G01*
X296502Y234061*
G75*
G02X295683Y233655I-1012J1012*
G01*
Y233376*
X291232*
Y225569*
G75*
G02X291920Y215649I-1431J-5083*
G01*
G75*
G02X289801Y204906I-2119J-5163*
G01*
G75*
G02X284851Y207910J5581*
G01*
X270456*
G75*
G02X267261Y199233I-3804J-3526*
G01*
G75*
G02X271426Y195428I-609J-4849*
G01*
X285611*
G75*
G02X286349Y195122I0J-1044*
G01*
X287894Y193577*
X306474*
G37*
X374034D02*
G36*
X382357Y201900D01*
G75*
G02X385830Y201825I1736J-75*
G01*
G75*
G02X383575Y200166I-1737*
G01*
X376986Y193577*
X390806*
X394364Y197135*
G75*
G02X394363Y197199I1736J64*
G01*
G75*
G02X397838I1737*
G01*
G75*
G02X395691Y195510I-1737*
G01*
X393757Y193577*
X408361*
Y207910*
X352075*
G75*
G02X341701I-5187*
G01*
X326326*
G75*
G02X321297Y204748I-5029J2419*
G01*
G75*
G02X319179Y215492J5581*
G01*
G75*
G02X321297Y225609I2119J4837*
G01*
G75*
G02X326159Y222390J-5281*
G01*
Y231707*
X322581Y235286*
Y233075*
X311179*
Y237071*
X311478*
Y246416*
X308561Y243499*
Y193577*
X374034*
G37*
X376986D02*
G36*
X361132Y177723D01*
G75*
G02X361724Y175644I-3358J-2080*
G01*
X372872*
X390806Y193577*
X376986*
G37*
X393757D02*
G36*
X375824Y175644D01*
X393824*
G75*
G02X397774Y179594I3950*
G01*
G75*
G02X401724Y175644J-3950*
G01*
X416591*
X408667Y183567*
G75*
G02X408361Y184305I738J738*
G01*
Y193577*
X393757*
G37*
X91317Y296667D02*
G36*
Y306667D01*
X90931*
Y296667*
X91317*
G37*
X263949D02*
G36*
X273949Y306667D01*
X257636*
Y296667*
X263949*
G37*
X269022D02*
G36*
G75*
G02X270116Y296776I1094J-5473D01*
G01*
G75*
G02X272235Y286032J-5581*
G01*
G75*
G02X275199Y282626I-2119J-4837*
G01*
X278813*
G75*
G02X281777Y286032I5083J-1431*
G01*
G75*
G02X283896Y296776I2119J5163*
G01*
G75*
G02X284990Y296667J-5581*
G01*
X296489*
G75*
G02X306263I4887*
G01*
X306489*
G75*
G02X316263I4887*
G01*
X316489*
G75*
G02X326263I4887*
G01*
X326489*
G75*
G02X336263I4887*
G01*
X345457*
Y305070*
X343860Y306667*
X336263*
G75*
G02X326489I-4887*
G01*
X326263*
G75*
G02X316489I-4887*
G01*
X316263*
G75*
G02X306489I-4887*
G01*
X306263*
G75*
G02X296489I-4887*
G01*
X277346*
X267346Y296667*
X269022*
G37*
X284990D02*
G36*
G75*
G02X286014Y286032I-1094J-5472D01*
G01*
G75*
G02X288979Y282626I-2119J-4837*
G01*
X290281*
G75*
G02X291713Y281195J-1431*
G01*
Y280815*
X307139*
G75*
G02X307896I378J-1430*
G01*
X308183*
G75*
G02X315108Y284333I5083J-1431*
G01*
X320325Y289549*
G75*
G02X321337Y289969I1012J-1012*
G01*
X345457*
Y296667*
X336263*
G75*
G02X326489I-4887*
G01*
X326263*
G75*
G02X316489I-4887*
G01*
X316263*
G75*
G02X306489I-4887*
G01*
X306263*
G75*
G02X296489I-4887*
G01*
X284990*
G37*
X430325D02*
G36*
Y306667D01*
X347907*
G75*
G02X348319Y305663I-1020J-1004*
G01*
Y296667*
X430325*
G37*
X91317Y306667D02*
G36*
Y339030D01*
G75*
G02X91622Y339768I1044J0*
G01*
X94575Y342720*
G75*
G02X95313Y343026I738J-738*
G01*
X95734*
G75*
G02X94638Y349252I3122J3759*
G01*
X91720Y352169*
G75*
G02X91415Y352907I738J738*
G01*
Y383715*
X90931*
Y306667*
X91317*
G37*
X273949D02*
G36*
X283932Y316650D01*
G75*
G02X284781Y317002I850J-849*
G01*
X302419*
G75*
G02X303269Y316650I0J-1201*
G01*
X308988Y310931*
G75*
G02X316263Y306667I2388J-4264*
G01*
X316489*
G75*
G02X323431Y311101I4887*
G01*
X329636Y317305*
G75*
G02X330648Y317724I1012J-1012*
G01*
X336258*
G75*
G02X337270Y317305I0J-1431*
G01*
X347900Y306675*
G75*
G02X347907Y306667I-1007J-1015*
G01*
X430325*
Y383715*
X372641*
G75*
G02X366573Y377646I-6068*
G01*
G75*
G02X360505Y383715J6068*
G01*
X271520*
X257636Y369831*
Y306667*
X273949*
G37*
X296489D02*
G36*
G75*
G02X306263I4887D01*
G01*
X306489*
G75*
G02X307244Y309278I4887*
G01*
X301922Y314600*
X285279*
X277346Y306667*
X296489*
G37*
X326489D02*
G36*
G75*
G02X336263I4887D01*
G01*
X343860*
X335665Y314862*
X331241*
X325564Y309186*
G75*
G02X326263Y306667I-4188J-2519*
G01*
X326489*
G37*
X90931Y163210D02*
G36*
Y150545D01*
X353371*
G75*
G02X357321Y154495I3950*
G01*
G75*
G02X361271Y150545J-3950*
G01*
X368837*
X370155Y151863*
Y163210*
X361451*
G75*
G02X357518Y158898I-3933J-362*
G01*
G75*
G02X353584Y163210J3950*
G01*
X342961*
G75*
G02X340670Y159774I-3947J150*
G01*
G75*
G02X339014Y151610I-1656J-3914*
G01*
G75*
G02X337357Y159774J4250*
G01*
G75*
G02X335067Y163210I1656J3586*
G01*
X268239*
X266241Y161212*
G75*
G02X265392Y160860I-850J849*
G01*
X200431*
G75*
G02X199582Y161212I0J1201*
G01*
X197583Y163210*
X90931*
G37*
X197583Y163211D02*
G36*
X185150Y175644D01*
X90931*
Y163211*
X197583*
G37*
X335067Y163210D02*
G36*
G75*
G02X337773Y167110I3947J150D01*
G01*
G75*
G02X339014Y174810I1241J3750*
G01*
G75*
G02X340255Y167110J-3950*
G01*
G75*
G02X342961Y163210I-1241J-3750*
G01*
X353584*
G75*
G02X357518Y166798I3933J-362*
G01*
G75*
G02X361451Y163210J-3950*
G01*
X370155*
Y172494*
G75*
G02X370461Y173232I1044J0*
G01*
X372872Y175644*
X361724*
G75*
G02X357774Y171694I-3950*
G01*
G75*
G02X353824Y175644J3950*
G01*
X275254*
Y170722*
G75*
G02X274902Y169873I-1201J0*
G01*
X268239Y163210*
X335067*
G37*
X372243D02*
G36*
Y151431D01*
G75*
G02X371937Y150693I-1044J0*
G01*
X371789Y150545*
X393371*
G75*
G02X397321Y154495I3950*
G01*
G75*
G02X401271Y150545J-3950*
G01*
X430325*
Y156945*
G75*
G02X425982Y154300I-4343J2242*
G01*
G75*
G02X423208Y163210J4887*
G01*
X401451*
G75*
G02X397518Y158898I-3933J-362*
G01*
G75*
G02X393584Y163210J3950*
G01*
X372243*
G37*
X393584D02*
G36*
G75*
G02X397518Y166798I3933J-362D01*
G01*
G75*
G02X401451Y163210J-3950*
G01*
X423208*
G75*
G02X425982Y164074I2774J-4023*
G01*
G75*
G02X430325Y161429J-4887*
G01*
Y166945*
G75*
G02X421386Y170848I-4343J2242*
G01*
X416591Y175644*
X401724*
G75*
G02X397774Y171694I-3950*
G01*
G75*
G02X393824Y175644J3950*
G01*
X375824*
X372243Y172062*
Y163210*
X393584*
G37*
X253268Y207910D02*
G36*
G75*
G02X256652Y209271I3384J-3526D01*
G01*
G75*
G02X261500Y204993J-4887*
G01*
G75*
G02X266652Y209571I5151J-609*
G01*
G75*
G02X270456Y207910J-5187*
G01*
X284851*
G75*
G02X287683Y215649I4950J2576*
G01*
G75*
G02X288370Y225569I2119J4837*
G01*
Y233376*
X284880*
Y236588*
X253206*
X224528Y207910*
X253268*
G37*
X90931Y150545D02*
G36*
Y137750D01*
X333299*
G75*
G02X336258Y145051I2959J3051*
G01*
G75*
G02X339217Y137750J-4250*
G01*
X353036*
G75*
G02X356986Y141700I3950*
G01*
G75*
G02X359267Y140975I0J-3950*
G01*
X368837Y150545*
X361271*
G75*
G02X357321Y146595I-3950*
G01*
G75*
G02X353371Y150545J3950*
G01*
X90931*
G37*
X371789D02*
G36*
X360596Y139353D01*
G75*
G02X360936Y137750I-3610J-1603*
G01*
X393036*
G75*
G02X396986Y141700I3950*
G01*
G75*
G02X400936Y137750J-3950*
G01*
X430325*
Y150545*
X401271*
G75*
G02X397321Y146595I-3950*
G01*
G75*
G02X393371Y150545J3950*
G01*
X371789*
G37*
D02*
D12*
X106426Y344355D02*
X105012Y342941D01*
X106426Y349216D02*
X105012Y350630D01*
X111287Y344355D02*
X112701Y342941D01*
X111287Y349216D02*
X112701Y350630D01*
X111758Y66768D02*
X109758D01*
X111758Y92359D02*
X109758D01*
X115195Y63331D02*
Y61331D01*
Y70205D02*
Y72205D01*
Y88922D02*
Y86922D01*
Y95796D02*
Y97796D01*
X118632Y66768D02*
X120632D01*
X118632Y92359D02*
X120632D01*
X125872Y285829D02*
X124458Y284415D01*
X125872Y291246D02*
X124458Y292660D01*
X125872Y305514D02*
X124458Y304100D01*
X125872Y310931D02*
X124458Y312345D01*
X131289Y285829D02*
X132704Y284415D01*
X131289Y291246D02*
X132704Y292660D01*
X131289Y305514D02*
X132704Y304100D01*
X131289Y310931D02*
X132704Y312345D01*
X145569Y385683D02*
X143569D01*
X147329Y243211D02*
X145915Y241796D01*
X147329Y248628D02*
X145915Y250042D01*
X147329Y256990D02*
X145915Y255576D01*
X147329Y262407D02*
X145915Y263822D01*
X148069Y383183D02*
Y381183D01*
Y388183D02*
Y390183D01*
X150569Y385683D02*
X152569D01*
X152746Y243211D02*
X154160Y241796D01*
X152746Y248628D02*
X154160Y250042D01*
X152746Y256990D02*
X154160Y255576D01*
X152746Y262407D02*
X154160Y263822D01*
X159396Y377809D02*
X157396D01*
X163817Y373388D02*
Y371388D01*
Y382230D02*
Y384230D01*
X168238Y377809D02*
X170238D01*
X173316Y63804D02*
X171902Y62390D01*
X173316Y68665D02*
X171902Y70079D01*
X173316Y73804D02*
X171902Y72390D01*
X173316Y78665D02*
X171902Y80079D01*
X173316Y83804D02*
X171902Y82390D01*
X173316Y88665D02*
X171902Y90079D01*
X176266Y325888D02*
X174852Y324474D01*
X176266Y331305D02*
X174852Y332719D01*
X177112Y274463D02*
X175112D01*
X180049D02*
X182049D01*
X181683Y325888D02*
X183097Y324474D01*
X181683Y331305D02*
X183097Y332719D01*
X182368Y233368D02*
X180954Y231954D01*
X182368Y238785D02*
X180954Y240200D01*
X184986Y377809D02*
X182986D01*
X187439Y301537D02*
Y299537D01*
Y304474D02*
Y306474D01*
X187785Y233368D02*
X189200Y231954D01*
X187785Y238785D02*
X189200Y240200D01*
X188176Y63804D02*
X189591Y62390D01*
X188176Y68665D02*
X189591Y70079D01*
X188176Y73804D02*
X189591Y72390D01*
X188176Y78665D02*
X189591Y80079D01*
X188176Y83804D02*
X189591Y82390D01*
X188176Y88665D02*
X189591Y90079D01*
X189407Y373388D02*
Y371388D01*
Y382230D02*
Y384230D01*
X193829Y377809D02*
X195829D01*
X206246Y410211D02*
X204246D01*
X207715Y411679D02*
Y413679D01*
X209829Y238785D02*
X208415Y240200D01*
X214848Y52305D02*
X213434Y50891D01*
X214848Y57722D02*
X213434Y59137D01*
X215246Y238785D02*
X216660Y240200D01*
X220266Y52305D02*
X221680Y50891D01*
X220266Y57722D02*
X221680Y59137D01*
X231974Y318014D02*
X230560Y316600D01*
X231974Y323431D02*
X230560Y324845D01*
X234533Y246951D02*
X233119Y245537D01*
X234533Y252368D02*
X233119Y253782D01*
X237392Y318014D02*
X238806Y316600D01*
X237392Y323431D02*
X238806Y324845D01*
X239951Y246951D02*
X241365Y245537D01*
X239951Y252368D02*
X241365Y253782D01*
X240049Y102317D02*
X238049D01*
X240990Y52398D02*
X238990D01*
X243049Y99317D02*
Y97317D01*
Y105317D02*
Y107317D01*
X243785Y292423D02*
X242371Y291009D01*
X243785Y297841D02*
X242371Y299255D01*
X243994Y405368D02*
X241994D01*
X244427Y48961D02*
Y46961D01*
Y55835D02*
Y57835D01*
X246049Y102317D02*
X248049D01*
X246494Y400368D02*
Y398368D01*
Y410368D02*
Y412368D01*
X247864Y52398D02*
X249864D01*
X248994Y405368D02*
X250994D01*
X249203Y292423D02*
X250617Y291009D01*
X249203Y297841D02*
X250617Y299255D01*
X259533Y247148D02*
X258119Y245733D01*
X259533Y252565D02*
X258119Y253979D01*
X264221Y201954D02*
X262807Y200539D01*
X264221Y206814D02*
X262807Y208228D01*
X264951Y247148D02*
X266365Y245733D01*
X266285Y291195D02*
X264285D01*
X269082Y201954D02*
X270496Y200539D01*
X269082Y206814D02*
X270496Y208228D01*
X270116Y295026D02*
Y297026D01*
X273947Y291195D02*
X275947D01*
X281187Y288486D02*
X279773Y287072D01*
X281187Y293904D02*
X279773Y295318D01*
X286604Y288486D02*
X288019Y287072D01*
X286604Y293904D02*
X288019Y295318D01*
X287093Y207778D02*
X285678Y206363D01*
X287093Y213195D02*
X285678Y214609D01*
X292510Y207778D02*
X293924Y206363D01*
X292510Y213195D02*
X293924Y214609D01*
X294435Y116606D02*
X292435D01*
X297872Y113169D02*
Y111169D01*
Y120043D02*
Y122043D01*
X301309Y116606D02*
X303309D01*
X312929Y235073D02*
X310929D01*
X312929Y250427D02*
X310929D01*
X312929Y252986D02*
X310929D01*
X316880Y234825D02*
Y232825D01*
Y268589D02*
Y270589D01*
X316919Y64620D02*
X314919D01*
X318589Y207620D02*
X317174Y206206D01*
X318589Y213037D02*
X317174Y214452D01*
X319919Y61620D02*
Y59620D01*
Y67620D02*
Y69620D01*
X320557Y276675D02*
X319143Y275261D01*
X320557Y282093D02*
X319143Y283507D01*
X320831Y250427D02*
X322831D01*
X320831Y252986D02*
X322831D01*
X320831Y268341D02*
X322831D01*
X322919Y64620D02*
X324919D01*
X324006Y207620D02*
X325420Y206206D01*
X324006Y213037D02*
X325420Y214452D01*
X324140Y90258D02*
X322726Y88844D01*
X324140Y95675D02*
X322726Y97089D01*
X325974Y276675D02*
X327389Y275261D01*
X325974Y282093D02*
X327389Y283507D01*
X329557Y90258D02*
X330971Y88844D01*
X329557Y95675D02*
X330971Y97089D01*
X334490Y139033D02*
X333076Y137619D01*
X334490Y142569D02*
X333076Y143983D01*
X337246Y154093D02*
X335832Y152678D01*
X337246Y157628D02*
X335832Y159042D01*
X338026Y139033D02*
X339440Y137619D01*
X338026Y142569D02*
X339440Y143983D01*
X340781Y154093D02*
X342196Y152678D01*
X340781Y157628D02*
X342196Y159042D01*
X343451Y207910D02*
X341451D01*
X346888Y204473D02*
Y202473D01*
Y211347D02*
Y213347D01*
X350325Y207910D02*
X352325D01*
X360363Y29778D02*
X358363D01*
X363800Y26341D02*
Y24341D01*
Y33215D02*
Y35215D01*
X367237Y29778D02*
X369237D01*
D02*
D16*
X134289Y345683D03*
Y385683D03*
X148069Y345683D03*
Y385683D03*
X164467Y125053D03*
X166730Y24955D03*
X194467Y125053D03*
X196730Y24955D03*
X279959Y45230D03*
Y85230D03*
X336258Y125801D03*
Y133301D03*
Y140801D03*
X339014Y155860D03*
Y163360D03*
Y170860D03*
X346888Y243951D03*
Y283951D03*
X356986Y137750D03*
X357321Y150545D03*
X357518Y162848D03*
X357774Y175644D03*
X360667Y243951D03*
Y283951D03*
X396986Y137750D03*
X397321Y150545D03*
X397518Y162848D03*
X397774Y175644D03*
D02*
D17*
X128581Y288537D03*
Y308222D03*
X138581Y288537D03*
Y308222D03*
X150037Y245919D03*
Y259699D03*
X158108Y288537D03*
Y308537D03*
X160037Y245919D03*
Y259699D03*
X178974Y318596D03*
Y328596D03*
X185077Y236077D03*
Y246077D03*
X212537Y236077D03*
Y246077D03*
X217557Y55014D03*
Y65014D03*
X227242Y249659D03*
X234683Y310722D03*
Y320722D03*
X236494Y295132D03*
X237242Y249659D03*
X246494Y295132D03*
X262242Y249856D03*
X270116Y281195D03*
Y291195D03*
X272242Y249856D03*
X283896Y281195D03*
Y291195D03*
X289801Y210486D03*
Y220486D03*
X313266Y279384D03*
X321297Y210329D03*
Y220329D03*
X323266Y279384D03*
X326848Y92967D03*
X336848D03*
D02*
D18*
X112636Y215031D03*
X115195Y66768D03*
Y106138D03*
X207732Y192770D03*
X244427Y66178D03*
X297872Y102826D03*
X312815Y180959D03*
X346888Y221689D03*
X377579Y29778D03*
X395626Y220427D03*
D02*
D71*
X163817Y346313D03*
Y364030D03*
Y377809D03*
Y395526D03*
X189407Y346313D03*
Y364030D03*
Y377809D03*
Y395526D03*
D02*
D25*
X246494Y405368D03*
X256494D03*
X266494D03*
X276494D03*
X286494D03*
X296494D03*
D02*
D26*
X98856Y316785D03*
Y326785D03*
Y336785D03*
Y346785D03*
Y356785D03*
X108856Y316785D03*
Y326785D03*
Y336785D03*
Y346785D03*
Y356785D03*
X112636Y228811D03*
X115195Y52989D03*
Y92359D03*
X175746Y66234D03*
Y76234D03*
Y86234D03*
Y96234D03*
X185746Y56234D03*
Y66234D03*
Y76234D03*
Y86234D03*
Y96234D03*
X221511Y192770D03*
X244329Y376726D03*
X244427Y52398D03*
X256652Y174384D03*
Y184384D03*
Y194384D03*
Y204384D03*
X266652Y174384D03*
Y184384D03*
Y194384D03*
Y204384D03*
X297872Y116606D03*
X299036Y180959D03*
X301376Y296667D03*
Y306667D03*
X311376Y296667D03*
Y306667D03*
X321376Y296667D03*
Y306667D03*
X331376Y296667D03*
Y306667D03*
X346888Y207910D03*
X363800Y29778D03*
X409405Y220427D03*
X425982Y159187D03*
Y169187D03*
Y179187D03*
D02*
D27*
X160037Y259699D02*
Y245919D01*
X178581Y253596D03*
Y272494D02*
X172833D01*
X160037Y259699*
X178974Y318596D02*
Y310781D01*
X179073*
X185470Y304384*
Y303006*
X183207Y256451D03*
X185077Y246077D02*
Y252907D01*
X185175*
X189407Y257140*
Y259699*
X187439D02*
Y263636D01*
X189407Y316195D03*
X191376Y323675D03*
X193443Y206943D03*
X199250Y223774D03*
Y307337D03*
X200037Y360781D03*
X200234Y353793D03*
X201219Y227219D03*
X203187Y394640D03*
X207124Y259699D02*
Y263439D01*
X217557Y65014D02*
Y66178D01*
X244427*
X217715Y410211D02*
Y413734D01*
X220411Y215031D03*
X221888Y296116D02*
Y297927D01*
X234683Y310722*
X222715Y410211D02*
Y413537D01*
X227242Y249659D02*
X225037D01*
X214998Y259699*
X233049Y102317D02*
Y66178D01*
X244427*
X234683Y310722D02*
X238128D01*
X244329Y316923*
Y376726*
X252695Y279285D03*
X256435Y242179D03*
X261455Y243852D03*
X265392Y255545D03*
Y270526D03*
X268935Y260663D03*
Y272691D03*
X270116Y281195D02*
X283896D01*
X272242Y249856D02*
Y250427D01*
X290281*
X276711Y274659D03*
X289801Y220486D02*
Y235073D01*
X290281*
X295490*
X297281Y236864*
Y248675*
X295530Y250427*
X290281*
Y242750D02*
X283502D01*
X290281Y268341D02*
Y279384D01*
Y281195*
X283896*
X300825Y272691D03*
X307518Y279384D02*
X290281D01*
X313266D02*
Y280467D01*
X321337Y288537*
X346888*
Y283951*
X313266Y279384D02*
X307518D01*
X316880Y265781D02*
X311278D01*
X307518Y269541*
Y279384*
X321376Y306667D02*
Y307022D01*
X330648Y316293*
X336258*
X346888Y305663*
Y283951*
X360667D02*
X346888D01*
X384093Y201825D03*
X396100Y197199D03*
D02*
D29*
X138581Y288537D02*
X158108D01*
X138581Y308222D02*
X158108D01*
Y308537*
X178581Y266589D02*
Y253596D01*
Y268557D02*
X176317D01*
X170510Y262750*
Y191982*
X200431Y162061*
X265392*
X274053Y170722*
Y177022*
X266691Y184384*
X266652*
X178581Y270526D02*
X175726D01*
X167557Y262356*
Y242376*
X163030Y237848*
X147872*
X92360Y293360*
Y339030*
X95313Y341982*
X103837*
X108856Y336963*
Y336785*
X178581Y280368D02*
X176415D01*
X164112Y268065*
X121593*
X98856Y290801*
Y316785*
X178581Y282337D02*
X174841D01*
X163030Y270526*
Y270329*
X123266*
X103778Y289817*
Y321766*
X108797Y326785*
X108856*
X178581Y284305D02*
X170116D01*
X164998Y279187*
X127203*
X117951Y288439*
Y369541*
X134093Y385683*
X134289*
X178581Y286274D02*
X158108D01*
Y288537*
X178581Y288242D02*
X176219D01*
X165293Y299167*
Y301431*
X158187Y308537*
X158108*
X185470Y259699D02*
X183207D01*
Y256451*
X189407Y303006D02*
Y316195D01*
Y346313D02*
X193344D01*
Y303006*
X191376Y259699D02*
Y184896D01*
X210667Y165604*
X257911*
X266652Y174344*
Y174384*
X191376Y303006D02*
Y323675D01*
X193344Y259699D02*
Y251136D01*
X193246Y251037*
Y206943*
X193443*
X195313Y259699D02*
Y186274D01*
X207203Y174384*
X256652*
X195313Y303006D02*
Y356057D01*
X200037Y360781*
X197281Y259699D02*
Y189226D01*
X202124Y184384*
X256652*
X197281Y303006D02*
Y350841D01*
X200234Y353793*
X199250Y259699D02*
Y223774D01*
Y303006D02*
Y307337D01*
X201219Y259699D02*
Y227219D01*
X203187Y303006D02*
Y394640D01*
X209093Y259699D02*
Y257435D01*
X204565Y252907*
Y232238*
X208108Y228695*
X220805*
Y228892*
X234093Y242179*
X256435*
X209093Y303006D02*
Y391785D01*
X204270Y396608*
X204171*
X198069Y402711*
X144526*
X98856Y357041*
Y356785*
X211061Y259699D02*
Y256549D01*
X206927Y252415*
Y232927*
X209093Y230762*
X218640*
Y230860*
X231632Y243852*
X261455*
X211061Y303006D02*
Y393262D01*
X206041Y398281*
X205844*
X197872Y406254*
X107321*
X92459Y391392*
Y352907*
X98581Y346785*
X98856*
X213030Y259699D02*
Y246077D01*
X212537*
X213030Y303006D02*
Y405211D01*
X212715*
X214998Y303006D02*
Y391096D01*
X215096*
X222715Y398715*
Y405211*
X221511Y192770D02*
X256652D01*
Y194384*
X221888Y266589D02*
X258699D01*
X267163Y258124*
Y258104*
X290281*
X221888Y268557D02*
X271888D01*
X277203Y263242*
Y263222*
X290281*
X221888Y270526D02*
X265392D01*
X221888Y284305D02*
X252301D01*
X256435Y288439*
Y370329*
X275037Y388931*
X275175*
X286494Y400250*
Y405368*
X221888Y286274D02*
X251612D01*
X254467Y289128*
Y377415*
X269604Y392553*
Y392671*
X276494Y399561*
Y405368*
X221888Y292179D02*
X229073D01*
X231730Y289522*
X251711*
X252596Y290407*
Y378104*
X252400*
X227892Y402612*
Y405211*
X227715*
X221888Y294148D02*
X236494D01*
Y295132*
X252695Y279285D02*
X252793D01*
X261159Y287652*
Y292179*
X284781Y315801*
X302419*
X311376Y306844*
Y306667*
X266652Y194384D02*
X285611D01*
X299036Y180959*
X268935Y272691D02*
Y272494D01*
X221888*
X276711Y274659D02*
Y274463D01*
X221888*
X290281Y237632D02*
X252774D01*
X215785Y200644*
X215606*
X207732Y192770*
X290281Y240191D02*
X245490D01*
X220411Y215112*
Y215031*
X290281Y255545D02*
X265392D01*
X290281Y258104D02*
X295333D01*
X297675Y255762*
Y255742*
X294919Y252986*
X290281*
Y260663D02*
X268935D01*
X316880Y237632D02*
X321711D01*
X327203Y232140*
Y220329*
X321297*
X316880Y245309D02*
X335490D01*
X349447Y231352*
X384978*
X395626Y220705*
Y220427*
X316880Y247868D02*
X311455D01*
X307518Y243931*
Y184896*
X311455Y180959*
X312815*
X316880Y255545D02*
X335293D01*
X346888Y243951*
X316880Y258104D02*
X346514D01*
X360667Y243951*
X316880Y260663D02*
X300825D01*
Y272691*
X321297Y220329D02*
X346888D01*
Y221689*
X384093Y201825D02*
X383758D01*
X357774Y175841*
Y175644*
X396100Y197199D02*
X395904D01*
X371199Y172494*
Y151431*
X357518Y137750*
X356986*
X425982Y169187D02*
X424523D01*
X409405Y184305*
Y220427*
D02*
D91*
X178581Y266589D03*
Y268557D03*
Y270526D03*
Y272494D03*
Y274463D03*
Y276431D03*
Y278400D03*
Y280368D03*
Y282337D03*
Y284305D03*
Y286274D03*
Y288242D03*
Y290211D03*
Y292179D03*
Y294148D03*
Y296116D03*
X221888Y266589D03*
Y268557D03*
Y270526D03*
Y272494D03*
Y274463D03*
Y276431D03*
Y278400D03*
Y280368D03*
Y282337D03*
Y284305D03*
Y286274D03*
Y288242D03*
Y290211D03*
Y292179D03*
Y294148D03*
Y296116D03*
D02*
D92*
X185470Y259699D03*
Y303006D03*
X187439Y259699D03*
Y303006D03*
X189407Y259699D03*
Y303006D03*
X191376Y259699D03*
Y303006D03*
X193344Y259699D03*
Y303006D03*
X195313Y259699D03*
Y303006D03*
X197281Y259699D03*
Y303006D03*
X199250Y259699D03*
Y303006D03*
X201219Y259699D03*
Y303006D03*
X203187Y259699D03*
Y303006D03*
X205156Y259699D03*
Y303006D03*
X207124Y259699D03*
Y303006D03*
X209093Y259699D03*
Y303006D03*
X211061Y259699D03*
Y303006D03*
X213030Y259699D03*
Y303006D03*
X214998Y259699D03*
Y303006D03*
D02*
D93*
X175746Y56234D03*
D02*
D94*
X180746Y52848D03*
Y68439D03*
Y84030D03*
Y99620D03*
D02*
D96*
X290281Y235073D03*
Y237632D03*
Y240191D03*
Y242750D03*
Y245309D03*
Y247868D03*
Y250427D03*
Y252986D03*
Y255545D03*
Y258104D03*
Y260663D03*
Y263222D03*
Y265781D03*
Y268341D03*
X316880Y235073D03*
Y237632D03*
Y240191D03*
Y242750D03*
Y245309D03*
Y247868D03*
Y250427D03*
Y252986D03*
Y255545D03*
Y258104D03*
Y260663D03*
Y263222D03*
Y265781D03*
Y268341D03*
D02*
D97*
X207715Y405211D03*
Y410211D03*
X212715Y405211D03*
Y410211D03*
X217715Y405211D03*
Y410211D03*
X222715Y405211D03*
Y410211D03*
X227715Y405211D03*
Y410211D03*
D02*
D134*
X233049Y102317D03*
X243049D03*
X253049D03*
X309919Y64620D03*
X319919D03*
X329919D03*
X0Y0D02*
M02*
