%FSLAX35Y35*%
%MOIN*%
G04 EasyPC Gerber Version 18.0.8 Build 3632 *
%ADD10C,0.00500*%
%ADD87C,0.10000*%
X0Y0D02*
D02*
D10*
X108856Y322723D02*
Y326473D01*
X110731*
X111356Y326161*
X111669Y325848*
X111981Y325223*
Y323973*
X111669Y323348*
X111356Y323035*
X110731Y322723*
X108856*
Y332723D02*
Y336473D01*
X110731*
X111356Y336161*
X111669Y335848*
X111981Y335223*
Y333973*
X111669Y333348*
X111356Y333035*
X110731Y332723*
X108856*
Y342723D02*
Y346473D01*
X110731*
X111356Y346161*
X111669Y345848*
X111981Y345223*
Y343973*
X111669Y343348*
X111356Y343035*
X110731Y342723*
X108856*
Y352723D02*
Y356473D01*
X110731*
X111356Y356161*
X111669Y355848*
X111981Y355223*
Y353973*
X111669Y353348*
X111356Y353035*
X110731Y352723*
X108856*
Y362723D02*
Y366473D01*
X110731*
X111356Y366161*
X111669Y365848*
X111981Y365223*
Y363973*
X111669Y363348*
X111356Y363035*
X110731Y362723*
X108856*
Y415243D02*
Y418993D01*
X111981Y415243*
Y418993*
X118856Y322723D02*
Y326473D01*
X120731*
X121356Y326161*
X121669Y325848*
X121981Y325223*
Y323973*
X121669Y323348*
X121356Y323035*
X120731Y322723*
X118856*
Y332723D02*
Y336473D01*
X120731*
X121356Y336161*
X121669Y335848*
X121981Y335223*
Y333973*
X121669Y333348*
X121356Y333035*
X120731Y332723*
X118856*
Y342723D02*
Y346473D01*
X120731*
X121356Y346161*
X121669Y345848*
X121981Y345223*
Y343973*
X121669Y343348*
X121356Y343035*
X120731Y342723*
X118856*
Y352723D02*
Y356473D01*
X120731*
X121356Y356161*
X121669Y355848*
X121981Y355223*
Y353973*
X121669Y353348*
X121356Y353035*
X120731Y352723*
X118856*
Y362723D02*
Y366473D01*
X120731*
X121356Y366161*
X121669Y365848*
X121981Y365223*
Y363973*
X121669Y363348*
X121356Y363035*
X120731Y362723*
X118856*
X124823Y222844D02*
X125448Y222531D01*
X125761Y221906*
X125448Y221281*
X124823Y220969*
X122636*
Y224719*
X124823*
X125448Y224406*
X125761Y223781*
X125448Y223156*
X124823Y222844*
X122636*
Y234748D02*
Y238498D01*
X124511*
X125136Y238186*
X125448Y237873*
X125761Y237248*
Y235998*
X125448Y235373*
X125136Y235061*
X124511Y234748*
X122636*
X125195Y58926D02*
Y62676D01*
X127070*
X127695Y62364*
X128007Y62051*
X128320Y61426*
Y60176*
X128007Y59551*
X127695Y59239*
X127070Y58926*
X125195*
X127382Y74581D02*
X128007Y74268D01*
X128320Y73643*
X128007Y73018*
X127382Y72706*
X125195*
Y76456*
X127382*
X128007Y76143*
X128320Y75518*
X128007Y74893*
X127382Y74581*
X125195*
Y98296D02*
Y102046D01*
X127070*
X127695Y101734*
X128007Y101421*
X128320Y100796*
Y99546*
X128007Y98921*
X127695Y98609*
X127070Y98296*
X125195*
X127382Y113951D02*
X128007Y113638D01*
X128320Y113013*
X128007Y112388*
X127382Y112076*
X125195*
Y115826*
X127382*
X128007Y115513*
X128320Y114888*
X128007Y114263*
X127382Y113951*
X125195*
X141706Y295100D02*
X141393Y294787D01*
X140768Y294475*
X139831*
X139206Y294787*
X138893Y295100*
X138581Y295725*
Y296975*
X138893Y297600*
X139206Y297913*
X139831Y298225*
X140768*
X141393Y297913*
X141706Y297600*
Y314785D02*
X141393Y314472D01*
X140768Y314160*
X139831*
X139206Y314472*
X138893Y314785*
X138581Y315410*
Y316660*
X138893Y317285*
X139206Y317598*
X139831Y317910*
X140768*
X141393Y317598*
X141706Y317285*
X146477Y353496D02*
X147102Y353183D01*
X147415Y352558*
X147102Y351933*
X146477Y351620*
X144289*
Y355370*
X146477*
X147102Y355058*
X147415Y354433*
X147102Y353808*
X146477Y353496*
X144289*
X146477Y393496D02*
X147102Y393183D01*
X147415Y392558*
X147102Y391933*
X146477Y391620*
X144289*
Y395370*
X146477*
X147102Y395058*
X147415Y394433*
X147102Y393808*
X146477Y393496*
X144289*
X151706Y295100D02*
X151393Y294787D01*
X150768Y294475*
X149831*
X149206Y294787*
X148893Y295100*
X148581Y295725*
Y296975*
X148893Y297600*
X149206Y297913*
X149831Y298225*
X150768*
X151393Y297913*
X151706Y297600*
Y314785D02*
X151393Y314472D01*
X150768Y314160*
X149831*
X149206Y314472*
X148893Y314785*
X148581Y315410*
Y316660*
X148893Y317285*
X149206Y317598*
X149831Y317910*
X150768*
X151393Y317598*
X151706Y317285*
X155116Y63865D02*
Y67615D01*
X158241Y63865*
Y67615*
X160256Y353496D02*
X160881Y353183D01*
X161194Y352558*
X160881Y351933*
X160256Y351620*
X158069*
Y355370*
X160256*
X160881Y355058*
X161194Y354433*
X160881Y353808*
X160256Y353496*
X158069*
X160256Y393496D02*
X160881Y393183D01*
X161194Y392558*
X160881Y391933*
X160256Y391620*
X158069*
Y395370*
X160256*
X160881Y395058*
X161194Y394433*
X160881Y393808*
X160256Y393496*
X158069*
X163163Y252482D02*
X162850Y252169D01*
X162225Y251857*
X161287*
X160663Y252169*
X160350Y252482*
X160037Y253107*
Y254357*
X160350Y254982*
X160663Y255294*
X161287Y255607*
X162225*
X162850Y255294*
X163163Y254982*
Y266261D02*
X162850Y265949D01*
X162225Y265636*
X161287*
X160663Y265949*
X160350Y266261*
X160037Y266886*
Y268136*
X160350Y268761*
X160663Y269074*
X161287Y269386*
X162225*
X162850Y269074*
X163163Y268761*
X171233Y295100D02*
X170921Y294787D01*
X170296Y294475*
X169358*
X168733Y294787*
X168421Y295100*
X168108Y295725*
Y296975*
X168421Y297600*
X168733Y297913*
X169358Y298225*
X170296*
X170921Y297913*
X171233Y297600*
Y315100D02*
X170921Y314787D01*
X170296Y314475*
X169358*
X168733Y314787*
X168421Y315100*
X168108Y315725*
Y316975*
X168421Y317600*
X168733Y317913*
X169358Y318225*
X170296*
X170921Y317913*
X171233Y317600*
X173163Y252482D02*
X172850Y252169D01*
X172225Y251857*
X171287*
X170663Y252169*
X170350Y252482*
X170037Y253107*
Y254357*
X170350Y254982*
X170663Y255294*
X171287Y255607*
X172225*
X172850Y255294*
X173163Y254982*
Y266261D02*
X172850Y265949D01*
X172225Y265636*
X171287*
X170663Y265949*
X170350Y266261*
X170037Y266886*
Y268136*
X170350Y268761*
X170663Y269074*
X171287Y269386*
X172225*
X172850Y269074*
X173163Y268761*
X173817Y352250D02*
Y356000D01*
X176942*
X176317Y354126D02*
X173817D01*
Y369967D02*
Y373717D01*
X176942*
X176317Y371842D02*
X173817D01*
Y383746D02*
Y387496D01*
X176942*
X176317Y385622D02*
X173817D01*
Y401463D02*
Y405213D01*
X176942*
X176317Y403338D02*
X173817D01*
X174467Y130991D02*
Y134741D01*
X176342*
X176967Y134428*
X177279Y134116*
X177592Y133491*
Y132241*
X177279Y131616*
X176967Y131303*
X176342Y130991*
X174467*
X176730Y30892D02*
Y34642D01*
X178606*
X179230Y34330*
X179543Y34017*
X179856Y33392*
Y32142*
X179543Y31517*
X179230Y31205*
X178606Y30892*
X176730*
X185746Y62172D02*
Y65922D01*
X187621*
X188246Y65609*
X188559Y65297*
X188871Y64672*
Y63422*
X188559Y62797*
X188246Y62484*
X187621Y62172*
X185746*
Y72172D02*
Y75922D01*
X187621*
X188246Y75609*
X188559Y75297*
X188871Y74672*
Y73422*
X188559Y72797*
X188246Y72484*
X187621Y72172*
X185746*
Y82172D02*
Y85922D01*
X187621*
X188246Y85609*
X188559Y85297*
X188871Y84672*
Y83422*
X188559Y82797*
X188246Y82484*
X187621Y82172*
X185746*
Y92172D02*
Y95922D01*
X187621*
X188246Y95609*
X188559Y95297*
X188871Y94672*
Y93422*
X188559Y92797*
X188246Y92484*
X187621Y92172*
X185746*
Y102172D02*
Y105922D01*
X187621*
X188246Y105609*
X188559Y105297*
X188871Y104672*
Y103422*
X188559Y102797*
X188246Y102484*
X187621Y102172*
X185746*
X188581Y259534D02*
Y263284D01*
X190143Y261409*
X191706Y263284*
Y259534*
X192100Y325159D02*
X191787Y324846D01*
X191162Y324534*
X190224*
X189600Y324846*
X189287Y325159*
X188974Y325784*
Y327034*
X189287Y327659*
X189600Y327972*
X190224Y328284*
X191162*
X191787Y327972*
X192100Y327659*
Y335159D02*
X191787Y334846D01*
X191162Y334534*
X190224*
X189600Y334846*
X189287Y335159*
X188974Y335784*
Y337034*
X189287Y337659*
X189600Y337972*
X190224Y338284*
X191162*
X191787Y337972*
X192100Y337659*
X190746Y58786D02*
Y62536D01*
Y60661D02*
X191683D01*
X193871Y62536*
X191683Y60661D02*
X193871Y58786D01*
X190746Y74376D02*
Y78126D01*
Y76252D02*
X191683D01*
X193871Y78126*
X191683Y76252D02*
X193871Y74376D01*
X190746Y89967D02*
Y93717D01*
Y91842D02*
X191683D01*
X193871Y93717*
X191683Y91842D02*
X193871Y89967D01*
X190746Y105557D02*
Y109307D01*
Y107433D02*
X191683D01*
X193871Y109307*
X191683Y107433D02*
X193871Y105557D01*
X193207Y262388D02*
Y266138D01*
X194769Y264263*
X196332Y266138*
Y262388*
X198202Y242639D02*
X197889Y242327D01*
X197264Y242014*
X196327*
X195702Y242327*
X195389Y242639*
X195077Y243264*
Y244514*
X195389Y245139*
X195702Y245452*
X196327Y245764*
X197264*
X197889Y245452*
X198202Y245139*
Y252639D02*
X197889Y252327D01*
X197264Y252014*
X196327*
X195702Y252327*
X195389Y252639*
X195077Y253264*
Y254514*
X195389Y255139*
X195702Y255452*
X196327Y255764*
X197264*
X197889Y255452*
X198202Y255139*
X195746Y62172D02*
Y65922D01*
X197621*
X198246Y65609*
X198559Y65297*
X198871Y64672*
Y63422*
X198559Y62797*
X198246Y62484*
X197621Y62172*
X195746*
Y72172D02*
Y75922D01*
X197621*
X198246Y75609*
X198559Y75297*
X198871Y74672*
Y73422*
X198559Y72797*
X198246Y72484*
X197621Y72172*
X195746*
Y82172D02*
Y85922D01*
X197621*
X198246Y85609*
X198559Y85297*
X198871Y84672*
Y83422*
X198559Y82797*
X198246Y82484*
X197621Y82172*
X195746*
Y92172D02*
Y95922D01*
X197621*
X198246Y95609*
X198559Y95297*
X198871Y94672*
Y93422*
X198559Y92797*
X198246Y92484*
X197621Y92172*
X195746*
Y102172D02*
Y105922D01*
X197621*
X198246Y105609*
X198559Y105297*
X198871Y104672*
Y103422*
X198559Y102797*
X198246Y102484*
X197621Y102172*
X195746*
X199407Y322132D02*
Y325882D01*
X200970Y324007*
X202533Y325882*
Y322132*
X199407Y352250D02*
Y356000D01*
X202533*
X201907Y354126D02*
X199407D01*
Y369967D02*
Y373717D01*
X202533*
X201907Y371842D02*
X199407D01*
Y383746D02*
Y387496D01*
X202533*
X201907Y385622D02*
X199407D01*
Y401463D02*
Y405213D01*
X202533*
X201907Y403338D02*
X199407D01*
X201376Y329613D02*
Y333363D01*
X202939Y331488*
X204501Y333363*
Y329613*
X203443Y212880D02*
Y216630D01*
X205006Y214756*
X206568Y216630*
Y212880*
X204467Y130991D02*
Y134741D01*
X206342*
X206967Y134428*
X207279Y134116*
X207592Y133491*
Y132241*
X207279Y131616*
X206967Y131303*
X206342Y130991*
X204467*
X206730Y30892D02*
Y34642D01*
X208606*
X209230Y34330*
X209543Y34017*
X209856Y33392*
Y32142*
X209543Y31517*
X209230Y31205*
X208606Y30892*
X206730*
X209250Y229711D02*
Y233461D01*
X210813Y231586*
X212375Y233461*
Y229711*
X209250Y313274D02*
Y317024D01*
X210813Y315149*
X212375Y317024*
Y313274*
X210037Y366719D02*
Y370469D01*
X211600Y368594*
X213163Y370469*
Y366719*
X210234Y359731D02*
Y363481D01*
X211797Y361606*
X213359Y363481*
Y359731*
X211219Y233156D02*
Y236906D01*
X212781Y235031*
X214344Y236906*
Y233156*
X213187Y400577D02*
Y404327D01*
X214750Y402452*
X216312Y404327*
Y400577*
X219902Y413023D02*
X220527Y412711D01*
X220840Y412086*
X220527Y411461*
X219902Y411148*
X217715*
Y414898*
X219902*
X220527Y414586*
X220840Y413961*
X220527Y413336*
X219902Y413023*
X217715*
X219902Y418023D02*
X220527Y417711D01*
X220840Y417086*
X220527Y416461*
X219902Y416148*
X217715*
Y419898*
X219902*
X220527Y419586*
X220840Y418961*
X220527Y418336*
X219902Y418023*
X217715*
X219919Y200582D02*
X220544Y200270D01*
X220857Y199645*
X220544Y199020*
X219919Y198707*
X217732*
Y202457*
X219919*
X220544Y202145*
X220857Y201520*
X220544Y200895*
X219919Y200582*
X217732*
X225663Y242639D02*
X225350Y242327D01*
X224725Y242014*
X223787*
X223163Y242327*
X222850Y242639*
X222537Y243264*
Y244514*
X222850Y245139*
X223163Y245452*
X223787Y245764*
X224725*
X225350Y245452*
X225663Y245139*
Y252639D02*
X225350Y252327D01*
X224725Y252014*
X223787*
X223163Y252327*
X222850Y252639*
X222537Y253264*
Y254514*
X222850Y255139*
X223163Y255452*
X223787Y255764*
X224725*
X225350Y255452*
X225663Y255139*
X224902Y413023D02*
X225527Y412711D01*
X225840Y412086*
X225527Y411461*
X224902Y411148*
X222715*
Y414898*
X224902*
X225527Y414586*
X225840Y413961*
X225527Y413336*
X224902Y413023*
X222715*
X224902Y418023D02*
X225527Y417711D01*
X225840Y417086*
X225527Y416461*
X224902Y416148*
X222715*
Y419898*
X224902*
X225527Y419586*
X225840Y418961*
X225527Y418336*
X224902Y418023*
X222715*
X230682Y61576D02*
X230370Y61264D01*
X229744Y60951*
X228807*
X228182Y61264*
X227870Y61576*
X227557Y62201*
Y63451*
X227870Y64076*
X228182Y64389*
X228807Y64701*
X229744*
X230370Y64389*
X230682Y64076*
Y71576D02*
X230370Y71264D01*
X229744Y70951*
X228807*
X228182Y71264*
X227870Y71576*
X227557Y72201*
Y73451*
X227870Y74076*
X228182Y74389*
X228807Y74701*
X229744*
X230370Y74389*
X230682Y74076*
X229902Y413023D02*
X230527Y412711D01*
X230840Y412086*
X230527Y411461*
X229902Y411148*
X227715*
Y414898*
X229902*
X230527Y414586*
X230840Y413961*
X230527Y413336*
X229902Y413023*
X227715*
X229902Y418023D02*
X230527Y417711D01*
X230840Y417086*
X230527Y416461*
X229902Y416148*
X227715*
Y419898*
X229902*
X230527Y419586*
X230840Y418961*
X230527Y418336*
X229902Y418023*
X227715*
X230411Y220969D02*
Y224719D01*
X231974Y222844*
X233537Y224719*
Y220969*
X231511Y198707D02*
Y202457D01*
X233387*
X234011Y202145*
X234324Y201832*
X234637Y201207*
Y199957*
X234324Y199332*
X234011Y199020*
X233387Y198707*
X231511*
X234902Y413023D02*
X235527Y412711D01*
X235840Y412086*
X235527Y411461*
X234902Y411148*
X232715*
Y414898*
X234902*
X235527Y414586*
X235840Y413961*
X235527Y413336*
X234902Y413023*
X232715*
X234902Y418023D02*
X235527Y417711D01*
X235840Y417086*
X235527Y416461*
X234902Y416148*
X232715*
Y419898*
X234902*
X235527Y419586*
X235840Y418961*
X235527Y418336*
X234902Y418023*
X232715*
X240367Y256222D02*
X240055Y255909D01*
X239430Y255597*
X238492*
X237867Y255909*
X237555Y256222*
X237242Y256847*
Y258097*
X237555Y258722*
X237867Y259035*
X238492Y259347*
X239430*
X240055Y259035*
X240367Y258722*
X239902Y413023D02*
X240527Y412711D01*
X240840Y412086*
X240527Y411461*
X239902Y411148*
X237715*
Y414898*
X239902*
X240527Y414586*
X240840Y413961*
X240527Y413336*
X239902Y413023*
X237715*
X239902Y418023D02*
X240527Y417711D01*
X240840Y417086*
X240527Y416461*
X239902Y416148*
X237715*
Y419898*
X239902*
X240527Y419586*
X240840Y418961*
X240527Y418336*
X239902Y418023*
X237715*
X243049Y108254D02*
Y112004D01*
X245237*
X245862Y111692*
X246174Y111067*
X245862Y110442*
X245237Y110130*
X243049*
X245237D02*
X246174Y108254D01*
X247808Y317285D02*
X247496Y316972D01*
X246870Y316660*
X245933*
X245308Y316972*
X244996Y317285*
X244683Y317910*
Y319160*
X244996Y319785*
X245308Y320098*
X245933Y320410*
X246870*
X247496Y320098*
X247808Y319785*
Y327285D02*
X247496Y326972D01*
X246870Y326660*
X245933*
X245308Y326972*
X244996Y327285*
X244683Y327910*
Y329160*
X244996Y329785*
X245308Y330098*
X245933Y330410*
X246870*
X247496Y330098*
X247808Y329785*
X249619Y301694D02*
X249307Y301382D01*
X248681Y301069*
X247744*
X247119Y301382*
X246807Y301694*
X246494Y302319*
Y303569*
X246807Y304194*
X247119Y304507*
X247744Y304819*
X248681*
X249307Y304507*
X249619Y304194*
X250367Y256222D02*
X250055Y255909D01*
X249430Y255597*
X248492*
X247867Y255909*
X247555Y256222*
X247242Y256847*
Y258097*
X247555Y258722*
X247867Y259035*
X248492Y259347*
X249430*
X250055Y259035*
X250367Y258722*
X253049Y108254D02*
Y112004D01*
X255237*
X255862Y111692*
X256174Y111067*
X255862Y110442*
X255237Y110130*
X253049*
X255237D02*
X256174Y108254D01*
X256516Y384539D02*
X257141Y384226D01*
X257454Y383602*
X257141Y382976*
X256516Y382664*
X254329*
Y386414*
X256516*
X257141Y386102*
X257454Y385476*
X257141Y384852*
X256516Y384539*
X254329*
X254427Y58335D02*
Y62085D01*
X256302*
X256927Y61773*
X257240Y61461*
X257552Y60835*
Y59585*
X257240Y58961*
X256927Y58648*
X256302Y58335*
X254427*
X256615Y73990D02*
X257240Y73678D01*
X257552Y73053*
X257240Y72428*
X256615Y72115*
X254427*
Y75865*
X256615*
X257240Y75553*
X257552Y74928*
X257240Y74303*
X256615Y73990*
X254427*
X259619Y301694D02*
X259307Y301382D01*
X258681Y301069*
X257744*
X257119Y301382*
X256807Y301694*
X256494Y302319*
Y303569*
X256807Y304194*
X257119Y304507*
X257744Y304819*
X258681*
X259307Y304507*
X259619Y304194*
X256494Y411306D02*
Y415056D01*
X258369*
X258994Y414743*
X259307Y414431*
X259619Y413806*
Y412556*
X259307Y411931*
X258994Y411618*
X258369Y411306*
X256494*
X262695Y285223D02*
Y288973D01*
X264257Y287098*
X265820Y288973*
Y285223*
X263049Y108254D02*
Y112004D01*
X265237*
X265862Y111692*
X266174Y111067*
X265862Y110442*
X265237Y110130*
X263049*
X265237D02*
X266174Y108254D01*
X266435Y248117D02*
Y251867D01*
X267998Y249992*
X269560Y251867*
Y248117*
X266494Y411306D02*
Y415056D01*
X268369*
X268994Y414743*
X269307Y414431*
X269619Y413806*
Y412556*
X269307Y411931*
X268994Y411618*
X268369Y411306*
X266494*
X266652Y180321D02*
Y184071D01*
X268527*
X269152Y183759*
X269464Y183446*
X269777Y182821*
Y181571*
X269464Y180946*
X269152Y180634*
X268527Y180321*
X266652*
Y190321D02*
Y194071D01*
X268527*
X269152Y193759*
X269464Y193446*
X269777Y192821*
Y191571*
X269464Y190946*
X269152Y190634*
X268527Y190321*
X266652*
Y200321D02*
Y204071D01*
X268527*
X269152Y203759*
X269464Y203446*
X269777Y202821*
Y201571*
X269464Y200946*
X269152Y200634*
X268527Y200321*
X266652*
Y210321D02*
Y214071D01*
X268527*
X269152Y213759*
X269464Y213446*
X269777Y212821*
Y211571*
X269464Y210946*
X269152Y210634*
X268527Y210321*
X266652*
X271455Y249790D02*
Y253540D01*
X273017Y251665*
X274580Y253540*
Y249790*
X275367Y256419D02*
X275055Y256106D01*
X274430Y255794*
X273492*
X272867Y256106*
X272555Y256419*
X272242Y257044*
Y258294*
X272555Y258919*
X272867Y259231*
X273492Y259544*
X274430*
X275055Y259231*
X275367Y258919*
X275392Y261483D02*
Y265233D01*
X276954Y263358*
X278517Y265233*
Y261483*
X275392Y276463D02*
Y280213D01*
X276954Y278338*
X278517Y280213*
Y276463*
X276494Y411306D02*
Y415056D01*
X278369*
X278994Y414743*
X279307Y414431*
X279619Y413806*
Y412556*
X279307Y411931*
X278994Y411618*
X278369Y411306*
X276494*
X276652Y180321D02*
Y184071D01*
X278527*
X279152Y183759*
X279464Y183446*
X279777Y182821*
Y181571*
X279464Y180946*
X279152Y180634*
X278527Y180321*
X276652*
Y190321D02*
Y194071D01*
X278527*
X279152Y193759*
X279464Y193446*
X279777Y192821*
Y191571*
X279464Y190946*
X279152Y190634*
X278527Y190321*
X276652*
Y200321D02*
Y204071D01*
X278527*
X279152Y203759*
X279464Y203446*
X279777Y202821*
Y201571*
X279464Y200946*
X279152Y200634*
X278527Y200321*
X276652*
Y210321D02*
Y214071D01*
X278527*
X279152Y213759*
X279464Y213446*
X279777Y212821*
Y211571*
X279464Y210946*
X279152Y210634*
X278527Y210321*
X276652*
X278935Y266601D02*
Y270351D01*
X280498Y268476*
X282060Y270351*
Y266601*
X278935Y278628D02*
Y282378D01*
X280498Y280504*
X282060Y282378*
Y278628*
X283241Y287757D02*
X282929Y287445D01*
X282304Y287132*
X281366*
X280741Y287445*
X280429Y287757*
X280116Y288382*
Y289632*
X280429Y290257*
X280741Y290570*
X281366Y290882*
X282304*
X282929Y290570*
X283241Y290257*
Y297757D02*
X282929Y297445D01*
X282304Y297132*
X281366*
X280741Y297445*
X280429Y297757*
X280116Y298382*
Y299632*
X280429Y300257*
X280741Y300570*
X281366Y300882*
X282304*
X282929Y300570*
X283241Y300257*
X285367Y256419D02*
X285055Y256106D01*
X284430Y255794*
X283492*
X282867Y256106*
X282555Y256419*
X282242Y257044*
Y258294*
X282555Y258919*
X282867Y259231*
X283492Y259544*
X284430*
X285055Y259231*
X285367Y258919*
X286494Y411306D02*
Y415056D01*
X288369*
X288994Y414743*
X289307Y414431*
X289619Y413806*
Y412556*
X289307Y411931*
X288994Y411618*
X288369Y411306*
X286494*
X286711Y280597D02*
Y284347D01*
X288273Y282472*
X289836Y284347*
Y280597*
X292146Y53043D02*
X292771Y52730D01*
X293084Y52106*
X292771Y51480*
X292146Y51168*
X289959*
Y54918*
X292146*
X292771Y54606*
X293084Y53980*
X292771Y53356*
X292146Y53043*
X289959*
X292146Y93043D02*
X292771Y92730D01*
X293084Y92106*
X292771Y91480*
X292146Y91168*
X289959*
Y94918*
X292146*
X292771Y94606*
X293084Y93980*
X292771Y93356*
X292146Y93043*
X289959*
X297021Y287757D02*
X296708Y287445D01*
X296083Y287132*
X295146*
X294521Y287445*
X294208Y287757*
X293896Y288382*
Y289632*
X294208Y290257*
X294521Y290570*
X295146Y290882*
X296083*
X296708Y290570*
X297021Y290257*
Y297757D02*
X296708Y297445D01*
X296083Y297132*
X295146*
X294521Y297445*
X294208Y297757*
X293896Y298382*
Y299632*
X294208Y300257*
X294521Y300570*
X295146Y300882*
X296083*
X296708Y300570*
X297021Y300257*
X296494Y411306D02*
Y415056D01*
X298369*
X298994Y414743*
X299307Y414431*
X299619Y413806*
Y412556*
X299307Y411931*
X298994Y411618*
X298369Y411306*
X296494*
X302926Y217049D02*
X302614Y216736D01*
X301989Y216424*
X301051*
X300426Y216736*
X300114Y217049*
X299801Y217674*
Y218924*
X300114Y219549*
X300426Y219861*
X301051Y220174*
X301989*
X302614Y219861*
X302926Y219549*
Y227049D02*
X302614Y226736D01*
X301989Y226424*
X301051*
X300426Y226736*
X300114Y227049*
X299801Y227674*
Y228924*
X300114Y229549*
X300426Y229861*
X301051Y230174*
X301989*
X302614Y229861*
X302926Y229549*
X306494Y411306D02*
Y415056D01*
X308369*
X308994Y414743*
X309307Y414431*
X309619Y413806*
Y412556*
X309307Y411931*
X308994Y411618*
X308369Y411306*
X306494*
X310059Y110639D02*
X310685Y110326D01*
X310997Y109702*
X310685Y109076*
X310059Y108764*
X307872*
Y112514*
X310059*
X310685Y112202*
X310997Y111576*
X310685Y110952*
X310059Y110639*
X307872*
Y122543D02*
Y126293D01*
X309747*
X310372Y125981*
X310685Y125669*
X310997Y125043*
Y123793*
X310685Y123169*
X310372Y122856*
X309747Y122543*
X307872*
X309036Y186896D02*
Y190646D01*
X310911*
X311536Y190334*
X311848Y190021*
X312161Y189396*
Y188146*
X311848Y187521*
X311536Y187209*
X310911Y186896*
X309036*
X310825Y278628D02*
Y282378D01*
X312387Y280504*
X313950Y282378*
Y278628*
X311376Y302605D02*
Y306355D01*
X313251*
X313876Y306043*
X314189Y305730*
X314501Y305105*
Y303855*
X314189Y303230*
X313876Y302917*
X313251Y302605*
X311376*
Y312605D02*
Y316355D01*
X313251*
X313876Y316043*
X314189Y315730*
X314501Y315105*
Y313855*
X314189Y313230*
X313876Y312917*
X313251Y312605*
X311376*
X319919Y70557D02*
Y74307D01*
X322107*
X322732Y73995*
X323044Y73370*
X322732Y72745*
X322107Y72433*
X319919*
X322107D02*
X323044Y70557D01*
X321376Y302605D02*
Y306355D01*
X323251*
X323876Y306043*
X324189Y305730*
X324501Y305105*
Y303855*
X324189Y303230*
X323876Y302917*
X323251Y302605*
X321376*
Y312605D02*
Y316355D01*
X323251*
X323876Y316043*
X324189Y315730*
X324501Y315105*
Y313855*
X324189Y313230*
X323876Y312917*
X323251Y312605*
X321376*
X325003Y188771D02*
X325628Y188459D01*
X325941Y187834*
X325628Y187209*
X325003Y186896*
X322815*
Y190646*
X325003*
X325628Y190334*
X325941Y189709*
X325628Y189084*
X325003Y188771*
X322815*
X326391Y285946D02*
X326078Y285634D01*
X325453Y285321*
X324516*
X323891Y285634*
X323578Y285946*
X323266Y286571*
Y287821*
X323578Y288446*
X323891Y288759*
X324516Y289071*
X325453*
X326078Y288759*
X326391Y288446*
X329919Y70557D02*
Y74307D01*
X332107*
X332732Y73995*
X333044Y73370*
X332732Y72745*
X332107Y72433*
X329919*
X332107D02*
X333044Y70557D01*
X334422Y216891D02*
X334110Y216579D01*
X333485Y216266*
X332547*
X331922Y216579*
X331610Y216891*
X331297Y217516*
Y218766*
X331610Y219391*
X331922Y219704*
X332547Y220016*
X333485*
X334110Y219704*
X334422Y219391*
Y226891D02*
X334110Y226579D01*
X333485Y226266*
X332547*
X331922Y226579*
X331610Y226891*
X331297Y227516*
Y228766*
X331610Y229391*
X331922Y229704*
X332547Y230016*
X333485*
X334110Y229704*
X334422Y229391*
X331376Y302605D02*
Y306355D01*
X333251*
X333876Y306043*
X334189Y305730*
X334501Y305105*
Y303855*
X334189Y303230*
X333876Y302917*
X333251Y302605*
X331376*
Y312605D02*
Y316355D01*
X333251*
X333876Y316043*
X334189Y315730*
X334501Y315105*
Y313855*
X334189Y313230*
X333876Y312917*
X333251Y312605*
X331376*
X336391Y285946D02*
X336078Y285634D01*
X335453Y285321*
X334516*
X333891Y285634*
X333578Y285946*
X333266Y286571*
Y287821*
X333578Y288446*
X333891Y288759*
X334516Y289071*
X335453*
X336078Y288759*
X336391Y288446*
X339974Y99529D02*
X339661Y99217D01*
X339036Y98904*
X338098*
X337474Y99217*
X337161Y99529*
X336848Y100154*
Y101404*
X337161Y102029*
X337474Y102342*
X338098Y102654*
X339036*
X339661Y102342*
X339974Y102029*
X339919Y70557D02*
Y74307D01*
X342107*
X342732Y73995*
X343044Y73370*
X342732Y72745*
X342107Y72433*
X339919*
X342107D02*
X343044Y70557D01*
X341376Y302605D02*
Y306355D01*
X343251*
X343876Y306043*
X344189Y305730*
X344501Y305105*
Y303855*
X344189Y303230*
X343876Y302917*
X343251Y302605*
X341376*
Y312605D02*
Y316355D01*
X343251*
X343876Y316043*
X344189Y315730*
X344501Y315105*
Y313855*
X344189Y313230*
X343876Y312917*
X343251Y312605*
X341376*
X348445Y133614D02*
X349070Y133301D01*
X349383Y132676*
X349070Y132051*
X348445Y131739*
X346258*
Y135489*
X348445*
X349070Y135176*
X349383Y134551*
X349070Y133926*
X348445Y133614*
X346258*
X348445Y141114D02*
X349070Y140801D01*
X349383Y140176*
X349070Y139551*
X348445Y139239*
X346258*
Y142989*
X348445*
X349070Y142676*
X349383Y142051*
X349070Y141426*
X348445Y141114*
X346258*
X348445Y148614D02*
X349070Y148301D01*
X349383Y147676*
X349070Y147051*
X348445Y146739*
X346258*
Y150489*
X348445*
X349070Y150176*
X349383Y149551*
X349070Y148926*
X348445Y148614*
X346258*
X349974Y99529D02*
X349661Y99217D01*
X349036Y98904*
X348098*
X347474Y99217*
X347161Y99529*
X346848Y100154*
Y101404*
X347161Y102029*
X347474Y102342*
X348098Y102654*
X349036*
X349661Y102342*
X349974Y102029*
X351201Y163673D02*
X351826Y163360D01*
X352139Y162735*
X351826Y162110*
X351201Y161798*
X349014*
Y165548*
X351201*
X351826Y165235*
X352139Y164610*
X351826Y163985*
X351201Y163673*
X349014*
X351201Y171173D02*
X351826Y170860D01*
X352139Y170235*
X351826Y169610*
X351201Y169298*
X349014*
Y173048*
X351201*
X351826Y172735*
X352139Y172110*
X351826Y171485*
X351201Y171173*
X349014*
X351201Y178673D02*
X351826Y178360D01*
X352139Y177735*
X351826Y177110*
X351201Y176798*
X349014*
Y180548*
X351201*
X351826Y180235*
X352139Y179610*
X351826Y178985*
X351201Y178673*
X349014*
X356888Y213847D02*
Y217597D01*
X358763*
X359388Y217285*
X359700Y216972*
X360013Y216347*
Y215097*
X359700Y214472*
X359388Y214160*
X358763Y213847*
X356888*
X359075Y229502D02*
X359700Y229189D01*
X360013Y228565*
X359700Y227939*
X359075Y227627*
X356888*
Y231377*
X359075*
X359700Y231065*
X360013Y230439*
X359700Y229815*
X359075Y229502*
X356888*
X359075Y251763D02*
X359700Y251451D01*
X360013Y250826*
X359700Y250201*
X359075Y249888*
X356888*
Y253638*
X359075*
X359700Y253326*
X360013Y252701*
X359700Y252076*
X359075Y251763*
X356888*
X359075Y291763D02*
X359700Y291451D01*
X360013Y290826*
X359700Y290201*
X359075Y289888*
X356888*
Y293638*
X359075*
X359700Y293326*
X360013Y292701*
X359700Y292076*
X359075Y291763*
X356888*
X369174Y145563D02*
X369799Y145250D01*
X370111Y144625*
X369799Y144000*
X369174Y143687*
X366986*
Y147437*
X369174*
X369799Y147125*
X370111Y146500*
X369799Y145875*
X369174Y145563*
X366986*
X369508Y158358D02*
X370133Y158045D01*
X370446Y157420*
X370133Y156795*
X369508Y156483*
X367321*
Y160233*
X369508*
X370133Y159920*
X370446Y159295*
X370133Y158670*
X369508Y158358*
X367321*
X369705Y170661D02*
X370330Y170348D01*
X370643Y169724*
X370330Y169098*
X369705Y168786*
X367518*
Y172536*
X369705*
X370330Y172224*
X370643Y171598*
X370330Y170974*
X369705Y170661*
X367518*
X369961Y183456D02*
X370586Y183144D01*
X370899Y182519*
X370586Y181894*
X369961Y181581*
X367774*
Y185331*
X369961*
X370586Y185019*
X370899Y184394*
X370586Y183769*
X369961Y183456*
X367774*
X372855Y251763D02*
X373480Y251451D01*
X373793Y250826*
X373480Y250201*
X372855Y249888*
X370667*
Y253638*
X372855*
X373480Y253326*
X373793Y252701*
X373480Y252076*
X372855Y251763*
X370667*
X372855Y291763D02*
X373480Y291451D01*
X373793Y290826*
X373480Y290201*
X372855Y289888*
X370667*
Y293638*
X372855*
X373480Y293326*
X373793Y292701*
X373480Y292076*
X372855Y291763*
X370667*
X373800Y35715D02*
Y39465D01*
X375675*
X376300Y39153*
X376612Y38840*
X376925Y38215*
Y36965*
X376612Y36340*
X376300Y36028*
X375675Y35715*
X373800*
X376573Y389652D02*
Y393402D01*
X379698Y389652*
Y393402*
X384447Y62880D02*
Y66630D01*
X387572Y62880*
Y66630*
X389767Y37590D02*
X390392Y37278D01*
X390704Y36653*
X390392Y36028*
X389767Y35715*
X387579*
Y39465*
X389767*
X390392Y39153*
X390704Y38528*
X390392Y37903*
X389767Y37590*
X387579*
X394093Y207762D02*
Y211512D01*
X395655Y209637*
X397218Y211512*
Y207762*
X407813Y228240D02*
X408438Y227927D01*
X408751Y227302*
X408438Y226677*
X407813Y226365*
X405626*
Y230115*
X407813*
X408438Y229802*
X408751Y229177*
X408438Y228552*
X407813Y228240*
X405626*
X406100Y203136D02*
Y206886D01*
X407663Y205011*
X409226Y206886*
Y203136*
X409174Y145563D02*
X409799Y145250D01*
X410111Y144625*
X409799Y144000*
X409174Y143687*
X406986*
Y147437*
X409174*
X409799Y147125*
X410111Y146500*
X409799Y145875*
X409174Y145563*
X406986*
X409508Y158358D02*
X410133Y158045D01*
X410446Y157420*
X410133Y156795*
X409508Y156483*
X407321*
Y160233*
X409508*
X410133Y159920*
X410446Y159295*
X410133Y158670*
X409508Y158358*
X407321*
X409705Y170661D02*
X410330Y170348D01*
X410643Y169724*
X410330Y169098*
X409705Y168786*
X407518*
Y172536*
X409705*
X410330Y172224*
X410643Y171598*
X410330Y170974*
X409705Y170661*
X407518*
X409961Y183456D02*
X410586Y183144D01*
X410899Y182519*
X410586Y181894*
X409961Y181581*
X407774*
Y185331*
X409961*
X410586Y185019*
X410899Y184394*
X410586Y183769*
X409961Y183456*
X407774*
X419405Y226365D02*
Y230115D01*
X421280*
X421905Y229802*
X422218Y229490*
X422530Y228865*
Y227615*
X422218Y226990*
X421905Y226677*
X421280Y226365*
X419405*
X435982Y165124D02*
Y168874D01*
X437857*
X438482Y168562*
X438795Y168250*
X439107Y167624*
Y166374*
X438795Y165750*
X438482Y165437*
X437857Y165124*
X435982*
Y175124D02*
Y178874D01*
X437857*
X438482Y178562*
X438795Y178250*
X439107Y177624*
Y176374*
X438795Y175750*
X438482Y175437*
X437857Y175124*
X435982*
Y185124D02*
Y188874D01*
X437857*
X438482Y188562*
X438795Y188250*
X439107Y187624*
Y186374*
X438795Y185750*
X438482Y185437*
X437857Y185124*
X435982*
D02*
D87*
X98856Y316785D03*
Y326785D03*
Y336785D03*
Y346785D03*
Y356785D03*
Y409305D03*
X108856Y316785D03*
Y326785D03*
Y336785D03*
Y346785D03*
Y356785D03*
X112636Y215031D03*
Y228811D03*
X115195Y52989D03*
Y66768D03*
Y92359D03*
Y106138D03*
X128581Y288537D03*
Y308222D03*
X134289Y345683D03*
Y385683D03*
X138581Y288537D03*
Y308222D03*
X145116Y57927D03*
X148069Y345683D03*
Y385683D03*
X150037Y245919D03*
Y259699D03*
X158108Y288537D03*
Y308537D03*
X160037Y245919D03*
Y259699D03*
X163817Y346313D03*
Y364030D03*
Y377809D03*
Y395526D03*
X164467Y125053D03*
X166730Y24955D03*
X175746Y56234D03*
Y66234D03*
Y76234D03*
Y86234D03*
Y96234D03*
X178581Y253596D03*
X178974Y318596D03*
Y328596D03*
X180746Y52848D03*
Y68439D03*
Y84030D03*
Y99620D03*
X183207Y256451D03*
X185077Y236077D03*
Y246077D03*
X185746Y56234D03*
Y66234D03*
Y76234D03*
Y86234D03*
Y96234D03*
X189407Y316195D03*
Y346313D03*
Y364030D03*
Y377809D03*
Y395526D03*
X191376Y323675D03*
X193443Y206943D03*
X194467Y125053D03*
X196730Y24955D03*
X199250Y223774D03*
Y307337D03*
X200037Y360781D03*
X200234Y353793D03*
X201219Y227219D03*
X203187Y394640D03*
X207715Y405211D03*
Y410211D03*
X207732Y192770D03*
X212537Y236077D03*
Y246077D03*
X212715Y405211D03*
Y410211D03*
X217557Y55014D03*
Y65014D03*
X217715Y405211D03*
Y410211D03*
X220411Y215031D03*
X221511Y192770D03*
X222715Y405211D03*
Y410211D03*
X227242Y249659D03*
X227715Y405211D03*
Y410211D03*
X233049Y102317D03*
X234683Y310722D03*
Y320722D03*
X236494Y295132D03*
X237242Y249659D03*
X243049Y102317D03*
X244329Y376726D03*
X244427Y52398D03*
Y66178D03*
X246494Y295132D03*
Y405368D03*
X252695Y279285D03*
X253049Y102317D03*
X256435Y242179D03*
X256494Y405368D03*
X256652Y174384D03*
Y184384D03*
Y194384D03*
Y204384D03*
X261455Y243852D03*
X262242Y249856D03*
X265392Y255545D03*
Y270526D03*
X266494Y405368D03*
X266652Y174384D03*
Y184384D03*
Y194384D03*
Y204384D03*
X268935Y260663D03*
Y272691D03*
X270116Y281195D03*
Y291195D03*
X272242Y249856D03*
X276494Y405368D03*
X276711Y274659D03*
X279959Y45230D03*
Y85230D03*
X283896Y281195D03*
Y291195D03*
X286494Y405368D03*
X289801Y210486D03*
Y220486D03*
X296494Y405368D03*
X297872Y102826D03*
Y116606D03*
X299036Y180959D03*
X300825Y272691D03*
X301376Y296667D03*
Y306667D03*
X309919Y64620D03*
X311376Y296667D03*
Y306667D03*
X312815Y180959D03*
X313266Y279384D03*
X319919Y64620D03*
X321297Y210329D03*
Y220329D03*
X321376Y296667D03*
Y306667D03*
X323266Y279384D03*
X326848Y92967D03*
X329919Y64620D03*
X331376Y296667D03*
Y306667D03*
X336258Y125801D03*
Y133301D03*
Y140801D03*
X336848Y92967D03*
X339014Y155860D03*
Y163360D03*
Y170860D03*
X346888Y207910D03*
Y221689D03*
Y243951D03*
Y283951D03*
X356986Y137750D03*
X357321Y150545D03*
X357518Y162848D03*
X357774Y175644D03*
X360667Y243951D03*
Y283951D03*
X363800Y29778D03*
X366573Y383715D03*
X374447Y56943D03*
X377579Y29778D03*
X384093Y201825D03*
X395626Y220427D03*
X396100Y197199D03*
X396986Y137750D03*
X397321Y150545D03*
X397518Y162848D03*
X397774Y175644D03*
X409405Y220427D03*
X425982Y159187D03*
Y169187D03*
Y179187D03*
X0Y0D02*
M02*
