%FSLAX35Y35*%
%MOIN*%
G04 EasyPC Gerber Version 18.0.8 Build 3632 *
%ADD89C,0.00100*%
%ADD14C,0.00300*%
%ADD10C,0.00500*%
%ADD11C,0.00512*%
%ADD13C,0.00600*%
%ADD86C,0.00787*%
%ADD12C,0.01000*%
X0Y0D02*
D02*
D10*
X18498Y2514D02*
X368892D01*
Y416687*
X18498*
Y2514*
X23734Y366785D02*
X72947D01*
Y396313*
X23734*
Y366785*
X23813Y311037D02*
X33813D01*
Y291037*
X23813*
Y311037*
X28656Y373675D02*
G75*
G03Y369738J-1969D01*
G01*
G75*
G03Y373675J1969*
G01*
G36*
G75*
G03Y369738J-1969*
G01*
G75*
G03Y373675J1969*
G01*
G37*
X28813Y108380D02*
Y113380D01*
Y133380D02*
Y138380D01*
Y291037D02*
Y286037D01*
Y316037D02*
Y311037D01*
X29746Y116785D02*
X25996D01*
Y118973*
X26308Y119598*
X26933Y119911*
X27558Y119598*
X27870Y118973*
Y116785*
Y118973D02*
X29746Y119911D01*
X29433Y121785D02*
X29746Y122411D01*
Y123348*
X29433Y123973*
X28808Y124285*
X28496*
X27870Y123973*
X27558Y123348*
Y121785*
X25996*
Y124285*
X29433Y127098D02*
X29746Y127723D01*
Y128348*
X29433Y128973*
X28808Y129285*
X28183Y128973*
X27870Y128348*
Y127723*
Y128348D02*
X27558Y128973D01*
X26933Y129285*
X26308Y128973*
X25996Y128348*
Y127723*
X26308Y127098*
X30533Y294246D02*
X26783D01*
Y296433*
X27095Y297059*
X27720Y297371*
X28345Y297059*
X28658Y296433*
Y294246*
Y296433D02*
X30533Y297371D01*
Y301746D02*
Y299246D01*
X28345Y301433*
X27720Y301746*
X27095Y301433*
X26783Y300809*
Y299871*
X27095Y299246*
X30533Y305183D02*
X30220Y305809D01*
X29595Y306433*
X28658Y306746*
X27720*
X27095Y306433*
X26783Y305809*
Y305183*
X27095Y304559*
X27720Y304246*
X28345Y304559*
X28658Y305183*
Y305809*
X28345Y306433*
X27720Y306746*
X33498Y356156D02*
X38498D01*
X33498Y403400D02*
X38498D01*
X33813Y113380D02*
X23813D01*
Y133380*
X33813*
Y113380*
X38144Y145722D02*
X83419D01*
Y206746*
X38144*
Y145722*
X38498Y45821D02*
X33498D01*
X38498Y344344D02*
X33498D01*
X38498Y351156D02*
Y361156D01*
X58498*
Y351156*
X38498*
Y398400D02*
Y408400D01*
X58498*
Y398400*
X38498*
X41187Y212231D02*
X42437D01*
X41813D02*
Y215981D01*
X41187D02*
X42437D01*
X48375Y212856D02*
X48063Y212543D01*
X47437Y212231*
X46500*
X45875Y212543*
X45563Y212856*
X45250Y213481*
Y214731*
X45563Y215356*
X45875Y215669*
X46500Y215981*
X47437*
X48063Y215669*
X48375Y215356*
X50563Y212543D02*
X51187Y212231D01*
X51813*
X52437Y212543*
X52750Y213169*
X52437Y213793*
X51813Y214106*
X51187*
X51813D02*
X52437Y214419D01*
X52750Y215043*
X52437Y215669*
X51813Y215981*
X51187*
X50563Y215669*
X41904Y43806D02*
Y47556D01*
X44091*
X44716Y47243*
X45029Y46618*
X44716Y45993*
X44091Y45681*
X41904*
X44091D02*
X45029Y43806D01*
X46904Y44118D02*
X47529Y43806D01*
X48466*
X49091Y44118*
X49404Y44743*
Y45056*
X49091Y45681*
X48466Y45993*
X46904*
Y47556*
X49404*
X51904Y43806D02*
X54404Y47556D01*
X51904*
X42002Y342526D02*
Y346276D01*
X44189*
X44815Y345964*
X45127Y345339*
X44815Y344714*
X44189Y344401*
X42002*
X44189D02*
X45127Y342526D01*
X49502D02*
X47002D01*
X49189Y344714*
X49502Y345339*
X49189Y345964*
X48565Y346276*
X47627*
X47002Y345964*
X52002Y342526D02*
X54502Y346276D01*
X52002*
X42002Y354239D02*
Y357989D01*
X44189*
X44815Y357676*
X45127Y357051*
X44815Y356426*
X44189Y356114*
X42002*
X44189D02*
X45127Y354239D01*
X49502D02*
X47002D01*
X49189Y356426*
X49502Y357051*
X49189Y357676*
X48565Y357989*
X47627*
X47002Y357676*
X52939Y356114D02*
X53565D01*
X54189Y356426*
X54502Y357051*
X54189Y357676*
X53565Y357989*
X52939*
X52315Y357676*
X52002Y357051*
X52315Y356426*
X52939Y356114*
X52315Y355801*
X52002Y355176*
X52315Y354551*
X52939Y354239*
X53565*
X54189Y354551*
X54502Y355176*
X54189Y355801*
X53565Y356114*
X42750Y221293D02*
Y256293D01*
X45250*
X47750Y253793*
X50250Y256293*
X52750*
Y221293*
X42750*
X42789Y401286D02*
Y405036D01*
X44977*
X45602Y404724*
X45915Y404098*
X45602Y403474*
X44977Y403161*
X42789*
X44977D02*
X45915Y401286D01*
X48415D02*
X49665D01*
X49039D02*
Y405036D01*
X48415Y404411*
X46111Y317265D02*
X45799Y316953D01*
X45174Y316640*
X44236*
X43611Y316953*
X43299Y317265*
X42986Y317890*
Y319140*
X43299Y319765*
X43611Y320078*
X44236Y320390*
X45174*
X45799Y320078*
X46111Y319765*
X48924Y316640D02*
X49549Y316953D01*
X50174Y317578*
X50486Y318515*
Y319453*
X50174Y320078*
X49549Y320390*
X48924*
X48299Y320078*
X47986Y319453*
X48299Y318828*
X48924Y318515*
X49549*
X50174Y318828*
X50486Y319453*
X44561Y9699D02*
G75*
G03X52435Y33321I3937J11811D01*
G01*
G75*
G03X44561Y9699I-3937J-11811*
G01*
Y67219D02*
G75*
G03X52435Y90841I3937J11811D01*
G01*
G75*
G03X44561Y67219I-3937J-11811*
G01*
X45309Y119935D02*
X50309D01*
X45309Y131746D02*
X50309D01*
Y114935D02*
Y124935D01*
X70309*
Y114935*
X50309*
Y126746D02*
Y136746D01*
X70309*
Y126746*
X50309*
X49888Y292352D02*
X50201Y292039D01*
X50513Y291414*
Y290476*
X50201Y289852*
X49888Y289539*
X49263Y289226*
X48013*
X47388Y289539*
X47076Y289852*
X46763Y290476*
Y291414*
X47076Y292039*
X47388Y292352*
X50513Y296726D02*
Y294226D01*
X48326Y296414*
X47701Y296726*
X47076Y296414*
X46763Y295789*
Y294852*
X47076Y294226*
X50201Y299539D02*
X50513Y300164D01*
Y300789*
X50201Y301414*
X49576Y301726*
X48951Y301414*
X48638Y300789*
Y300164*
Y300789D02*
X48326Y301414D01*
X47701Y301726*
X47076Y301414*
X46763Y300789*
Y300164*
X47076Y299539*
X52435Y117920D02*
Y121670D01*
X54622*
X55248Y121357*
X55560Y120732*
X55248Y120107*
X54622Y119795*
X52435*
X54622D02*
X55560Y117920D01*
X57435Y118232D02*
X58060Y117920D01*
X58998*
X59622Y118232*
X59935Y118857*
Y119170*
X59622Y119795*
X58998Y120107*
X57435*
Y121670*
X59935*
X63998Y117920D02*
Y121670D01*
X62435Y119170*
X64935*
X53222Y129928D02*
Y133678D01*
X55410*
X56035Y133365*
X56348Y132740*
X56035Y132115*
X55410Y131803*
X53222*
X55410D02*
X56348Y129928D01*
X59785D02*
Y133678D01*
X58222Y131178*
X60722*
X63222Y129928D02*
X65722Y133678D01*
X63222*
X58247Y98437D02*
X57935Y98124D01*
X57309Y97811*
X56372*
X55747Y98124*
X55435Y98437*
X55122Y99061*
Y100311*
X55435Y100937*
X55747Y101249*
X56372Y101561*
X57309*
X57935Y101249*
X58247Y100937*
X61685Y97811D02*
Y101561D01*
X60122Y99061*
X62622*
X65435Y98124D02*
X66059Y97811D01*
X66685*
X67309Y98124*
X67622Y98749*
X67309Y99374*
X66685Y99687*
X66059*
X66685D02*
X67309Y99999D01*
X67622Y100624*
X67309Y101249*
X66685Y101561*
X66059*
X65435Y101249*
X58498Y50821D02*
Y40821D01*
X38498*
Y50821*
X58498*
Y349344D02*
Y339344D01*
X38498*
Y349344*
X58498*
Y356156D02*
X63498D01*
X58498Y403400D02*
X63498D01*
X60211Y209258D02*
Y213008D01*
X62398*
X63023Y212696*
X63336Y212071*
X63023Y211446*
X62398Y211133*
X60211*
X62398D02*
X63336Y209258D01*
X66773D02*
Y213008D01*
X65211Y210508*
X67711*
X72711Y209258D02*
X70211D01*
X72398Y211446*
X72711Y212071*
X72398Y212696*
X71773Y213008*
X70836*
X70211Y212696*
X75211Y209258D02*
Y213008D01*
X77398*
X78023Y212696*
X78336Y212071*
X78023Y211446*
X77398Y211133*
X75211*
X77398D02*
X78336Y209258D01*
X80211D02*
X81773Y213008D01*
X83336Y209258*
X80836Y210821D02*
X82711D01*
X63498Y45821D02*
X58498D01*
X63498Y344344D02*
X58498D01*
X70309Y119935D02*
X75309D01*
X70309Y131746D02*
X75309D01*
X76230Y220809D02*
X75917Y220496D01*
X75292Y220183*
X74354*
X73730Y220496*
X73417Y220809*
X73104Y221433*
Y222683*
X73417Y223309*
X73730Y223621*
X74354Y223933*
X75292*
X75917Y223621*
X76230Y223309*
X80604Y220183D02*
X78104D01*
X80292Y222371*
X80604Y222996*
X80292Y223621*
X79667Y223933*
X78730*
X78104Y223621*
X85604Y220183D02*
X83104D01*
X85292Y222371*
X85604Y222996*
X85292Y223621*
X84667Y223933*
X83730*
X83104Y223621*
X73680Y3823D02*
Y39256D01*
X26436*
Y3823*
X73680*
Y61343D02*
Y96776D01*
X26436*
Y61343*
X73680*
X90742Y244108D02*
X100742D01*
Y224108*
X90742*
Y244108*
X92553Y45230D02*
X97553D01*
X95742Y224108D02*
Y219108D01*
Y249108D02*
Y244108D01*
X99655Y177403D02*
X99342Y177091D01*
X98717Y176778*
X97780*
X97155Y177091*
X96842Y177403*
X96530Y178028*
Y179278*
X96842Y179903*
X97155Y180216*
X97780Y180528*
X98717*
X99342Y180216*
X99655Y179903*
X101842Y177091D02*
X102467Y176778D01*
X103092*
X103717Y177091*
X104030Y177716*
X103717Y178341*
X103092Y178653*
X102467*
X103092D02*
X103717Y178966D01*
X104030Y179591*
X103717Y180216*
X103092Y180528*
X102467*
X101842Y180216*
X107467Y176778D02*
X108092Y177091D01*
X108717Y177716*
X109030Y178653*
Y179591*
X108717Y180216*
X108092Y180528*
X107467*
X106842Y180216*
X106530Y179591*
X106842Y178966*
X107467Y178653*
X108092*
X108717Y178966*
X109030Y179591*
X97553Y40230D02*
Y50230D01*
X117553*
Y40230*
X97553*
X98446Y227907D02*
X94696D01*
Y230095*
X95009Y230720*
X95634Y231033*
X96259Y230720*
X96571Y230095*
Y227907*
Y230095D02*
X98446Y231033D01*
X98134Y233220D02*
X98446Y233845D01*
Y234470*
X98134Y235095*
X97509Y235407*
X96884Y235095*
X96571Y234470*
Y233845*
Y234470D02*
X96259Y235095D01*
X95634Y235407*
X95009Y235095*
X94696Y234470*
Y233845*
X95009Y233220*
X98446Y238533D02*
Y239783D01*
Y239157D02*
X94696D01*
X95321Y238533*
X100427Y340407D02*
X105427D01*
X100427Y356156D02*
X105427D01*
X100427Y403400D02*
X105427D01*
X101451Y43117D02*
Y46867D01*
X103638*
X104263Y46554*
X104576Y45929*
X104263Y45304*
X103638Y44992*
X101451*
X103638D02*
X104576Y43117D01*
X106451Y43429D02*
X107076Y43117D01*
X108013*
X108638Y43429*
X108951Y44054*
Y44367*
X108638Y44992*
X108013Y45304*
X106451*
Y46867*
X108951*
X112388Y44992D02*
X113013D01*
X113638Y45304*
X113951Y45929*
X113638Y46554*
X113013Y46867*
X112388*
X111763Y46554*
X111451Y45929*
X111763Y45304*
X112388Y44992*
X111763Y44679*
X111451Y44054*
X111763Y43429*
X112388Y43117*
X113013*
X113638Y43429*
X113951Y44054*
X113638Y44679*
X113013Y44992*
X102081Y9699D02*
G75*
G03X109955Y33321I3937J11811D01*
G01*
G75*
G03X102081Y9699I-3937J-11811*
G01*
Y67219D02*
G75*
G03X109955Y90841I3937J11811D01*
G01*
G75*
G03X102081Y67219I-3937J-11811*
G01*
X105491Y98437D02*
X105179Y98124D01*
X104554Y97811*
X103616*
X102991Y98124*
X102679Y98437*
X102366Y99061*
Y100311*
X102679Y100937*
X102991Y101249*
X103616Y101561*
X104554*
X105179Y101249*
X105491Y100937*
X108929Y97811D02*
Y101561D01*
X107366Y99061*
X109866*
X112366Y98749D02*
X112679Y99374D01*
X113304Y99687*
X113929*
X114554Y99374*
X114866Y98749*
X114554Y98124*
X113929Y97811*
X113304*
X112679Y98124*
X112366Y98749*
Y99687*
X112679Y100624*
X113304Y101249*
X113929Y101561*
X102553Y244108D02*
X112553D01*
Y224108*
X102553*
Y244108*
X105427Y335407D02*
Y345407D01*
X125427*
Y335407*
X105427*
Y351156D02*
Y361156D01*
X125427*
Y351156*
X105427*
Y398400D02*
Y408400D01*
X125427*
Y398400*
X105427*
X105742Y118931D02*
Y153931D01*
X108242*
X110742Y151431*
X113242Y153931*
X115742*
Y118931*
X105742*
X107553Y224108D02*
Y219108D01*
Y249108D02*
Y244108D01*
X107750Y353943D02*
Y357693D01*
X109937*
X110563Y357381*
X110875Y356756*
X110563Y356131*
X109937Y355819*
X107750*
X109937D02*
X110875Y353943D01*
X113375D02*
X114625D01*
X114000D02*
Y357693D01*
X113375Y357069*
X118063Y354256D02*
X118687Y353943D01*
X119313*
X119937Y354256*
X120250Y354881*
Y356756*
X119937Y357381*
X119313Y357693*
X118687*
X118063Y357381*
X117750Y356756*
Y354881*
X118063Y354256*
X119937Y357381*
X108734Y338491D02*
Y342241D01*
X110922*
X111547Y341928*
X111859Y341303*
X111547Y340678*
X110922Y340366*
X108734*
X110922D02*
X111859Y338491D01*
X114672Y340366D02*
X115297D01*
X115922Y340678*
X116234Y341303*
X115922Y341928*
X115297Y342241*
X114672*
X114047Y341928*
X113734Y341303*
X114047Y340678*
X114672Y340366*
X114047Y340053*
X113734Y339428*
X114047Y338803*
X114672Y338491*
X115297*
X115922Y338803*
X116234Y339428*
X115922Y340053*
X115297Y340366*
X109030Y401581D02*
Y405331D01*
X111217*
X111842Y405019*
X112155Y404394*
X111842Y403769*
X111217Y403456*
X109030*
X111217D02*
X112155Y401581D01*
X114967D02*
X115592Y401894D01*
X116217Y402519*
X116530Y403456*
Y404394*
X116217Y405019*
X115592Y405331*
X114967*
X114342Y405019*
X114030Y404394*
X114342Y403769*
X114967Y403456*
X115592*
X116217Y403769*
X116530Y404394*
X109569Y226530D02*
X105819D01*
Y228717*
X106131Y229342*
X106756Y229655*
X107381Y229342*
X107693Y228717*
Y226530*
Y228717D02*
X109569Y229655D01*
X109256Y231842D02*
X109569Y232467D01*
Y233092*
X109256Y233717*
X108631Y234030*
X108006Y233717*
X107693Y233092*
Y232467*
Y233092D02*
X107381Y233717D01*
X106756Y234030*
X106131Y233717*
X105819Y233092*
Y232467*
X106131Y231842*
X109256Y236842D02*
X109569Y237467D01*
Y238092*
X109256Y238717*
X108631Y239030*
X108006Y238717*
X107693Y238092*
Y237467*
Y238092D02*
X107381Y238717D01*
X106756Y239030*
X106131Y238717*
X105819Y238092*
Y237467*
X106131Y236842*
X111931Y121955D02*
Y123205D01*
Y122580D02*
X108181D01*
Y121955D02*
Y123205D01*
X111306Y129143D02*
X111618Y128830D01*
X111931Y128205*
Y127268*
X111618Y126643*
X111306Y126330*
X110681Y126018*
X109431*
X108806Y126330*
X108493Y126643*
X108181Y127268*
Y128205*
X108493Y128830*
X108806Y129143*
X111931Y131955D02*
X111618Y132580D01*
X110993Y133205*
X110056Y133518*
X109118*
X108493Y133205*
X108181Y132580*
Y131955*
X108493Y131330*
X109118Y131018*
X109743Y131330*
X110056Y131955*
Y132580*
X109743Y133205*
X109118Y133518*
X116163Y271018D02*
X112413D01*
Y273205*
X112725Y273830*
X113350Y274143*
X113975Y273830*
X114288Y273205*
Y271018*
Y273205D02*
X116163Y274143D01*
Y276643D02*
Y277893D01*
Y277268D02*
X112413D01*
X113038Y276643*
X114288Y281955D02*
Y282580D01*
X113975Y283205*
X113350Y283518*
X112725Y283205*
X112413Y282580*
Y281955*
X112725Y281330*
X113350Y281018*
X113975Y281330*
X114288Y281955*
X114600Y281330*
X115225Y281018*
X115850Y281330*
X116163Y281955*
Y282580*
X115850Y283205*
X115225Y283518*
X114600Y283205*
X114288Y282580*
X117553Y45230D02*
X122553D01*
X125176Y314972D02*
X124864Y314659D01*
X124239Y314347*
X123301*
X122676Y314659*
X122364Y314972*
X122051Y315597*
Y316847*
X122364Y317472*
X122676Y317785*
X123301Y318097*
X124239*
X124864Y317785*
X125176Y317472*
X127051Y314659D02*
X127676Y314347D01*
X128614*
X129239Y314659*
X129551Y315285*
Y315597*
X129239Y316222*
X128614Y316535*
X127051*
Y318097*
X129551*
X122920Y256230D02*
X123232Y255917D01*
X123545Y255292*
Y254354*
X123232Y253730*
X122920Y253417*
X122295Y253104*
X121045*
X120420Y253417*
X120107Y253730*
X119795Y254354*
Y255292*
X120107Y255917*
X120420Y256230*
X123545Y258730D02*
Y259980D01*
Y259354D02*
X119795D01*
X120420Y258730*
X123232Y263104D02*
X123545Y263730D01*
Y264667*
X123232Y265292*
X122607Y265604*
X122295*
X121670Y265292*
X121357Y264667*
Y263104*
X119795*
Y265604*
X125427Y340407D02*
X130427D01*
X125427Y356156D02*
X130427D01*
X125427Y403400D02*
X130427D01*
X131200Y3823D02*
Y39256D01*
X83956*
Y3823*
X131200*
Y61343D02*
Y96776D01*
X83956*
Y61343*
X131200*
X135974Y114017D02*
X135661Y113705D01*
X135036Y113392*
X134098*
X133474Y113705*
X133161Y114017*
X132848Y114642*
Y115892*
X133161Y116517*
X133474Y116830*
X134098Y117142*
X135036*
X135661Y116830*
X135974Y116517*
X139411Y113392D02*
Y117142D01*
X137848Y114642*
X140348*
X144411Y113392D02*
Y117142D01*
X142848Y114642*
X145348*
X138970Y371549D02*
X118970D01*
X138970D02*
G75*
G03X118970Y391549I-10000J10000D01*
G01*
G75*
G03X138970Y371549I10000J-10000*
G01*
X143734Y143557D02*
X148734D01*
X148254Y339869D02*
X149504D01*
X148880D02*
Y343619D01*
X148254D02*
X149504D01*
X155442Y340494D02*
X155130Y340181D01*
X154504Y339869*
X153567*
X152942Y340181*
X152630Y340494*
X152317Y341119*
Y342369*
X152630Y342994*
X152942Y343306*
X153567Y343619*
X154504*
X155130Y343306*
X155442Y342994*
X157942Y339869D02*
X159192D01*
X158567D02*
Y343619D01*
X157942Y342994*
X148734Y108124D02*
X143734D01*
X148734Y131746D02*
X143734D01*
X148734Y138557D02*
Y148557D01*
X168734*
Y138557*
X148734*
X151608Y45230D02*
X156608D01*
X151608Y403400D02*
X156608D01*
X151648Y129731D02*
Y133481D01*
X153835*
X154460Y133169*
X154773Y132543*
X154460Y131919*
X153835Y131606*
X151648*
X153835D02*
X154773Y129731D01*
X156648Y130043D02*
X157273Y129731D01*
X158210*
X158835Y130043*
X159148Y130669*
Y130981*
X158835Y131606*
X158210Y131919*
X156648*
Y133481*
X159148*
X161648Y130043D02*
X162273Y129731D01*
X163210*
X163835Y130043*
X164148Y130669*
Y130981*
X163835Y131606*
X163210Y131919*
X161648*
Y133481*
X164148*
X151844Y141246D02*
Y144996D01*
X154032*
X154657Y144684*
X154970Y144059*
X154657Y143434*
X154032Y143122*
X151844*
X154032D02*
X154970Y141246D01*
X158407D02*
Y144996D01*
X156844Y142496*
X159344*
X161844Y142184D02*
X162157Y142809D01*
X162782Y143122*
X163407*
X164032Y142809*
X164344Y142184*
X164032Y141559*
X163407Y141246*
X162782*
X162157Y141559*
X161844Y142184*
Y143122*
X162157Y144059*
X162782Y144684*
X163407Y144996*
X152238Y105912D02*
Y109662D01*
X154426*
X155051Y109350*
X155363Y108724*
X155051Y108100*
X154426Y107787*
X152238*
X154426D02*
X155363Y105912D01*
X157238Y106224D02*
X157863Y105912D01*
X158801*
X159426Y106224*
X159738Y106850*
Y107162*
X159426Y107787*
X158801Y108100*
X157238*
Y109662*
X159738*
X162238Y106850D02*
X162551Y107474D01*
X163176Y107787*
X163801*
X164426Y107474*
X164738Y106850*
X164426Y106224*
X163801Y105912*
X163176*
X162551Y106224*
X162238Y106850*
Y107787*
X162551Y108724*
X163176Y109350*
X163801Y109662*
X154659Y282482D02*
X154347Y282169D01*
X153722Y281857*
X153097Y282169*
X152784Y282482*
Y285607*
X152159*
X152784D02*
X154034D01*
X149659Y281857D02*
Y285607D01*
X147472*
X146847Y285294*
X146534Y284669*
X146847Y284044*
X147472Y283732*
X149659*
X144347Y282169D02*
X143722Y281857D01*
X143097*
X142472Y282169*
X142159Y282794*
X142472Y283419*
X143097Y283732*
X143722*
X143097D02*
X142472Y284044D01*
X142159Y284669*
X142472Y285294*
X143097Y285607*
X143722*
X144347Y285294*
X156608Y40230D02*
Y50230D01*
X176608*
Y40230*
X156608*
Y398400D02*
Y408400D01*
X176608*
Y398400*
X156608*
X159600Y9699D02*
G75*
G03X167474Y33321I3937J11811D01*
G01*
G75*
G03X159600Y9699I-3937J-11811*
G01*
Y67219D02*
G75*
G03X167474Y90841I3937J11811D01*
G01*
G75*
G03X159600Y67219I-3937J-11811*
G01*
X160014Y43215D02*
Y46965D01*
X162201*
X162826Y46653*
X163139Y46028*
X162826Y45403*
X162201Y45090*
X160014*
X162201D02*
X163139Y43215D01*
X165326Y43528D02*
X165951Y43215D01*
X166576*
X167201Y43528*
X167514Y44153*
X167201Y44778*
X166576Y45090*
X165951*
X166576D02*
X167201Y45403D01*
X167514Y46028*
X167201Y46653*
X166576Y46965*
X165951*
X165326Y46653*
X172514Y43215D02*
X170014D01*
X172201Y45403*
X172514Y46028*
X172201Y46653*
X171576Y46965*
X170639*
X170014Y46653*
X160801Y401581D02*
Y405331D01*
X162989*
X163614Y405019*
X163926Y404394*
X163614Y403769*
X162989Y403456*
X160801*
X162989D02*
X163926Y401581D01*
X165801D02*
X168301Y405331D01*
X165801*
X164541Y156109D02*
Y159859D01*
X166729*
X167354Y159546*
X167667Y158921*
X167354Y158296*
X166729Y157984*
X164541*
X166729D02*
X167667Y156109D01*
X171104D02*
Y159859D01*
X169541Y157359*
X172041*
X174854Y156421D02*
X175479Y156109D01*
X176104*
X176729Y156421*
X177041Y157046*
X176729Y157671*
X176104Y157984*
X175479*
X176104D02*
X176729Y158296D01*
X177041Y158921*
X176729Y159546*
X176104Y159859*
X175479*
X174854Y159546*
X168734Y113124D02*
Y103124D01*
X148734*
Y113124*
X168734*
Y136746D02*
Y126746D01*
X148734*
Y136746*
X168734*
Y143557D02*
X173734D01*
Y108124D02*
X168734D01*
X173734Y131746D02*
X168734D01*
X176608Y45230D02*
X181608D01*
X176608Y403400D02*
X181608D01*
X180821Y371549D02*
X160821D01*
X180821D02*
G75*
G03X160821Y391549I-10000J10000D01*
G01*
G75*
G03X180821Y371549I10000J-10000*
G01*
X183294Y235046D02*
X184544D01*
X183919D02*
Y238796D01*
X183294D02*
X184544D01*
X190481Y235671D02*
X190169Y235358D01*
X189544Y235046*
X188606*
X187981Y235358*
X187669Y235671*
X187356Y236296*
Y237546*
X187669Y238171*
X187981Y238483*
X188606Y238796*
X189544*
X190169Y238483*
X190481Y238171*
X193919Y235046D02*
Y238796D01*
X192356Y236296*
X194856*
X188719Y3823D02*
Y39256D01*
X141475*
Y3823*
X188719*
Y61343D02*
Y96776D01*
X141475*
Y61343*
X188719*
X194915Y108124D02*
X199915D01*
X194915Y119935D02*
X199915D01*
X197612Y232297D02*
X132612D01*
Y234797*
X135112Y237297*
X132612Y239797*
Y242297*
X197612*
Y232297*
X199915Y103124D02*
Y113124D01*
X219915*
Y103124*
X199915*
Y114935D02*
Y124935D01*
X219915*
Y114935*
X199915*
Y131451D02*
X194915D01*
X202671Y159116D02*
X202359Y158803D01*
X201734Y158491*
X201109Y158803*
X200796Y159116*
Y162241*
X200171*
X200796D02*
X202046D01*
X197671Y158491D02*
Y162241D01*
X195484*
X194859Y161928*
X194546Y161303*
X194859Y160678*
X195484Y160366*
X197671*
X192671Y158803D02*
X192046Y158491D01*
X191109*
X190484Y158803*
X190171Y159428*
Y159741*
X190484Y160366*
X191109Y160678*
X192671*
Y162241*
X190171*
X203911Y118412D02*
Y122162D01*
X206099*
X206724Y121850*
X207037Y121224*
X206724Y120600*
X206099Y120287*
X203911*
X206099D02*
X207037Y118412D01*
X209224Y118724D02*
X209849Y118412D01*
X210474*
X211099Y118724*
X211411Y119350*
X211099Y119974*
X210474Y120287*
X209849*
X210474D02*
X211099Y120600D01*
X211411Y121224*
X211099Y121850*
X210474Y122162*
X209849*
X209224Y121850*
X215474Y118412D02*
Y122162D01*
X213911Y119662*
X216411*
X204010Y129435D02*
Y133185D01*
X206197*
X206822Y132873*
X207135Y132248*
X206822Y131623*
X206197Y131311*
X204010*
X206197D02*
X207135Y129435D01*
X209322Y129748D02*
X209947Y129435D01*
X210572*
X211197Y129748*
X211510Y130373*
X211197Y130998*
X210572Y131311*
X209947*
X210572D02*
X211197Y131623D01*
X211510Y132248*
X211197Y132873*
X210572Y133185*
X209947*
X209322Y132873*
X214010Y130373D02*
X214322Y130998D01*
X214947Y131311*
X215572*
X216197Y130998*
X216510Y130373*
X216197Y129748*
X215572Y129435*
X214947*
X214322Y129748*
X214010Y130373*
Y131311*
X214322Y132248*
X214947Y132873*
X215572Y133185*
X204207Y106404D02*
Y110154D01*
X206394*
X207019Y109842*
X207332Y109217*
X207019Y108592*
X206394Y108279*
X204207*
X206394D02*
X207332Y106404D01*
X209519Y106717D02*
X210144Y106404D01*
X210769*
X211394Y106717*
X211707Y107342*
X211394Y107967*
X210769Y108279*
X210144*
X210769D02*
X211394Y108592D01*
X211707Y109217*
X211394Y109842*
X210769Y110154*
X210144*
X209519Y109842*
X215144Y108279D02*
X215769D01*
X216394Y108592*
X216707Y109217*
X216394Y109842*
X215769Y110154*
X215144*
X214519Y109842*
X214207Y109217*
X214519Y108592*
X215144Y108279*
X214519Y107967*
X214207Y107342*
X214519Y106717*
X215144Y106404*
X215769*
X216394Y106717*
X216707Y107342*
X216394Y107967*
X215769Y108279*
X204915Y248045D02*
X214915D01*
Y228045*
X204915*
Y248045*
X206726Y45821D02*
X211726D01*
X207789Y403400D02*
X202789D01*
X209915Y228045D02*
Y223045D01*
Y253045D02*
Y248045D01*
X211195Y401384D02*
Y405134D01*
X213382*
X214007Y404822*
X214320Y404197*
X214007Y403572*
X213382Y403259*
X211195*
X213382D02*
X214320Y401384D01*
X216195Y401697D02*
X216820Y401384D01*
X217757*
X218382Y401697*
X218695Y402322*
Y402634*
X218382Y403259*
X217757Y403572*
X216195*
Y405134*
X218695*
X211726Y40821D02*
Y50821D01*
X231726*
Y40821*
X211726*
X212226Y231943D02*
X208476D01*
Y234130*
X208788Y234756*
X209413Y235068*
X210038Y234756*
X210351Y234130*
Y231943*
Y234130D02*
X212226Y235068D01*
Y239443D02*
Y236943D01*
X210038Y239130*
X209413Y239443*
X208788Y239130*
X208476Y238506*
Y237568*
X208788Y236943*
X211913Y242256D02*
X212226Y242880D01*
Y243506*
X211913Y244130*
X211288Y244443*
X210663Y244130*
X210351Y243506*
Y242880*
Y243506D02*
X210038Y244130D01*
X209413Y244443*
X208788Y244130*
X208476Y243506*
Y242880*
X208788Y242256*
X215722Y43707D02*
Y47457D01*
X217910*
X218535Y47145*
X218848Y46520*
X218535Y45895*
X217910Y45582*
X215722*
X217910D02*
X218848Y43707D01*
X223222D02*
X220722D01*
X222910Y45895*
X223222Y46520*
X222910Y47145*
X222285Y47457*
X221348*
X220722Y47145*
X227285Y43707D02*
Y47457D01*
X225722Y44957*
X228222*
X217120Y9699D02*
G75*
G03X224994Y33321I3937J11811D01*
G01*
G75*
G03X217120Y9699I-3937J-11811*
G01*
Y67219D02*
G75*
G03X224994Y90841I3937J11811D01*
G01*
G75*
G03X217120Y67219I-3937J-11811*
G01*
X219915Y108124D02*
X224915D01*
X219915Y119935D02*
X224915D01*
X219915Y136451D02*
Y126451D01*
X199915*
Y136451*
X219915*
X220663Y248045D02*
X230663D01*
Y228045*
X220663*
Y248045*
X222711Y371549D02*
X202711D01*
X222711D02*
G75*
G03X202711Y391549I-10000J10000D01*
G01*
G75*
G03X222711Y371549I10000J-10000*
G01*
X227706Y142561D02*
X227393Y142248D01*
X226768Y141935*
X225831*
X225206Y142248*
X224893Y142561*
X224581Y143185*
Y144435*
X224893Y145061*
X225206Y145373*
X225831Y145685*
X226768*
X227393Y145373*
X227706Y145061*
X232081Y141935D02*
X229581D01*
X231768Y144123*
X232081Y144748*
X231768Y145373*
X231143Y145685*
X230206*
X229581Y145373*
X234893Y142248D02*
X235518Y141935D01*
X236143*
X236768Y142248*
X237081Y142873*
Y144748*
X236768Y145373*
X236143Y145685*
X235518*
X234893Y145373*
X234581Y144748*
Y142873*
X234893Y142248*
X236768Y145373*
X224915Y131451D02*
X219915D01*
X225663Y228045D02*
Y223045D01*
Y253045D02*
Y248045D01*
X226576Y296667D02*
X222826D01*
Y298855*
X223139Y299480*
X223764Y299793*
X224389Y299480*
X224701Y298855*
Y296667*
Y298855D02*
X226576Y299793D01*
Y302293D02*
Y303543D01*
Y302917D02*
X222826D01*
X223451Y302293*
X226576Y307605D02*
X226264Y308230D01*
X225639Y308855*
X224701Y309167*
X223764*
X223139Y308855*
X222826Y308230*
Y307605*
X223139Y306980*
X223764Y306667*
X224389Y306980*
X224701Y307605*
Y308230*
X224389Y308855*
X223764Y309167*
X227789Y408400D02*
Y398400D01*
X207789*
Y408400*
X227789*
X227876Y230860D02*
X224126D01*
Y233048*
X224438Y233673*
X225063Y233985*
X225688Y233673*
X226000Y233048*
Y230860*
Y233048D02*
X227876Y233985D01*
X227563Y235860D02*
X227876Y236485D01*
Y237423*
X227563Y238048*
X226938Y238360*
X226626*
X226000Y238048*
X225688Y237423*
Y235860*
X224126*
Y238360*
X227876Y243360D02*
Y240860D01*
X225688Y243048*
X225063Y243360*
X224438Y243048*
X224126Y242423*
Y241485*
X224438Y240860*
X231726Y45821D02*
X236726D01*
X232789Y403400D02*
X227789D01*
X239285Y281352D02*
X234285D01*
X241411Y223045D02*
Y228045D01*
Y248045D02*
Y253045D01*
X242691Y279632D02*
Y283382D01*
X244878*
X245504Y283070*
X245816Y282445*
X245504Y281820*
X244878Y281507*
X242691*
X244878D02*
X245816Y279632D01*
X250191D02*
X247691D01*
X249878Y281820*
X250191Y282445*
X249878Y283070*
X249254Y283382*
X248316*
X247691Y283070*
X252691Y280570D02*
X253004Y281195D01*
X253628Y281507*
X254254*
X254878Y281195*
X255191Y280570*
X254878Y279945*
X254254Y279632*
X253628*
X253004Y279945*
X252691Y280570*
Y281507*
X253004Y282445*
X253628Y283070*
X254254Y283382*
X243230Y231746D02*
X239480D01*
Y233933*
X239792Y234559*
X240417Y234871*
X241042Y234559*
X241355Y233933*
Y231746*
Y233933D02*
X243230Y234871D01*
X242917Y236746D02*
X243230Y237371D01*
Y238309*
X242917Y238933*
X242292Y239246*
X241980*
X241355Y238933*
X241042Y238309*
Y236746*
X239480*
Y239246*
X242917Y242059D02*
X243230Y242683D01*
Y243309*
X242917Y243933*
X242292Y244246*
X240417*
X239792Y243933*
X239480Y243309*
Y242683*
X239792Y242059*
X240417Y241746*
X242292*
X242917Y242059*
X239792Y243933*
X246239Y3823D02*
Y39256D01*
X198995*
Y3823*
X246239*
Y61343D02*
Y96776D01*
X198995*
Y61343*
X246239*
X246411Y228045D02*
X236411D01*
Y248045*
X246411*
Y228045*
X247159Y340407D02*
X242159D01*
X247159Y356156D02*
X242159D01*
X250270Y338983D02*
Y342733D01*
X252457*
X253082Y342420*
X253395Y341795*
X253082Y341170*
X252457Y340858*
X250270*
X252457D02*
X253395Y338983D01*
X255270Y339920D02*
X255582Y340545D01*
X256207Y340858*
X256832*
X257457Y340545*
X257770Y339920*
X257457Y339295*
X256832Y338983*
X256207*
X255582Y339295*
X255270Y339920*
Y340858*
X255582Y341795*
X256207Y342420*
X256832Y342733*
X250565Y354140D02*
Y357890D01*
X252752*
X253378Y357578*
X253690Y356953*
X253378Y356328*
X252752Y356015*
X250565*
X252752D02*
X253690Y354140D01*
X255878Y354453D02*
X256502Y354140D01*
X257128*
X257752Y354453*
X258065Y355078*
X257752Y355703*
X257128Y356015*
X256502*
X257128D02*
X257752Y356328D01*
X258065Y356953*
X257752Y357578*
X257128Y357890*
X256502*
X255878Y357578*
X253970Y110683D02*
X258970D01*
X253970Y123183D02*
X258970D01*
X253970Y135683D02*
X258970D01*
X251347Y306788D02*
X251660Y307100D01*
X252285Y307413*
X253222*
X253847Y307100*
X254160Y306788*
X254472Y306163*
Y304913*
X254160Y304288*
X253847Y303975*
X253222Y303663*
X252285*
X251660Y303975*
X251347Y304288*
X248847Y307413D02*
X247597D01*
X248222D02*
Y303663D01*
X248847Y304288*
X243847Y307413D02*
X242597D01*
X243222D02*
Y303663D01*
X243847Y304288*
X254908Y256033D02*
X255220Y255720D01*
X255533Y255095*
Y254157*
X255220Y253533*
X254908Y253220*
X254283Y252907*
X253033*
X252408Y253220*
X252095Y253533*
X251783Y254157*
Y255095*
X252095Y255720*
X252408Y256033*
X255533Y259470D02*
X251783D01*
X254283Y257907*
Y260407*
X255533Y265407D02*
Y262907D01*
X253345Y265095*
X252720Y265407*
X252095Y265095*
X251783Y264470*
Y263533*
X252095Y262907*
X258970Y105683D02*
Y115683D01*
X278970*
Y105683*
X258970*
Y118183D02*
Y128183D01*
X278970*
Y118183*
X258970*
Y130683D02*
Y140683D01*
X278970*
Y130683*
X258970*
Y403400D02*
X253970D01*
X259285Y286352D02*
Y276352D01*
X239285*
Y286352*
X259285*
X260033Y248045D02*
X270033D01*
Y228045*
X260033*
Y248045*
X262179Y120971D02*
Y124721D01*
X264367*
X264992Y124409*
X265304Y123783*
X264992Y123159*
X264367Y122846*
X262179*
X264367D02*
X265304Y120971D01*
X269679D02*
X267179D01*
X269367Y123159*
X269679Y123783*
X269367Y124409*
X268742Y124721*
X267804*
X267179Y124409*
X274679Y120971D02*
X272179D01*
X274367Y123159*
X274679Y123783*
X274367Y124409*
X273742Y124721*
X272804*
X272179Y124409*
X262376Y401384D02*
Y405134D01*
X264563*
X265189Y404822*
X265501Y404197*
X265189Y403572*
X264563Y403259*
X262376*
X264563D02*
X265501Y401384D01*
X268939D02*
Y405134D01*
X267376Y402634*
X269876*
X262474Y108569D02*
Y112319D01*
X264662*
X265287Y112007*
X265600Y111382*
X265287Y110757*
X264662Y110444*
X262474*
X264662D02*
X265600Y108569D01*
X269974D02*
X267474D01*
X269662Y110757*
X269974Y111382*
X269662Y112007*
X269037Y112319*
X268100*
X267474Y112007*
X273100Y108569D02*
X274350D01*
X273724D02*
Y112319D01*
X273100Y111694*
X262573Y133372D02*
Y137122D01*
X264760*
X265385Y136810*
X265698Y136185*
X265385Y135560*
X264760Y135248*
X262573*
X264760D02*
X265698Y133372D01*
X270073D02*
X267573D01*
X269760Y135560*
X270073Y136185*
X269760Y136810*
X269135Y137122*
X268198*
X267573Y136810*
X272573Y133685D02*
X273198Y133372D01*
X274135*
X274760Y133685*
X275073Y134310*
Y134622*
X274760Y135248*
X274135Y135560*
X272573*
Y137122*
X275073*
X264285Y281352D02*
X259285D01*
X264561Y371549D02*
X244561D01*
X264561D02*
G75*
G03X244561Y391549I-10000J10000D01*
G01*
G75*
G03X264561Y371549I10000J-10000*
G01*
X265033Y228045D02*
Y223045D01*
Y253045D02*
Y248045D01*
X265781Y45821D02*
X270781D01*
X267159Y345407D02*
Y335407D01*
X247159*
Y345407*
X267159*
Y361156D02*
Y351156D01*
X247159*
Y361156*
X267159*
X266754Y231451D02*
X263004D01*
Y233638*
X263316Y234263*
X263941Y234576*
X264566Y234263*
X264878Y233638*
Y231451*
Y233638D02*
X266754Y234576D01*
Y238013D02*
X263004D01*
X265504Y236451*
Y238951*
X264878Y242388D02*
Y243013D01*
X264566Y243638*
X263941Y243951*
X263316Y243638*
X263004Y243013*
Y242388*
X263316Y241763*
X263941Y241451*
X264566Y241763*
X264878Y242388*
X265191Y241763*
X265816Y241451*
X266441Y241763*
X266754Y242388*
Y243013*
X266441Y243638*
X265816Y243951*
X265191Y243638*
X264878Y243013*
X270781Y40821D02*
Y50821D01*
X290781*
Y40821*
X270781*
X270474Y165407D02*
X266724D01*
Y167595*
X267036Y168220*
X267661Y168533*
X268286Y168220*
X268599Y167595*
Y165407*
Y167595D02*
X270474Y168533D01*
Y171970D02*
X266724D01*
X269224Y170407*
Y172907*
X270474Y176970D02*
X266724D01*
X269224Y175407*
Y177907*
X274783Y177177D02*
X274470Y176864D01*
X273845Y176552*
X272907*
X272283Y176864*
X271970Y177177*
X271657Y177802*
Y179052*
X271970Y179677*
X272283Y179989*
X272907Y180302*
X273845*
X274470Y179989*
X274783Y179677*
X278220Y176552D02*
Y180302D01*
X276657Y177802*
X279157*
X281657Y176864D02*
X282283Y176552D01*
X283220*
X283845Y176864*
X284157Y177489*
Y177802*
X283845Y178427*
X283220Y178739*
X281657*
Y180302*
X284157*
X272159Y340407D02*
X267159D01*
X272159Y356156D02*
X267159D01*
X274187Y43510D02*
Y47260D01*
X276374*
X277000Y46948*
X277312Y46323*
X277000Y45698*
X276374Y45385*
X274187*
X276374D02*
X277312Y43510D01*
X279187Y44448D02*
X279500Y45073D01*
X280124Y45385*
X280750*
X281374Y45073*
X281687Y44448*
X281374Y43823*
X280750Y43510*
X280124*
X279500Y43823*
X279187Y44448*
Y45385*
X279500Y46323*
X280124Y46948*
X280750Y47260*
X284812Y43510D02*
X286062D01*
X285437D02*
Y47260D01*
X284812Y46635*
X274640Y9699D02*
G75*
G03X282514Y33321I3937J11811D01*
G01*
G75*
G03X274640Y9699I-3937J-11811*
G01*
Y67219D02*
G75*
G03X282514Y90841I3937J11811D01*
G01*
G75*
G03X274640Y67219I-3937J-11811*
G01*
X279832Y211616D02*
X279519Y211303D01*
X278894Y210991*
X277957*
X277332Y211303*
X277019Y211616*
X276707Y212241*
Y213491*
X277019Y214116*
X277332Y214428*
X277957Y214741*
X278894*
X279519Y214428*
X279832Y214116*
X282019Y211303D02*
X282644Y210991D01*
X283269*
X283894Y211303*
X284207Y211928*
X283894Y212553*
X283269Y212866*
X282644*
X283269D02*
X283894Y213178D01*
X284207Y213803*
X283894Y214428*
X283269Y214741*
X282644*
X282019Y214428*
X287644Y212866D02*
X288269D01*
X288894Y213178*
X289207Y213803*
X288894Y214428*
X288269Y214741*
X287644*
X287019Y214428*
X286707Y213803*
X287019Y213178*
X287644Y212866*
X287019Y212553*
X286707Y211928*
X287019Y211303*
X287644Y210991*
X288269*
X288894Y211303*
X289207Y211928*
X288894Y212553*
X288269Y212866*
X278970Y110683D02*
X283970D01*
X278970Y123183D02*
X283970D01*
X278970Y135683D02*
X283970D01*
X278970Y408400D02*
Y398400D01*
X258970*
Y408400*
X278970*
X284399Y153092D02*
X284086Y152780D01*
X283461Y152467*
X282524*
X281899Y152780*
X281586Y153092*
X281274Y153717*
Y154967*
X281586Y155592*
X281899Y155905*
X282524Y156217*
X283461*
X284086Y155905*
X284399Y155592*
X286899Y152467D02*
X288149D01*
X287524D02*
Y156217D01*
X286899Y155592*
X291586Y152780D02*
X292211Y152467D01*
X292836*
X293461Y152780*
X293774Y153405*
Y155280*
X293461Y155905*
X292836Y156217*
X292211*
X291586Y155905*
X291274Y155280*
Y153405*
X291586Y152780*
X293461Y155905*
X283970Y403400D02*
X278970D01*
X284731Y330934D02*
X285043Y330622D01*
X285356Y329996*
Y329059*
X285043Y328434*
X284731Y328122*
X284106Y327809*
X282856*
X282231Y328122*
X281918Y328434*
X281606Y329059*
Y329996*
X281918Y330622*
X282231Y330934*
X285356Y333434D02*
Y334684D01*
Y334059D02*
X281606D01*
X282231Y333434*
X284418Y337809D02*
X283793Y338122D01*
X283481Y338746*
Y339372*
X283793Y339996*
X284418Y340309*
X285043Y339996*
X285356Y339372*
Y338746*
X285043Y338122*
X284418Y337809*
X283481*
X282543Y338122*
X281918Y338746*
X281606Y339372*
X290781Y45821D02*
X295781D01*
X290781Y221293D02*
Y256293D01*
X293281*
X295781Y253793*
X298281Y256293*
X300781*
Y221293*
X290781*
X293111Y371564D02*
X313111D01*
Y391564*
X293111*
Y371564*
X296530Y397204D02*
X296842Y396579D01*
X297467Y396266*
X298717*
X299342Y396579*
X299655Y397204*
X299342Y397829*
X298717Y398141*
X297467*
X296842Y398454*
X296530Y399079*
X296842Y399704*
X297467Y400016*
X298717*
X299342Y399704*
X299655Y399079*
X301530Y400016D02*
X301842Y396266D01*
X303092Y398141*
X304342Y396266*
X304655Y400016*
X309030Y396266D02*
X306530D01*
X308717Y398454*
X309030Y399079*
X308717Y399704*
X308092Y400016*
X307155*
X306530Y399704*
X297947Y356746D02*
X292947D01*
X297561Y224022D02*
Y225272D01*
Y224647D02*
X293811D01*
Y224022D02*
Y225272D01*
X296935Y231210D02*
X297248Y230897D01*
X297561Y230272*
Y229335*
X297248Y228710*
X296935Y228397*
X296311Y228085*
X295061*
X294435Y228397*
X294123Y228710*
X293811Y229335*
Y230272*
X294123Y230897*
X294435Y231210*
X297561Y233710D02*
Y234960D01*
Y234335D02*
X293811D01*
X294435Y233710*
X297248Y238397D02*
X297561Y239022D01*
Y239647*
X297248Y240272*
X296623Y240585*
X294748*
X294123Y240272*
X293811Y239647*
Y239022*
X294123Y238397*
X294748Y238085*
X296623*
X297248Y238397*
X294123Y240272*
X300467Y355321D02*
Y359071D01*
X302654*
X303279Y358759*
X303592Y358134*
X303279Y357509*
X302654Y357196*
X300467*
X302654D02*
X303592Y355321D01*
X305779Y355634D02*
X306404Y355321D01*
X307029*
X307654Y355634*
X307967Y356259*
X307654Y356884*
X307029Y357196*
X306404*
X307029D02*
X307654Y357509D01*
X307967Y358134*
X307654Y358759*
X307029Y359071*
X306404*
X305779Y358759*
X310779Y355634D02*
X311404Y355321D01*
X312029*
X312654Y355634*
X312967Y356259*
Y358134*
X312654Y358759*
X312029Y359071*
X311404*
X310779Y358759*
X310467Y358134*
Y356259*
X310779Y355634*
X312654Y358759*
X303045Y387691D02*
G75*
G03Y375191J-6250D01*
G01*
G75*
G03Y387691J6250*
G01*
X303759Y3823D02*
Y39256D01*
X256515*
Y3823*
X303759*
Y61343D02*
Y96776D01*
X256515*
Y61343*
X303759*
X313926Y145415D02*
X313614Y145102D01*
X312989Y144790*
X312051*
X311426Y145102*
X311114Y145415*
X310801Y146040*
Y147290*
X311114Y147915*
X311426Y148228*
X312051Y148540*
X312989*
X313614Y148228*
X313926Y147915*
X318301Y144790D02*
X315801D01*
X317989Y146978*
X318301Y147602*
X317989Y148228*
X317364Y148540*
X316426*
X315801Y148228*
X321426Y144790D02*
X322676D01*
X322051D02*
Y148540D01*
X321426Y147915*
X317947Y361746D02*
Y351746D01*
X297947*
Y361746*
X317947*
X320900Y108124D02*
X325900D01*
X320900Y131746D02*
X325900D01*
X321352Y248045D02*
X331352D01*
Y228045*
X321352*
Y248045*
X322947Y356746D02*
X317947D01*
X325900Y103124D02*
Y113124D01*
X345900*
Y103124*
X325900*
Y119935D02*
X320900D01*
X325900Y126746D02*
Y136746D01*
X345900*
Y126746*
X325900*
X326352Y228045D02*
Y223045D01*
Y253045D02*
Y248045D01*
X327580Y230959D02*
X323830D01*
Y233146*
X324143Y233771*
X324768Y234084*
X325393Y233771*
X325705Y233146*
Y230959*
Y233146D02*
X327580Y234084D01*
Y237521D02*
X323830D01*
X326330Y235959*
Y238459*
X327580Y241896D02*
X327268Y242521D01*
X326643Y243146*
X325705Y243459*
X324768*
X324143Y243146*
X323830Y242521*
Y241896*
X324143Y241271*
X324768Y240959*
X325393Y241271*
X325705Y241896*
Y242521*
X325393Y243146*
X324768Y243459*
X329010Y118215D02*
Y121965D01*
X331197*
X331822Y121653*
X332135Y121028*
X331822Y120403*
X331197Y120090*
X329010*
X331197D02*
X332135Y118215D01*
X334322Y118528D02*
X334947Y118215D01*
X335572*
X336197Y118528*
X336510Y119153*
X336197Y119778*
X335572Y120090*
X334947*
X335572D02*
X336197Y120403D01*
X336510Y121028*
X336197Y121653*
X335572Y121965*
X334947*
X334322Y121653*
X339010Y118215D02*
X341510Y121965D01*
X339010*
X329305Y106109D02*
Y109859D01*
X331493*
X332118Y109546*
X332430Y108921*
X332118Y108296*
X331493Y107984*
X329305*
X331493D02*
X332430Y106109D01*
X334618Y106421D02*
X335243Y106109D01*
X335868*
X336493Y106421*
X336805Y107046*
X336493Y107671*
X335868Y107984*
X335243*
X335868D02*
X336493Y108296D01*
X336805Y108921*
X336493Y109546*
X335868Y109859*
X335243*
X334618Y109546*
X340243Y106109D02*
X340868Y106421D01*
X341493Y107046*
X341805Y107984*
Y108921*
X341493Y109546*
X340868Y109859*
X340243*
X339618Y109546*
X339305Y108921*
X339618Y108296*
X340243Y107984*
X340868*
X341493Y108296*
X341805Y108921*
X329305Y129435D02*
Y133185D01*
X331493*
X332118Y132873*
X332430Y132248*
X332118Y131623*
X331493Y131311*
X329305*
X331493D02*
X332430Y129435D01*
X334618Y129748D02*
X335243Y129435D01*
X335868*
X336493Y129748*
X336805Y130373*
X336493Y130998*
X335868Y131311*
X335243*
X335868D02*
X336493Y131623D01*
X336805Y132248*
X336493Y132873*
X335868Y133185*
X335243*
X334618Y132873*
X339305Y129748D02*
X339930Y129435D01*
X340868*
X341493Y129748*
X341805Y130373*
Y130685*
X341493Y131311*
X340868Y131623*
X339305*
Y133185*
X341805*
X329837Y45230D02*
X324837D01*
X330591Y371564D02*
X350591D01*
Y391564*
X330591*
Y371564*
X331090Y329101D02*
Y330351D01*
Y329726D02*
X327340D01*
Y329101D02*
Y330351D01*
X330465Y336289D02*
X330778Y335976D01*
X331090Y335351*
Y334413*
X330778Y333789*
X330465Y333476*
X329840Y333163*
X328590*
X327965Y333476*
X327652Y333789*
X327340Y334413*
Y335351*
X327652Y335976*
X327965Y336289*
X330152Y338163D02*
X329528Y338476D01*
X329215Y339101*
Y339726*
X329528Y340351*
X330152Y340663*
X330778Y340351*
X331090Y339726*
Y339101*
X330778Y338476*
X330152Y338163*
X329215*
X328278Y338476*
X327652Y339101*
X327340Y339726*
X332159Y9699D02*
G75*
G03X340033Y33321I3937J11811D01*
G01*
G75*
G03X332159Y9699I-3937J-11811*
G01*
Y67219D02*
G75*
G03X340033Y90841I3937J11811D01*
G01*
G75*
G03X332159Y67219I-3937J-11811*
G01*
X332750Y43215D02*
Y46965D01*
X334937*
X335563Y46653*
X335875Y46028*
X335563Y45403*
X334937Y45090*
X332750*
X334937D02*
X335875Y43215D01*
X337750Y44153D02*
X338063Y44778D01*
X338687Y45090*
X339313*
X339937Y44778*
X340250Y44153*
X339937Y43528*
X339313Y43215*
X338687*
X338063Y43528*
X337750Y44153*
Y45090*
X338063Y46028*
X338687Y46653*
X339313Y46965*
X345250Y43215D02*
X342750D01*
X344937Y45403*
X345250Y46028*
X344937Y46653*
X344313Y46965*
X343375*
X342750Y46653*
X334128Y396318D02*
X334441Y395693D01*
X335065Y395380*
X336315*
X336941Y395693*
X337253Y396318*
X336941Y396943*
X336315Y397256*
X335065*
X334441Y397568*
X334128Y398193*
X334441Y398818*
X335065Y399130*
X336315*
X336941Y398818*
X337253Y398193*
X339128Y399130D02*
X339441Y395380D01*
X340691Y397256*
X341941Y395380*
X342253Y399130*
X344441Y395693D02*
X345065Y395380D01*
X345691*
X346315Y395693*
X346628Y396318*
X346315Y396943*
X345691Y397256*
X345065*
X345691D02*
X346315Y397568D01*
X346628Y398193*
X346315Y398818*
X345691Y399130*
X345065*
X344441Y398818*
X339222Y256734D02*
X338909Y256421D01*
X338284Y256109*
X337346*
X336722Y256421*
X336409Y256734*
X336096Y257359*
Y258609*
X336409Y259234*
X336722Y259546*
X337346Y259859*
X338284*
X338909Y259546*
X339222Y259234*
X342659Y256109D02*
Y259859D01*
X341096Y257359*
X343596*
X346409Y256421D02*
X347034Y256109D01*
X347659*
X348284Y256421*
X348596Y257046*
Y258921*
X348284Y259546*
X347659Y259859*
X347034*
X346409Y259546*
X346096Y258921*
Y257046*
X346409Y256421*
X348284Y259546*
X335317Y275407D02*
X331567D01*
Y277595*
X331879Y278220*
X332504Y278533*
X333129Y278220*
X333441Y277595*
Y275407*
Y277595D02*
X335317Y278533D01*
Y282907D02*
Y280407D01*
X333129Y282595*
X332504Y282907*
X331879Y282595*
X331567Y281970*
Y281033*
X331879Y280407*
X335004Y285720D02*
X335317Y286345D01*
Y286970*
X335004Y287595*
X334379Y287907*
X332504*
X331879Y287595*
X331567Y286970*
Y286345*
X331879Y285720*
X332504Y285407*
X334379*
X335004Y285720*
X331879Y287595*
X340526Y387691D02*
G75*
G03Y375191J-6250D01*
G01*
G75*
G03Y387691J6250*
G01*
X345900Y108124D02*
X350900D01*
X345900Y124935D02*
Y114935D01*
X325900*
Y124935*
X345900*
Y131746D02*
X350900D01*
X349837Y50230D02*
Y40230D01*
X329837*
Y50230*
X349837*
X350900Y119935D02*
X345900D01*
X354837Y45230D02*
X349837D01*
X355447Y302167D02*
X355134Y301854D01*
X354509Y301542*
X353884Y301854*
X353572Y302167*
Y305292*
X352947*
X353572D02*
X354822D01*
X350447Y301542D02*
Y305292D01*
X348259*
X347634Y304980*
X347322Y304354*
X347634Y303730*
X348259Y303417*
X350447*
X343884Y301542D02*
Y305292D01*
X345447Y302792*
X342947*
X357994Y165407D02*
X354244D01*
Y167595*
X354556Y168220*
X355181Y168533*
X355806Y168220*
X356119Y167595*
Y165407*
Y167595D02*
X357994Y168533D01*
Y171970D02*
X354244D01*
X356744Y170407*
Y172907*
X357681Y175407D02*
X357994Y176033D01*
Y176970*
X357681Y177595*
X357056Y177907*
X356744*
X356119Y177595*
X355806Y176970*
Y175407*
X354244*
Y177907*
X361278Y3823D02*
Y39256D01*
X314034*
Y3823*
X361278*
Y61343D02*
Y96776D01*
X314034*
Y61343*
X361278*
X361589Y246766D02*
Y251766D01*
Y271766D02*
Y276766D01*
X361687Y195289D02*
Y200289D01*
Y220289D02*
Y225289D01*
X363407Y204482D02*
X359657D01*
Y206670*
X359969Y207295*
X360594Y207607*
X361219Y207295*
X361532Y206670*
Y204482*
Y206670D02*
X363407Y207607D01*
X363094Y209482D02*
X363407Y210107D01*
Y211045*
X363094Y211670*
X362469Y211982*
X362157*
X361532Y211670*
X361219Y211045*
Y209482*
X359657*
Y211982*
X363407Y215107D02*
Y216357D01*
Y215732D02*
X359657D01*
X360282Y215107*
X363407Y254974D02*
X359657D01*
Y257162*
X359969Y257787*
X360594Y258100*
X361219Y257787*
X361532Y257162*
Y254974*
Y257162D02*
X363407Y258100D01*
X363094Y259974D02*
X363407Y260600D01*
Y261537*
X363094Y262162*
X362469Y262474*
X362157*
X361532Y262162*
X361219Y261537*
Y259974*
X359657*
Y262474*
X363407Y265912D02*
X363094Y266537D01*
X362469Y267162*
X361532Y267474*
X360594*
X359969Y267162*
X359657Y266537*
Y265912*
X359969Y265287*
X360594Y264974*
X361219Y265287*
X361532Y265912*
Y266537*
X361219Y267162*
X360594Y267474*
X366589Y251766D02*
X356589D01*
Y271766*
X366589*
Y251766*
X366687Y200289D02*
X356687D01*
Y220289*
X366687*
Y200289*
D02*
D11*
X49561Y267041D02*
Y281791D01*
G75*
G03X39561I-5000*
G01*
Y267041*
G75*
G03X49561I5000*
G01*
X53872Y103124D02*
X68622D01*
G75*
G03Y113124J5000*
G01*
X53872*
G75*
G03Y103124J-5000*
G01*
X54935Y333596D02*
X40185D01*
G75*
G03Y323596J-5000*
G01*
X54935*
G75*
G03Y333596J5000*
G01*
X74994Y248419D02*
Y233669D01*
G75*
G03X84994I5000*
G01*
Y248419*
G75*
G03X74994I-5000*
G01*
X97179Y162179D02*
X111929D01*
G75*
G03Y172179J5000*
G01*
X97179*
G75*
G03Y162179J-5000*
G01*
X101116Y103124D02*
X115866D01*
G75*
G03Y113124J5000*
G01*
X101116*
G75*
G03Y103124J-5000*
G01*
X118301Y244187D02*
Y229437D01*
G75*
G03X128301I5000*
G01*
Y244187*
G75*
G03X118301I-5000*
G01*
X120801Y319659D02*
X135551D01*
G75*
G03Y329659J5000*
G01*
X120801*
G75*
G03Y319659J-5000*
G01*
X152297Y114935D02*
X167047D01*
G75*
G03Y124935J5000*
G01*
X152297*
G75*
G03Y114935J-5000*
G01*
X203478Y138557D02*
X218228D01*
G75*
G03Y148557J5000*
G01*
X203478*
G75*
G03Y138557J-5000*
G01*
X248222Y244482D02*
Y229732D01*
G75*
G03X258222I5000*
G01*
Y244482*
G75*
G03X248222I-5000*
G01*
X255722Y302100D02*
X240972D01*
G75*
G03Y292100J-5000*
G01*
X255722*
G75*
G03Y302100J5000*
G01*
X259187Y146431D02*
X273937D01*
G75*
G03Y156431J5000*
G01*
X259187*
G75*
G03Y146431J-5000*
G01*
X270407Y181864D02*
X285157D01*
G75*
G03Y191864J5000*
G01*
X270407*
G75*
G03Y181864J-5000*
G01*
Y197612D02*
X285157D01*
G75*
G03Y207612J5000*
G01*
X270407*
G75*
G03Y197612J-5000*
G01*
X287593Y342907D02*
Y328157D01*
G75*
G03X297593I5000*
G01*
Y342907*
G75*
G03X287593I-5000*
G01*
X329463Y138557D02*
X344213D01*
G75*
G03Y148557J5000*
G01*
X329463*
G75*
G03Y138557J-5000*
G01*
X334837Y244482D02*
Y229732D01*
G75*
G03X344837I5000*
G01*
Y244482*
G75*
G03X334837I-5000*
G01*
D02*
D12*
X110900Y273439D02*
Y318715D01*
X55781*
Y273439*
X110900*
X176057Y163439D02*
Y208715D01*
X120939*
Y163439*
X176057*
X219640Y273439D02*
Y318715D01*
X164522*
Y273439*
X219640*
X263537Y163439D02*
Y208715D01*
X208419*
Y163439*
X263537*
X328380Y273439D02*
Y318715D01*
X273262*
Y273439*
X328380*
X351057Y163439D02*
Y208715D01*
X295939*
Y163439*
X351057*
D02*
D13*
X150121Y330156D02*
X144226D01*
Y352156*
X150121*
X153331Y330156D02*
X160121D01*
Y352156D02*
X153331D01*
X163331Y330156D02*
X170121D01*
Y352156D02*
X163331D01*
X173331Y330156D02*
X180121D01*
Y352156D02*
X173331D01*
X183331Y330156D02*
X190121D01*
Y352156D02*
X183331D01*
X193331Y330156D02*
X200121D01*
Y352156D02*
X193331D01*
X203331Y330156D02*
X210121D01*
Y352156D02*
X203331D01*
X213331Y330156D02*
X220121D01*
X217880Y352156D02*
X213331D01*
X225572D02*
X229226D01*
Y330156*
X223331*
X229226Y342356D02*
G75*
G03Y339956J-1200D01*
G01*
X308528Y327864D02*
Y325413D01*
G75*
G03X314778Y323287I6250J8124*
G01*
G75*
G03X309482Y342314J10250*
G01*
X308528Y335646D02*
Y329211D01*
D02*
D14*
X229914Y356156D02*
Y353656D01*
X228664Y355530D02*
X231164Y354280D01*
Y355530D02*
X228664Y354280D01*
D02*
D86*
X97450Y53680D02*
Y58109D01*
X95604D02*
X99295D01*
X101510Y53680D02*
Y58109D01*
Y55895D02*
X105201D01*
Y53680D02*
Y58109D01*
X111106Y54419D02*
X110737Y54049D01*
X109999Y53680*
X108892*
X108154Y54049*
X107785Y54419*
X107415Y55157*
Y56633*
X107785Y57371*
X108154Y57740*
X108892Y58109*
X109999*
X110737Y57740*
X111106Y57371*
X120334Y53680D02*
X121810D01*
X121072D02*
Y58109D01*
X120334D02*
X121810D01*
X125132Y53680D02*
Y56633D01*
Y55526D02*
X125501Y56264D01*
X126239Y56633*
X126978*
X127716Y56264*
X128085Y55526*
Y53680*
X131776Y56633D02*
X133252D01*
X132514Y57371D02*
Y54049D01*
X132883Y53680*
X133252*
X133621Y54049*
X139896D02*
X139527Y53680D01*
X138789*
X138050*
X137312Y54049*
X136943Y54787*
Y55895*
X137312Y56264*
X138050Y56633*
X138789*
X139527Y56264*
X139896Y55895*
Y55526*
X139527Y55157*
X138789Y54787*
X138050*
X137312Y55157*
X136943Y55526*
X142848Y53680D02*
Y56633D01*
Y55526D02*
X143218Y56264D01*
X143956Y56633*
X144694*
X145432Y56264*
X150230Y53680D02*
Y57371D01*
X150600Y57740*
X150969*
X151338Y57371*
X149492Y56264D02*
X150969D01*
X154659D02*
X155398Y56633D01*
X156505*
X157243Y56264*
X157612Y55526*
Y54419*
X157243Y54049*
X156505Y53680*
X155767*
X155029Y54049*
X154659Y54419*
Y54787*
X155029Y55157*
X155767Y55526*
X156505*
X157243Y55157*
X157612Y54787*
Y54419D02*
Y53680D01*
X163518Y56264D02*
X162780Y56633D01*
X161672*
X160934Y56264*
X160565Y55526*
Y54787*
X160934Y54049*
X161672Y53680*
X162780*
X163518Y54049*
X169423D02*
X169054Y53680D01*
X168316*
X167578*
X166840Y54049*
X166470Y54787*
Y55895*
X166840Y56264*
X167578Y56633*
X168316*
X169054Y56264*
X169423Y55895*
Y55526*
X169054Y55157*
X168316Y54787*
X167578*
X166840Y55157*
X166470Y55526*
X178281Y53680D02*
Y58109D01*
X180865*
X181604Y57740*
X181972Y57002*
X181604Y56264*
X180865Y55895*
X178281*
X187878Y54419D02*
X187509Y54049D01*
X186771Y53680*
X185663*
X184925Y54049*
X184556Y54419*
X184187Y55157*
Y56633*
X184556Y57371*
X184925Y57740*
X185663Y58109*
X186771*
X187509Y57740*
X187878Y57371*
X192676Y55895D02*
X193415Y55526D01*
X193783Y54787*
X193415Y54049*
X192676Y53680*
X190093*
Y58109*
X192676*
X193415Y57740*
X193783Y57002*
X193415Y56264*
X192676Y55895*
X190093*
X201904Y56633D02*
X203380Y53680D01*
X204856Y56633*
X208547Y53680D02*
X210024D01*
X209285D02*
Y58109D01*
X208547Y57371*
X214084Y53680D02*
X214453Y54049D01*
X214084Y54419*
X213715Y54049*
X214084Y53680*
X219989Y54049D02*
X220728Y53680D01*
X221466*
X222204Y54049*
X222573Y54787*
X222204Y55526*
X221466Y55895*
X220728*
X221466D02*
X222204Y56264D01*
X222573Y57002*
X222204Y57740*
X221466Y58109*
X220728*
X219989Y57740*
X234384Y53680D02*
X231431D01*
X234015Y56264*
X234384Y57002*
X234015Y57740*
X233277Y58109*
X232169*
X231431Y57740*
X237706Y54049D02*
X238444Y53680D01*
X239182*
X239920Y54049*
X240289Y54787*
Y57002*
X239920Y57740*
X239182Y58109*
X238444*
X237706Y57740*
X237337Y57002*
Y54787*
X237706Y54049*
X239920Y57740*
X243980Y53680D02*
X245457D01*
X244719D02*
Y58109D01*
X243980Y57371*
X249148Y54049D02*
X249886Y53680D01*
X250993*
X251731Y54049*
X252100Y54787*
Y55157*
X251731Y55895*
X250993Y56264*
X249148*
Y58109*
X252100*
X255791Y53680D02*
X257268D01*
X256530D02*
Y58109D01*
X255791Y57371*
X261697Y53680D02*
X263173D01*
X262435D02*
Y58109D01*
X261697Y57371*
X269817Y53680D02*
X266864D01*
X269448Y56264*
X269817Y57002*
X269448Y57740*
X268710Y58109*
X267602*
X266864Y57740*
X273877Y55895D02*
X274615D01*
X275354Y56264*
X275722Y57002*
X275354Y57740*
X274615Y58109*
X273877*
X273139Y57740*
X272770Y57002*
X273139Y56264*
X273877Y55895*
X273139Y55526*
X272770Y54787*
X273139Y54049*
X273877Y53680*
X274615*
X275354Y54049*
X275722Y54787*
X275354Y55526*
X274615Y55895*
D02*
D89*
X305053Y407888D02*
Y408281D01*
X304659Y408478*
X299935*
X299738Y407297*
X300526*
X300329Y405722*
X299935Y404935*
X299148Y404738*
X298557Y404935*
X298360Y405526*
Y405722*
X299344Y410053*
X299738Y410841*
X300526Y411037*
X301116Y410841*
X301313Y410250*
X301116Y410053*
Y409856*
X301313Y409659*
X301707Y409463*
X304856*
X305447Y409659*
X305644Y410053*
X305841Y410841*
Y411234*
X305644Y411628*
X305250Y412022*
X304069Y412415*
X297376*
X296589Y412219*
X295998Y412022*
X295407Y411431*
X295014Y410841*
X293833Y404935*
Y404541*
Y404148*
X294226Y403754*
X294817Y403360*
X295604*
X303675*
X304069Y403557*
X304266Y403951*
X305053Y407888*
X319423Y411825D02*
Y412219D01*
X319030Y412415*
X315880*
X315486Y412219*
X315093Y412022*
X312533Y408085*
X311549Y412022*
X311352Y412219*
X310959Y412415*
X307809*
X307415Y412219*
X307022Y411825*
X305447Y403951*
Y403557*
X305841Y403360*
X309187*
X309581Y403557*
X309778Y403951*
X310565Y407691*
X311549Y404344*
X311943*
X314305Y407691*
X313321Y403951*
Y403754*
X313518Y403557*
X313911Y403360*
X317061*
X317455Y403557*
X317848Y403951*
X319423Y411825*
X330447Y405919D02*
Y406510D01*
X330250Y407100*
X329856Y407691*
X329266Y407888*
X328478Y408085*
X325526Y408478*
X324935Y408872*
X324738Y409463*
Y410053*
X325329Y410841*
X325919Y411037*
X326510Y410841*
X326707Y410250*
Y410053*
X326510Y409659*
X326707Y409266*
X327100*
X330447*
X331037Y409463*
X331234Y409856*
X331431Y410841*
Y411234*
Y411628*
X331037Y412022*
X329856Y412415*
X322770*
X321982Y412219*
X321195Y412022*
X320604Y411431*
X320407Y410841*
X320211Y409856*
X320014Y409463*
X320211Y408675*
X320604Y408281*
X321195Y407888*
X322179Y407691*
X324935Y407297*
X325329Y407100*
X325526Y406707*
X325722Y406116*
Y405722*
X325329Y405132*
X324541Y404738*
X324148Y404935*
X323951Y405526*
Y405722*
Y406116*
Y406313*
X323557Y406510*
X320014*
X319620Y406313*
X319423Y405919*
X319030Y404738*
Y404541*
X319226Y404148*
X319620Y403754*
X320801Y403360*
X327888*
X328675*
X329266Y403754*
X329856Y404148*
X330250Y404935*
X330447Y405919*
X344226Y411825D02*
X344030Y412219D01*
X343636Y412415*
X340289*
X339896Y412219*
X339502Y411825*
X338715Y407691*
X336943Y412022*
X336746Y412219*
X336352Y412415*
X333400*
X333006Y412219*
X332809Y411825*
X331037Y403951*
X331234Y403557*
X331431Y403360*
X334974*
X335368Y403557*
X335565Y403951*
X336549Y407888*
X338321Y403754*
Y403557*
X338518*
X338911Y403360*
X341864*
X342258Y403557*
X342455Y403951*
X344226Y411825*
X349148D02*
Y412219D01*
X348754Y412415*
X345998*
X345604Y412219*
X345211Y411825*
X344817Y406707*
Y406313*
X345211Y406116*
X346785*
X347376Y406313*
X347573Y406707*
X349148Y411825*
X347179Y404935D02*
X346982Y405329D01*
X346589Y405526*
X345014*
X344620Y405329*
X344423Y404935*
X344226Y403951*
Y403754*
X344423Y403557*
X344620Y403360*
X346195*
X346589Y403557*
X346982Y403951*
X347179Y404935*
X294705Y403435D02*
X303825D01*
X305691D02*
X309337D01*
X313762D02*
X317211D01*
X320577D02*
X328787D01*
X331356D02*
X335124D01*
X338762D02*
X342014D01*
X344545D02*
X346344D01*
X294564Y403529D02*
X304012D01*
X305504D02*
X309524D01*
X313574D02*
X317398D01*
X320296D02*
X328928D01*
X331263D02*
X335311D01*
X338574D02*
X342201D01*
X344452D02*
X346532D01*
X294424Y403622D02*
X304102D01*
X305447D02*
X309613D01*
X313452D02*
X317520D01*
X320015D02*
X329069D01*
X331202D02*
X335401D01*
X338321D02*
X342291D01*
X344358D02*
X346654D01*
X294283Y403716D02*
X304148D01*
X305447D02*
X309660D01*
X313359D02*
X317614D01*
X319733D02*
X329209D01*
X331155D02*
X335448D01*
X338321D02*
X342337D01*
X344264D02*
X346748D01*
X294170Y403810D02*
X304195D01*
X305447D02*
X309707D01*
X313321D02*
X317707D01*
X319564D02*
X329350D01*
X331108D02*
X335494D01*
X338297D02*
X342384D01*
X344226D02*
X346841D01*
X294077Y403904D02*
X304242D01*
X305447D02*
X309754D01*
X313321D02*
X317801D01*
X319470D02*
X329490D01*
X331061D02*
X335541D01*
X338257D02*
X342431D01*
X344226D02*
X346935D01*
X293983Y403997D02*
X304275D01*
X305456D02*
X309787D01*
X313333D02*
X317858D01*
X319377D02*
X329631D01*
X331048D02*
X335577D01*
X338217D02*
X342465D01*
X344236D02*
X346992D01*
X293889Y404091D02*
X304294D01*
X305475D02*
X309807D01*
X313358D02*
X317876D01*
X319283D02*
X329771D01*
X331069D02*
X335600D01*
X338176D02*
X342486D01*
X344254D02*
X347010D01*
X293833Y404185D02*
X304313D01*
X305494D02*
X309827D01*
X313382D02*
X317895D01*
X319208D02*
X329875D01*
X331090D02*
X335624D01*
X338136D02*
X342507D01*
X344273D02*
X347029D01*
X293833Y404278D02*
X304331D01*
X305512D02*
X309846D01*
X313407D02*
X317914D01*
X319161D02*
X329922D01*
X331111D02*
X335647D01*
X338096D02*
X342528D01*
X344292D02*
X347048D01*
X293833Y404372D02*
X304350D01*
X305531D02*
X309866D01*
X311541D02*
X311962D01*
X313432D02*
X317933D01*
X319114D02*
X329969D01*
X331132D02*
X335670D01*
X338056D02*
X342550D01*
X344311D02*
X347067D01*
X293833Y404466D02*
X304369D01*
X305550D02*
X309886D01*
X311513D02*
X312028D01*
X313456D02*
X317952D01*
X319067D02*
X330015D01*
X331153D02*
X335694D01*
X338016D02*
X342570D01*
X344330D02*
X347085D01*
X293833Y404559D02*
X304387D01*
X305569D02*
X309906D01*
X311486D02*
X312094D01*
X313481D02*
X317970D01*
X319030D02*
X330062D01*
X331174D02*
X335717D01*
X337976D02*
X342592D01*
X344348D02*
X347104D01*
X293833Y404653D02*
X304406D01*
X305587D02*
X309926D01*
X311458D02*
X312161D01*
X313506D02*
X317989D01*
X319030D02*
X330109D01*
X331195D02*
X335741D01*
X337935D02*
X342613D01*
X344367D02*
X347123D01*
X293833Y404747D02*
X299122D01*
X299182D02*
X304425D01*
X305606D02*
X309945D01*
X311431D02*
X312227D01*
X313530D02*
X318007D01*
X319032D02*
X324524D01*
X324559D02*
X330156D01*
X331217D02*
X335764D01*
X337895D02*
X342634D01*
X344385D02*
X347141D01*
X293833Y404841D02*
X298841D01*
X299557D02*
X304444D01*
X305625D02*
X309965D01*
X311403D02*
X312293D01*
X313555D02*
X318026D01*
X319064D02*
X324337D01*
X324746D02*
X330203D01*
X331237D02*
X335787D01*
X337855D02*
X342655D01*
X344404D02*
X347160D01*
X293833Y404934D02*
X298557D01*
X299935D02*
X304463D01*
X305644D02*
X309985D01*
X311376D02*
X312359D01*
X313580D02*
X318045D01*
X319095D02*
X324148D01*
X324933D02*
X330250D01*
X331259D02*
X335811D01*
X337815D02*
X342676D01*
X344423D02*
X347180D01*
X293851Y405028D02*
X298526D01*
X299981D02*
X304481D01*
X305662D02*
X310004D01*
X311348D02*
X312425D01*
X313604D02*
X318064D01*
X319126D02*
X324117D01*
X325121D02*
X330269D01*
X331280D02*
X335834D01*
X337775D02*
X342697D01*
X344470D02*
X347133D01*
X293870Y405122D02*
X298495D01*
X300028D02*
X304500D01*
X305681D02*
X310024D01*
X311320D02*
X312491D01*
X313629D02*
X318083D01*
X319157D02*
X324085D01*
X325308D02*
X330287D01*
X331301D02*
X335858D01*
X337735D02*
X342718D01*
X344517D02*
X347086D01*
X293889Y405215D02*
X298464D01*
X300075D02*
X304519D01*
X305700D02*
X310044D01*
X311293D02*
X312557D01*
X313654D02*
X318101D01*
X319189D02*
X324054D01*
X325384D02*
X330306D01*
X331322D02*
X335881D01*
X337694D02*
X342739D01*
X344563D02*
X347039D01*
X293907Y405309D02*
X298432D01*
X300122D02*
X304537D01*
X305719D02*
X310063D01*
X311265D02*
X312624D01*
X313678D02*
X318120D01*
X319220D02*
X324023D01*
X325447D02*
X330325D01*
X331343D02*
X335905D01*
X337654D02*
X342760D01*
X344610D02*
X346992D01*
X293926Y405403D02*
X298401D01*
X300169D02*
X304556D01*
X305737D02*
X310083D01*
X311238D02*
X312690D01*
X313703D02*
X318139D01*
X319251D02*
X323992D01*
X325509D02*
X330344D01*
X331364D02*
X335928D01*
X337614D02*
X342781D01*
X344768D02*
X346834D01*
X293945Y405496D02*
X298370D01*
X300216D02*
X304575D01*
X305756D02*
X310103D01*
X311210D02*
X312756D01*
X313728D02*
X318157D01*
X319282D02*
X323961D01*
X325572D02*
X330362D01*
X331385D02*
X335952D01*
X337574D02*
X342802D01*
X344956D02*
X346647D01*
X293964Y405590D02*
X298360D01*
X300263D02*
X304594D01*
X305775D02*
X310123D01*
X311183D02*
X312822D01*
X313752D02*
X318176D01*
X319313D02*
X323951D01*
X325634D02*
X330381D01*
X331406D02*
X335975D01*
X337534D02*
X342824D01*
X293982Y405684D02*
X298360D01*
X300309D02*
X304612D01*
X305793D02*
X310143D01*
X311155D02*
X312888D01*
X313777D02*
X318195D01*
X319345D02*
X323951D01*
X325697D02*
X330400D01*
X331427D02*
X335998D01*
X337494D02*
X342844D01*
X294001Y405778D02*
X298373D01*
X300335D02*
X304631D01*
X305812D02*
X310162D01*
X311128D02*
X312954D01*
X313802D02*
X318214D01*
X319376D02*
X323951D01*
X325722D02*
X330419D01*
X331448D02*
X336022D01*
X337454D02*
X342866D01*
X294020Y405871D02*
X298394D01*
X300347D02*
X304650D01*
X305831D02*
X310182D01*
X311100D02*
X313020D01*
X313826D02*
X318233D01*
X319407D02*
X323951D01*
X325722D02*
X330437D01*
X331470D02*
X336045D01*
X337413D02*
X342887D01*
X294039Y405965D02*
X298415D01*
X300359D02*
X304669D01*
X305850D02*
X310202D01*
X311072D02*
X313087D01*
X313851D02*
X318251D01*
X319446D02*
X323951D01*
X325722D02*
X330447D01*
X331491D02*
X336069D01*
X337373D02*
X342908D01*
X294057Y406059D02*
X298437D01*
X300371D02*
X304687D01*
X305869D02*
X310221D01*
X311045D02*
X313153D01*
X313876D02*
X318270D01*
X319493D02*
X323951D01*
X325722D02*
X330447D01*
X331512D02*
X336092D01*
X337333D02*
X342929D01*
X294076Y406152D02*
X298458D01*
X300382D02*
X304706D01*
X305887D02*
X310241D01*
X311017D02*
X313219D01*
X313900D02*
X318289D01*
X319540D02*
X323951D01*
X325710D02*
X330447D01*
X331533D02*
X336115D01*
X337293D02*
X342950D01*
X345138D02*
X346894D01*
X294095Y406246D02*
X298479D01*
X300394D02*
X304725D01*
X305906D02*
X310261D01*
X310990D02*
X313285D01*
X313925D02*
X318307D01*
X319587D02*
X323951D01*
X325679D02*
X330447D01*
X331554D02*
X336139D01*
X337253D02*
X342971D01*
X344951D02*
X347175D01*
X294114Y406340D02*
X298500D01*
X300406D02*
X304744D01*
X305925D02*
X310280D01*
X310962D02*
X313351D01*
X313950D02*
X318326D01*
X319674D02*
X323897D01*
X325648D02*
X330447D01*
X331575D02*
X336162D01*
X337213D02*
X342992D01*
X344817D02*
X347389D01*
X294132Y406433D02*
X298522D01*
X300418D02*
X304762D01*
X305943D02*
X310300D01*
X310935D02*
X313417D01*
X313974D02*
X318345D01*
X319861D02*
X323710D01*
X325617D02*
X330447D01*
X331596D02*
X336186D01*
X337172D02*
X343013D01*
X344817D02*
X347436D01*
X294151Y406527D02*
X298543D01*
X300429D02*
X304781D01*
X305962D02*
X310320D01*
X310907D02*
X313483D01*
X313999D02*
X318364D01*
X325585D02*
X330441D01*
X331617D02*
X336209D01*
X337132D02*
X343034D01*
X344817D02*
X347483D01*
X294170Y406621D02*
X298565D01*
X300441D02*
X304800D01*
X305981D02*
X310340D01*
X310880D02*
X313550D01*
X314024D02*
X318382D01*
X325554D02*
X330410D01*
X331638D02*
X336233D01*
X337092D02*
X343056D01*
X344817D02*
X347530D01*
X294189Y406715D02*
X298586D01*
X300453D02*
X304819D01*
X306000D02*
X310359D01*
X310852D02*
X313616D01*
X314048D02*
X318401D01*
X325522D02*
X330379D01*
X331659D02*
X336256D01*
X337052D02*
X343077D01*
X344818D02*
X347575D01*
X294207Y406808D02*
X298607D01*
X300465D02*
X304837D01*
X306019D02*
X310379D01*
X310824D02*
X313682D01*
X314073D02*
X318420D01*
X325475D02*
X330347D01*
X331680D02*
X336280D01*
X337012D02*
X343098D01*
X344825D02*
X347604D01*
X294226Y406902D02*
X298628D01*
X300476D02*
X304856D01*
X306037D02*
X310399D01*
X310797D02*
X313748D01*
X314098D02*
X318439D01*
X325428D02*
X330316D01*
X331702D02*
X336303D01*
X336972D02*
X343119D01*
X344832D02*
X347633D01*
X294245Y406996D02*
X298650D01*
X300488D02*
X304875D01*
X306056D02*
X310419D01*
X310769D02*
X313814D01*
X314122D02*
X318457D01*
X325381D02*
X330285D01*
X331722D02*
X336326D01*
X336931D02*
X343140D01*
X344839D02*
X347662D01*
X294263Y407089D02*
X298671D01*
X300500D02*
X304893D01*
X306074D02*
X310438D01*
X310742D02*
X313880D01*
X314147D02*
X318476D01*
X325334D02*
X330254D01*
X331744D02*
X336350D01*
X336891D02*
X343161D01*
X344846D02*
X347691D01*
X294282Y407183D02*
X298692D01*
X300511D02*
X304912D01*
X306093D02*
X310458D01*
X310714D02*
X313946D01*
X314172D02*
X318495D01*
X325163D02*
X330195D01*
X331765D02*
X336373D01*
X336851D02*
X343182D01*
X344854D02*
X347719D01*
X294301Y407277D02*
X298713D01*
X300523D02*
X304931D01*
X306112D02*
X310478D01*
X310687D02*
X314013D01*
X314196D02*
X318514D01*
X324976D02*
X330132D01*
X331786D02*
X336396D01*
X336811D02*
X343203D01*
X344861D02*
X347748D01*
X294320Y407370D02*
X298735D01*
X299750D02*
X304950D01*
X306131D02*
X310498D01*
X310659D02*
X314079D01*
X314221D02*
X318532D01*
X324422D02*
X330070D01*
X331807D02*
X336420D01*
X336771D02*
X343224D01*
X344868D02*
X347777D01*
X294339Y407464D02*
X298756D01*
X299766D02*
X304969D01*
X306150D02*
X310517D01*
X310631D02*
X314145D01*
X314245D02*
X318551D01*
X323767D02*
X330007D01*
X331828D02*
X336443D01*
X336731D02*
X343245D01*
X344875D02*
X347806D01*
X294357Y407558D02*
X298778D01*
X299781D02*
X304987D01*
X306168D02*
X310537D01*
X310604D02*
X314211D01*
X314270D02*
X318570D01*
X323111D02*
X329945D01*
X331849D02*
X336467D01*
X336691D02*
X343266D01*
X344882D02*
X347835D01*
X294376Y407652D02*
X298799D01*
X299797D02*
X305006D01*
X306187D02*
X310557D01*
X310576D02*
X314277D01*
X314295D02*
X318589D01*
X322455D02*
X329883D01*
X331870D02*
X336490D01*
X336650D02*
X343287D01*
X344890D02*
X347863D01*
X294395Y407745D02*
X298820D01*
X299813D02*
X305025D01*
X306206D02*
X318607D01*
X321907D02*
X329693D01*
X331891D02*
X336514D01*
X336610D02*
X338693D01*
X338725D02*
X343309D01*
X344897D02*
X347893D01*
X294413Y407839D02*
X298841D01*
X299828D02*
X305043D01*
X306224D02*
X318626D01*
X321439D02*
X329412D01*
X331912D02*
X336537D01*
X336570D02*
X338654D01*
X338743D02*
X343330D01*
X344904D02*
X347921D01*
X294432Y407933D02*
X298863D01*
X299844D02*
X305053D01*
X306243D02*
X318645D01*
X321128D02*
X329086D01*
X331933D02*
X338616D01*
X338761D02*
X343351D01*
X344911D02*
X347950D01*
X294451Y408026D02*
X298884D01*
X299860D02*
X305053D01*
X306262D02*
X318663D01*
X320987D02*
X328711D01*
X331954D02*
X338577D01*
X338778D02*
X343372D01*
X344919D02*
X347979D01*
X294470Y408120D02*
X298905D01*
X299875D02*
X305053D01*
X306281D02*
X312524D01*
X312556D02*
X318682D01*
X320846D02*
X328213D01*
X331976D02*
X338539D01*
X338796D02*
X343393D01*
X344926D02*
X348008D01*
X294489Y408214D02*
X298926D01*
X299891D02*
X305053D01*
X306300D02*
X312501D01*
X312617D02*
X318701D01*
X320706D02*
X327510D01*
X331996D02*
X338501D01*
X338814D02*
X343414D01*
X344933D02*
X348037D01*
X294507Y408307D02*
X298948D01*
X299907D02*
X305001D01*
X306318D02*
X312478D01*
X312678D02*
X318720D01*
X320578D02*
X326807D01*
X332018D02*
X338462D01*
X338832D02*
X343435D01*
X344940D02*
X348065D01*
X294526Y408401D02*
X298969D01*
X299922D02*
X304814D01*
X306337D02*
X312454D01*
X312739D02*
X318739D01*
X320485D02*
X326104D01*
X332039D02*
X338424D01*
X338850D02*
X343456D01*
X344947D02*
X348094D01*
X294544Y408495D02*
X298990D01*
X306356D02*
X312431D01*
X312800D02*
X318757D01*
X320391D02*
X325501D01*
X332060D02*
X338386D01*
X338868D02*
X343477D01*
X344954D02*
X348123D01*
X294563Y408589D02*
X299012D01*
X306374D02*
X312407D01*
X312861D02*
X318776D01*
X320297D02*
X325360D01*
X332081D02*
X338347D01*
X338885D02*
X343498D01*
X344962D02*
X348152D01*
X294582Y408682D02*
X299033D01*
X306393D02*
X312384D01*
X312922D02*
X318795D01*
X320209D02*
X325220D01*
X332102D02*
X338309D01*
X338904D02*
X343519D01*
X344969D02*
X348181D01*
X294601Y408776D02*
X299054D01*
X306412D02*
X312361D01*
X312983D02*
X318813D01*
X320185D02*
X325079D01*
X332123D02*
X338271D01*
X338921D02*
X343541D01*
X344976D02*
X348209D01*
X294620Y408870D02*
X299076D01*
X306431D02*
X312337D01*
X313044D02*
X318832D01*
X320162D02*
X324939D01*
X332144D02*
X338232D01*
X338939D02*
X343561D01*
X344983D02*
X348238D01*
X294638Y408963D02*
X299097D01*
X306449D02*
X312314D01*
X313105D02*
X318851D01*
X320139D02*
X324905D01*
X332165D02*
X338194D01*
X338957D02*
X343583D01*
X344991D02*
X348267D01*
X294657Y409057D02*
X299118D01*
X306468D02*
X312290D01*
X313165D02*
X318870D01*
X320115D02*
X324873D01*
X332186D02*
X338156D01*
X338975D02*
X343604D01*
X344998D02*
X348296D01*
X294676Y409151D02*
X299139D01*
X306487D02*
X312267D01*
X313226D02*
X318889D01*
X320092D02*
X324842D01*
X332207D02*
X338117D01*
X338993D02*
X343625D01*
X345005D02*
X348325D01*
X294694Y409244D02*
X299161D01*
X306506D02*
X312243D01*
X313287D02*
X318907D01*
X320069D02*
X324811D01*
X332228D02*
X338079D01*
X339011D02*
X343646D01*
X345012D02*
X348354D01*
X294713Y409338D02*
X299182D01*
X306524D02*
X312220D01*
X313348D02*
X318926D01*
X320045D02*
X324780D01*
X326670D02*
X330664D01*
X332250D02*
X338041D01*
X339028D02*
X343667D01*
X345019D02*
X348383D01*
X294732Y409432D02*
X299203D01*
X306543D02*
X312196D01*
X313409D02*
X318944D01*
X320022D02*
X324748D01*
X326624D02*
X330945D01*
X332270D02*
X338002D01*
X339046D02*
X343688D01*
X345026D02*
X348411D01*
X294751Y409526D02*
X299224D01*
X301581D02*
X305045D01*
X306562D02*
X312173D01*
X313470D02*
X318963D01*
X320045D02*
X324738D01*
X326577D02*
X331069D01*
X332292D02*
X337964D01*
X339064D02*
X343709D01*
X345034D02*
X348440D01*
X294770Y409619D02*
X299246D01*
X301393D02*
X305326D01*
X306581D02*
X312150D01*
X313531D02*
X318982D01*
X320092D02*
X324738D01*
X326530D02*
X331116D01*
X332313D02*
X337926D01*
X339082D02*
X343730D01*
X345041D02*
X348469D01*
X294788Y409713D02*
X299267D01*
X301259D02*
X305474D01*
X306599D02*
X312126D01*
X313592D02*
X319001D01*
X320139D02*
X324738D01*
X326537D02*
X331163D01*
X332334D02*
X337887D01*
X339100D02*
X343751D01*
X345048D02*
X348498D01*
X294807Y409807D02*
X299289D01*
X301166D02*
X305520D01*
X306618D02*
X312103D01*
X313653D02*
X319020D01*
X320186D02*
X324738D01*
X326583D02*
X331209D01*
X332355D02*
X337849D01*
X339118D02*
X343772D01*
X345056D02*
X348527D01*
X294826Y409900D02*
X299310D01*
X301116D02*
X305567D01*
X306637D02*
X312080D01*
X313714D02*
X319038D01*
X320219D02*
X324738D01*
X326630D02*
X331243D01*
X332376D02*
X337811D01*
X339135D02*
X343793D01*
X345063D02*
X348556D01*
X294844Y409994D02*
X299331D01*
X301116D02*
X305614D01*
X306656D02*
X312056D01*
X313774D02*
X319057D01*
X320238D02*
X324738D01*
X326677D02*
X331262D01*
X332397D02*
X337772D01*
X339153D02*
X343815D01*
X345070D02*
X348584D01*
X294863Y410088D02*
X299362D01*
X301151D02*
X305652D01*
X306674D02*
X312033D01*
X313835D02*
X319076D01*
X320257D02*
X324764D01*
X326707D02*
X331281D01*
X332418D02*
X337734D01*
X339171D02*
X343835D01*
X345077D02*
X348613D01*
X294882Y410181D02*
X299409D01*
X301244D02*
X305676D01*
X306693D02*
X312009D01*
X313896D02*
X319094D01*
X320276D02*
X324835D01*
X326707D02*
X331299D01*
X332439D02*
X337696D01*
X339189D02*
X343857D01*
X345084D02*
X348642D01*
X294901Y410275D02*
X299456D01*
X301305D02*
X305699D01*
X306712D02*
X311986D01*
X313957D02*
X319113D01*
X320294D02*
X324905D01*
X326698D02*
X331318D01*
X332460D02*
X337657D01*
X339207D02*
X343878D01*
X345091D02*
X348671D01*
X294919Y410369D02*
X299502D01*
X301273D02*
X305723D01*
X306730D02*
X311962D01*
X314018D02*
X319132D01*
X320313D02*
X324975D01*
X326667D02*
X331337D01*
X332481D02*
X337619D01*
X339225D02*
X343899D01*
X345099D02*
X348700D01*
X294938Y410463D02*
X299549D01*
X301242D02*
X305746D01*
X306749D02*
X311939D01*
X314079D02*
X319151D01*
X320332D02*
X325045D01*
X326636D02*
X331356D01*
X332502D02*
X337581D01*
X339243D02*
X343920D01*
X345106D02*
X348728D01*
X294957Y410556D02*
X299596D01*
X301211D02*
X305770D01*
X306768D02*
X311915D01*
X314140D02*
X319170D01*
X320351D02*
X325116D01*
X326605D02*
X331374D01*
X332524D02*
X337543D01*
X339260D02*
X343941D01*
X345113D02*
X348757D01*
X294976Y410650D02*
X299643D01*
X301180D02*
X305793D01*
X306787D02*
X311892D01*
X314201D02*
X319188D01*
X320369D02*
X325186D01*
X326573D02*
X331393D01*
X332545D02*
X337504D01*
X339278D02*
X343962D01*
X345120D02*
X348786D01*
X294994Y410744D02*
X299690D01*
X301148D02*
X305817D01*
X306806D02*
X311869D01*
X314262D02*
X319207D01*
X320388D02*
X325256D01*
X326542D02*
X331412D01*
X332566D02*
X337466D01*
X339296D02*
X343983D01*
X345128D02*
X348815D01*
X295013Y410837D02*
X299737D01*
X301117D02*
X305840D01*
X306824D02*
X311845D01*
X314323D02*
X319226D01*
X320407D02*
X325326D01*
X326511D02*
X331430D01*
X332587D02*
X337428D01*
X339314D02*
X344004D01*
X345135D02*
X348844D01*
X295074Y410931D02*
X300100D01*
X300844D02*
X305841D01*
X306843D02*
X311822D01*
X314383D02*
X319244D01*
X320438D02*
X325600D01*
X326238D02*
X331431D01*
X332608D02*
X337389D01*
X339332D02*
X344025D01*
X345142D02*
X348873D01*
X295137Y411025D02*
X300475D01*
X300563D02*
X305841D01*
X306862D02*
X311798D01*
X314444D02*
X319263D01*
X320469D02*
X325881D01*
X325957D02*
X331431D01*
X332629D02*
X337351D01*
X339350D02*
X344046D01*
X345149D02*
X348902D01*
X295199Y411119D02*
X305841D01*
X306880D02*
X311775D01*
X314506D02*
X319282D01*
X320500D02*
X331431D01*
X332650D02*
X337312D01*
X339367D02*
X344067D01*
X345156D02*
X348930D01*
X295261Y411212D02*
X305841D01*
X306899D02*
X311752D01*
X314567D02*
X319301D01*
X320531D02*
X331431D01*
X332671D02*
X337274D01*
X339385D02*
X344089D01*
X345163D02*
X348959D01*
X295324Y411306D02*
X305805D01*
X306918D02*
X311728D01*
X314627D02*
X319319D01*
X320563D02*
X331431D01*
X332692D02*
X337236D01*
X339403D02*
X344109D01*
X345171D02*
X348988D01*
X295387Y411400D02*
X305758D01*
X306937D02*
X311705D01*
X314688D02*
X319338D01*
X320594D02*
X331431D01*
X332713D02*
X337197D01*
X339421D02*
X344131D01*
X345178D02*
X349017D01*
X295470Y411493D02*
X305711D01*
X306956D02*
X311681D01*
X314749D02*
X319357D01*
X320667D02*
X331431D01*
X332735D02*
X337159D01*
X339439D02*
X344152D01*
X345185D02*
X349046D01*
X295563Y411587D02*
X305664D01*
X306974D02*
X311658D01*
X314810D02*
X319376D01*
X320760D02*
X331431D01*
X332756D02*
X337121D01*
X339457D02*
X344173D01*
X345193D02*
X349074D01*
X295657Y411681D02*
X305591D01*
X306993D02*
X311634D01*
X314871D02*
X319394D01*
X320854D02*
X331378D01*
X332777D02*
X337082D01*
X339474D02*
X344194D01*
X345200D02*
X349103D01*
X295751Y411774D02*
X305497D01*
X307011D02*
X311611D01*
X314932D02*
X319413D01*
X320948D02*
X331285D01*
X332798D02*
X337044D01*
X339493D02*
X344215D01*
X345207D02*
X349132D01*
X295844Y411868D02*
X305404D01*
X307065D02*
X311587D01*
X314993D02*
X319423D01*
X321041D02*
X331191D01*
X332831D02*
X337006D01*
X339545D02*
X344205D01*
X345254D02*
X349148D01*
X295938Y411962D02*
X305310D01*
X307159D02*
X311564D01*
X315054D02*
X319423D01*
X321135D02*
X331097D01*
X332878D02*
X336967D01*
X339639D02*
X344158D01*
X345348D02*
X349148D01*
X296100Y412056D02*
X305148D01*
X307252D02*
X311515D01*
X315160D02*
X319423D01*
X321330D02*
X330936D01*
X332924D02*
X336909D01*
X339733D02*
X344111D01*
X345441D02*
X349148D01*
X296381Y412149D02*
X304867D01*
X307346D02*
X311422D01*
X315348D02*
X319423D01*
X321705D02*
X330655D01*
X332971D02*
X336815D01*
X339826D02*
X344064D01*
X345535D02*
X349148D01*
X296686Y412243D02*
X304586D01*
X307464D02*
X311304D01*
X315535D02*
X319374D01*
X322080D02*
X330374D01*
X333055D02*
X336697D01*
X339944D02*
X343981D01*
X345653D02*
X349099D01*
X297061Y412337D02*
X304305D01*
X307652D02*
X311116D01*
X315722D02*
X319187D01*
X322455D02*
X330093D01*
X333242D02*
X336510D01*
X340132D02*
X343793D01*
X345841D02*
X348911D01*
X0Y0D02*
M02*
