%FSLAX35Y35*%
%MOIN*%
G04 EasyPC Gerber Version 18.0.8 Build 3632 *
%ADD10C,0.00500*%
%ADD87C,0.10000*%
X0Y0D02*
D02*
D10*
X38321Y160754D02*
Y164504D01*
X40196*
X40821Y164192*
X41133Y163880*
X41446Y163254*
Y162004*
X41133Y161380*
X40821Y161067*
X40196Y160754*
X38321*
Y170754D02*
Y174504D01*
X40196*
X40821Y174192*
X41133Y173880*
X41446Y173254*
Y172004*
X41133Y171380*
X40821Y171067*
X40196Y170754*
X38321*
Y180754D02*
Y184504D01*
X40196*
X40821Y184192*
X41133Y183880*
X41446Y183254*
Y182004*
X41133Y181380*
X40821Y181067*
X40196Y180754*
X38321*
X40685Y53633D02*
X41311Y53321D01*
X41623Y52696*
X41311Y52071*
X40685Y51758*
X38498*
Y55508*
X40685*
X41311Y55196*
X41623Y54571*
X41311Y53946*
X40685Y53633*
X38498*
X40685Y352157D02*
X41311Y351844D01*
X41623Y351220*
X41311Y350594*
X40685Y350282*
X38498*
Y354032*
X40685*
X41311Y353720*
X41623Y353094*
X41311Y352470*
X40685Y352157*
X38498*
X40685Y363968D02*
X41311Y363656D01*
X41623Y363031*
X41311Y362406*
X40685Y362093*
X38498*
Y365843*
X40685*
X41311Y365531*
X41623Y364906*
X41311Y364281*
X40685Y363968*
X38498*
X40685Y411212D02*
X41311Y410900D01*
X41623Y410275*
X41311Y409650*
X40685Y409337*
X38498*
Y413087*
X40685*
X41311Y412775*
X41623Y412150*
X41311Y411525*
X40685Y411212*
X38498*
X38656Y387487D02*
Y391237D01*
Y389362D02*
X41781D01*
Y387487D02*
Y391237D01*
X41000Y111193D02*
X41626Y110880D01*
X41938Y110255*
X41626Y109630*
X41000Y109317*
X38813*
Y113067*
X41000*
X41626Y112755*
X41938Y112130*
X41626Y111505*
X41000Y111193*
X38813*
X41000Y151193D02*
X41626Y150880D01*
X41938Y150255*
X41626Y149630*
X41000Y149317*
X38813*
Y153067*
X41000*
X41626Y152755*
X41938Y152130*
X41626Y151505*
X41000Y151193*
X38813*
X41000Y288850D02*
X41626Y288537D01*
X41938Y287913*
X41626Y287287*
X41000Y286975*
X38813*
Y290725*
X41000*
X41626Y290413*
X41938Y289787*
X41626Y289163*
X41000Y288850*
X38813*
X41000Y328850D02*
X41626Y328537D01*
X41938Y327913*
X41626Y327287*
X41000Y326975*
X38813*
Y330725*
X41000*
X41626Y330413*
X41938Y329787*
X41626Y329163*
X41000Y328850*
X38813*
X39192Y27477D02*
Y31227D01*
X42317*
X41692Y29352D02*
X39192D01*
Y84997D02*
Y88747D01*
X42317*
X41692Y86872D02*
X39192D01*
X44937Y231606D02*
X45563Y231293D01*
X45875Y230669*
X45563Y230043*
X44937Y229731*
X42750*
Y233481*
X44937*
X45563Y233169*
X45875Y232543*
X45563Y231919*
X44937Y231606*
X42750*
X44937Y241606D02*
X45563Y241293D01*
X45875Y240669*
X45563Y240043*
X44937Y239731*
X42750*
Y243481*
X44937*
X45563Y243169*
X45875Y242543*
X45563Y241919*
X44937Y241606*
X42750*
X44937Y251606D02*
X45563Y251293D01*
X45875Y250669*
X45563Y250043*
X44937Y249731*
X42750*
Y253481*
X44937*
X45563Y253169*
X45875Y252543*
X45563Y251919*
X44937Y251606*
X42750*
X44937Y261606D02*
X45563Y261293D01*
X45875Y260669*
X45563Y260043*
X44937Y259731*
X42750*
Y263481*
X44937*
X45563Y263169*
X45875Y262543*
X45563Y261919*
X44937Y261606*
X42750*
X50331Y196530D02*
X51269D01*
Y196217*
X50956Y195592*
X50644Y195280*
X50019Y194967*
X49394*
X48769Y195280*
X48456Y195592*
X48144Y196217*
Y197467*
X48456Y198092*
X48769Y198405*
X49394Y198717*
X50019*
X50644Y198405*
X50956Y198092*
X51269Y197467*
X48498Y377644D02*
Y381394D01*
Y379519D02*
X51623D01*
Y377644D02*
Y381394D01*
X48498Y397329D02*
Y401079D01*
Y399204D02*
X51623D01*
Y397329D02*
Y401079D01*
X52496Y127748D02*
X53122Y127435D01*
X53434Y126810*
X53122Y126185*
X52496Y125872*
X50309*
Y129622*
X52496*
X53122Y129310*
X53434Y128685*
X53122Y128060*
X52496Y127748*
X50309*
X52496Y139559D02*
X53122Y139246D01*
X53434Y138621*
X53122Y137996*
X52496Y137683*
X50309*
Y141433*
X52496*
X53122Y141121*
X53434Y140496*
X53122Y139871*
X52496Y139559*
X50309*
X51293Y151660D02*
Y155410D01*
X53169*
X53793Y155098*
X54106Y154785*
X54419Y154160*
Y152910*
X54106Y152285*
X53793Y151972*
X53169Y151660*
X51293*
X55560Y335159D02*
X55248Y334846D01*
X54622Y334534*
X53685*
X53060Y334846*
X52748Y335159*
X52435Y335784*
Y337034*
X52748Y337659*
X53060Y337972*
X53685Y338284*
X54622*
X55248Y337972*
X55560Y337659*
X57686Y276104D02*
X57374Y275791D01*
X56748Y275479*
X55811*
X55186Y275791*
X54874Y276104*
X54561Y276729*
Y277979*
X54874Y278604*
X55186Y278917*
X55811Y279229*
X56748*
X57374Y278917*
X57686Y278604*
Y286104D02*
X57374Y285791D01*
X56748Y285479*
X55811*
X55186Y285791*
X54874Y286104*
X54561Y286729*
Y287979*
X54874Y288604*
X55186Y288917*
X55811Y289229*
X56748*
X57374Y288917*
X57686Y288604*
X58341Y377644D02*
Y381394D01*
X60216*
X60841Y381082*
X61153Y380769*
X61466Y380144*
Y378894*
X61153Y378269*
X60841Y377957*
X60216Y377644*
X58341*
Y397329D02*
Y401079D01*
Y399204D02*
X61466D01*
Y397329D02*
Y401079D01*
X59167Y151660D02*
Y155410D01*
X61043*
X61667Y155098*
X61980Y154785*
X62293Y154160*
Y152910*
X61980Y152285*
X61667Y151972*
X61043Y151660*
X59167*
X65560Y335159D02*
X65248Y334846D01*
X64622Y334534*
X63685*
X63060Y334846*
X62748Y335159*
X62435Y335784*
Y337034*
X62748Y337659*
X63060Y337972*
X63685Y338284*
X64622*
X65248Y337972*
X65560Y337659*
X63537Y185257D02*
X63850Y184945D01*
X64475Y184632*
X65100Y184945*
X65413Y185257*
Y188382*
X66037*
X65413D02*
X64163D01*
X69497Y114687D02*
X69185Y114374D01*
X68559Y114061*
X67622*
X66997Y114374*
X66685Y114687*
X66372Y115311*
Y116561*
X66685Y117187*
X66997Y117499*
X67622Y117811*
X68559*
X69185Y117499*
X69497Y117187*
X67041Y151660D02*
Y155410D01*
X68917*
X69541Y155098*
X69854Y154785*
X70167Y154160*
Y152910*
X69854Y152285*
X69541Y151972*
X68917Y151660*
X67041*
X68183Y377644D02*
Y381394D01*
Y379519D02*
X71308D01*
Y377644D02*
Y381394D01*
X68183Y397329D02*
Y401079D01*
Y399204D02*
X71308D01*
Y397329D02*
Y401079D01*
X71869Y27477D02*
Y31227D01*
X74994*
X74369Y29352D02*
X71869D01*
Y84997D02*
Y88747D01*
X74994*
X74369Y86872D02*
X71869D01*
X74937Y231606D02*
X75563Y231293D01*
X75875Y230669*
X75563Y230043*
X74937Y229731*
X72750*
Y233481*
X74937*
X75563Y233169*
X75875Y232543*
X75563Y231919*
X74937Y231606*
X72750*
X74937Y241606D02*
X75563Y241293D01*
X75875Y240669*
X75563Y240043*
X74937Y239731*
X72750*
Y243481*
X74937*
X75563Y243169*
X75875Y242543*
X75563Y241919*
X74937Y241606*
X72750*
X74937Y251606D02*
X75563Y251293D01*
X75875Y250669*
X75563Y250043*
X74937Y249731*
X72750*
Y253481*
X74937*
X75563Y253169*
X75875Y252543*
X75563Y251919*
X74937Y251606*
X72750*
X74937Y261606D02*
X75563Y261293D01*
X75875Y260669*
X75563Y260043*
X74937Y259731*
X72750*
Y263481*
X74937*
X75563Y263169*
X75875Y262543*
X75563Y261919*
X74937Y261606*
X72750*
X74443Y304967D02*
Y308717D01*
X77568*
X76943Y306842D02*
X74443D01*
Y304967D02*
X77568D01*
X74915Y151660D02*
Y155410D01*
X76791*
X77415Y155098*
X77728Y154785*
X78041Y154160*
Y152910*
X77728Y152285*
X77415Y151972*
X76791Y151660*
X74915*
X79497Y114687D02*
X79185Y114374D01*
X78559Y114061*
X77622*
X76997Y114374*
X76685Y114687*
X76372Y115311*
Y116561*
X76685Y117187*
X76997Y117499*
X77622Y117811*
X78559*
X79185Y117499*
X79497Y117187*
X78026Y387487D02*
Y391237D01*
Y389362D02*
X81151D01*
Y387487D02*
Y391237D01*
X80685Y53633D02*
X81311Y53321D01*
X81623Y52696*
X81311Y52071*
X80685Y51758*
X78498*
Y55508*
X80685*
X81311Y55196*
X81623Y54571*
X81311Y53946*
X80685Y53633*
X78498*
X80685Y352157D02*
X81311Y351844D01*
X81623Y351220*
X81311Y350594*
X80685Y350282*
X78498*
Y354032*
X80685*
X81311Y353720*
X81623Y353094*
X81311Y352470*
X80685Y352157*
X78498*
X80685Y363968D02*
X81311Y363656D01*
X81623Y363031*
X81311Y362406*
X80685Y362093*
X78498*
Y365843*
X80685*
X81311Y365531*
X81623Y364906*
X81311Y364281*
X80685Y363968*
X78498*
X80685Y411212D02*
X81311Y410900D01*
X81623Y410275*
X81311Y409650*
X80685Y409337*
X78498*
Y413087*
X80685*
X81311Y412775*
X81623Y412150*
X81311Y411525*
X80685Y411212*
X78498*
X82789Y151660D02*
Y155410D01*
X84665*
X85289Y155098*
X85602Y154785*
X85915Y154160*
Y152910*
X85602Y152285*
X85289Y151972*
X84665Y151660*
X82789*
X83341Y275439D02*
Y279189D01*
X85216*
X85841Y278877*
X86153Y278565*
X86466Y277939*
Y276689*
X86153Y276065*
X85841Y275752*
X85216Y275439*
X83341*
X84074Y27477D02*
Y31227D01*
Y29352D02*
X87199D01*
Y27477D02*
Y31227D01*
X84074Y84997D02*
Y88747D01*
Y86872D02*
X87199D01*
Y84997D02*
Y88747D01*
X89856Y58510D02*
Y62260D01*
X92981Y58510*
Y62260*
X93119Y242482D02*
X92807Y242169D01*
X92181Y241857*
X91244*
X90619Y242169*
X90307Y242482*
X89994Y243107*
Y244357*
X90307Y244982*
X90619Y245294*
X91244Y245607*
X92181*
X92807Y245294*
X93119Y244982*
Y252482D02*
X92807Y252169D01*
X92181Y251857*
X91244*
X90619Y252169*
X90307Y252482*
X89994Y253107*
Y254357*
X90307Y254982*
X90619Y255294*
X91244Y255607*
X92181*
X92807Y255294*
X93119Y254982*
X92496Y127748D02*
X93122Y127435D01*
X93434Y126810*
X93122Y126185*
X92496Y125872*
X90309*
Y129622*
X92496*
X93122Y129310*
X93434Y128685*
X93122Y128060*
X92496Y127748*
X90309*
X92496Y139559D02*
X93122Y139246D01*
X93434Y138621*
X93122Y137996*
X92496Y137683*
X90309*
Y141433*
X92496*
X93122Y141121*
X93434Y140496*
X93122Y139871*
X92496Y139559*
X90309*
X90663Y151660D02*
Y155410D01*
X92539*
X93163Y155098*
X93476Y154785*
X93789Y154160*
Y152910*
X93476Y152285*
X93163Y151972*
X92539Y151660*
X90663*
X93341Y275439D02*
Y279189D01*
X95216*
X95841Y278877*
X96153Y278565*
X96466Y277939*
Y276689*
X96153Y276065*
X95841Y275752*
X95216Y275439*
X93341*
X96000Y196530D02*
X96938D01*
Y196217*
X96626Y195592*
X96313Y195280*
X95688Y194967*
X95063*
X94438Y195280*
X94126Y195592*
X93813Y196217*
Y197467*
X94126Y198092*
X94438Y198405*
X95063Y198717*
X95688*
X96313Y198405*
X96626Y198092*
X96938Y197467*
X96711Y27477D02*
Y31227D01*
X99837*
X99211Y29352D02*
X96711D01*
Y84997D02*
Y88747D01*
X99837*
X99211Y86872D02*
X96711D01*
X99741Y53043D02*
X100366Y52730D01*
X100678Y52106*
X100366Y51480*
X99741Y51168*
X97553*
Y54918*
X99741*
X100366Y54606*
X100678Y53980*
X100366Y53356*
X99741Y53043*
X97553*
X97730Y385282D02*
Y389032D01*
X100856Y385282*
Y389032*
X103026Y275439D02*
Y279189D01*
X104901*
X105526Y278877*
X105838Y278565*
X106151Y277939*
Y276689*
X105838Y276065*
X105526Y275752*
X104901Y275439*
X103026*
X107615Y348220D02*
X108240Y347907D01*
X108552Y347283*
X108240Y346657*
X107615Y346345*
X105427*
Y350095*
X107615*
X108240Y349783*
X108552Y349157*
X108240Y348533*
X107615Y348220*
X105427*
X107615Y363968D02*
X108240Y363656D01*
X108552Y363031*
X108240Y362406*
X107615Y362093*
X105427*
Y365843*
X107615*
X108240Y365531*
X108552Y364906*
X108240Y364281*
X107615Y363968*
X105427*
X107615Y411212D02*
X108240Y410900D01*
X108552Y410275*
X108240Y409650*
X107615Y409337*
X105427*
Y413087*
X107615*
X108240Y412775*
X108552Y412150*
X108240Y411525*
X107615Y411212*
X105427*
X107930Y129244D02*
X108555Y128931D01*
X108867Y128306*
X108555Y127681*
X107930Y127369*
X105742*
Y131119*
X107930*
X108555Y130806*
X108867Y130181*
X108555Y129556*
X107930Y129244*
X105742*
X107930Y139244D02*
X108555Y138931D01*
X108867Y138306*
X108555Y137681*
X107930Y137369*
X105742*
Y141119*
X107930*
X108555Y140806*
X108867Y140181*
X108555Y139556*
X107930Y139244*
X105742*
X107930Y149244D02*
X108555Y148931D01*
X108867Y148306*
X108555Y147681*
X107930Y147369*
X105742*
Y151119*
X107930*
X108555Y150806*
X108867Y150181*
X108555Y149556*
X107930Y149244*
X105742*
X107930Y159244D02*
X108555Y158931D01*
X108867Y158306*
X108555Y157681*
X107930Y157369*
X105742*
Y161119*
X107930*
X108555Y160806*
X108867Y160181*
X108555Y159556*
X107930Y159244*
X105742*
X107930Y221921D02*
X108555Y221608D01*
X108867Y220983*
X108555Y220358*
X107930Y220046*
X105742*
Y223796*
X107930*
X108555Y223483*
X108867Y222858*
X108555Y222233*
X107930Y221921*
X105742*
X107930Y261921D02*
X108555Y261608D01*
X108867Y260983*
X108555Y260358*
X107930Y260046*
X105742*
Y263796*
X107930*
X108555Y263483*
X108867Y262858*
X108555Y262233*
X107930Y261921*
X105742*
X112804Y173742D02*
X112492Y173429D01*
X111867Y173117*
X110929*
X110304Y173429*
X109992Y173742*
X109679Y174367*
Y175617*
X109992Y176242*
X110304Y176554*
X110929Y176867*
X111867*
X112492Y176554*
X112804Y176242*
X112238Y304967D02*
Y308717D01*
X115363*
X114738Y306842D02*
X112238D01*
Y304967D02*
X115363D01*
X116741Y114687D02*
X116429Y114374D01*
X115804Y114061*
X114866*
X114241Y114374*
X113929Y114687*
X113616Y115311*
Y116561*
X113929Y117187*
X114241Y117499*
X114866Y117811*
X115804*
X116429Y117499*
X116741Y117187*
X119741Y221921D02*
X120366Y221608D01*
X120678Y220983*
X120366Y220358*
X119741Y220046*
X117553*
Y223796*
X119741*
X120366Y223483*
X120678Y222858*
X120366Y222233*
X119741Y221921*
X117553*
X119741Y261921D02*
X120366Y261608D01*
X120678Y260983*
X120366Y260358*
X119741Y260046*
X117553*
Y263796*
X119741*
X120366Y263483*
X120678Y262858*
X120366Y262233*
X119741Y261921*
X117553*
X122804Y173742D02*
X122492Y173429D01*
X121867Y173117*
X120929*
X120304Y173429*
X119992Y173742*
X119679Y174367*
Y175617*
X119992Y176242*
X120304Y176554*
X120929Y176867*
X121867*
X122492Y176554*
X122804Y176242*
X126741Y114687D02*
X126429Y114374D01*
X125804Y114061*
X124866*
X124241Y114374*
X123929Y114687*
X123616Y115311*
Y116561*
X123929Y117187*
X124241Y117499*
X124866Y117811*
X125804*
X126429Y117499*
X126741Y117187*
X129389Y27477D02*
Y31227D01*
X132514*
X131889Y29352D02*
X129389D01*
Y84997D02*
Y88747D01*
X132514*
X131889Y86872D02*
X129389D01*
X132927Y298254D02*
Y302004D01*
X134802*
X135427Y301692*
X135740Y301380*
X136052Y300754*
Y299504*
X135740Y298880*
X135427Y298567*
X134802Y298254*
X132927*
Y308254D02*
Y312004D01*
X134802*
X135427Y311692*
X135740Y311380*
X136052Y310754*
Y309504*
X135740Y308880*
X135427Y308567*
X134802Y308254*
X132927*
X136426Y238250D02*
X136114Y237937D01*
X135489Y237624*
X134551*
X133926Y237937*
X133614Y238250*
X133301Y238874*
Y240124*
X133614Y240750*
X133926Y241062*
X134551Y241374*
X135489*
X136114Y241062*
X136426Y240750*
Y248250D02*
X136114Y247937D01*
X135489Y247624*
X134551*
X133926Y247937*
X133614Y248250*
X133301Y248874*
Y250124*
X133614Y250750*
X133926Y251062*
X134551Y251374*
X135489*
X136114Y251062*
X136426Y250750*
Y331222D02*
X136114Y330909D01*
X135489Y330597*
X134551*
X133926Y330909*
X133614Y331222*
X133301Y331847*
Y333097*
X133614Y333722*
X133926Y334035*
X134551Y334347*
X135489*
X136114Y334035*
X136426Y333722*
X137930Y129244D02*
X138555Y128931D01*
X138867Y128306*
X138555Y127681*
X137930Y127369*
X135742*
Y131119*
X137930*
X138555Y130806*
X138867Y130181*
X138555Y129556*
X137930Y129244*
X135742*
X137930Y139244D02*
X138555Y138931D01*
X138867Y138306*
X138555Y137681*
X137930Y137369*
X135742*
Y141119*
X137930*
X138555Y140806*
X138867Y140181*
X138555Y139556*
X137930Y139244*
X135742*
X137930Y149244D02*
X138555Y148931D01*
X138867Y148306*
X138555Y147681*
X137930Y147369*
X135742*
Y151119*
X137930*
X138555Y150806*
X138867Y150181*
X138555Y149556*
X137930Y149244*
X135742*
X137930Y159244D02*
X138555Y158931D01*
X138867Y158306*
X138555Y157681*
X137930Y157369*
X135742*
Y161119*
X137930*
X138555Y160806*
X138867Y160181*
X138555Y159556*
X137930Y159244*
X135742*
X139741Y53043D02*
X140366Y52730D01*
X140678Y52106*
X140366Y51480*
X139741Y51168*
X137553*
Y54918*
X139741*
X140366Y54606*
X140678Y53980*
X140366Y53356*
X139741Y53043*
X137553*
X138970Y377487D02*
Y381237D01*
Y379362D02*
X142096D01*
Y377487D02*
Y381237D01*
X138970Y387487D02*
Y391237D01*
Y389362D02*
X142096D01*
Y387487D02*
Y391237D01*
X138970Y397487D02*
Y401237D01*
Y399362D02*
X142096D01*
Y397487D02*
Y401237D01*
X139600Y194967D02*
Y198717D01*
X142726*
X142100Y196842D02*
X139600D01*
Y194967D02*
X142726D01*
X141593Y27477D02*
Y31227D01*
Y29352D02*
X144719D01*
Y27477D02*
Y31227D01*
X141593Y84997D02*
Y88747D01*
Y86872D02*
X144719D01*
Y84997D02*
Y88747D01*
X142927Y298254D02*
Y302004D01*
X144802*
X145427Y301692*
X145740Y301380*
X146052Y300754*
Y299504*
X145740Y298880*
X145427Y298567*
X144802Y298254*
X142927*
Y308254D02*
Y312004D01*
X144802*
X145427Y311692*
X145740Y311380*
X146052Y310754*
Y309504*
X145740Y308880*
X145427Y308567*
X144802Y308254*
X142927*
X146426Y331222D02*
X146114Y330909D01*
X145489Y330597*
X144551*
X143926Y330909*
X143614Y331222*
X143301Y331847*
Y333097*
X143614Y333722*
X143926Y334035*
X144551Y334347*
X145489*
X146114Y334035*
X146426Y333722*
X147300Y230110D02*
X147925Y229797D01*
X148237Y229172*
X147925Y228547*
X147300Y228235*
X145112*
Y231985*
X147300*
X147925Y231672*
X148237Y231047*
X147925Y230422*
X147300Y230110*
X145112*
X147300Y260110D02*
X147925Y259797D01*
X148237Y259172*
X147925Y258547*
X147300Y258235*
X145112*
Y261985*
X147300*
X147925Y261672*
X148237Y261047*
X147925Y260422*
X147300Y260110*
X145112*
X147615Y348220D02*
X148240Y347907D01*
X148552Y347283*
X148240Y346657*
X147615Y346345*
X145427*
Y350095*
X147615*
X148240Y349783*
X148552Y349157*
X148240Y348533*
X147615Y348220*
X145427*
X147615Y363968D02*
X148240Y363656D01*
X148552Y363031*
X148240Y362406*
X147615Y362093*
X145427*
Y365843*
X147615*
X148240Y365531*
X148552Y364906*
X148240Y364281*
X147615Y363968*
X145427*
X147615Y411212D02*
X148240Y410900D01*
X148552Y410275*
X148240Y409650*
X147615Y409337*
X145427*
Y413087*
X147615*
X148240Y412775*
X148552Y412150*
X148240Y411525*
X147615Y411212*
X145427*
X148498Y165439D02*
Y169189D01*
X150373*
X150998Y168877*
X151311Y168565*
X151623Y167939*
Y166689*
X151311Y166065*
X150998Y165752*
X150373Y165439*
X148498*
X150922Y115937D02*
X151547Y115624D01*
X151859Y114999*
X151547Y114374*
X150922Y114061*
X148734*
Y117811*
X150922*
X151547Y117499*
X151859Y116874*
X151547Y116249*
X150922Y115937*
X148734*
X150922Y139559D02*
X151547Y139246D01*
X151859Y138621*
X151547Y137996*
X150922Y137683*
X148734*
Y141433*
X150922*
X151547Y141121*
X151859Y140496*
X151547Y139871*
X150922Y139559*
X148734*
X150922Y151370D02*
X151547Y151057D01*
X151859Y150432*
X151547Y149807*
X150922Y149494*
X148734*
Y153244*
X150922*
X151547Y152932*
X151859Y152307*
X151547Y151682*
X150922Y151370*
X148734*
X152927Y298254D02*
Y302004D01*
X154802*
X155427Y301692*
X155740Y301380*
X156052Y300754*
Y299504*
X155740Y298880*
X155427Y298567*
X154802Y298254*
X152927*
Y308254D02*
Y312004D01*
X154802*
X155427Y311692*
X155740Y311380*
X156052Y310754*
Y309504*
X155740Y308880*
X155427Y308567*
X154802Y308254*
X152927*
X154231Y27477D02*
Y31227D01*
X157356*
X156731Y29352D02*
X154231D01*
Y84997D02*
Y88747D01*
X157356*
X156731Y86872D02*
X154231D01*
X157300Y230110D02*
X157925Y229797D01*
X158237Y229172*
X157925Y228547*
X157300Y228235*
X155112*
Y231985*
X157300*
X157925Y231672*
X158237Y231047*
X157925Y230422*
X157300Y230110*
X155112*
X157300Y260110D02*
X157925Y259797D01*
X158237Y259172*
X157925Y258547*
X157300Y258235*
X155112*
Y261985*
X157300*
X157925Y261672*
X158237Y261047*
X157925Y260422*
X157300Y260110*
X155112*
X158796Y53043D02*
X159421Y52730D01*
X159733Y52106*
X159421Y51480*
X158796Y51168*
X156608*
Y54918*
X158796*
X159421Y54606*
X159733Y53980*
X159421Y53356*
X158796Y53043*
X156608*
X158796Y411212D02*
X159421Y410900D01*
X159733Y410275*
X159421Y409650*
X158796Y409337*
X156608*
Y413087*
X158796*
X159421Y412775*
X159733Y412150*
X159421Y411525*
X158796Y411212*
X156608*
X158498Y165439D02*
Y169189D01*
X160373*
X160998Y168877*
X161311Y168565*
X161623Y167939*
Y166689*
X161311Y166065*
X160998Y165752*
X160373Y165439*
X158498*
X163914Y333968D02*
X164539Y333656D01*
X164852Y333031*
X164539Y332406*
X163914Y332093*
X161726*
Y335843*
X163914*
X164539Y335531*
X164852Y334906*
X164539Y334281*
X163914Y333968*
X161726*
X163914Y363968D02*
X164539Y363656D01*
X164852Y363031*
X164539Y362406*
X163914Y362093*
X161726*
Y365843*
X163914*
X164539Y365531*
X164852Y364906*
X164539Y364281*
X163914Y363968*
X161726*
X162927Y298254D02*
Y302004D01*
X164802*
X165427Y301692*
X165740Y301380*
X166052Y300754*
Y299504*
X165740Y298880*
X165427Y298567*
X164802Y298254*
X162927*
Y308254D02*
Y312004D01*
X164802*
X165427Y311692*
X165740Y311380*
X166052Y310754*
Y309504*
X165740Y308880*
X165427Y308567*
X164802Y308254*
X162927*
X167922Y126498D02*
X167610Y126185D01*
X166985Y125872*
X166047*
X165422Y126185*
X165110Y126498*
X164797Y127122*
Y128372*
X165110Y128998*
X165422Y129310*
X166047Y129622*
X166985*
X167610Y129310*
X167922Y128998*
X167300Y230110D02*
X167925Y229797D01*
X168237Y229172*
X167925Y228547*
X167300Y228235*
X165112*
Y231985*
X167300*
X167925Y231672*
X168237Y231047*
X167925Y230422*
X167300Y230110*
X165112*
X167300Y260110D02*
X167925Y259797D01*
X168237Y259172*
X167925Y258547*
X167300Y258235*
X165112*
Y261985*
X167300*
X167925Y261672*
X168237Y261047*
X167925Y260422*
X167300Y260110*
X165112*
X168183Y165439D02*
Y169189D01*
X170058*
X170683Y168877*
X170996Y168565*
X171308Y167939*
Y166689*
X170996Y166065*
X170683Y165752*
X170058Y165439*
X168183*
X173914Y333968D02*
X174539Y333656D01*
X174852Y333031*
X174539Y332406*
X173914Y332093*
X171726*
Y335843*
X173914*
X174539Y335531*
X174852Y334906*
X174539Y334281*
X173914Y333968*
X171726*
X173914Y363968D02*
X174539Y363656D01*
X174852Y363031*
X174539Y362406*
X173914Y362093*
X171726*
Y365843*
X173914*
X174539Y365531*
X174852Y364906*
X174539Y364281*
X173914Y363968*
X171726*
X177922Y126498D02*
X177610Y126185D01*
X176985Y125872*
X176047*
X175422Y126185*
X175110Y126498*
X174797Y127122*
Y128372*
X175110Y128998*
X175422Y129310*
X176047Y129622*
X176985*
X177610Y129310*
X177922Y128998*
X177300Y230110D02*
X177925Y229797D01*
X178237Y229172*
X177925Y228547*
X177300Y228235*
X175112*
Y231985*
X177300*
X177925Y231672*
X178237Y231047*
X177925Y230422*
X177300Y230110*
X175112*
X177300Y260110D02*
X177925Y259797D01*
X178237Y259172*
X177925Y258547*
X177300Y258235*
X175112*
Y261985*
X177300*
X177925Y261672*
X178237Y261047*
X177925Y260422*
X177300Y260110*
X175112*
X177396Y194967D02*
Y198717D01*
X180521*
X179896Y196842D02*
X177396D01*
Y194967D02*
X180521D01*
X180821Y377487D02*
Y381237D01*
Y379362D02*
X183946D01*
Y377487D02*
Y381237D01*
X180821Y387487D02*
Y391237D01*
Y389362D02*
X183946D01*
Y387487D02*
Y391237D01*
X180821Y397487D02*
Y401237D01*
Y399362D02*
X183946D01*
Y397487D02*
Y401237D01*
X183914Y333968D02*
X184539Y333656D01*
X184852Y333031*
X184539Y332406*
X183914Y332093*
X181726*
Y335843*
X183914*
X184539Y335531*
X184852Y334906*
X184539Y334281*
X183914Y333968*
X181726*
X183914Y363968D02*
X184539Y363656D01*
X184852Y363031*
X184539Y362406*
X183914Y362093*
X181726*
Y365843*
X183914*
X184539Y365531*
X184852Y364906*
X184539Y364281*
X183914Y363968*
X181726*
X183183Y304967D02*
Y308717D01*
X186308*
X185683Y306842D02*
X183183D01*
Y304967D02*
X186308D01*
X187300Y230110D02*
X187925Y229797D01*
X188237Y229172*
X187925Y228547*
X187300Y228235*
X185112*
Y231985*
X187300*
X187925Y231672*
X188237Y231047*
X187925Y230422*
X187300Y230110*
X185112*
X187300Y260110D02*
X187925Y259797D01*
X188237Y259172*
X187925Y258547*
X187300Y258235*
X185112*
Y261985*
X187300*
X187925Y261672*
X188237Y261047*
X187925Y260422*
X187300Y260110*
X185112*
X186908Y27477D02*
Y31227D01*
X190033*
X189408Y29352D02*
X186908D01*
Y84997D02*
Y88747D01*
X190033*
X189408Y86872D02*
X186908D01*
X190922Y115937D02*
X191547Y115624D01*
X191859Y114999*
X191547Y114374*
X190922Y114061*
X188734*
Y117811*
X190922*
X191547Y117499*
X191859Y116874*
X191547Y116249*
X190922Y115937*
X188734*
X190922Y139559D02*
X191547Y139246D01*
X191859Y138621*
X191547Y137996*
X190922Y137683*
X188734*
Y141433*
X190922*
X191547Y141121*
X191859Y140496*
X191547Y139871*
X190922Y139559*
X188734*
X190922Y151370D02*
X191547Y151057D01*
X191859Y150432*
X191547Y149807*
X190922Y149494*
X188734*
Y153244*
X190922*
X191547Y152932*
X191859Y152307*
X191547Y151682*
X190922Y151370*
X188734*
X193914Y333968D02*
X194539Y333656D01*
X194852Y333031*
X194539Y332406*
X193914Y332093*
X191726*
Y335843*
X193914*
X194539Y335531*
X194852Y334906*
X194539Y334281*
X193914Y333968*
X191726*
X193914Y363968D02*
X194539Y363656D01*
X194852Y363031*
X194539Y362406*
X193914Y362093*
X191726*
Y365843*
X193914*
X194539Y365531*
X194852Y364906*
X194539Y364281*
X193914Y363968*
X191726*
X192081Y275439D02*
Y279189D01*
X193956*
X194581Y278877*
X194893Y278565*
X195206Y277939*
Y276689*
X194893Y276065*
X194581Y275752*
X193956Y275439*
X192081*
X197300Y230110D02*
X197925Y229797D01*
X198237Y229172*
X197925Y228547*
X197300Y228235*
X195112*
Y231985*
X197300*
X197925Y231672*
X198237Y231047*
X197925Y230422*
X197300Y230110*
X195112*
X197300Y260110D02*
X197925Y259797D01*
X198237Y259172*
X197925Y258547*
X197300Y258235*
X195112*
Y261985*
X197300*
X197925Y261672*
X198237Y261047*
X197925Y260422*
X197300Y260110*
X195112*
X198796Y53043D02*
X199421Y52730D01*
X199733Y52106*
X199421Y51480*
X198796Y51168*
X196608*
Y54918*
X198796*
X199421Y54606*
X199733Y53980*
X199421Y53356*
X198796Y53043*
X196608*
X198796Y411212D02*
X199421Y410900D01*
X199733Y410275*
X199421Y409650*
X198796Y409337*
X196608*
Y413087*
X198796*
X199421Y412775*
X199733Y412150*
X199421Y411525*
X198796Y411212*
X196608*
X197671Y175991D02*
Y179741D01*
X199546*
X200171Y179428*
X200484Y179116*
X200796Y178491*
Y177241*
X200484Y176616*
X200171Y176303*
X199546Y175991*
X197671*
Y185991D02*
Y189741D01*
X199546*
X200171Y189428*
X200484Y189116*
X200796Y188491*
Y187241*
X200484Y186616*
X200171Y186303*
X199546Y185991*
X197671*
Y195991D02*
Y199741D01*
X199546*
X200171Y199428*
X200484Y199116*
X200796Y198491*
Y197241*
X200484Y196616*
X200171Y196303*
X199546Y195991*
X197671*
Y205991D02*
Y209741D01*
X199546*
X200171Y209428*
X200484Y209116*
X200796Y208491*
Y207241*
X200484Y206616*
X200171Y206303*
X199546Y205991*
X197671*
X199113Y27477D02*
Y31227D01*
Y29352D02*
X202238D01*
Y27477D02*
Y31227D01*
X199113Y84997D02*
Y88747D01*
Y86872D02*
X202238D01*
Y84997D02*
Y88747D01*
X202103Y115937D02*
X202728Y115624D01*
X203041Y114999*
X202728Y114374*
X202103Y114061*
X199915*
Y117811*
X202103*
X202728Y117499*
X203041Y116874*
X202728Y116249*
X202103Y115937*
X199915*
X202103Y127748D02*
X202728Y127435D01*
X203041Y126810*
X202728Y126185*
X202103Y125872*
X199915*
Y129622*
X202103*
X202728Y129310*
X203041Y128685*
X202728Y128060*
X202103Y127748*
X199915*
X202103Y139263D02*
X202728Y138951D01*
X203041Y138326*
X202728Y137701*
X202103Y137388*
X199915*
Y141138*
X202103*
X202728Y140826*
X203041Y140201*
X202728Y139576*
X202103Y139263*
X199915*
X203914Y333968D02*
X204539Y333656D01*
X204852Y333031*
X204539Y332406*
X203914Y332093*
X201726*
Y335843*
X203914*
X204539Y335531*
X204852Y334906*
X204539Y334281*
X203914Y333968*
X201726*
X203914Y363968D02*
X204539Y363656D01*
X204852Y363031*
X204539Y362406*
X203914Y362093*
X201726*
Y365843*
X203914*
X204539Y365531*
X204852Y364906*
X204539Y364281*
X203914Y363968*
X201726*
X202081Y275439D02*
Y279189D01*
X203956*
X204581Y278877*
X204893Y278565*
X205206Y277939*
Y276689*
X204893Y276065*
X204581Y275752*
X203956Y275439*
X202081*
X203281Y144903D02*
X203594Y144591D01*
X204219Y144278*
X204844Y144591*
X205157Y144903*
Y148028*
X205781*
X205157D02*
X203907D01*
X207300Y230110D02*
X207925Y229797D01*
X208237Y229172*
X207925Y228547*
X207300Y228235*
X205112*
Y231985*
X207300*
X207925Y231672*
X208237Y231047*
X207925Y230422*
X207300Y230110*
X205112*
X207300Y260110D02*
X207925Y259797D01*
X208237Y259172*
X207925Y258547*
X207300Y258235*
X205112*
Y261985*
X207300*
X207925Y261672*
X208237Y261047*
X207925Y260422*
X207300Y260110*
X205112*
X207671Y175991D02*
Y179741D01*
X209546*
X210171Y179428*
X210484Y179116*
X210796Y178491*
Y177241*
X210484Y176616*
X210171Y176303*
X209546Y175991*
X207671*
Y185991D02*
Y189741D01*
X209546*
X210171Y189428*
X210484Y189116*
X210796Y188491*
Y187241*
X210484Y186616*
X210171Y186303*
X209546Y185991*
X207671*
Y195991D02*
Y199741D01*
X209546*
X210171Y199428*
X210484Y199116*
X210796Y198491*
Y197241*
X210484Y196616*
X210171Y196303*
X209546Y195991*
X207671*
Y205991D02*
Y209741D01*
X209546*
X210171Y209428*
X210484Y209116*
X210796Y208491*
Y207241*
X210484Y206616*
X210171Y206303*
X209546Y205991*
X207671*
X209977Y411212D02*
X210602Y410900D01*
X210915Y410275*
X210602Y409650*
X209977Y409337*
X207789*
Y413087*
X209977*
X210602Y412775*
X210915Y412150*
X210602Y411525*
X209977Y411212*
X207789*
X213914Y53633D02*
X214539Y53321D01*
X214852Y52696*
X214539Y52071*
X213914Y51758*
X211726*
Y55508*
X213914*
X214539Y55196*
X214852Y54571*
X214539Y53946*
X213914Y53633*
X211726*
X213914Y333968D02*
X214539Y333656D01*
X214852Y333031*
X214539Y332406*
X213914Y332093*
X211726*
Y335843*
X213914*
X214539Y335531*
X214852Y334906*
X214539Y334281*
X213914Y333968*
X211726*
X213914Y363968D02*
X214539Y363656D01*
X214852Y363031*
X214539Y362406*
X213914Y362093*
X211726*
Y365843*
X213914*
X214539Y365531*
X214852Y364906*
X214539Y364281*
X213914Y363968*
X211726*
X211751Y27477D02*
Y31227D01*
X214876*
X214251Y29352D02*
X211751D01*
Y84997D02*
Y88747D01*
X214876*
X214251Y86872D02*
X211751D01*
X211766Y275439D02*
Y279189D01*
X213641*
X214266Y278877*
X214578Y278565*
X214891Y277939*
Y276689*
X214578Y276065*
X214266Y275752*
X213641Y275439*
X211766*
X219104Y150120D02*
X218791Y149807D01*
X218166Y149494*
X217228*
X216604Y149807*
X216291Y150120*
X215978Y150744*
Y151994*
X216291Y152620*
X216604Y152932*
X217228Y153244*
X218166*
X218791Y152932*
X219104Y152620*
X222103Y225858D02*
X222728Y225545D01*
X223041Y224920*
X222728Y224295*
X222103Y223983*
X219915*
Y227733*
X222103*
X222728Y227420*
X223041Y226795*
X222728Y226170*
X222103Y225858*
X219915*
X222103Y265858D02*
X222728Y265545D01*
X223041Y264920*
X222728Y264295*
X222103Y263983*
X219915*
Y267733*
X222103*
X222728Y267420*
X223041Y266795*
X222728Y266170*
X222103Y265858*
X219915*
X220978Y304967D02*
Y308717D01*
X224104*
X223478Y306842D02*
X220978D01*
Y304967D02*
X224104D01*
X223914Y333968D02*
X224539Y333656D01*
X224852Y333031*
X224539Y332406*
X223914Y332093*
X221726*
Y335843*
X223914*
X224539Y335531*
X224852Y334906*
X224539Y334281*
X223914Y333968*
X221726*
X223914Y363968D02*
X224539Y363656D01*
X224852Y363031*
X224539Y362406*
X223914Y362093*
X221726*
Y365843*
X223914*
X224539Y365531*
X224852Y364906*
X224539Y364281*
X223914Y363968*
X221726*
X222711Y377487D02*
Y381237D01*
Y379362D02*
X225836D01*
Y377487D02*
Y381237D01*
X222711Y387487D02*
Y391237D01*
Y389362D02*
X225836D01*
Y387487D02*
Y391237D01*
X222711Y397487D02*
Y401237D01*
Y399362D02*
X225836D01*
Y397487D02*
Y401237D01*
X229104Y150120D02*
X228791Y149807D01*
X228166Y149494*
X227228*
X226604Y149807*
X226291Y150120*
X225978Y150744*
Y151994*
X226291Y152620*
X226604Y152932*
X227228Y153244*
X228166*
X228791Y152932*
X229104Y152620*
X227081Y194967D02*
Y198717D01*
X230206*
X229581Y196842D02*
X227081D01*
Y194967D02*
X230206D01*
X233914Y333968D02*
X234539Y333656D01*
X234852Y333031*
X234539Y332406*
X233914Y332093*
X231726*
Y335843*
X233914*
X234539Y335531*
X234852Y334906*
X234539Y334281*
X233914Y333968*
X231726*
X233914Y363968D02*
X234539Y363656D01*
X234852Y363031*
X234539Y362406*
X233914Y362093*
X231726*
Y365843*
X233914*
X234539Y365531*
X234852Y364906*
X234539Y364281*
X233914Y363968*
X231726*
X237851Y225858D02*
X238476Y225545D01*
X238789Y224920*
X238476Y224295*
X237851Y223983*
X235663*
Y227733*
X237851*
X238476Y227420*
X238789Y226795*
X238476Y226170*
X237851Y225858*
X235663*
X237851Y265858D02*
X238476Y265545D01*
X238789Y264920*
X238476Y264295*
X237851Y263983*
X235663*
Y267733*
X237851*
X238476Y267420*
X238789Y266795*
X238476Y266170*
X237851Y265858*
X235663*
X235978Y165439D02*
Y169189D01*
X237854*
X238478Y168877*
X238791Y168565*
X239104Y167939*
Y166689*
X238791Y166065*
X238478Y165752*
X237854Y165439*
X235978*
X241473Y289165D02*
X242098Y288852D01*
X242411Y288228*
X242098Y287602*
X241473Y287290*
X239285*
Y291040*
X241473*
X242098Y290728*
X242411Y290102*
X242098Y289478*
X241473Y289165*
X239285*
X242103Y115937D02*
X242728Y115624D01*
X243041Y114999*
X242728Y114374*
X242103Y114061*
X239915*
Y117811*
X242103*
X242728Y117499*
X243041Y116874*
X242728Y116249*
X242103Y115937*
X239915*
X242103Y127748D02*
X242728Y127435D01*
X243041Y126810*
X242728Y126185*
X242103Y125872*
X239915*
Y129622*
X242103*
X242728Y129310*
X243041Y128685*
X242728Y128060*
X242103Y127748*
X239915*
X242103Y139263D02*
X242728Y138951D01*
X243041Y138326*
X242728Y137701*
X242103Y137388*
X239915*
Y141138*
X242103*
X242728Y140826*
X243041Y140201*
X242728Y139576*
X242103Y139263*
X239915*
X245843Y184933D02*
X246468Y184620D01*
X246781Y183995*
X246468Y183370*
X245843Y183057*
X243656*
Y186807*
X245843*
X246468Y186495*
X246781Y185870*
X246468Y185245*
X245843Y184933*
X243656*
X245843Y242610D02*
X246468Y242297D01*
X246781Y241672*
X246468Y241047*
X245843Y240735*
X243656*
Y244485*
X245843*
X246468Y244172*
X246781Y243547*
X246468Y242922*
X245843Y242610*
X243656*
X244428Y27477D02*
Y31227D01*
X247553*
X246928Y29352D02*
X244428D01*
Y84997D02*
Y88747D01*
X247553*
X246928Y86872D02*
X244428D01*
X245978Y165439D02*
Y169189D01*
X247854*
X248478Y168877*
X248791Y168565*
X249104Y167939*
Y166689*
X248791Y166065*
X248478Y165752*
X247854Y165439*
X245978*
X249347Y348220D02*
X249972Y347907D01*
X250285Y347283*
X249972Y346657*
X249347Y346345*
X247159*
Y350095*
X249347*
X249972Y349783*
X250285Y349157*
X249972Y348533*
X249347Y348220*
X247159*
X249347Y363968D02*
X249972Y363656D01*
X250285Y363031*
X249972Y362406*
X249347Y362093*
X247159*
Y365843*
X249347*
X249972Y365531*
X250285Y364906*
X249972Y364281*
X249347Y363968*
X247159*
X249977Y411212D02*
X250602Y410900D01*
X250915Y410275*
X250602Y409650*
X249977Y409337*
X247789*
Y413087*
X249977*
X250602Y412775*
X250915Y412150*
X250602Y411525*
X249977Y411212*
X247789*
X253599Y225858D02*
X254224Y225545D01*
X254537Y224920*
X254224Y224295*
X253599Y223983*
X251411*
Y227733*
X253599*
X254224Y227420*
X254537Y226795*
X254224Y226170*
X253599Y225858*
X251411*
X253599Y265858D02*
X254224Y265545D01*
X254537Y264920*
X254224Y264295*
X253599Y263983*
X251411*
Y267733*
X253599*
X254224Y267420*
X254537Y266795*
X254224Y266170*
X253599Y265858*
X251411*
X253914Y53633D02*
X254539Y53321D01*
X254852Y52696*
X254539Y52071*
X253914Y51758*
X251726*
Y55508*
X253914*
X254539Y55196*
X254852Y54571*
X254539Y53946*
X253914Y53633*
X251726*
X256348Y303663D02*
X256035Y303350D01*
X255410Y303038*
X254472*
X253848Y303350*
X253535Y303663*
X253222Y304288*
Y305538*
X253535Y306163*
X253848Y306476*
X254472Y306788*
X255410*
X256035Y306476*
X256348Y306163*
X255663Y165439D02*
Y169189D01*
X257539*
X258163Y168877*
X258476Y168565*
X258789Y167939*
Y166689*
X258476Y166065*
X258163Y165752*
X257539Y165439*
X255663*
X256633Y27477D02*
Y31227D01*
Y29352D02*
X259758D01*
Y27477D02*
Y31227D01*
X256633Y84997D02*
Y88747D01*
Y86872D02*
X259758D01*
Y84997D02*
Y88747D01*
X261158Y118496D02*
X261783Y118183D01*
X262096Y117558*
X261783Y116933*
X261158Y116620*
X258970*
Y120370*
X261158*
X261783Y120058*
X262096Y119433*
X261783Y118808*
X261158Y118496*
X258970*
X261158Y130996D02*
X261783Y130683D01*
X262096Y130058*
X261783Y129433*
X261158Y129120*
X258970*
Y132870*
X261158*
X261783Y132558*
X262096Y131933*
X261783Y131308*
X261158Y130996*
X258970*
X261158Y143496D02*
X261783Y143183D01*
X262096Y142558*
X261783Y141933*
X261158Y141620*
X258970*
Y145370*
X261158*
X261783Y145058*
X262096Y144433*
X261783Y143808*
X261158Y143496*
X258970*
X261158Y411212D02*
X261783Y410900D01*
X262096Y410275*
X261783Y409650*
X261158Y409337*
X258970*
Y413087*
X261158*
X261783Y412775*
X262096Y412150*
X261783Y411525*
X261158Y411212*
X258970*
X266348Y238545D02*
X266035Y238232D01*
X265410Y237920*
X264472*
X263848Y238232*
X263535Y238545*
X263222Y239170*
Y240420*
X263535Y241045*
X263848Y241357*
X264472Y241670*
X265410*
X266035Y241357*
X266348Y241045*
Y248545D02*
X266035Y248232D01*
X265410Y247920*
X264472*
X263848Y248232*
X263535Y248545*
X263222Y249170*
Y250420*
X263535Y251045*
X263848Y251357*
X264472Y251670*
X265410*
X266035Y251357*
X266348Y251045*
Y303663D02*
X266035Y303350D01*
X265410Y303038*
X264472*
X263848Y303350*
X263535Y303663*
X263222Y304288*
Y305538*
X263535Y306163*
X263848Y306476*
X264472Y306788*
X265410*
X266035Y306476*
X266348Y306163*
X264561Y377487D02*
Y381237D01*
Y379362D02*
X267686D01*
Y377487D02*
Y381237D01*
X264561Y387487D02*
Y391237D01*
Y389362D02*
X267686D01*
Y387487D02*
Y391237D01*
X264561Y397487D02*
Y401237D01*
Y399362D02*
X267686D01*
Y397487D02*
Y401237D01*
X264876Y194967D02*
Y198717D01*
X268001*
X267376Y196842D02*
X264876D01*
Y194967D02*
X268001D01*
X269270Y27477D02*
Y31227D01*
X272396*
X271770Y29352D02*
X269270D01*
Y84997D02*
Y88747D01*
X272396*
X271770Y86872D02*
X269270D01*
X272969Y53633D02*
X273594Y53321D01*
X273907Y52696*
X273594Y52071*
X272969Y51758*
X270781*
Y55508*
X272969*
X273594Y55196*
X273907Y54571*
X273594Y53946*
X272969Y53633*
X270781*
X274812Y157994D02*
X274500Y157681D01*
X273874Y157369*
X272937*
X272312Y157681*
X272000Y157994*
X271687Y158619*
Y159869*
X272000Y160494*
X272312Y160806*
X272937Y161119*
X273874*
X274500Y160806*
X274812Y160494*
X277221Y225858D02*
X277846Y225545D01*
X278159Y224920*
X277846Y224295*
X277221Y223983*
X275033*
Y227733*
X277221*
X277846Y227420*
X278159Y226795*
X277846Y226170*
X277221Y225858*
X275033*
X277221Y265858D02*
X277846Y265545D01*
X278159Y264920*
X277846Y264295*
X277221Y263983*
X275033*
Y267733*
X277221*
X277846Y267420*
X278159Y266795*
X277846Y266170*
X277221Y265858*
X275033*
X281473Y289165D02*
X282098Y288852D01*
X282411Y288228*
X282098Y287602*
X281473Y287290*
X279285*
Y291040*
X281473*
X282098Y290728*
X282411Y290102*
X282098Y289478*
X281473Y289165*
X279285*
X284812Y157994D02*
X284500Y157681D01*
X283874Y157369*
X282937*
X282312Y157681*
X282000Y157994*
X281687Y158619*
Y159869*
X282000Y160494*
X282312Y160806*
X282937Y161119*
X283874*
X284500Y160806*
X284812Y160494*
X286033Y193427D02*
X285720Y193114D01*
X285095Y192802*
X284157*
X283533Y193114*
X283220Y193427*
X282907Y194052*
Y195302*
X283220Y195927*
X283533Y196239*
X284157Y196552*
X285095*
X285720Y196239*
X286033Y195927*
Y209175D02*
X285720Y208862D01*
X285095Y208550*
X284157*
X283533Y208862*
X283220Y209175*
X282907Y209800*
Y211050*
X283220Y211675*
X283533Y211987*
X284157Y212300*
X285095*
X285720Y211987*
X286033Y211675*
X289347Y348220D02*
X289972Y347907D01*
X290285Y347283*
X289972Y346657*
X289347Y346345*
X287159*
Y350095*
X289347*
X289972Y349783*
X290285Y349157*
X289972Y348533*
X289347Y348220*
X287159*
X289347Y363968D02*
X289972Y363656D01*
X290285Y363031*
X289972Y362406*
X289347Y362093*
X287159*
Y365843*
X289347*
X289972Y365531*
X290285Y364906*
X289972Y364281*
X289347Y363968*
X287159*
X292969Y231606D02*
X293594Y231293D01*
X293907Y230669*
X293594Y230043*
X292969Y229731*
X290781*
Y233481*
X292969*
X293594Y233169*
X293907Y232543*
X293594Y231919*
X292969Y231606*
X290781*
X292969Y241606D02*
X293594Y241293D01*
X293907Y240669*
X293594Y240043*
X292969Y239731*
X290781*
Y243481*
X292969*
X293594Y243169*
X293907Y242543*
X293594Y241919*
X292969Y241606*
X290781*
X292969Y251606D02*
X293594Y251293D01*
X293907Y250669*
X293594Y250043*
X292969Y249731*
X290781*
Y253481*
X292969*
X293594Y253169*
X293907Y252543*
X293594Y251919*
X292969Y251606*
X290781*
X292969Y261606D02*
X293594Y261293D01*
X293907Y260669*
X293594Y260043*
X292969Y259731*
X290781*
Y263481*
X292969*
X293594Y263169*
X293907Y262543*
X293594Y261919*
X292969Y261606*
X290781*
X291923Y304967D02*
Y308717D01*
X295048*
X294423Y306842D02*
X291923D01*
Y304967D02*
X295048D01*
X296033Y193427D02*
X295720Y193114D01*
X295095Y192802*
X294157*
X293533Y193114*
X293220Y193427*
X292907Y194052*
Y195302*
X293220Y195927*
X293533Y196239*
X294157Y196552*
X295095*
X295720Y196239*
X296033Y195927*
Y209175D02*
X295720Y208862D01*
X295095Y208550*
X294157*
X293533Y208862*
X293220Y209175*
X292907Y209800*
Y211050*
X293220Y211675*
X293533Y211987*
X294157Y212300*
X295095*
X295720Y211987*
X296033Y211675*
X300134Y364559D02*
X300759Y364246D01*
X301072Y363621*
X300759Y362996*
X300134Y362683*
X297947*
Y366433*
X300134*
X300759Y366121*
X301072Y365496*
X300759Y364871*
X300134Y364559*
X297947*
X301158Y118496D02*
X301783Y118183D01*
X302096Y117558*
X301783Y116933*
X301158Y116620*
X298970*
Y120370*
X301158*
X301783Y120058*
X302096Y119433*
X301783Y118808*
X301158Y118496*
X298970*
X301158Y130996D02*
X301783Y130683D01*
X302096Y130058*
X301783Y129433*
X301158Y129120*
X298970*
Y132870*
X301158*
X301783Y132558*
X302096Y131933*
X301783Y131308*
X301158Y130996*
X298970*
X301158Y143496D02*
X301783Y143183D01*
X302096Y142558*
X301783Y141933*
X301158Y141620*
X298970*
Y145370*
X301158*
X301783Y145058*
X302096Y144433*
X301783Y143808*
X301158Y143496*
X298970*
X301158Y411212D02*
X301783Y410900D01*
X302096Y410275*
X301783Y409650*
X301158Y409337*
X298970*
Y413087*
X301158*
X301783Y412775*
X302096Y412150*
X301783Y411525*
X301158Y411212*
X298970*
X300545Y378628D02*
Y382378D01*
X303670*
X303045Y380504D02*
X300545D01*
Y396345D02*
Y400095D01*
X303670*
X303045Y398220D02*
X300545D01*
X300821Y275439D02*
Y279189D01*
X302696*
X303321Y278877*
X303633Y278565*
X303946Y277939*
Y276689*
X303633Y276065*
X303321Y275752*
X302696Y275439*
X300821*
X301948Y27477D02*
Y31227D01*
X305073*
X304448Y29352D02*
X301948D01*
Y84997D02*
Y88747D01*
X305073*
X304448Y86872D02*
X301948D01*
X305718Y336970D02*
X305405Y336657D01*
X304780Y336345*
X303843*
X303218Y336657*
X302905Y336970*
X302593Y337595*
Y338845*
X302905Y339470*
X303218Y339783*
X303843Y340095*
X304780*
X305405Y339783*
X305718Y339470*
Y346970D02*
X305405Y346657D01*
X304780Y346345*
X303843*
X303218Y346657*
X302905Y346970*
X302593Y347595*
Y348845*
X302905Y349470*
X303218Y349783*
X303843Y350095*
X304780*
X305405Y349783*
X305718Y349470*
X312969Y53633D02*
X313594Y53321D01*
X313907Y52696*
X313594Y52071*
X312969Y51758*
X310781*
Y55508*
X312969*
X313594Y55196*
X313907Y54571*
X313594Y53946*
X312969Y53633*
X310781*
X310821Y275439D02*
Y279189D01*
X312696*
X313321Y278877*
X313633Y278565*
X313946Y277939*
Y276689*
X313633Y276065*
X313321Y275752*
X312696Y275439*
X310821*
X314152Y27477D02*
Y31227D01*
Y29352D02*
X317278D01*
Y27477D02*
Y31227D01*
X314152Y84997D02*
Y88747D01*
Y86872D02*
X317278D01*
Y84997D02*
Y88747D01*
X314600Y194967D02*
Y198717D01*
X317726*
X317100Y196842D02*
X314600D01*
Y194967D02*
X317726D01*
X318242Y323250D02*
X318555Y322937D01*
X319180Y322624*
X319805Y322937*
X320117Y323250*
Y326374*
X320742*
X320117D02*
X318867D01*
X319187Y59494D02*
Y63244D01*
X322312Y59494*
Y63244*
X320506Y275439D02*
Y279189D01*
X322381*
X323006Y278877*
X323319Y278565*
X323631Y277939*
Y276689*
X323319Y276065*
X323006Y275752*
X322381Y275439*
X320506*
X322969Y231606D02*
X323594Y231293D01*
X323907Y230669*
X323594Y230043*
X322969Y229731*
X320781*
Y233481*
X322969*
X323594Y233169*
X323907Y232543*
X323594Y231919*
X322969Y231606*
X320781*
X322969Y241606D02*
X323594Y241293D01*
X323907Y240669*
X323594Y240043*
X322969Y239731*
X320781*
Y243481*
X322969*
X323594Y243169*
X323907Y242543*
X323594Y241919*
X322969Y241606*
X320781*
X322969Y251606D02*
X323594Y251293D01*
X323907Y250669*
X323594Y250043*
X322969Y249731*
X320781*
Y253481*
X322969*
X323594Y253169*
X323907Y252543*
X323594Y251919*
X322969Y251606*
X320781*
X322969Y261606D02*
X323594Y261293D01*
X323907Y260669*
X323594Y260043*
X322969Y259731*
X320781*
Y263481*
X322969*
X323594Y263169*
X323907Y262543*
X323594Y261919*
X322969Y261606*
X320781*
X323215Y334475D02*
X324465D01*
X323840D02*
Y338225D01*
X323215D02*
X324465D01*
X323215Y344475D02*
X324465D01*
X323840D02*
Y348225D01*
X323215D02*
X324465D01*
X323498Y165439D02*
Y169189D01*
X325373*
X325998Y168877*
X326311Y168565*
X326623Y167939*
Y166689*
X326311Y166065*
X325998Y165752*
X325373Y165439*
X323498*
X328087Y115937D02*
X328712Y115624D01*
X329025Y114999*
X328712Y114374*
X328087Y114061*
X325900*
Y117811*
X328087*
X328712Y117499*
X329025Y116874*
X328712Y116249*
X328087Y115937*
X325900*
X328087Y127748D02*
X328712Y127435D01*
X329025Y126810*
X328712Y126185*
X328087Y125872*
X325900*
Y129622*
X328087*
X328712Y129310*
X329025Y128685*
X328712Y128060*
X328087Y127748*
X325900*
X328087Y139559D02*
X328712Y139246D01*
X329025Y138621*
X328712Y137996*
X328087Y137683*
X325900*
Y141433*
X328087*
X328712Y141121*
X329025Y140496*
X328712Y139871*
X328087Y139559*
X325900*
X326136Y378628D02*
Y382378D01*
X329261*
X328636Y380504D02*
X326136D01*
Y396345D02*
Y400095D01*
X329261*
X328636Y398220D02*
X326136D01*
X326790Y27477D02*
Y31227D01*
X329915*
X329290Y29352D02*
X326790D01*
Y84997D02*
Y88747D01*
X329915*
X329290Y86872D02*
X326790D01*
X328215Y339475D02*
X329465D01*
X328840D02*
Y343225D01*
X328215D02*
X329465D01*
X329719Y304967D02*
Y308717D01*
X332844*
X332219Y306842D02*
X329719D01*
Y304967D02*
X332844D01*
X332024Y53043D02*
X332649Y52730D01*
X332962Y52106*
X332649Y51480*
X332024Y51168*
X329837*
Y54918*
X332024*
X332649Y54606*
X332962Y53980*
X332649Y53356*
X332024Y53043*
X329837*
X333498Y165439D02*
Y169189D01*
X335373*
X335998Y168877*
X336311Y168565*
X336623Y167939*
Y166689*
X336311Y166065*
X335998Y165752*
X335373Y165439*
X333498*
X338540Y225858D02*
X339165Y225545D01*
X339478Y224920*
X339165Y224295*
X338540Y223983*
X336352*
Y227733*
X338540*
X339165Y227420*
X339478Y226795*
X339165Y226170*
X338540Y225858*
X336352*
X338540Y265858D02*
X339165Y265545D01*
X339478Y264920*
X339165Y264295*
X338540Y263983*
X336352*
Y267733*
X338540*
X339165Y267420*
X339478Y266795*
X339165Y266170*
X338540Y265858*
X336352*
X340134Y364559D02*
X340759Y364246D01*
X341072Y363621*
X340759Y362996*
X340134Y362683*
X337947*
Y366433*
X340134*
X340759Y366121*
X341072Y365496*
X340759Y364871*
X340134Y364559*
X337947*
X338026Y378628D02*
Y382378D01*
X341151*
X340526Y380504D02*
X338026D01*
Y396345D02*
Y400095D01*
X341151*
X340526Y398220D02*
X338026D01*
X345088Y150120D02*
X344775Y149807D01*
X344150Y149494*
X343213*
X342588Y149807*
X342275Y150120*
X341963Y150744*
Y151994*
X342275Y152620*
X342588Y152932*
X343213Y153244*
X344150*
X344775Y152932*
X345088Y152620*
X343183Y165439D02*
Y169189D01*
X345058*
X345683Y168877*
X345996Y168565*
X346308Y167939*
Y166689*
X345996Y166065*
X345683Y165752*
X345058Y165439*
X343183*
X344620Y323250D02*
X344933Y322937D01*
X345557Y322624*
X346183Y322937*
X346495Y323250*
Y326374*
X347120*
X346495D02*
X345245D01*
X352962Y238545D02*
X352649Y238232D01*
X352024Y237920*
X351087*
X350462Y238232*
X350149Y238545*
X349837Y239170*
Y240420*
X350149Y241045*
X350462Y241357*
X351087Y241670*
X352024*
X352649Y241357*
X352962Y241045*
Y248545D02*
X352649Y248232D01*
X352024Y247920*
X351087*
X350462Y248232*
X350149Y248545*
X349837Y249170*
Y250420*
X350149Y251045*
X350462Y251357*
X351087Y251670*
X352024*
X352649Y251357*
X352962Y251045*
X355088Y150120D02*
X354775Y149807D01*
X354150Y149494*
X353213*
X352588Y149807*
X352275Y150120*
X351963Y150744*
Y151994*
X352275Y152620*
X352588Y152932*
X353213Y153244*
X354150*
X354775Y152932*
X355088Y152620*
X352396Y194967D02*
Y198717D01*
X355521*
X354896Y196842D02*
X352396D01*
Y194967D02*
X355521D01*
X355447Y318353D02*
Y322103D01*
X357322*
X357947Y321791*
X358259Y321478*
X358572Y320853*
Y319603*
X358259Y318978*
X357947Y318665*
X357322Y318353*
X355447*
Y328353D02*
Y332103D01*
X357322*
X357947Y331791*
X358259Y331478*
X358572Y330853*
Y329603*
X358259Y328978*
X357947Y328665*
X357322Y328353*
X355447*
Y338353D02*
Y342103D01*
X357322*
X357947Y341791*
X358259Y341478*
X358572Y340853*
Y339603*
X358259Y338978*
X357947Y338665*
X357322Y338353*
X355447*
Y348353D02*
Y352103D01*
X357322*
X357947Y351791*
X358259Y351478*
X358572Y350853*
Y349603*
X358259Y348978*
X357947Y348665*
X357322Y348353*
X355447*
Y358353D02*
Y362103D01*
X357322*
X357947Y361791*
X358259Y361478*
X358572Y360853*
Y359603*
X358259Y358978*
X357947Y358665*
X357322Y358353*
X355447*
X359467Y27477D02*
Y31227D01*
X362593*
X361967Y29352D02*
X359467D01*
Y84997D02*
Y88747D01*
X362593*
X361967Y86872D02*
X359467D01*
X363616Y378628D02*
Y382378D01*
X366741*
X366116Y380504D02*
X363616D01*
Y396345D02*
Y400095D01*
X366741*
X366116Y398220D02*
X363616D01*
X365447Y318353D02*
Y322103D01*
X367322*
X367947Y321791*
X368259Y321478*
X368572Y320853*
Y319603*
X368259Y318978*
X367947Y318665*
X367322Y318353*
X365447*
Y328353D02*
Y332103D01*
X367322*
X367947Y331791*
X368259Y331478*
X368572Y330853*
Y329603*
X368259Y328978*
X367947Y328665*
X367322Y328353*
X365447*
Y338353D02*
Y342103D01*
X367322*
X367947Y341791*
X368259Y341478*
X368572Y340853*
Y339603*
X368259Y338978*
X367947Y338665*
X367322Y338353*
X365447*
Y348353D02*
Y352103D01*
X367322*
X367947Y351791*
X368259Y351478*
X368572Y350853*
Y349603*
X368259Y348978*
X367947Y348665*
X367322Y348353*
X365447*
Y358353D02*
Y362103D01*
X367322*
X367947Y361791*
X368259Y361478*
X368572Y360853*
Y359603*
X368259Y358978*
X367947Y358665*
X367322Y358353*
X365447*
Y410872D02*
Y414622D01*
X368572Y410872*
Y414622*
X368087Y115937D02*
X368712Y115624D01*
X369025Y114999*
X368712Y114374*
X368087Y114061*
X365900*
Y117811*
X368087*
X368712Y117499*
X369025Y116874*
X368712Y116249*
X368087Y115937*
X365900*
X368087Y127748D02*
X368712Y127435D01*
X369025Y126810*
X368712Y126185*
X368087Y125872*
X365900*
Y129622*
X368087*
X368712Y129310*
X369025Y128685*
X368712Y128060*
X368087Y127748*
X365900*
X368087Y139559D02*
X368712Y139246D01*
X369025Y138621*
X368712Y137996*
X368087Y137683*
X365900*
Y141433*
X368087*
X368712Y141121*
X369025Y140496*
X368712Y139871*
X368087Y139559*
X365900*
X372024Y53043D02*
X372649Y52730D01*
X372962Y52106*
X372649Y51480*
X372024Y51168*
X369837*
Y54918*
X372024*
X372649Y54606*
X372962Y53980*
X372649Y53356*
X372024Y53043*
X369837*
X373776Y249578D02*
X374401Y249266D01*
X374714Y248641*
X374401Y248016*
X373776Y247703*
X371589*
Y251453*
X373776*
X374401Y251141*
X374714Y250516*
X374401Y249891*
X373776Y249578*
X371589*
X373776Y289578D02*
X374401Y289266D01*
X374714Y288641*
X374401Y288016*
X373776Y287703*
X371589*
Y291453*
X373776*
X374401Y291141*
X374714Y290516*
X374401Y289891*
X373776Y289578*
X371589*
X371672Y27477D02*
Y31227D01*
Y29352D02*
X374797D01*
Y27477D02*
Y31227D01*
X371672Y84997D02*
Y88747D01*
Y86872D02*
X374797D01*
Y84997D02*
Y88747D01*
X373874Y198102D02*
X374500Y197789D01*
X374812Y197165*
X374500Y196539*
X373874Y196227*
X371687*
Y199977*
X373874*
X374500Y199665*
X374812Y199039*
X374500Y198415*
X373874Y198102*
X371687*
X373874Y238102D02*
X374500Y237789D01*
X374812Y237165*
X374500Y236539*
X373874Y236227*
X371687*
Y239977*
X373874*
X374500Y239665*
X374812Y239039*
X374500Y238415*
X373874Y238102*
X371687*
D02*
D87*
X28321Y154817D03*
Y164817D03*
Y174817D03*
X28498Y45821D03*
Y344344D03*
Y356156D03*
Y403400D03*
X28656Y381549D03*
X28813Y103380D03*
Y143380D03*
Y281037D03*
Y321037D03*
X29192Y21540D03*
Y79059D03*
X32750Y223793D03*
Y233793D03*
Y243793D03*
Y253793D03*
X38144Y189030D03*
X38498Y371707D03*
Y391392D03*
X40309Y119935D03*
Y131746D03*
X41293Y145722D03*
X42435Y328596D03*
X44561Y269541D03*
Y279541D03*
X48341Y371707D03*
Y391392D03*
X49167Y145722D03*
X52435Y328596D03*
X53537Y178695D03*
X56372Y108124D03*
X57041Y145722D03*
X58183Y371707D03*
Y391392D03*
X61869Y21540D03*
Y79059D03*
X62750Y223793D03*
Y233793D03*
Y243793D03*
Y253793D03*
X64443Y299030D03*
X64915Y145722D03*
X66372Y108124D03*
X68026Y381549D03*
X68498Y45821D03*
Y344344D03*
Y356156D03*
Y403400D03*
X72789Y145722D03*
X73341Y269502D03*
X74074Y21540D03*
Y79059D03*
X79856Y52573D03*
X79994Y235919D03*
Y245919D03*
X80309Y119935D03*
Y131746D03*
X80663Y145722D03*
X83341Y269502D03*
X83813Y189030D03*
X86711Y21540D03*
Y79059D03*
X87553Y45230D03*
X87730Y379344D03*
X93026Y269502D03*
X95427Y340407D03*
Y356156D03*
Y403400D03*
X95742Y121431D03*
Y131431D03*
Y141431D03*
Y151431D03*
Y214108D03*
Y254108D03*
X99679Y167179D03*
X102238Y299030D03*
X103616Y108124D03*
X107553Y214108D03*
Y254108D03*
X109679Y167179D03*
X113616Y108124D03*
X119389Y21540D03*
Y79059D03*
X122927Y292317D03*
Y302317D03*
X123301Y231687D03*
Y241687D03*
Y324659D03*
X125742Y121431D03*
Y131431D03*
Y141431D03*
Y151431D03*
X127553Y45230D03*
X128970Y371549D03*
Y381549D03*
Y391549D03*
X129600Y189030D03*
X131593Y21540D03*
Y79059D03*
X132927Y292317D03*
Y302317D03*
X133301Y324659D03*
X135112Y222297D03*
Y252297D03*
X135427Y340407D03*
Y356156D03*
Y403400D03*
X138498Y159502D03*
X138734Y108124D03*
Y131746D03*
Y143557D03*
X142927Y292317D03*
Y302317D03*
X144231Y21540D03*
Y79059D03*
X145112Y222297D03*
Y252297D03*
X146608Y45230D03*
Y403400D03*
X148498Y159502D03*
X151726Y326156D03*
Y356156D03*
X152927Y292317D03*
Y302317D03*
X154797Y119935D03*
X155112Y222297D03*
Y252297D03*
X158183Y159502D03*
X161726Y326156D03*
Y356156D03*
X164797Y119935D03*
X165112Y222297D03*
Y252297D03*
X167396Y189030D03*
X170821Y371549D03*
Y381549D03*
Y391549D03*
X171726Y326156D03*
Y356156D03*
X173183Y299030D03*
X175112Y222297D03*
Y252297D03*
X176908Y21540D03*
Y79059D03*
X178734Y108124D03*
Y131746D03*
Y143557D03*
X181726Y326156D03*
Y356156D03*
X182081Y269502D03*
X185112Y222297D03*
Y252297D03*
X186608Y45230D03*
Y403400D03*
X187671Y170053D03*
Y180053D03*
Y190053D03*
Y200053D03*
X189113Y21540D03*
Y79059D03*
X189915Y108124D03*
Y119935D03*
Y131451D03*
X191726Y326156D03*
Y356156D03*
X192081Y269502D03*
X193281Y138341D03*
X195112Y222297D03*
Y252297D03*
X197671Y170053D03*
Y180053D03*
Y190053D03*
Y200053D03*
X197789Y403400D03*
X201726Y45821D03*
Y326156D03*
Y356156D03*
X201751Y21540D03*
Y79059D03*
X201766Y269502D03*
X205978Y143557D03*
X209915Y218045D03*
Y258045D03*
X210978Y299030D03*
X211726Y326156D03*
Y356156D03*
X212711Y371549D03*
Y381549D03*
Y391549D03*
X215978Y143557D03*
X217081Y189030D03*
X221726Y326156D03*
Y356156D03*
X225663Y218045D03*
Y258045D03*
X225978Y159502D03*
X229285Y281352D03*
X229915Y108124D03*
Y119935D03*
Y131451D03*
X233656Y177120D03*
Y234797D03*
X234428Y21540D03*
Y79059D03*
X235978Y159502D03*
X237159Y340407D03*
Y356156D03*
X237789Y403400D03*
X241411Y218045D03*
Y258045D03*
X241726Y45821D03*
X243222Y297100D03*
X245663Y159502D03*
X246633Y21540D03*
Y79059D03*
X248970Y110683D03*
Y123183D03*
Y135683D03*
Y403400D03*
X253222Y231982D03*
Y241982D03*
Y297100D03*
X254561Y371549D03*
Y381549D03*
Y391549D03*
X254876Y189030D03*
X259270Y21540D03*
Y79059D03*
X260781Y45821D03*
X261687Y151431D03*
X265033Y218045D03*
Y258045D03*
X269285Y281352D03*
X271687Y151431D03*
X272907Y186864D03*
Y202612D03*
X277159Y340407D03*
Y356156D03*
X280781Y223793D03*
Y233793D03*
Y243793D03*
Y253793D03*
X281923Y299030D03*
X282907Y186864D03*
Y202612D03*
X287947Y356746D03*
X288970Y110683D03*
Y123183D03*
Y135683D03*
Y403400D03*
X290545Y372691D03*
Y390407D03*
X290821Y269502D03*
X291948Y21540D03*
Y79059D03*
X292593Y330407D03*
Y340407D03*
X300781Y45821D03*
X300821Y269502D03*
X304152Y21540D03*
Y79059D03*
X304600Y189030D03*
X308242Y316687D03*
X309187Y53557D03*
X310506Y269502D03*
X310781Y223793D03*
Y233793D03*
Y243793D03*
Y253793D03*
X312278Y328537D03*
Y338537D03*
X313498Y159502D03*
X315900Y108124D03*
Y119935D03*
Y131746D03*
X316136Y372691D03*
Y390407D03*
X316790Y21540D03*
Y79059D03*
X317278Y333537D03*
X319719Y299030D03*
X319837Y45230D03*
X323498Y159502D03*
X326352Y218045D03*
Y258045D03*
X327947Y356746D03*
X328026Y372691D03*
Y390407D03*
X331963Y143557D03*
X333183Y159502D03*
X334620Y316687D03*
X339837Y231982D03*
Y241982D03*
X341963Y143557D03*
X342396Y189030D03*
X345447Y312415D03*
Y322415D03*
Y332415D03*
Y342415D03*
Y352415D03*
X349467Y21540D03*
Y79059D03*
X353616Y372691D03*
Y390407D03*
X355447Y312415D03*
Y322415D03*
Y332415D03*
Y342415D03*
Y352415D03*
Y404935D03*
X355900Y108124D03*
Y119935D03*
Y131746D03*
X359837Y45230D03*
X361589Y241766D03*
Y281766D03*
X361672Y21540D03*
Y79059D03*
X361687Y190289D03*
Y230289D03*
X0Y0D02*
M02*
