%FSLAX35Y35*%
%MOIN*%
G04 EasyPC Gerber Version 18.0.8 Build 3632 *
%ADD84O,0.07000X0.12000*%
%ADD76R,0.11236X0.11236*%
%ADD137R,0.06000X0.06000*%
%ADD81R,0.07000X0.07000*%
%ADD75R,0.08874X0.08874*%
%ADD80R,0.10843X0.10843*%
%ADD138C,0.06000*%
%ADD73C,0.07000*%
%ADD109C,0.07693*%
%ADD79C,0.07890*%
%ADD85C,0.08874*%
%ADD74C,0.09661*%
%ADD78C,0.10843*%
%ADD72C,0.11236*%
%ADD77O,0.12000X0.07000*%
X0Y0D02*
D02*
D72*
X79856Y52573D03*
X87730Y379344D03*
X309187Y53557D03*
X355447Y404935D03*
D02*
D73*
X28498Y45821D03*
Y344344D03*
Y356156D03*
Y403400D03*
X28656Y381549D03*
X28813Y103380D03*
Y143380D03*
Y281037D03*
Y321037D03*
X38498Y371707D03*
Y391392D03*
X40309Y119935D03*
Y131746D03*
X48341Y371707D03*
Y391392D03*
X58183Y371707D03*
Y391392D03*
X68026Y381549D03*
X68498Y45821D03*
Y344344D03*
Y356156D03*
Y403400D03*
X74074Y21540D03*
Y79059D03*
X80309Y119935D03*
Y131746D03*
X87553Y45230D03*
X95427Y340407D03*
Y356156D03*
Y403400D03*
X95742Y214108D03*
Y254108D03*
X107553Y214108D03*
Y254108D03*
X127553Y45230D03*
X128970Y371549D03*
Y381549D03*
Y391549D03*
X131593Y21540D03*
Y79059D03*
X135427Y340407D03*
Y356156D03*
Y403400D03*
X138734Y108124D03*
Y131746D03*
Y143557D03*
X146608Y45230D03*
Y403400D03*
X151726Y326156D03*
Y356156D03*
X161726Y326156D03*
Y356156D03*
X170821Y371549D03*
Y381549D03*
Y391549D03*
X171726Y326156D03*
Y356156D03*
X178734Y108124D03*
Y131746D03*
Y143557D03*
X181726Y326156D03*
Y356156D03*
X186608Y45230D03*
Y403400D03*
X189113Y21540D03*
Y79059D03*
X189915Y108124D03*
Y119935D03*
Y131451D03*
X191726Y326156D03*
Y356156D03*
X197789Y403400D03*
X201726Y45821D03*
Y326156D03*
Y356156D03*
X209915Y218045D03*
Y258045D03*
X211726Y326156D03*
Y356156D03*
X212711Y371549D03*
Y381549D03*
Y391549D03*
X221726Y326156D03*
X225663Y218045D03*
Y258045D03*
X229285Y281352D03*
X229915Y108124D03*
Y119935D03*
Y131451D03*
X237159Y340407D03*
Y356156D03*
X237789Y403400D03*
X241411Y218045D03*
Y258045D03*
X241726Y45821D03*
X246633Y21540D03*
Y79059D03*
X248970Y110683D03*
Y123183D03*
Y135683D03*
Y403400D03*
X254561Y371549D03*
Y381549D03*
Y391549D03*
X260781Y45821D03*
X265033Y218045D03*
Y258045D03*
X269285Y281352D03*
X277159Y340407D03*
Y356156D03*
X287947Y356746D03*
X288970Y110683D03*
Y123183D03*
Y135683D03*
Y403400D03*
X300781Y45821D03*
X304152Y21540D03*
Y79059D03*
X315900Y108124D03*
Y119935D03*
Y131746D03*
X319837Y45230D03*
X326352Y218045D03*
Y258045D03*
X327947Y356746D03*
X355900Y108124D03*
Y119935D03*
Y131746D03*
X359837Y45230D03*
X361589Y241766D03*
Y281766D03*
X361672Y21540D03*
Y79059D03*
X361687Y190289D03*
Y230289D03*
D02*
D74*
X42435Y328596D03*
X44561Y269541D03*
Y279541D03*
X52435Y328596D03*
X56372Y108124D03*
X66372D03*
X79994Y235919D03*
Y245919D03*
X99679Y167179D03*
X103616Y108124D03*
X109679Y167179D03*
X113616Y108124D03*
X123301Y231687D03*
Y241687D03*
Y324659D03*
X133301D03*
X154797Y119935D03*
X164797D03*
X205978Y143557D03*
X215978D03*
X243222Y297100D03*
X253222Y231982D03*
Y241982D03*
Y297100D03*
X261687Y151431D03*
X271687D03*
X272907Y186864D03*
Y202612D03*
X282907Y186864D03*
Y202612D03*
X292593Y330407D03*
Y340407D03*
X331963Y143557D03*
X339837Y231982D03*
Y241982D03*
X341963Y143557D03*
D02*
D75*
X73341Y269502D03*
X83341D03*
X93026D03*
X138498Y159502D03*
X148498D03*
X158183D03*
X182081Y269502D03*
X192081D03*
X201766D03*
X225978Y159502D03*
X235978D03*
X245663D03*
X290821Y269502D03*
X300821D03*
X310506D03*
X313498Y159502D03*
X323498D03*
X333183D03*
D02*
D76*
X64443Y299030D03*
X102238D03*
X129600Y189030D03*
X167396D03*
X173183Y299030D03*
X210978D03*
X217081Y189030D03*
X254876D03*
X281923Y299030D03*
X304600Y189030D03*
X319719Y299030D03*
X342396Y189030D03*
D02*
D77*
X32750Y223793D03*
Y233793D03*
Y243793D03*
Y253793D03*
X62750Y223793D03*
Y233793D03*
Y243793D03*
Y253793D03*
X95742Y121431D03*
Y131431D03*
Y141431D03*
Y151431D03*
X125742Y121431D03*
Y131431D03*
Y141431D03*
Y151431D03*
X280781Y223793D03*
Y233793D03*
Y243793D03*
Y253793D03*
X310781Y223793D03*
Y233793D03*
Y243793D03*
Y253793D03*
D02*
D78*
X290545Y372691D03*
Y390407D03*
X316136Y372691D03*
Y390407D03*
X328026Y372691D03*
Y390407D03*
X353616Y372691D03*
Y390407D03*
D02*
D79*
X41293Y145722D03*
X49167D03*
X57041D03*
X64915D03*
X72789D03*
X80663D03*
D02*
D80*
X38144Y189030D03*
X83813D03*
D02*
D81*
X221726Y356156D03*
D02*
D84*
X135112Y222297D03*
Y252297D03*
X145112Y222297D03*
Y252297D03*
X155112Y222297D03*
Y252297D03*
X165112Y222297D03*
Y252297D03*
X175112Y222297D03*
Y252297D03*
X185112Y222297D03*
Y252297D03*
X195112Y222297D03*
Y252297D03*
D02*
D85*
X28321Y154817D03*
Y164817D03*
Y174817D03*
X122927Y292317D03*
Y302317D03*
X132927Y292317D03*
Y302317D03*
X142927Y292317D03*
Y302317D03*
X152927Y292317D03*
Y302317D03*
X187671Y170053D03*
Y180053D03*
Y190053D03*
Y200053D03*
X197671Y170053D03*
Y180053D03*
Y190053D03*
Y200053D03*
X345447Y312415D03*
Y322415D03*
Y332415D03*
Y342415D03*
Y352415D03*
X355447Y312415D03*
Y322415D03*
Y332415D03*
Y342415D03*
Y352415D03*
D02*
D109*
X29192Y21540D03*
Y79059D03*
X61869Y21540D03*
Y79059D03*
X86711Y21540D03*
Y79059D03*
X119389Y21540D03*
Y79059D03*
X144231Y21540D03*
Y79059D03*
X176908Y21540D03*
Y79059D03*
X201751Y21540D03*
Y79059D03*
X234428Y21540D03*
Y79059D03*
X259270Y21540D03*
Y79059D03*
X291948Y21540D03*
Y79059D03*
X316790Y21540D03*
Y79059D03*
X349467Y21540D03*
Y79059D03*
D02*
D137*
X312278Y338537D03*
D02*
D138*
Y328537D03*
X317278Y333537D03*
X0Y0D02*
M02*
