%FSLAX35Y35*%
%MOIN*%
G04 EasyPC Gerber Version 18.0.8 Build 3632 *
%ADD25O,0.06000X0.11000*%
%ADD19R,0.10236X0.10236*%
%ADD136R,0.05000X0.05000*%
%ADD22R,0.06000X0.06000*%
%ADD18R,0.07874X0.07874*%
%ADD21R,0.09843X0.09843*%
%ADD10C,0.00500*%
%ADD86C,0.00787*%
%ADD29C,0.00800*%
%ADD12C,0.01000*%
%ADD27C,0.01575*%
%ADD28C,0.03200*%
%ADD114C,0.05000*%
%ADD16C,0.06000*%
%ADD108C,0.06693*%
%ADD20C,0.06890*%
%ADD26C,0.07874*%
%ADD17C,0.08661*%
%ADD71C,0.09843*%
%ADD70O,0.11000X0.06000*%
X0Y0D02*
D02*
D10*
X20967Y75917D02*
Y4982D01*
X366423*
Y90454*
G75*
G02X366395Y90424I-1102J1029*
G01*
X363245Y87274*
G75*
G02X363239Y87269I-1028J1091*
G01*
X355124Y79246*
Y73183*
G75*
G02X354682Y72117I-1507J0*
G01*
X341395Y58830*
G75*
G02X340329Y58388I-1066J1066*
G01*
X331189*
X321577Y48776*
G75*
G02X319837Y41280I-1741J-3546*
G01*
G75*
G02X318329Y48881J3950*
G01*
Y49167*
G75*
G02X318770Y50233I1507J0*
G01*
X329499Y60962*
G75*
G02X330565Y61403I1066J-1066*
G01*
X339704*
X352109Y73807*
Y76122*
G75*
G02X349686Y75115I-2642J2937*
G01*
G75*
G02X325512Y70450I-13294J3924*
G01*
X315980Y60918*
G75*
G02X314640Y60363I-1340J1340*
G01*
X139640*
G75*
G02X138300Y60918I0J1895*
G01*
X128261Y70957*
G75*
G02X128246Y70972I1340J1354*
G01*
X123620Y75696*
G75*
G02X123081Y76955I1354J1326*
G01*
G75*
G02X119574Y74813I-3693J2105*
G01*
G75*
G02X114443Y67770I-13202J4226*
G01*
G75*
G02X98301Y90309I-8071J11270*
G01*
G75*
G02X115201Y89726I8071J-11270*
G01*
X102276Y102650*
G75*
G02X101933Y103119I1339J1341*
G01*
G75*
G02X98335Y108124I1683J5006*
G01*
G75*
G02X108453Y110243I5281*
G01*
G75*
G02X119197Y108124I5163J-2119*
G01*
G75*
G02X108453Y106006I-5581*
G01*
G75*
G02X106552Y103734I-4838J2119*
G01*
X118173Y92113*
G75*
G02X118932Y91649I-581J-1804*
G01*
X126314Y84267*
G75*
G02X126869Y82927I-1340J-1340*
G01*
Y77795*
X130948Y73630*
X140425Y64153*
X313855*
X323542Y73840*
G75*
G02X341591Y91889I12850J5199*
G01*
X344930Y95228*
Y108419*
G75*
G02X345485Y109759I1895J0*
G01*
X351292Y115566*
G75*
G02X352632Y116121I1340J-1340*
G01*
X354871*
G75*
G02X352187Y118585I1028J3814*
G01*
X344234*
X333805Y108156*
Y108124*
G75*
G02X332455Y106774I-1350*
G01*
X319612*
G75*
G02X315900Y104174I-3712J1350*
G01*
G75*
G02Y112074J3950*
G01*
G75*
G02X319612Y109474J-3950*
G01*
X331339*
G75*
G02X331500Y109669I1117J-759*
G01*
X342720Y120890*
G75*
G02X343675Y121285I954J-955*
G01*
X352187*
G75*
G02X354550Y123647I3712J-1350*
G01*
Y128034*
G75*
G02X352281Y133331I1350J3712*
G01*
X345743Y139870*
G75*
G02X336963Y141858I-3780J3687*
G01*
G75*
G02X329433Y138922I-5000J1699*
G01*
X321303Y130791*
G75*
G02X320348Y130396I-954J955*
G01*
X319612*
G75*
G02X315900Y127796I-3712J1350*
G01*
G75*
G02Y135696J3950*
G01*
G75*
G02X319612Y133096J-3950*
G01*
X319789*
X327472Y140779*
G75*
G02X326682Y143557I4491J2779*
G01*
G75*
G02X336963Y145256I5281*
G01*
G75*
G02X347174Y142702I5000J-1698*
G01*
X354454Y135422*
G75*
G02X355900Y135696I1446J-3676*
G01*
G75*
G02X357250Y128034J-3950*
G01*
Y123647*
G75*
G02X356928Y116121I-1350J-3712*
G01*
X359524*
X360284Y116881*
Y141689*
X338069Y163905*
Y154616*
X332257*
X329405Y151765*
G75*
G02X328065Y151209I-1340J1340*
G01*
X303636*
G75*
G02X302296Y151765I0J1895*
G01*
X296552Y157509*
X250549*
Y154616*
X235606*
X232340Y151349*
G75*
G02X231274Y150908I-1066J1066*
G01*
X220545*
G75*
G02X219479Y151349I0J1507*
G01*
X216968Y153861*
X212278*
G75*
G02X211209Y154305J1507*
G01*
X199881Y165694*
G75*
G02X197671Y165166I-2209J4359*
G01*
G75*
G02Y174940J4887*
G01*
G75*
G02X202019Y167820J-4887*
G01*
X212904Y156876*
X217888*
G75*
G02X219347Y155745J-1507*
G01*
X221170Y153923*
X230649*
X231041Y154315*
X220791*
Y164689*
X231165*
Y164388*
X250549*
Y161298*
X297337*
G75*
G02X298676Y160743I0J-1895*
G01*
X304421Y154999*
X308311*
Y164689*
X317977*
X311915Y170750*
X212967*
G75*
G02X212012Y171146I0J1350*
G01*
X204455Y178703*
X202368*
G75*
G02X197671Y175166I-4697J1350*
G01*
G75*
G02Y184940J4887*
G01*
G75*
G02X202368Y181403J-4887*
G01*
X205014*
G75*
G02X205969Y181008I0J-1350*
G01*
X213526Y173450*
X230428*
G75*
G02X231918Y181688I3228J3670*
G01*
Y230230*
G75*
G02X228769Y234797I1737J4568*
G01*
G75*
G02X238543I4887*
G01*
G75*
G02X235393Y230230I-4887*
G01*
Y181688*
G75*
G02X236883Y173450I-1737J-4568*
G01*
X312474*
G75*
G02X313429Y173055I0J-1350*
G01*
X322096Y164388*
X337586*
X327044Y174930*
X280093*
G75*
G02X278753Y175485I0J1895*
G01*
X272648Y181590*
G75*
G02X267627Y186864I260J5274*
G01*
G75*
G02X277744Y188983I5281*
G01*
G75*
G02X288488Y186864I5163J-2119*
G01*
G75*
G02X277744Y184746I-5581*
G01*
G75*
G02X276553Y183044I-4838J2119*
G01*
X280878Y178720*
X327829*
G75*
G02X329169Y178165I0J-1895*
G01*
X363519Y143814*
G75*
G02X363821Y143420I-1339J-1340*
G01*
Y152578*
X291133Y225267*
G75*
G02X290691Y226333I1066J1066*
G01*
Y244015*
X284626Y250080*
G75*
G02X283281Y249844I-1344J3713*
G01*
X278281*
G75*
G02X275442Y256538J3949*
G01*
X268685*
G75*
G02X263167Y254564I-3651J1507*
G01*
X255397Y246794*
G75*
G02X254921Y236982I-2174J-4812*
G01*
G75*
G02X256436Y236173I-1698J-5000*
G01*
X265046Y244855*
G75*
G02X266116Y245301I1070J-1061*
G01*
X274632*
G75*
G02X278281Y247742I3650J-1507*
G01*
X283281*
G75*
G02Y239844J-3949*
G01*
X278281*
G75*
G02X274632Y242286J3949*
G01*
X266744*
X258220Y233689*
G75*
G02X256420Y227780I-4997J-1707*
G01*
X262858Y221343*
G75*
G02X268983Y218045I2175J-3297*
G01*
G75*
G02X261083I-3950*
G01*
G75*
G02X261239Y219143I3949J0*
G01*
X253662Y226720*
G75*
G02X253222Y226702I-442J5261*
G01*
G75*
G02X248146Y233437J5281*
G01*
X227183Y254400*
G75*
G02X221713Y258045I-1520J3646*
G01*
G75*
G02X229613I3950*
G01*
G75*
G02X229172Y256230I-3950J0*
G01*
X249588Y235813*
G75*
G02X251524Y236982I3634J-3831*
G01*
G75*
G02X252009Y247122I1699J5000*
G01*
G75*
G02X252268Y247484I1214J-591*
G01*
X261365Y256581*
G75*
G02X268685Y259553I3669J1464*
G01*
X276628*
G75*
G02X277694Y259111I0J-1507*
G01*
X279063Y257742*
X283281*
G75*
G02X286856Y252115J-3949*
G01*
X293265Y245706*
G75*
G02X293706Y244640I-1066J-1066*
G01*
Y226957*
X336329Y184335*
Y195096*
X348463*
Y182963*
X337701*
X366395Y154269*
G75*
G02X366423Y154239I-1073J-1059*
G01*
Y244390*
X365252Y243243*
G75*
G02X363096Y238115I-3663J-1477*
G01*
Y233980*
G75*
G02X365637Y230289I-1409J-3690*
G01*
G75*
G02X357737I-3950*
G01*
G75*
G02X360081Y233898I3950*
G01*
Y238115*
G75*
G02X357639Y241766I1507J3651*
G01*
G75*
G02X363143Y245397I3950*
G01*
X364806Y247026*
Y278988*
G75*
G02X357339Y281766I-3217J2778*
G01*
G75*
G02X364806Y284543I4250*
G01*
Y322460*
X358591Y328674*
G75*
G02X355447Y327528I-3144J3741*
G01*
G75*
G02Y337302J4887*
G01*
G75*
G02X360209Y331320J-4887*
G01*
X366423Y325106*
Y414219*
X20967*
Y169563*
G75*
G02X21172Y169820I1273J-809*
G01*
X23961Y172609*
G75*
G02X28321Y179704I4360J2208*
G01*
G75*
G02Y169930J-4887*
G01*
G75*
G02X26087Y170470J4887*
G01*
X23746Y168130*
Y166535*
G75*
G02X28321Y169704I4575J-1718*
G01*
G75*
G02Y159930J-4887*
G01*
G75*
G02X23746Y163099J4887*
G01*
Y156535*
G75*
G02X28321Y159704I4575J-1718*
G01*
G75*
G02Y149930J-4887*
G01*
G75*
G02X23746Y153099J4887*
G01*
Y77351*
X39890Y61206*
X66789*
X83066Y77538*
G75*
G02X86711Y83009I3645J1522*
G01*
G75*
G02Y75109J-3950*
G01*
G75*
G02X85202Y75409I0J3950*
G01*
X68483Y58635*
G75*
G02X67415Y58191I-1068J1064*
G01*
X39266*
G75*
G02X38200Y58633I0J1507*
G01*
X21172Y75660*
G75*
G02X20967Y75917I1067J1065*
G01*
X24406Y381549D02*
G75*
G02X32906I4250D01*
G01*
G75*
G02X24406I-4250*
G01*
X25070Y319775D02*
G75*
G02X27148Y324619I3743J1263D01*
G01*
Y329475*
G75*
G02Y330080I1350J302*
G01*
Y340632*
G75*
G02Y348057I1350J3712*
G01*
Y352443*
G75*
G02X28498Y360106I1350J3712*
G01*
G75*
G02X29848Y352443J-3950*
G01*
Y348057*
G75*
G02Y340632I-1350J-3712*
G01*
Y330080*
G75*
G02X29871Y329946I-1349J-304*
G01*
X37330*
G75*
G02X47435Y330295I5105J-1350*
G01*
G75*
G02X55622Y332807I5000J-1699*
G01*
X65117Y342302*
G75*
G02X68498Y348294I3381J2043*
G01*
G75*
G02X72246Y345590J-3950*
G01*
G75*
G02X73076Y344344I-520J-1246*
G01*
Y310947*
X98565Y285458*
X127073*
X130010Y288396*
G75*
G02X128040Y292317I2917J3921*
G01*
G75*
G02X137814I4887*
G01*
G75*
G02X132863Y287430I-4887*
G01*
X128587Y283154*
G75*
G02X127632Y282758I-954J955*
G01*
X98006*
G75*
G02X97051Y283154I0J1350*
G01*
X70772Y309433*
G75*
G02X70376Y310388I955J954*
G01*
Y340870*
G75*
G02X67235Y340602I-1878J3475*
G01*
X57295Y330661*
G75*
G02X57716Y328596I-4860J-2065*
G01*
G75*
G02X47435Y326898I-5281*
G01*
G75*
G02X37330Y327246I-5000J1699*
G01*
X29848*
Y324849*
G75*
G02X32763Y321037I-1035J-3812*
G01*
G75*
G02X26770Y317657I-3950*
G01*
X24061Y314947*
Y251203*
X28135Y247128*
G75*
G02X30250Y247742I2114J-3335*
G01*
X35250*
G75*
G02Y239844J-3949*
G01*
X30250*
G75*
G02X26479Y244966J3949*
G01*
X21756Y249689*
G75*
G02X21361Y250644I955J954*
G01*
Y315506*
G75*
G02X21756Y316461I1350J0*
G01*
X25070Y319775*
X27306Y277386D02*
G75*
G02X24863Y281037I1507J3651D01*
G01*
G75*
G02X32763I3950*
G01*
G75*
G02X30320Y277386I-3950*
G01*
Y273808*
X42693Y261455*
X54604Y249544*
G75*
G02X55045Y248478I-1066J-1066*
G01*
Y180752*
G75*
G02X56087Y178695I-1507J-2057*
G01*
G75*
G02X50987I-2550*
G01*
G75*
G02X52030Y180752I2550*
G01*
Y247854*
X40563Y259321*
X27748Y272116*
G75*
G02X27306Y273183I1065J1067*
G01*
Y277386*
X28498Y41871D02*
G75*
G02Y49771J3950D01*
G01*
G75*
G02Y41871J-3950*
G01*
X29192Y17590D02*
G75*
G02Y25490J3950D01*
G01*
G75*
G02Y17590J-3950*
G01*
Y75109D02*
G75*
G02Y83009J3950D01*
G01*
G75*
G02Y75109J-3950*
G01*
X30250Y228043D02*
X35250D01*
G75*
G02Y219543J-4250*
G01*
X30250*
G75*
G02Y228043J4250*
G01*
Y238043D02*
X35250D01*
G75*
G02Y229543J-4250*
G01*
X30250*
G75*
G02Y238043J4250*
G01*
Y257742D02*
X35250D01*
G75*
G02Y249844J-3949*
G01*
X30250*
G75*
G02Y257742J3949*
G01*
X31719Y106056D02*
X33532Y107869D01*
X34416Y108830*
G75*
G02X35526Y109317I1109J-1021*
G01*
X38959*
Y116223*
G75*
G02X40309Y123885I1350J3712*
G01*
G75*
G02X41659Y116223J-3950*
G01*
Y109159*
X51194*
G75*
G02X61209Y110243I5178J-1035*
G01*
G75*
G02X71953Y108124I5163J-2119*
G01*
G75*
G02X61209Y106006I-5581*
G01*
G75*
G02X51361Y106459I-4837J2119*
G01*
X41196*
G75*
G02X40526Y106302I-671J1350*
G01*
X36187*
X35730Y105804*
G75*
G02X35686Y105759I-1119J1017*
G01*
X32719Y102792*
G75*
G02X24863Y103380I-3906J588*
G01*
G75*
G02X31719Y106056I3950*
G01*
X32149Y401892D02*
G75*
G02X28498Y399450I-3651J1507D01*
G01*
G75*
G02Y407350J3950*
G01*
G75*
G02X32149Y404907J-3950*
G01*
X54108*
G75*
G02X55174Y404466I0J-1507*
G01*
X64131Y395509*
G75*
G02X64572Y394443I-1066J-1066*
G01*
Y386996*
X66414Y385156*
G75*
G02X71976Y381549I1612J-3606*
G01*
G75*
G02X64076I-3950*
G01*
G75*
G02X64339Y382967I3950*
G01*
X61999Y385306*
G75*
G02X61557Y386372I1066J1066*
G01*
Y389339*
G75*
G02X54233Y391392I-3374J2053*
G01*
G75*
G02X61557Y393445I3950*
G01*
Y393819*
X53484Y401892*
X32149*
X32274Y183159D02*
Y194900D01*
X44014*
Y183159*
X32274*
X32525Y142030D02*
G75*
G02X24863Y143380I-3712J1350D01*
G01*
G75*
G02X32525Y144730I3950*
G01*
X37012*
G75*
G02X45230Y147676I4281J993*
G01*
G75*
G02X53104I3937J-1953*
G01*
G75*
G02X58565Y149844I3937J-1953*
G01*
X84728Y176008*
G75*
G02X85683Y176403I954J-955*
G01*
X115427*
G75*
G02X116382Y176008I0J-1350*
G01*
X133612Y158777*
Y164388*
X137148*
Y191805*
G75*
G02X137543Y192760I1350J0*
G01*
X157012Y212228*
G75*
G02X157967Y212624I954J-955*
G01*
X168920*
Y218750*
G75*
G02X161163Y219797I-3807J1047*
G01*
Y224797*
G75*
G02X161391Y226120I3949J0*
G01*
X147562Y239950*
X128288*
G75*
G02X125420Y236850I-4987J1737*
G01*
G75*
G02X123301Y226106I-2119J-5163*
G01*
G75*
G02X121183Y236850J5581*
G01*
G75*
G02X123301Y246968I2119J4837*
G01*
G75*
G02X128288Y243424J-5281*
G01*
X148281*
G75*
G02X149510Y242915I0J-1737*
G01*
X163878Y228548*
G75*
G02X168920Y225844I1235J-3751*
G01*
Y247909*
G75*
G02X160862Y249797I-3807J1888*
G01*
Y254797*
G75*
G02X168920Y256685I4250*
G01*
Y257368*
X151699Y274589*
X98213*
Y264315*
X87839*
Y264616*
X78455*
Y273258*
X78226Y273030*
Y264616*
X68915*
X69234Y264297*
X87474*
G75*
G02X88429Y263902I0J-1350*
G01*
X94480Y257851*
G75*
G02X99692Y254108I1263J-3743*
G01*
G75*
G02X92030Y252758I-3950*
G01*
X88742*
X84559Y248575*
G75*
G02X81693Y240919I-4565J-2656*
G01*
G75*
G02X85099Y237269I-1699J-5000*
G01*
X89120*
X104079Y252228*
G75*
G02X103603Y254108I3474J1880*
G01*
G75*
G02X111503I3950*
G01*
G75*
G02X106103Y250434I-3950*
G01*
X90634Y234965*
G75*
G02X89679Y234569I-954J955*
G01*
X85099*
G75*
G02X81344Y230814I-5105J1350*
G01*
Y230238*
X93953Y217630*
G75*
G02X99692Y214108I1789J-3521*
G01*
G75*
G02X91792I-3950*
G01*
G75*
G02X92108Y215656I3950J0*
G01*
X79039Y228724*
G75*
G02X78644Y229679I955J954*
G01*
Y230814*
G75*
G02X76019Y232443I1350J5105*
G01*
X68961*
G75*
G02X65250Y229844I-3711J1350*
G01*
X60250*
G75*
G02Y237742J3949*
G01*
X65250*
G75*
G02X68961Y235143J-3949*
G01*
X74771*
G75*
G02X78295Y240919I5223J776*
G01*
G75*
G02X76019Y242443I1699J5000*
G01*
X68961*
G75*
G02X65250Y239844I-3711J1350*
G01*
X60250*
G75*
G02Y247742J3949*
G01*
X65250*
G75*
G02X68961Y245143J-3949*
G01*
X74771*
G75*
G02X82650Y250484I5224J776*
G01*
X87228Y255063*
G75*
G02X88183Y255458I954J-955*
G01*
X92030*
G75*
G02X92361Y256151I3712J-1351*
G01*
X86915Y261597*
X68675*
G75*
G02X67720Y261992I0J1350*
G01*
X63587Y266126*
G75*
G02X63191Y267081I955J954*
G01*
Y274167*
G75*
G02X63587Y275122I1350J0*
G01*
X68803Y280339*
G75*
G02X69758Y280734I954J-955*
G01*
X78026*
G75*
G02X78868Y280439J-1350*
G01*
X131443*
X139674Y288670*
G75*
G02X138040Y292317I3253J3647*
G01*
G75*
G02X147814I4887*
G01*
G75*
G02X142294Y287471I-4887*
G01*
X132957Y278134*
G75*
G02X132002Y277739I-954J955*
G01*
X78026*
G75*
G02X77183Y278034J1350*
G01*
X70317*
X65891Y273608*
Y267640*
X68455Y265076*
Y274388*
X75766*
X78272Y276894*
G75*
G02X79226Y277289I954J-955*
G01*
X152258*
G75*
G02X153213Y276894I0J-1350*
G01*
X171224Y258882*
G75*
G02X171620Y257927I-955J-954*
G01*
Y257219*
G75*
G02X179362Y254797I3493J-2422*
G01*
Y249797*
G75*
G02X171620Y247376I-4250*
G01*
Y227219*
G75*
G02X178538Y227312I3493J-2422*
G01*
G75*
G02X178843Y227780I1259J-487*
G01*
X181008Y229945*
G75*
G02X181963Y230340I954J-955*
G01*
X200565*
G75*
G02X201520Y229945I0J-1350*
G01*
X209492Y221972*
G75*
G02X211718Y221560I424J-3927*
G01*
X214766Y224608*
Y257041*
G75*
G02X215161Y257996I1350J0*
G01*
X223626Y266461*
G75*
G02X224581Y266856I954J-955*
G01*
X261620*
X275134Y280370*
G75*
G02X276451Y281423I1317J-297*
G01*
X276482*
X296953Y301894*
G75*
G02X297611Y302256I954J-955*
G01*
X300790Y305435*
Y333746*
X297015Y337521*
G75*
G02X294711Y335570I-4422J2887*
G01*
G75*
G02X292593Y324827I-2119J-5163*
G01*
G75*
G02X290474Y335570J5581*
G01*
G75*
G02X292593Y345688I2119J4837*
G01*
G75*
G02X297873Y340481J-5281*
G01*
X303094Y335260*
G75*
G02X303490Y334305I-955J-954*
G01*
Y304876*
G75*
G02X303094Y303921I-1350J0*
G01*
X299157Y299984*
G75*
G02X298500Y299622I-954J955*
G01*
X277996Y279118*
G75*
G02X277338Y278756I-954J955*
G01*
X263134Y264551*
G75*
G02X262179Y264156I-954J955*
G01*
X225140*
X217466Y256482*
Y224049*
G75*
G02X217071Y223094I-1350J0*
G01*
X213556Y219579*
G75*
G02X213865Y218045I-3640J-1533*
G01*
G75*
G02X205965I-3950*
G01*
G75*
G02X206969Y220676I3950*
G01*
X200006Y227640*
X197853*
G75*
G02X199061Y224797I-2741J-2843*
G01*
Y219797*
G75*
G02X199021Y219238I-3949*
G01*
Y204750*
G75*
G02X197671Y195166I-1350J-4697*
G01*
G75*
G02X192822Y199444J4887*
G01*
G75*
G02X188280Y194902I-5151J609*
G01*
G75*
G02X187671Y185166I-609J-4849*
G01*
G75*
G02X183777Y187101J4887*
G01*
X181009Y184280*
Y156583*
X194348Y143245*
G75*
G02X194789Y142179I-1066J-1066*
G01*
Y140397*
G75*
G02X195831Y138341I-1507J-2057*
G01*
G75*
G02X190731I-2550*
G01*
G75*
G02X191774Y140397I2550*
G01*
Y141555*
X178436Y154893*
G75*
G02X177994Y155959I1066J1066*
G01*
Y184896*
G75*
G02X178426Y185951I1507J0*
G01*
X182797Y190407*
G75*
G02X187062Y194902I4874J-354*
G01*
G75*
G02X187671Y205240I609J5151*
G01*
G75*
G02X192822Y200662J-5187*
G01*
G75*
G02X196321Y204750I4849J-609*
G01*
Y216038*
G75*
G02X191163Y219797I-1209J3759*
G01*
Y224797*
G75*
G02X192372Y227640I3949*
G01*
X187853*
G75*
G02X189061Y224797I-2741J-2843*
G01*
Y219797*
G75*
G02X181163I-3949*
G01*
Y224797*
G75*
G02X181750Y226869I3948J0*
G01*
X181147Y226266*
Y217967*
G75*
G02X180752Y217012I-1350J0*
G01*
X174059Y210319*
G75*
G02X173104Y209924I-954J955*
G01*
X170572*
G75*
G02X169967I-302J1350*
G01*
X158526*
X139848Y191246*
Y164388*
X143384*
Y154616*
X134100*
Y149628*
X136754Y146974*
G75*
G02X138734Y147507I1981J-3417*
G01*
G75*
G02Y139607J-3950*
G01*
G75*
G02X135017Y144893J3950*
G01*
X131795Y148114*
G75*
G02X131400Y149060I955J954*
G01*
G75*
G02X128242Y147482I-3158J2371*
G01*
X123242*
G75*
G02Y155380J3949*
G01*
X128242*
G75*
G02X131400Y153802J-3949*
G01*
Y157171*
X114868Y173703*
X86242*
X60698Y148159*
G75*
G02X60978Y147676I-3657J-2439*
G01*
G75*
G02X68852I3937J-1953*
G01*
G75*
G02X73344Y150082I3937J-1953*
G01*
X81270Y158009*
G75*
G02X82337Y158450I1066J-1066*
G01*
X105683*
G75*
G02X106749Y158009I0J-1507*
G01*
X112753Y152005*
G75*
G02X112762Y151996I-1079J-1041*
G01*
X120428Y144201*
G75*
G02X123242Y145380I2814J-2770*
G01*
X128242*
G75*
G02X131003Y138608J-3949*
G01*
X133518*
G75*
G02X134472Y138213I0J-1350*
G01*
X137270Y135415*
G75*
G02X141159Y128628I1464J-3669*
G01*
X159980*
X174786Y143434*
G75*
G02X178734Y147507I3948J123*
G01*
G75*
G02Y139607J-3950*
G01*
G75*
G02X176169Y140553J3950*
G01*
X161670Y126054*
G75*
G02X160604Y125613I-1066J1066*
G01*
X133144*
G75*
G02X132065Y126067J1508*
G01*
X130183Y127993*
G75*
G02X128242Y127482I-1941J3439*
G01*
X123242*
G75*
G02Y135380J3949*
G01*
X128242*
G75*
G02X132052Y130394J-3949*
G01*
X133778Y128628*
X136310*
G75*
G02X135253Y133613I2424J3119*
G01*
X132959Y135908*
X129699*
G75*
G02X128744Y136303I0J1350*
G01*
X127565Y137482*
X123242*
G75*
G02X119313Y141034J3949*
G01*
X110617Y149878*
X105059Y155435*
X82961*
X76118Y148592*
G75*
G02X76726Y147676I-3328J-2870*
G01*
G75*
G02X82666Y149634I3937J-1953*
G01*
X85417Y152386*
G75*
G02X86372Y152781I954J-955*
G01*
X89531*
G75*
G02X93242Y155380I3711J-1350*
G01*
X98242*
G75*
G02Y147482J-3949*
G01*
X93242*
G75*
G02X89531Y150081J3949*
G01*
X86931*
X84575Y147725*
G75*
G02X85058Y145722I-3912J-2003*
G01*
G75*
G02X76726Y143769I-4395*
G01*
G75*
G02X68852I-3937J1953*
G01*
G75*
G02X60978I-3937J1953*
G01*
G75*
G02X53104I-3937J1953*
G01*
G75*
G02X50675Y141594I-3937J1953*
G01*
Y140486*
G75*
G02X50226Y139413I-1508*
G01*
X43967Y133237*
G75*
G02X40309Y127796I-3658J-1491*
G01*
G75*
G02Y135696J3950*
G01*
G75*
G02X41849Y135383J-3950*
G01*
X47660Y141117*
Y141594*
G75*
G02X45230Y143769I1507J4128*
G01*
G75*
G02X38910Y142030I-3937J1953*
G01*
X32525*
X34248Y371707D02*
G75*
G02X42748I4250D01*
G01*
G75*
G02X34248I-4250*
G01*
Y391392D02*
G75*
G02X42748I4250D01*
G01*
G75*
G02X34248I-4250*
G01*
X42443Y274378D02*
G75*
G02X44561Y285122I2119J5163D01*
G01*
G75*
G02X46680Y274378J-5581*
G01*
G75*
G02X44561Y264261I-2119J-4837*
G01*
G75*
G02X42443Y274378J5281*
G01*
X46997Y375421D02*
Y387677D01*
G75*
G02X44391Y391392I1344J3715*
G01*
G75*
G02X52291I3950*
G01*
G75*
G02X49684Y387677I-3950*
G01*
Y375421*
G75*
G02X52291Y371707I-1344J-3715*
G01*
G75*
G02X44391I-3950*
G01*
G75*
G02X46997Y375421I3950*
G01*
X54233Y371707D02*
G75*
G02X62133I3950D01*
G01*
G75*
G02X54233I-3950*
G01*
X58376Y292963D02*
Y305096D01*
X70510*
Y292963*
X58376*
X60250Y228043D02*
X65250D01*
G75*
G02Y219543J-4250*
G01*
X60250*
G75*
G02Y228043J4250*
G01*
Y257742D02*
X65250D01*
G75*
G02Y249844J-3949*
G01*
X60250*
G75*
G02Y257742J3949*
G01*
X61590Y83300D02*
G75*
G02X61869Y83309I277J-4240D01*
G01*
G75*
G02Y74809J-4250*
G01*
G75*
G02X61603Y74818I-1J4249*
G01*
G75*
G02X56470Y67770I-13203J4222*
G01*
G75*
G02X40329Y90309I-8071J11270*
G01*
G75*
G02X61590Y83300I8071J-11270*
G01*
X61604Y25481D02*
G75*
G02X61869Y25490I267J-3939D01*
G01*
G75*
G02Y17590J-3950*
G01*
G75*
G02X61766Y17591I-6J3954*
G01*
G75*
G02X56470Y9994I-13366J3673*
G01*
G75*
G02X40329Y32533I-8071J11270*
G01*
G75*
G02X61604Y25481I8071J-11270*
G01*
X68498Y41871D02*
G75*
G02Y49771J3950D01*
G01*
G75*
G02Y41871J-3950*
G01*
Y360106D02*
G75*
G02Y352206J-3950D01*
G01*
G75*
G02Y360106J3950*
G01*
Y407350D02*
G75*
G02Y399450J-3950D01*
G01*
G75*
G02Y407350J3950*
G01*
X74074Y17290D02*
G75*
G02Y25790J4250D01*
G01*
G75*
G02Y17290J-4250*
G01*
Y74809D02*
G75*
G02Y83309J4250D01*
G01*
G75*
G02Y74809J-4250*
G01*
X77943Y183159D02*
Y194900D01*
X89683*
Y183159*
X77943*
X79856Y58641D02*
G75*
G02Y46505J-6068D01*
G01*
G75*
G02Y58641J6068*
G01*
X80309Y124185D02*
G75*
G02Y115685J-4250D01*
G01*
G75*
G02Y124185J4250*
G01*
X81843Y135386D02*
X88843Y142386D01*
G75*
G02X89521Y142752I954J-955*
G01*
G75*
G02X93242Y145380I3721J-1321*
G01*
X98242*
G75*
G02Y137482J-3949*
G01*
X93242*
G75*
G02X89790Y139514J3949*
G01*
X83824Y133548*
G75*
G02X80309Y127796I-3515J-1802*
G01*
G75*
G02Y135696J3950*
G01*
G75*
G02X81843Y135386I0J-3950*
G01*
X85583Y17754D02*
G75*
G02X86711Y25490I1128J3785D01*
G01*
G75*
G02X89158Y18439J-3950*
G01*
X99541Y8057*
X102941*
G75*
G02X98006Y32829I3135J13502*
G01*
G75*
G02X119369Y25490I8071J-11270*
G01*
G75*
G02X119389I10J-3976*
G01*
G75*
G02X122109Y24404J-3950*
G01*
Y41392*
G75*
G02X122564Y42471I1508*
G01*
X123887Y43761*
G75*
G02X127553Y49180I3667J1469*
G01*
G75*
G02Y41280J-3950*
G01*
G75*
G02X125991Y41602I0J3950*
G01*
X125124Y40756*
Y17081*
G75*
G02X124682Y16015I-1507J0*
G01*
X114151Y5483*
G75*
G02X113085Y5042I-1066J1066*
G01*
X98916*
G75*
G02X97850Y5483I0J1507*
G01*
X85645Y17688*
G75*
G02X85583Y17754I1069J1061*
G01*
X87553Y49180D02*
G75*
G02Y41280J-3950D01*
G01*
G75*
G02Y49180J3950*
G01*
X87730Y385413D02*
G75*
G02Y373276J-6068D01*
G01*
G75*
G02Y385413J6068*
G01*
X91715Y341757D02*
X87819Y345654D01*
G75*
G02X87424Y346608I955J954*
G01*
Y358813*
G75*
G02X87819Y359768I1350J0*
G01*
X104748Y376697*
G75*
G02X105703Y377092I954J-955*
G01*
X166923*
G75*
G02X167878Y376697I0J-1350*
G01*
X169357Y375218*
G75*
G02X174771Y371549I1464J-3669*
G01*
G75*
G02X166871I-3950*
G01*
G75*
G02X167340Y373416I3950J0*
G01*
X166364Y374392*
X131713*
G75*
G02X132920Y371549I-2743J-2843*
G01*
G75*
G02X125319Y370042I-3950*
G01*
X111350*
X99070Y357683*
G75*
G02X95427Y352206I-3643J-1528*
G01*
G75*
G02Y360106J3950*
G01*
G75*
G02X96931Y359808I0J-3950*
G01*
X109653Y372612*
G75*
G02X110722Y373057I1069J-1063*
G01*
X125319*
G75*
G02X126228Y374392I3651J-1508*
G01*
X106262*
X90124Y358254*
Y347167*
X93459Y343832*
G75*
G02X95427Y344357I1968J-3424*
G01*
G75*
G02Y336457J-3950*
G01*
G75*
G02X91715Y341757J3950*
G01*
X93242Y125380D02*
X98242D01*
G75*
G02Y117482J-3949*
G01*
X93242*
G75*
G02Y125380J3949*
G01*
Y135681D02*
X98242D01*
G75*
G02Y127181J-4250*
G01*
X93242*
G75*
G02Y135681J4250*
G01*
X96171Y292963D02*
Y305096D01*
X108305*
Y292963*
X96171*
X96601Y399628D02*
G75*
G02X95427Y399450I-1174J3772D01*
G01*
G75*
G02Y407350J3950*
G01*
G75*
G02X98763Y401284J-3950*
G01*
X107148Y392899*
X125258*
G75*
G02X132920Y391549I3712J-1350*
G01*
G75*
G02X125258Y390199I-3950*
G01*
X106589*
G75*
G02X105634Y390594I0J1350*
G01*
X96601Y399628*
X104842Y165061D02*
G75*
G02X94098Y167179I-5163J2119D01*
G01*
G75*
G02X104842Y169298I5581*
G01*
G75*
G02X114960Y167179I4837J-2119*
G01*
G75*
G02X104842Y165061I-5281*
G01*
X111503Y214108D02*
G75*
G02X103603I-3950D01*
G01*
G75*
G02X111503I3950*
G01*
X123242Y125681D02*
X128242D01*
G75*
G02Y117181J-4250*
G01*
X123242*
G75*
G02Y125681J4250*
G01*
X123533Y182963D02*
Y195096D01*
X135667*
Y182963*
X123533*
X127814Y292317D02*
G75*
G02X118040I-4887D01*
G01*
G75*
G02X127814I4887*
G01*
Y302317D02*
G75*
G02X118040I-4887D01*
G01*
G75*
G02X127814I4887*
G01*
X128464Y322541D02*
G75*
G02X117720Y324659I-5163J2119D01*
G01*
G75*
G02X128464Y326778I5581*
G01*
G75*
G02X138582Y324659I4837J-2119*
G01*
G75*
G02X135039Y319673I-5281*
G01*
Y306724*
G75*
G02X137814Y302317I-2111J-4407*
G01*
G75*
G02X128040I-4887*
G01*
G75*
G02X131564Y307010I4887*
G01*
Y319673*
G75*
G02X128464Y322541I1737J4987*
G01*
X131163Y219797D02*
Y224797D01*
G75*
G02X139061I3949*
G01*
Y219797*
G75*
G02X131163I-3949*
G01*
Y249797D02*
Y254797D01*
G75*
G02X139061I3949*
G01*
Y249797*
G75*
G02X131163I-3949*
G01*
X131593Y17290D02*
G75*
G02Y25790J4250D01*
G01*
G75*
G02Y17290J-4250*
G01*
Y74809D02*
G75*
G02Y83309J4250D01*
G01*
G75*
G02Y74809J-4250*
G01*
X133220Y381549D02*
G75*
G02X124720I-4250D01*
G01*
G75*
G02X133220I4250*
G01*
X135427Y407350D02*
G75*
G02Y399450J-3950D01*
G01*
G75*
G02Y407350J3950*
G01*
X136961Y359796D02*
X140181Y363016D01*
G75*
G02X141136Y363411I954J-955*
G01*
X166037*
G75*
G02X166992Y363016I0J-1350*
G01*
X170206Y359801*
G75*
G02X171726Y360106I1520J-3646*
G01*
G75*
G02Y352206J-3950*
G01*
G75*
G02X168218Y357971J3950*
G01*
X165478Y360711*
X141695*
X138942Y357958*
G75*
G02X135427Y352206I-3515J-1802*
G01*
G75*
G02Y360106J3950*
G01*
G75*
G02X136961Y359796I0J-3950*
G01*
X138734Y103874D02*
G75*
G02Y112374J4250D01*
G01*
G75*
G02Y103874J-4250*
G01*
X139078Y338900D02*
G75*
G02X135427Y336457I-3651J1507D01*
G01*
G75*
G02Y344357J3950*
G01*
G75*
G02X139078Y341915J-3950*
G01*
X175452*
X188108Y354571*
G75*
G02X191726Y360106I3618J1585*
G01*
G75*
G02Y352206J-3950*
G01*
G75*
G02X190281Y352480J3950*
G01*
X177143Y339341*
G75*
G02X176077Y338900I-1066J1066*
G01*
X139078*
X141163Y219797D02*
Y224797D01*
G75*
G02X149061I3949*
G01*
Y219797*
G75*
G02X141163I-3949*
G01*
Y249797D02*
Y254797D01*
G75*
G02X149061I3949*
G01*
Y249797*
G75*
G02X141163I-3949*
G01*
X142724Y17889D02*
G75*
G02X144231Y25490I1507J3651D01*
G01*
G75*
G02X145739Y17889J-3950*
G01*
Y17115*
X154698Y8155*
X171421*
X180869Y17513*
Y32337*
G75*
G02X181310Y33403I1507J0*
G01*
X185101Y37193*
Y41579*
G75*
G02X186608Y49180I1507J3651*
G01*
G75*
G02X188116Y41579J-3950*
G01*
Y36569*
G75*
G02X187674Y35503I-1507J0*
G01*
X183883Y31712*
Y16884*
G75*
G02X183437Y15813I-1507*
G01*
X173102Y5577*
G75*
G02X172041Y5140I-1061J1071*
G01*
X154074*
G75*
G02X153007Y5581I0J1507*
G01*
X143165Y15424*
G75*
G02X142724Y16490I1066J1066*
G01*
Y17889*
X142725Y307200D02*
X152097Y316572D01*
G75*
G02X153163Y317013I1066J-1066*
G01*
X160472*
X168085Y324626*
G75*
G02X171726Y330106I3642J1530*
G01*
G75*
G02Y322206J-3950*
G01*
G75*
G02X170224Y322502I0J3950*
G01*
X162163Y314440*
G75*
G02X161096Y313998I-1066J1066*
G01*
X153788*
X145948Y306159*
G75*
G02X147814Y302317I-3021J-3842*
G01*
G75*
G02X138040I-4887*
G01*
G75*
G02X142725Y307200I4887*
G01*
X144231Y75109D02*
G75*
G02Y83009J3950D01*
G01*
G75*
G02Y75109J-3950*
G01*
X146608Y49180D02*
G75*
G02Y41280J-3950D01*
G01*
G75*
G02Y49180J3950*
G01*
X150320Y402050D02*
G75*
G02X146608Y399450I-3712J1350D01*
G01*
G75*
G02Y407350J3950*
G01*
G75*
G02X150320Y404750J-3950*
G01*
X159207*
G75*
G02X160161Y404354I0J-1350*
G01*
X169315Y395201*
G75*
G02X174771Y391549I1506J-3652*
G01*
G75*
G02X166871I-3950*
G01*
G75*
G02X167320Y393378I3950J0*
G01*
X158648Y402050*
X150320*
X150862Y219797D02*
Y224797D01*
G75*
G02X159362I4250*
G01*
Y219797*
G75*
G02X150862I-4250*
G01*
Y249797D02*
Y254797D01*
G75*
G02X159362I4250*
G01*
Y249797*
G75*
G02X150862I-4250*
G01*
X151726Y322206D02*
G75*
G02Y330106J3950D01*
G01*
G75*
G02Y322206J-3950*
G01*
Y360406D02*
G75*
G02Y351906J-4250D01*
G01*
G75*
G02Y360406J4250*
G01*
X152996Y154616D02*
X143612D01*
Y164388*
X152996*
Y164689*
X163370*
Y154315*
X152996*
Y154616*
X157624Y290967D02*
G75*
G02X148040Y292317I-4697J1350D01*
G01*
G75*
G02X157624Y293667I4887*
G01*
X167116*
Y305096*
X179250*
Y293667*
X182604*
X200376Y311439*
Y322443*
G75*
G02X201726Y330106I1350J3712*
G01*
G75*
G02X203076Y322443J-3950*
G01*
Y310880*
G75*
G02X202681Y309925I-1350J0*
G01*
X184118Y291362*
G75*
G02X183163Y290967I-954J955*
G01*
X157624*
Y300967D02*
G75*
G02X148040Y302317I-4697J1350D01*
G01*
G75*
G02X157624Y303667I4887*
G01*
X157880*
X178338Y324125*
G75*
G02X181726Y330106I3388J2030*
G01*
G75*
G02Y322206J-3950*
G01*
G75*
G02X180449Y322418I0J3950*
G01*
X159394Y301362*
G75*
G02X158439Y300967I-954J955*
G01*
X157624*
X159960Y117817D02*
G75*
G02X149217Y119935I-5163J2119D01*
G01*
G75*
G02X159960Y122054I5581*
G01*
G75*
G02X169902Y121285I4837J-2119*
G01*
X177384*
Y128034*
G75*
G02X178734Y135696I1350J3712*
G01*
G75*
G02X180084Y128034J-3950*
G01*
Y111836*
G75*
G02X182384Y109634I-1350J-3712*
G01*
Y125545*
G75*
G02X182780Y126500I1350J0*
G01*
X186252Y129972*
G75*
G02X189915Y135401I3663J1478*
G01*
G75*
G02Y127501J-3950*
G01*
G75*
G02X188061Y127963J3950*
G01*
X185084Y124986*
Y106813*
X187344Y104553*
X188228*
G75*
G02X189915Y112074I1688J3571*
G01*
G75*
G02X193628Y109474J-3950*
G01*
X203254*
X214628Y120848*
Y138452*
G75*
G02X210978Y141858I1350J5105*
G01*
G75*
G02X207328Y138452I-5000J1699*
G01*
Y119935*
G75*
G02X205978Y118585I-1350*
G01*
X193628*
G75*
G02X189915Y115985I-3712J1350*
G01*
G75*
G02Y123885J3950*
G01*
G75*
G02X193628Y121285J-3950*
G01*
X204628*
Y138452*
G75*
G02X201275Y145958I1350J5105*
G01*
X186717Y160516*
G75*
G02X186321Y161470I955J954*
G01*
Y165356*
G75*
G02X187671Y174940I1350J4697*
G01*
G75*
G02X189021Y165356J-4887*
G01*
Y162030*
X203080Y147971*
G75*
G02X210978Y145256I2898J-4414*
G01*
G75*
G02X221259Y143557I5000J-1699*
G01*
G75*
G02X217328Y138452I-5281*
G01*
Y121285*
X226203*
G75*
G02X228565Y123647I3712J-1350*
G01*
Y127739*
G75*
G02X229915Y135401I1350J3712*
G01*
G75*
G02X231265Y127739J-3950*
G01*
Y123647*
G75*
G02X229915Y115985I-1350J-3712*
G01*
G75*
G02X226203Y118585J3950*
G01*
X216183*
X204768Y107169*
G75*
G02X203813Y106774I-954J955*
G01*
X193628*
G75*
G02X191603Y104553I-3712J1350*
G01*
X211620*
X221264Y114197*
G75*
G02X222219Y114592I954J-955*
G01*
X233734*
G75*
G02X234689Y114197I0J-1350*
G01*
X243644Y105242*
X263490*
X282386Y124138*
G75*
G02X283341Y124533I954J-955*
G01*
X285258*
G75*
G02X288970Y127133I3712J-1350*
G01*
G75*
G02X292435Y121285J-3950*
G01*
X312187*
G75*
G02X315900Y123885I3712J-1350*
G01*
G75*
G02Y115985J-3950*
G01*
G75*
G02X312187Y118585J3950*
G01*
X288970*
G75*
G02X287715Y119438J1350*
G01*
G75*
G02X285258Y121833I1255J3745*
G01*
X283900*
X265004Y102937*
G75*
G02X264049Y102542I-954J955*
G01*
X242789*
G75*
G02X241472Y103595J1350*
G01*
X233175Y111892*
X231100*
G75*
G02X233555Y106589I-1185J-3768*
G01*
X239698Y100380*
X240176*
G75*
G02X241242Y99938J-1508*
G01*
X258293Y82887*
G75*
G02X259270Y83009I978J-3828*
G01*
G75*
G02Y75109J-3950*
G01*
G75*
G02X255861Y81054J3950*
G01*
X239552Y97365*
X239069*
G75*
G02X237997Y97812J1507*
G01*
X231411Y104469*
G75*
G02X229915Y104174I-1496J3656*
G01*
G75*
G02X228731Y111892J3950*
G01*
X222778*
X213134Y102248*
G75*
G02X212179Y101853I-954J955*
G01*
X186785*
G75*
G02X185831Y102248I0J1350*
G01*
X182780Y105299*
G75*
G02X182384Y106254I955J954*
G01*
Y106614*
G75*
G02X178734Y104174I-3650J1510*
G01*
G75*
G02X177384Y111836J3950*
G01*
Y118585*
X169902*
G75*
G02X159960Y117817I-5105J1350*
G01*
X161329Y182963D02*
Y195096D01*
X173463*
Y182963*
X161329*
X161726Y322206D02*
G75*
G02Y330106J3950D01*
G01*
G75*
G02Y322206J-3950*
G01*
Y360106D02*
G75*
G02Y352206J-3950D01*
G01*
G75*
G02Y360106J3950*
G01*
X175071Y381549D02*
G75*
G02X166571I-4250D01*
G01*
G75*
G02X175071I4250*
G01*
X176365Y17627D02*
G75*
G02X171333Y10880I-13103J4522D01*
G01*
G75*
G02X155191Y33419I-8071J11270*
G01*
G75*
G02X176716Y25485I8071J-11270*
G01*
G75*
G02X176908Y25490I193J-3945*
G01*
G75*
G02Y17590J-3950*
G01*
G75*
G02X176365Y17627I-1J3950*
G01*
X176502Y75130D02*
G75*
G02X171333Y67967I-13239J4106D01*
G01*
G75*
G02X155191Y90506I-8071J11270*
G01*
G75*
G02X176603Y82998I8071J-11270*
G01*
G75*
G02X176908Y83009I305J-3940*
G01*
G75*
G02Y75109J-3950*
G01*
G75*
G02X176502Y75130I-1J3949*
G01*
X180376Y359868D02*
Y403400D01*
G75*
G02X181726Y404750I1350*
G01*
X182896*
G75*
G02X186608Y407350I3712J-1350*
G01*
G75*
G02Y399450J-3950*
G01*
G75*
G02X183076Y401631J3950*
G01*
Y359868*
G75*
G02X181726Y352206I-1350J-3712*
G01*
G75*
G02X180376Y359868J3950*
G01*
X183840Y246059D02*
G75*
G02X181163Y249797I1272J3738D01*
G01*
Y254797*
G75*
G02X189061I3949*
G01*
Y249797*
G75*
G02X187129Y246402I-3949*
G01*
X190002Y243529*
X201482*
X208565Y250612*
Y254333*
G75*
G02X205965Y258045I1350J3712*
G01*
G75*
G02X212786Y260758I3950*
G01*
X218152Y266124*
G75*
G02X218508Y266756I1311J-323*
G01*
X227935Y276183*
Y277640*
G75*
G02X228489Y285221I1350J3712*
G01*
X238345Y295077*
G75*
G02X237942Y297100I4878J2024*
G01*
G75*
G02X248222Y298799I5281*
G01*
G75*
G02X249187Y300506I5000J-1699*
G01*
X243707Y305987*
X242167*
X216285Y280104*
Y272199*
G75*
G02X215890Y271244I-1350J0*
G01*
X206539Y261894*
G75*
G02X205832Y261521I-955J955*
G01*
X199061Y254750*
Y249797*
G75*
G02X191163I-3949*
G01*
Y254797*
G75*
G02X197992Y257499I3949*
G01*
X204295Y263803*
G75*
G02X205003Y264176I955J-955*
G01*
X205443Y264616*
X187268*
Y264315*
X176894*
Y274689*
X187268*
Y274388*
X190731*
Y295427*
G75*
G02X191126Y296382I1350J0*
G01*
X206185Y311441*
G75*
G02X207140Y311836I954J-955*
G01*
X255321*
X281597Y338112*
Y341687*
G75*
G02X281992Y342642I1350J0*
G01*
X288094Y348744*
G75*
G02X289049Y349139I954J-955*
G01*
X314443*
G75*
G02X315398Y348744I0J-1350*
G01*
X323862Y340280*
G75*
G02X324246Y339502I-955J-954*
G01*
X339982Y323765*
X340750*
G75*
G02X345447Y327302I4697J-1350*
G01*
G75*
G02X348924Y318982J-4887*
G01*
X350486*
G75*
G02X351563Y318530J-1507*
G01*
X353269Y316790*
G75*
G02X360146Y313756I2178J-4375*
G01*
Y318133*
X359105Y319174*
G75*
G02X355447Y317528I-3658J3241*
G01*
G75*
G02Y327302J4887*
G01*
G75*
G02X360311Y322882J-4887*
G01*
X363112Y320081*
G75*
G02X363621Y318852I-1228J-1229*
G01*
Y308715*
G75*
G02X363112Y307486I-1737J0*
G01*
X354057Y298431*
G75*
G02X353976Y298354I-1232J1226*
G01*
Y294935*
G75*
G02X353467Y293707I-1737J0*
G01*
X316206Y256446*
G75*
G02X313281Y249844I-2925J-2653*
G01*
X308281*
G75*
G02Y257742J3949*
G01*
X312588*
X350501Y295655*
Y299659*
G75*
G02X352104Y301392I1737*
G01*
X360146Y309434*
Y311075*
G75*
G02X355447Y307528I-4700J1340*
G01*
G75*
G02X351116Y314679J4887*
G01*
X349853Y315967*
X348804*
G75*
G02X347342Y307911I-3357J-3552*
G01*
Y304285*
G75*
G02X346787Y302946I-1895J0*
G01*
X315392Y271550*
Y264616*
X296008*
Y264315*
X285634*
Y274689*
X296008*
Y274388*
X299313*
Y294482*
G75*
G02X299755Y295548I1507J0*
G01*
X313200Y308993*
G75*
G02X314266Y309435I1066J-1066*
G01*
X331358*
X340463Y318541*
G75*
G02X341530Y318982I1066J-1066*
G01*
X341969*
G75*
G02X340750Y321065I3478J3434*
G01*
X339423*
G75*
G02X338469Y321461I0J1350*
G01*
X321953Y337976*
G75*
G02X321569Y338754I955J954*
G01*
X313884Y346439*
X289608*
X284297Y341128*
Y337553*
G75*
G02X283902Y336598I-1350J0*
G01*
X256835Y309531*
G75*
G02X255880Y309136I-954J955*
G01*
X207699*
X193431Y294868*
Y274388*
X206652*
Y265824*
X213585Y272758*
Y280663*
G75*
G02X213980Y281618I1350J0*
G01*
X240654Y308291*
G75*
G02X241608Y308687I954J-955*
G01*
X244266*
G75*
G02X245220Y308291I0J-1350*
G01*
X251440Y302071*
G75*
G02X258028Y294912I1782J-4971*
G01*
X267892Y285048*
G75*
G02X269285Y285302I1393J-3696*
G01*
G75*
G02Y277402J-3950*
G01*
G75*
G02X265839Y283283J3950*
G01*
X256307Y292815*
G75*
G02X248222Y295402I-3085J4286*
G01*
G75*
G02X240002Y292915I-5000J1699*
G01*
X231623Y284537*
G75*
G02X230635Y277640I-2337J-3184*
G01*
Y275624*
G75*
G02X230240Y274669I-1350J0*
G01*
X220774Y265203*
G75*
G02X220417Y264571I-1311J323*
G01*
X213865Y258019*
G75*
G02X211265Y254333I-3950J26*
G01*
Y250053*
G75*
G02X210870Y249098I-1350J0*
G01*
X202996Y241224*
G75*
G02X202041Y240829I-954J955*
G01*
X189443*
G75*
G02X188488Y241224I0J1350*
G01*
X184157Y245555*
G75*
G02X183840Y246059I955J954*
G01*
X187671Y184940D02*
G75*
G02Y175166J-4887D01*
G01*
G75*
G02Y184940J4887*
G01*
X189113Y17290D02*
G75*
G02Y25790J4250D01*
G01*
G75*
G02Y17290J-4250*
G01*
Y74809D02*
G75*
G02Y83309J4250D01*
G01*
G75*
G02Y74809J-4250*
G01*
X191726Y321906D02*
G75*
G02Y330406J4250D01*
G01*
G75*
G02Y321906J-4250*
G01*
X199938Y194383D02*
X222018Y216524D01*
G75*
G02X221713Y218045I3646J1520*
G01*
G75*
G02X229613I3950*
G01*
G75*
G02X224153Y214396I-3950*
G01*
X202048Y192228*
G75*
G02X197671Y185166I-4376J-2175*
G01*
G75*
G02Y194940J4887*
G01*
G75*
G02X199938Y194383I0J-4887*
G01*
X200376Y359868D02*
Y400415D01*
G75*
G02X197789Y399450I-2587J2985*
G01*
G75*
G02Y407350J3950*
G01*
G75*
G02X201502Y404750J-3950*
G01*
X201726*
G75*
G02X203076Y403400J-1350*
G01*
Y359868*
G75*
G02X201726Y352206I-1350J-3712*
G01*
G75*
G02X200376Y359868J3950*
G01*
X200401Y17828D02*
G75*
G02X201751Y25490I1350J3712D01*
G01*
G75*
G02X203319Y17914J-3950*
G01*
X213333Y7899*
X218878*
G75*
G02X213163Y32829I2357J13660*
G01*
G75*
G02X234527Y25489I8071J-11270*
G01*
G75*
G02X234516Y17591I-99J-3949*
G01*
G75*
G02X223591Y7899I-13281J3969*
G01*
X229750*
X240376Y18526*
Y42109*
G75*
G02X241726Y49771I1350J3712*
G01*
G75*
G02X243076Y42109J-3950*
G01*
Y23867*
G75*
G02X246633Y25790I3556J-2327*
G01*
G75*
G02Y17290J-4250*
G01*
G75*
G02X243076Y19213J4250*
G01*
Y17967*
G75*
G02X242681Y17012I-1350J0*
G01*
X231264Y5594*
G75*
G02X230309Y5199I-954J955*
G01*
X212774*
G75*
G02X211820Y5594I0J1350*
G01*
X200796Y16618*
G75*
G02X200401Y17573I955J954*
G01*
Y17828*
X201726Y49771D02*
G75*
G02Y41871J-3950D01*
G01*
G75*
G02Y49771J3950*
G01*
X201751Y75109D02*
G75*
G02Y83009J3950D01*
G01*
G75*
G02Y75109J-3950*
G01*
X204911Y292963D02*
Y305096D01*
X217045*
Y292963*
X204911*
X211014Y182963D02*
Y195096D01*
X223148*
Y182963*
X211014*
X212255Y352241D02*
G75*
G02X211726Y352206I-528J3913D01*
G01*
G75*
G02Y360106J3950*
G01*
G75*
G02X214728Y353587J-3950*
G01*
X226557Y341757*
X233447*
G75*
G02X237159Y344357I3712J-1350*
G01*
G75*
G02X240702Y338661J-3950*
G01*
X242680Y340638*
Y348937*
X238971Y352645*
G75*
G02X237159Y352206I-1811J3510*
G01*
G75*
G02Y360106J3950*
G01*
G75*
G02X240923Y354957J-3950*
G01*
X245253Y350627*
G75*
G02X245694Y349561I-1066J-1066*
G01*
Y340014*
G75*
G02X245253Y338948I-1507J0*
G01*
X237773Y331467*
G75*
G02X236707Y331026I-1066J1066*
G01*
X218630*
X215344Y327740*
G75*
G02X211726Y322206I-3618J-1585*
G01*
G75*
G02Y330106J3950*
G01*
G75*
G02X213172Y329831J-3950*
G01*
X216940Y333600*
G75*
G02X218006Y334041I1066J-1066*
G01*
X236082*
X238906Y336865*
G75*
G02X233447Y339057I-1746J3543*
G01*
X225998*
G75*
G02X225043Y339453I0J1350*
G01*
X212255Y352241*
X216423Y390199D02*
G75*
G02X208761Y391549I-3712J1350D01*
G01*
G75*
G02X216423Y392899I3950*
G01*
X225774*
X234343Y401469*
G75*
G02X237789Y407350I3446J1931*
G01*
G75*
G02Y399450J-3950*
G01*
G75*
G02X236396Y399704J3950*
G01*
X227287Y390594*
G75*
G02X226333Y390199I-954J955*
G01*
X216423*
X216661Y371549D02*
G75*
G02X208761I-3950D01*
G01*
G75*
G02X216661I3950*
G01*
X216961Y381549D02*
G75*
G02X208461I-4250D01*
G01*
G75*
G02X216961I4250*
G01*
X220376Y360104D02*
Y376136D01*
G75*
G02X220772Y377091I1350J0*
G01*
X228744Y385063*
G75*
G02X229499Y385443I954J-955*
G01*
X245524Y401469*
G75*
G02X248970Y407350I3446J1931*
G01*
G75*
G02Y399450J-3950*
G01*
G75*
G02X247577Y399704J3950*
G01*
X231028Y383154*
G75*
G02X230273Y382773I-954J955*
G01*
X223076Y375577*
Y360104*
X225675*
Y352207*
X217778*
Y360104*
X220376*
X221726Y322206D02*
G75*
G02Y330106J3950D01*
G01*
G75*
G02Y322206J-3950*
G01*
X234767Y75124D02*
G75*
G02X229600Y67967I-13238J4113D01*
G01*
G75*
G02X213459Y90506I-8071J11270*
G01*
G75*
G02X234875Y82984I8071J-11270*
G01*
G75*
G02X234767Y75124I-447J-3925*
G01*
X237161Y258045D02*
G75*
G02X245661I4250D01*
G01*
G75*
G02X237161I-4250*
G01*
X237461Y218045D02*
G75*
G02X245361I3950D01*
G01*
G75*
G02X237461I-3950*
G01*
X246633Y74809D02*
G75*
G02Y83309J4250D01*
G01*
G75*
G02Y74809J-4250*
G01*
X247620Y114395D02*
Y119471D01*
G75*
G02X248970Y127133I1350J3712*
G01*
G75*
G02X252683Y124533J-3950*
G01*
X258864*
X270337Y136006*
Y146326*
G75*
G02X266687Y149732I1350J5105*
G01*
G75*
G02X261565Y146152I-5000J1699*
G01*
X252616Y137203*
G75*
G02X248970Y131733I-3646J-1520*
G01*
G75*
G02Y139633J3950*
G01*
G75*
G02X250786Y139191I0J-3950*
G01*
X258683Y147088*
G75*
G02X256406Y151431I3004J4343*
G01*
G75*
G02X266687Y153130I5281*
G01*
G75*
G02X276968Y151431I5000J-1699*
G01*
G75*
G02X273037Y146326I-5281*
G01*
Y137033*
X285258*
G75*
G02X288970Y139633I3712J-1350*
G01*
G75*
G02Y131733J-3950*
G01*
G75*
G02X285258Y134333J3950*
G01*
X272482*
X260378Y122228*
G75*
G02X259423Y121833I-954J955*
G01*
X252683*
G75*
G02X250320Y119471I-3712J1350*
G01*
Y114395*
G75*
G02X248970Y106733I-1350J-3712*
G01*
G75*
G02X247620Y114395J3950*
G01*
X248809Y182963D02*
Y195096D01*
X260943*
Y182963*
X248809*
X258273Y370199D02*
G75*
G02X250611Y371549I-3712J1350D01*
G01*
G75*
G02X258273Y372899I3950*
G01*
X262159*
G75*
G02X263114Y372504I0J-1350*
G01*
X275766Y359852*
G75*
G02X277159Y360106I1393J-3696*
G01*
G75*
G02Y352206J-3950*
G01*
G75*
G02X273713Y358086J3950*
G01*
X261600Y370199*
X258273*
Y390199D02*
G75*
G02X250611Y391549I-3712J1350D01*
G01*
G75*
G02X258273Y392899I3950*
G01*
X261502*
X272436Y403833*
G75*
G02X273715Y404750I1278J-434*
G01*
X285258*
G75*
G02X288970Y407350I3712J-1350*
G01*
G75*
G02Y399450J-3950*
G01*
G75*
G02X285258Y402050J3950*
G01*
X274470*
X263016Y390594*
G75*
G02X262061Y390199I-954J955*
G01*
X258273*
X258811Y381549D02*
G75*
G02X250311I-4250D01*
G01*
G75*
G02X258811I4250*
G01*
X259431Y25487D02*
Y42109D01*
G75*
G02X260781Y49771I1350J3712*
G01*
G75*
G02X262131Y42109J-3950*
G01*
Y24263*
G75*
G02X259270Y17590I-2861J-2724*
G01*
G75*
G02Y25490J3950*
G01*
G75*
G02X259431Y25487I3J-3949*
G01*
X275856Y292963D02*
Y305096D01*
X287990*
Y292963*
X275856*
X277159Y336457D02*
G75*
G02Y344357J3950D01*
G01*
G75*
G02Y336457J-3950*
G01*
X278070Y200494D02*
G75*
G02X267327Y202612I-5163J2119D01*
G01*
G75*
G02X278070Y204731I5581*
G01*
G75*
G02X288188Y202612I4837J-2119*
G01*
G75*
G02X278070Y200494I-5281*
G01*
X278281Y227742D02*
X283281D01*
G75*
G02Y219844J-3949*
G01*
X278281*
G75*
G02Y227742J3949*
G01*
Y238043D02*
X283281D01*
G75*
G02Y229543J-4250*
G01*
X278281*
G75*
G02Y238043J4250*
G01*
X287947Y352796D02*
G75*
G02Y360696J3950D01*
G01*
G75*
G02Y352796J-3950*
G01*
X288970Y114633D02*
G75*
G02Y106733J-3950D01*
G01*
G75*
G02Y114633J3950*
G01*
X290545Y378562D02*
G75*
G02Y366820J-5871D01*
G01*
G75*
G02Y378562J5871*
G01*
Y396579D02*
G75*
G02Y384236J-6171D01*
G01*
G75*
G02Y396579J6171*
G01*
X291904Y83009D02*
G75*
G02X291948Y83009I57J-3966D01*
G01*
G75*
G02X292092Y75112J-3950*
G01*
G75*
G02X286785Y67474I-13377J3631*
G01*
G75*
G02X270644Y90014I-8071J11270*
G01*
G75*
G02X291904Y83009I8071J-11270*
G01*
X292114Y25486D02*
G75*
G02X292281Y17604I-167J-3946D01*
G01*
G75*
G02X286982Y9994I-13370J3660*
G01*
G75*
G02X270841Y32533I-8071J11270*
G01*
G75*
G02X292114Y25486I8071J-11270*
G01*
X298533Y182963D02*
Y195096D01*
X310667*
Y182963*
X298533*
X300781Y49771D02*
G75*
G02Y41871J-3950D01*
G01*
G75*
G02Y49771J3950*
G01*
X304152Y17290D02*
G75*
G02Y25790J4250D01*
G01*
G75*
G02Y17290J-4250*
G01*
Y74809D02*
G75*
G02Y83309J4250D01*
G01*
G75*
G02Y74809J-4250*
G01*
X308281Y228043D02*
X313281D01*
G75*
G02Y219543J-4250*
G01*
X308281*
G75*
G02Y228043J4250*
G01*
X309187Y59625D02*
G75*
G02Y47489J-6068D01*
G01*
G75*
G02Y59625J6068*
G01*
X310406Y315337D02*
G75*
G02X305692Y316687I-2163J1350D01*
G01*
G75*
G02X310406Y318037I2550*
G01*
X332457*
G75*
G02X337170Y316687I2163J-1350*
G01*
G75*
G02X332457Y315337I-2550*
G01*
X310406*
X313863Y335089D02*
X308829D01*
Y341986*
X315726*
Y336952*
G75*
G02X317278Y337287I1551J-3414*
G01*
G75*
G02Y329787J-3750*
G01*
G75*
G02X315149Y330450I0J3750*
G01*
G75*
G02X312278Y325087I-2871J-1913*
G01*
G75*
G02Y331987J3450*
G01*
G75*
G02X314191Y331409I0J-3450*
G01*
G75*
G02X313863Y335089I3087J2129*
G01*
X316136Y378562D02*
G75*
G02Y366820J-5871D01*
G01*
G75*
G02Y378562J5871*
G01*
X316790Y17590D02*
G75*
G02Y25490J3950D01*
G01*
G75*
G02Y17590J-3950*
G01*
Y75109D02*
G75*
G02Y83009J3950D01*
G01*
G75*
G02Y75109J-3950*
G01*
X316993Y232443D02*
G75*
G02X313281Y229844I-3711J1350D01*
G01*
X308281*
G75*
G02Y237742J3949*
G01*
X313281*
G75*
G02X316993Y235143J-3949*
G01*
X326352*
G75*
G02X327702Y233793J-1350*
G01*
Y233332*
X334731*
G75*
G02X338138Y236982I5105J-1350*
G01*
G75*
G02X334731Y240632I1699J5000*
G01*
X327927*
G75*
G02X326577Y241982J1350*
G01*
Y242443*
X316993*
G75*
G02X313281Y239844I-3711J1350*
G01*
X308281*
G75*
G02Y247742J3949*
G01*
X313281*
G75*
G02X316993Y245143J-3949*
G01*
X325002*
Y254333*
G75*
G02X322402Y258045I1350J3712*
G01*
G75*
G02X330302I3950*
G01*
G75*
G02X327702Y254333I-3950*
G01*
Y245158*
G75*
G02X329277Y243491I225J-1365*
G01*
Y243332*
X334731*
G75*
G02X339837Y247263I5105J-1350*
G01*
G75*
G02X341535Y236982J-5281*
G01*
G75*
G02X345111Y231727I-1699J-5000*
G01*
X362642Y214197*
G75*
G02X363037Y213242I-955J-954*
G01*
Y194002*
G75*
G02X365637Y190289I-1350J-3712*
G01*
G75*
G02X357737I-3950*
G01*
G75*
G02X360337Y194002I3950*
G01*
Y212683*
X344122Y228897*
G75*
G02X334731Y230632I-4286J3085*
G01*
X327702*
Y221757*
G75*
G02X330302Y218045I-1350J-3712*
G01*
G75*
G02X322402I-3950*
G01*
G75*
G02X325002Y221757I3950*
G01*
Y232443*
X316993*
X322081Y388751D02*
G75*
G02X316136Y384236I-5945J1656D01*
G01*
G75*
G02Y396579J6171*
G01*
G75*
G02X322081Y392064J-6171*
G01*
G75*
G02X328026Y396579I5945J-1656*
G01*
G75*
G02Y384236J-6171*
G01*
G75*
G02X322081Y388751J6171*
G01*
X327947Y352796D02*
G75*
G02Y360696J3950D01*
G01*
G75*
G02Y352796J-3950*
G01*
X328026Y378562D02*
G75*
G02Y366820J-5871D01*
G01*
G75*
G02Y378562J5871*
G01*
X344838Y337264D02*
G75*
G02Y347567I609J5151D01*
G01*
G75*
G02X345447Y357302I609J4849*
G01*
G75*
G02X346056Y347567J-4887*
G01*
G75*
G02X350598Y343024I-609J-5151*
G01*
G75*
G02X355447Y347302I4849J-609*
G01*
G75*
G02Y337528J-4887*
G01*
G75*
G02X350598Y341806J4887*
G01*
G75*
G02X346056Y337264I-5151J609*
G01*
G75*
G02X345447Y327528I-609J-4849*
G01*
G75*
G02X344838Y337264J4887*
G01*
X349674Y17595D02*
G75*
G02X344463Y10289I-13283J3964D01*
G01*
G75*
G02X328321Y32829I-8071J11270*
G01*
G75*
G02X349686Y25484I8071J-11270*
G01*
G75*
G02X349674Y17595I-219J-3944*
G01*
X353616Y378562D02*
G75*
G02Y366820J-5871D01*
G01*
G75*
G02Y378562J5871*
G01*
Y396579D02*
G75*
G02Y384236J-6171D01*
G01*
G75*
G02Y396579J6171*
G01*
X355447Y357302D02*
G75*
G02Y347528J-4887D01*
G01*
G75*
G02Y357302J4887*
G01*
Y411003D02*
G75*
G02Y398867J-6068D01*
G01*
G75*
G02Y411003J6068*
G01*
X359837Y41280D02*
G75*
G02Y49180J3950D01*
G01*
G75*
G02Y41280J-3950*
G01*
X361672Y17290D02*
G75*
G02Y25790J4250D01*
G01*
G75*
G02Y17290J-4250*
G01*
Y74809D02*
G75*
G02Y83309J4250D01*
G01*
G75*
G02Y74809J-4250*
G01*
X20967Y381549D02*
G36*
Y371707D01*
X34248*
G75*
G02X42748I4250*
G01*
X44391*
G75*
G02X46997Y375421I3950*
G01*
Y381549*
X32906*
G75*
G02X24406I-4250*
G01*
X20967*
G37*
X24406D02*
G36*
G75*
G02X32906I4250D01*
G01*
X46997*
Y387677*
G75*
G02X44391Y391392I1344J3715*
G01*
X42748*
G75*
G02X34248I-4250*
G01*
X20967*
Y381549*
X24406*
G37*
X49684D02*
G36*
Y375421D01*
G75*
G02X52291Y371707I-1344J-3715*
G01*
X54233*
G75*
G02X62133I3950*
G01*
X99758*
X104748Y376697*
G75*
G02X105703Y377092I954J-955*
G01*
X166923*
G75*
G02X167878Y376697I0J-1350*
G01*
X169357Y375218*
G75*
G02X174768Y371707I1464J-3669*
G01*
X180376*
Y381549*
X175071*
G75*
G02X166571I-4250*
G01*
X133220*
G75*
G02X124720I-4250*
G01*
X93384*
G75*
G02X87730Y373276I-5654J-2205*
G01*
G75*
G02X82077Y381549J6068*
G01*
X71976*
G75*
G02X64076I-3950*
G01*
X49684*
G37*
X64076D02*
G36*
G75*
G02X64339Y382967I3950D01*
G01*
X61999Y385306*
G75*
G02X61557Y386372I1066J1066*
G01*
Y389339*
G75*
G02X54233Y391392I-3374J2053*
G01*
X52291*
G75*
G02X49684Y387677I-3950*
G01*
Y381549*
X64076*
G37*
X82077D02*
G36*
G75*
G02X87730Y385413I5654J-2205D01*
G01*
G75*
G02X93384Y381549J-6068*
G01*
X124720*
G75*
G02X133220I4250*
G01*
X166571*
G75*
G02X175071I4250*
G01*
X180376*
Y391392*
X174768*
G75*
G02X166874I-3947J157*
G01*
X132917*
G75*
G02X125258Y390199I-3947J157*
G01*
X106589*
G75*
G02X105634Y390594I0J1350*
G01*
X104837Y391392*
X64572*
Y386996*
X66414Y385156*
G75*
G02X71976Y381549I1612J-3606*
G01*
X82077*
G37*
X183077D02*
G36*
Y371707D01*
X200376*
Y381549*
X183077*
G37*
X200376D02*
G36*
Y391392D01*
X183077*
Y381549*
X200376*
G37*
X203076D02*
G36*
Y371707D01*
X208764*
G75*
G02X216657I3947J-157*
G01*
X220376*
Y376136*
G75*
G02X220772Y377091I1350J0*
G01*
X225230Y381549*
X216961*
G75*
G02X208461I-4250*
G01*
X203076*
G37*
X208461D02*
G36*
G75*
G02X216961I4250D01*
G01*
X225230*
X228744Y385063*
G75*
G02X229499Y385443I954J-955*
G01*
X235447Y391392*
X228085*
X227287Y390594*
G75*
G02X226333Y390199I-954J955*
G01*
X216423*
G75*
G02X208764Y391392I-3712J1350*
G01*
X203076*
Y381549*
X208461*
G37*
X229049D02*
G36*
X223076Y375577D01*
Y371707*
X250614*
G75*
G02X258273Y372899I3947J-157*
G01*
X262159*
G75*
G02X263114Y372504I0J-1350*
G01*
X263911Y371707*
X284757*
G75*
G02X290545Y378562I5788J984*
G01*
G75*
G02X296333Y371707J-5871*
G01*
X310348*
G75*
G02X316136Y378562I5788J984*
G01*
G75*
G02X321924Y371707J-5871*
G01*
X322237*
G75*
G02X328026Y378562I5788J984*
G01*
G75*
G02X333814Y371707J-5871*
G01*
X347828*
G75*
G02X353616Y378562I5788J984*
G01*
G75*
G02X359404Y371707J-5871*
G01*
X366423*
Y381549*
X258811*
G75*
G02X250311I-4250*
G01*
X229049*
G37*
X250311D02*
G36*
G75*
G02X258811I4250D01*
G01*
X366423*
Y391392*
X359708*
G75*
G02X353616Y384236I-6092J-984*
G01*
G75*
G02X347524Y391392J6171*
G01*
X334118*
G75*
G02X328026Y384236I-6092J-984*
G01*
G75*
G02X322081Y388751J6171*
G01*
G75*
G02X316136Y384236I-5945J1656*
G01*
G75*
G02X310044Y391392J6171*
G01*
X296637*
G75*
G02X290545Y384236I-6092J-984*
G01*
G75*
G02X284453Y391392J6171*
G01*
X263813*
X263016Y390594*
G75*
G02X262061Y390199I-954J955*
G01*
X258273*
G75*
G02X250614Y391392I-3712J1350*
G01*
X239266*
X231028Y383154*
G75*
G02X230273Y382773I-954J955*
G01*
X229049Y381549*
X250311*
G37*
X20967Y299974D02*
G36*
Y292317D01*
X21360*
Y299974*
X20967*
G37*
X21361Y299975D02*
G36*
Y315506D01*
G75*
G02X21756Y316461I1350J0*
G01*
X21982Y316687*
X20967*
Y299975*
X21361*
G37*
X24061D02*
G36*
Y274691D01*
X27306*
Y277386*
G75*
G02X24863Y281037I1507J3651*
G01*
G75*
G02X32763I3950*
G01*
G75*
G02X30320Y277386I-3950*
G01*
Y274691*
X41800*
G75*
G02X44561Y285122I2761J4850*
G01*
G75*
G02X47322Y274691J-5581*
G01*
X63297*
G75*
G02X63587Y275122I1244J-524*
G01*
X68803Y280339*
G75*
G02X69758Y280734I954J-955*
G01*
X78026*
G75*
G02X78868Y280439J-1350*
G01*
X131443*
X139674Y288670*
G75*
G02X138040Y292317I3253J3647*
G01*
X137814*
G75*
G02X132863Y287430I-4887*
G01*
X128587Y283154*
G75*
G02X127632Y282758I-954J955*
G01*
X98006*
G75*
G02X97051Y283154I0J1350*
G01*
X80230Y299975*
X70510*
Y292963*
X58376*
Y299975*
X24061*
G37*
X58376D02*
G36*
Y305096D01*
X70510*
Y299975*
X80230*
X70772Y309433*
G75*
G02X70376Y310388I955J954*
G01*
Y340870*
G75*
G02X67235Y340602I-1878J3475*
G01*
X57295Y330661*
G75*
G02X57716Y328596I-4860J-2065*
G01*
G75*
G02X47435Y326898I-5281*
G01*
G75*
G02X37330Y327246I-5000J1699*
G01*
X29848*
Y324849*
G75*
G02X32763Y321037I-1035J-3812*
G01*
G75*
G02X26770Y317657I-3950*
G01*
X24061Y314947*
Y299975*
X58376*
G37*
X84048D02*
G36*
X91706Y292317D01*
X118040*
G75*
G02X127814I4887*
G01*
X128040*
G75*
G02X137814I4887*
G01*
X138040*
G75*
G02X147814I4887*
G01*
X148040*
G75*
G02X157624Y293667I4887*
G01*
X167116*
Y299975*
X157217*
G75*
G02X148638I-4289J2342*
G01*
X147217*
G75*
G02X138638I-4289J2342*
G01*
X137217*
G75*
G02X128638I-4289J2342*
G01*
X127217*
G75*
G02X118638I-4289J2342*
G01*
X108305*
Y292963*
X96171*
Y299975*
X84048*
G37*
X96171D02*
G36*
Y305096D01*
X108305*
Y299975*
X118638*
G75*
G02X118040Y302317I4289J2342*
G01*
G75*
G02X127814I4887*
G01*
G75*
G02X127217Y299975I-4887J0*
G01*
X128638*
G75*
G02X128040Y302317I4289J2342*
G01*
G75*
G02X131564Y307010I4887*
G01*
Y316687*
X73076*
Y310947*
X84048Y299975*
X96171*
G37*
X138638D02*
G36*
G75*
G02X138040Y302317I4289J2342D01*
G01*
G75*
G02X142725Y307200I4887*
G01*
X152097Y316572*
G75*
G02X152226Y316687I1065J-1067*
G01*
X135039*
Y306724*
G75*
G02X137814Y302317I-2111J-4407*
G01*
G75*
G02X137217Y299975I-4887J0*
G01*
X138638*
G37*
X148638D02*
G36*
G75*
G02X148040Y302317I4289J2342D01*
G01*
G75*
G02X157624Y303667I4887*
G01*
X157880*
X170900Y316687*
X164410*
X162163Y314440*
G75*
G02X161096Y313998I-1066J1066*
G01*
X153788*
X145948Y306159*
G75*
G02X147814Y302317I-3021J-3842*
G01*
G75*
G02X147217Y299975I-4887J0*
G01*
X148638*
G37*
X167116D02*
G36*
Y305096D01*
X179250*
Y293667*
X182604*
X200376Y311439*
Y316687*
X174718*
X159394Y301362*
G75*
G02X158439Y300967I-954J955*
G01*
X157624*
G75*
G02X157217Y299975I-4697J1350*
G01*
X167116*
G37*
X192731D02*
G36*
X185073Y292317D01*
X190731*
Y295427*
G75*
G02X191126Y296382I1350J0*
G01*
X194719Y299975*
X192731*
G37*
X194719D02*
G36*
X206185Y311441D01*
G75*
G02X207140Y311836I954J-955*
G01*
X255321*
X260172Y316687*
X203076*
Y310880*
G75*
G02X202681Y309925I-1350J0*
G01*
X192731Y299975*
X194719*
G37*
X198537D02*
G36*
X193431Y294868D01*
Y274388*
X206652*
Y265824*
X213585Y272758*
Y280663*
G75*
G02X213980Y281618I1350J0*
G01*
X232337Y299975*
X217045*
Y292963*
X204911*
Y299975*
X198537*
G37*
X204911D02*
G36*
Y305096D01*
X217045*
Y299975*
X232337*
X240654Y308291*
G75*
G02X241608Y308687I954J-955*
G01*
X244266*
G75*
G02X245220Y308291I0J-1350*
G01*
X251440Y302071*
G75*
G02X257652Y299975I1782J-4971*
G01*
X275856*
Y305096*
X287990*
Y299975*
X295034*
X296953Y301894*
G75*
G02X297611Y302256I954J-955*
G01*
X300790Y305435*
Y316687*
X263990*
X256835Y309531*
G75*
G02X255880Y309136I-954J955*
G01*
X207699*
X198537Y299975*
X204911*
G37*
X257652D02*
G36*
G75*
G02X258028Y294912I-4430J-2874D01*
G01*
X260624Y292317*
X287376*
X295034Y299975*
X287990*
Y292963*
X275856*
Y299975*
X257652*
G37*
X299148D02*
G36*
G75*
G02X298500Y299622I-945J965D01*
G01*
X291194Y292317*
X299313*
Y294482*
G75*
G02X299755Y295548I1507J0*
G01*
X304181Y299975*
X299148*
G37*
X304181D02*
G36*
X313200Y308993D01*
G75*
G02X314266Y309435I1066J-1066*
G01*
X331358*
X338610Y316687*
X337170*
G75*
G02X332457Y315337I-2550*
G01*
X310406*
G75*
G02X305692Y316687I-2163J1350*
G01*
X303490*
Y304876*
G75*
G02X303094Y303921I-1350J0*
G01*
X299157Y299984*
G75*
G02X299148Y299975I-959J950*
G01*
X304181*
G37*
X355601D02*
G36*
X354057Y298431D01*
G75*
G02X353976Y298354I-1232J1226*
G01*
Y294935*
G75*
G02X353467Y293707I-1737J0*
G01*
X352077Y292317*
X364806*
Y299975*
X355601*
G37*
X364806D02*
G36*
Y316687D01*
X363621*
Y308715*
G75*
G02X363112Y307486I-1737J0*
G01*
X355601Y299975*
X364806*
G37*
X20967Y230566D02*
G36*
Y223793D01*
X26000*
G75*
G02X30250Y228043I4250*
G01*
X35250*
G75*
G02X39500Y223793J-4250*
G01*
X52030*
Y230566*
X38015*
G75*
G02X35250Y229543I-2765J3227*
G01*
X30250*
G75*
G02X27485Y230566J4250*
G01*
X20967*
G37*
X27485D02*
G36*
G75*
G02X30250Y238043I2765J3227D01*
G01*
X35250*
G75*
G02X38015Y230566J-4250*
G01*
X52030*
Y247854*
X46091Y253793*
X39199*
G75*
G02X35250Y249844I-3949*
G01*
X30250*
G75*
G02X26301Y253793J3949*
G01*
X24061*
Y251203*
X28135Y247128*
G75*
G02X30250Y247742I2114J-3335*
G01*
X35250*
G75*
G02Y239844J-3949*
G01*
X30250*
G75*
G02X26479Y244966J3949*
G01*
X21756Y249689*
G75*
G02X21361Y250644I955J954*
G01*
Y253793*
X20967*
Y230566*
X27485*
G37*
X55045D02*
G36*
Y223793D01*
X56000*
G75*
G02X60250Y228043I4250*
G01*
X65250*
G75*
G02X69500Y223793J-4250*
G01*
X83970*
X79039Y228724*
G75*
G02X78644Y229679I955J954*
G01*
Y230814*
G75*
G02X76019Y232443I1350J5105*
G01*
X68961*
G75*
G02X65250Y229844I-3711J1350*
G01*
X60250*
G75*
G02X57974Y230566J3949*
G01*
X55045*
G37*
X57974D02*
G36*
G75*
G02X60250Y237742I2276J3227D01*
G01*
X65250*
G75*
G02X68961Y235143J-3949*
G01*
X74771*
G75*
G02X78295Y240919I5223J776*
G01*
G75*
G02X76019Y242443I1699J5000*
G01*
X68961*
G75*
G02X65250Y239844I-3711J1350*
G01*
X60250*
G75*
G02Y247742J3949*
G01*
X65250*
G75*
G02X68961Y245143J-3949*
G01*
X74771*
G75*
G02X82650Y250484I5224J776*
G01*
X85959Y253793*
X69199*
G75*
G02X65250Y249844I-3949*
G01*
X60250*
G75*
G02X56301Y253793J3949*
G01*
X50355*
X54604Y249544*
G75*
G02X55045Y248478I-1066J-1066*
G01*
Y230566*
X57974*
G37*
X217466D02*
G36*
Y224049D01*
G75*
G02X217442Y223793I-1350J0*
G01*
X231918*
Y230230*
G75*
G02X231210Y230566I1738J4568*
G01*
X217466*
G37*
X231210D02*
G36*
G75*
G02X228769Y234797I2445J4231D01*
G01*
G75*
G02X238543I4887*
G01*
G75*
G02X235393Y230230I-4887*
G01*
Y214108*
X241091*
G75*
G02X237461Y218045I320J3937*
G01*
G75*
G02X245361I3950*
G01*
G75*
G02X241731Y214108I-3950*
G01*
X264713*
G75*
G02X261083Y218045I320J3937*
G01*
G75*
G02X261239Y219143I3949J0*
G01*
X253662Y226720*
G75*
G02X253222Y226702I-442J5261*
G01*
G75*
G02X248146Y233437J5281*
G01*
X227790Y253793*
X217466*
Y230566*
X231210*
G37*
X258310D02*
G36*
G75*
G02X256420Y227780I-5087J1416D01*
G01*
X260407Y223793*
X274333*
G75*
G02X278281Y227742I3949*
G01*
X283281*
G75*
G02X287230Y223793J-3949*
G01*
X292606*
X291133Y225267*
G75*
G02X290691Y226333I1066J1066*
G01*
Y230566*
X286047*
G75*
G02X283281Y229543I-2765J3227*
G01*
X278281*
G75*
G02X275516Y230566J4250*
G01*
X258310*
G37*
X275516D02*
G36*
G75*
G02X278281Y238043I2765J3227D01*
G01*
X283281*
G75*
G02X286047Y230566J-4250*
G01*
X290691*
Y244015*
X284626Y250080*
G75*
G02X283281Y249844I-1344J3713*
G01*
X278281*
G75*
G02X275442Y256538J3949*
G01*
X268685*
G75*
G02X263167Y254564I-3651J1507*
G01*
X255397Y246794*
G75*
G02X254921Y236982I-2174J-4812*
G01*
G75*
G02X256436Y236173I-1698J-5000*
G01*
X265046Y244855*
G75*
G02X266116Y245301I1070J-1061*
G01*
X274632*
G75*
G02X278281Y247742I3650J-1507*
G01*
X283281*
G75*
G02Y239844J-3949*
G01*
X278281*
G75*
G02X274632Y242286J3949*
G01*
X266744*
X258220Y233689*
G75*
G02X258310Y230566I-4997J-1707*
G01*
X275516*
G37*
X293706D02*
G36*
Y226957D01*
X296870Y223793*
X304031*
G75*
G02X308281Y228043I4250*
G01*
X313281*
G75*
G02X317531Y223793J-4250*
G01*
X325002*
Y232443*
X316993*
G75*
G02X313281Y229844I-3711J1350*
G01*
X308281*
G75*
G02X306006Y230566J3949*
G01*
X293706*
G37*
X306006D02*
G36*
G75*
G02X308281Y237742I2276J3227D01*
G01*
X313281*
G75*
G02X316993Y235143J-3949*
G01*
X326352*
G75*
G02X327702Y233793J-1350*
G01*
Y233332*
X334731*
G75*
G02X338138Y236982I5105J-1350*
G01*
G75*
G02X334731Y240632I1699J5000*
G01*
X327927*
G75*
G02X326577Y241982J1350*
G01*
Y242443*
X316993*
G75*
G02X313281Y239844I-3711J1350*
G01*
X308281*
G75*
G02Y247742J3949*
G01*
X313281*
G75*
G02X316993Y245143J-3949*
G01*
X325002*
Y253793*
X317230*
G75*
G02X313281Y249844I-3949*
G01*
X308281*
G75*
G02X304333Y253793J3949*
G01*
X287230*
G75*
G02X286856Y252115I-3949J0*
G01*
X293265Y245706*
G75*
G02X293706Y244640I-1066J-1066*
G01*
Y230566*
X306006*
G37*
X346272D02*
G36*
X353045Y223793D01*
X366423*
Y244390*
X365252Y243243*
G75*
G02X363096Y238115I-3663J-1477*
G01*
Y233980*
G75*
G02X365637Y230289I-1409J-3690*
G01*
G75*
G02X357737I-3950*
G01*
G75*
G02X357747Y230566I3949J-2*
G01*
X346272*
G37*
X357747D02*
G36*
G75*
G02X360081Y233898I3940J-277D01*
G01*
Y238115*
G75*
G02X357639Y241766I1507J3651*
G01*
G75*
G02X363143Y245397I3950*
G01*
X364806Y247026*
Y253793*
X327702*
Y245158*
G75*
G02X329277Y243491I225J-1365*
G01*
Y243332*
X334731*
G75*
G02X339837Y247263I5105J-1350*
G01*
G75*
G02X341535Y236982J-5281*
G01*
G75*
G02X345111Y231727I-1699J-5000*
G01*
X346272Y230566*
X357747*
G37*
X20967Y45821D02*
G36*
Y21540D01*
X25242*
G75*
G02X29192Y25490I3950*
G01*
G75*
G02X33142Y21540J-3950*
G01*
X34541*
G75*
G02X40329Y32533I13859J-276*
G01*
G75*
G02X61604Y25481I8071J-11270*
G01*
G75*
G02X61869Y25490I267J-3939*
G01*
G75*
G02X65819Y21540J-3950*
G01*
X69824*
G75*
G02X74074Y25790I4250*
G01*
G75*
G02X78324Y21540J-4250*
G01*
X82761*
G75*
G02X86711Y25490I3950*
G01*
G75*
G02X89158Y18439J-3950*
G01*
X99541Y8057*
X102941*
G75*
G02X98006Y32829I3135J13502*
G01*
G75*
G02X119369Y25490I8071J-11270*
G01*
G75*
G02X119389I10J-3976*
G01*
G75*
G02X122109Y24404J-3950*
G01*
Y41392*
G75*
G02X122564Y42471I1508*
G01*
X123887Y43761*
G75*
G02X123648Y45821I3667J1469*
G01*
X91459*
G75*
G02X87553Y41280I-3906J-591*
G01*
G75*
G02X83648Y45821J3950*
G01*
X72448*
G75*
G02X68498Y41871I-3950*
G01*
G75*
G02X64548Y45821J3950*
G01*
X32448*
G75*
G02X28498Y41871I-3950*
G01*
G75*
G02X24548Y45821J3950*
G01*
X20967*
G37*
X24548D02*
G36*
G75*
G02X28498Y49771I3950D01*
G01*
G75*
G02X32448Y45821J-3950*
G01*
X64548*
G75*
G02X68498Y49771I3950*
G01*
G75*
G02X72448Y45821J-3950*
G01*
X83648*
G75*
G02X87553Y49180I3906J-591*
G01*
G75*
G02X91459Y45821J-3950*
G01*
X123648*
G75*
G02X127553Y49180I3906J-591*
G01*
G75*
G02X131459Y45821J-3950*
G01*
X142703*
G75*
G02X146608Y49180I3906J-591*
G01*
G75*
G02X150514Y45821J-3950*
G01*
X182703*
G75*
G02X186608Y49180I3906J-591*
G01*
G75*
G02X190514Y45821J-3950*
G01*
X197776*
G75*
G02X201726Y49771I3950*
G01*
G75*
G02X205676Y45821J-3950*
G01*
X237776*
G75*
G02X241726Y49771I3950*
G01*
G75*
G02X245676Y45821J-3950*
G01*
X256831*
G75*
G02X260781Y49771I3950*
G01*
G75*
G02X264731Y45821J-3950*
G01*
X296831*
G75*
G02X300781Y49771I3950*
G01*
G75*
G02X304731Y45821J-3950*
G01*
X315931*
G75*
G02X318329Y48881I3906J-591*
G01*
Y49167*
G75*
G02X318770Y50233I1507J0*
G01*
X321110Y52573*
X315175*
G75*
G02X309187Y47489I-5988J984*
G01*
G75*
G02X303199Y52573J6068*
G01*
X85924*
G75*
G02X79856Y46505I-6068*
G01*
G75*
G02X73788Y52573J6068*
G01*
X20967*
Y45821*
X24548*
G37*
X131459D02*
G36*
G75*
G02X127553Y41280I-3906J-591D01*
G01*
G75*
G02X125991Y41602I0J3950*
G01*
X125124Y40756*
Y21540*
X127343*
G75*
G02X131593Y25790I4250*
G01*
G75*
G02X135843Y21540J-4250*
G01*
X140281*
G75*
G02X144231Y25490I3950*
G01*
G75*
G02X148181Y21540J-3950*
G01*
X149414*
G75*
G02X155191Y33419I13848J610*
G01*
G75*
G02X176716Y25485I8071J-11270*
G01*
G75*
G02X176908Y25490I193J-3945*
G01*
G75*
G02X180858Y21540J-3950*
G01*
X180869*
Y32337*
G75*
G02X181310Y33403I1507J0*
G01*
X185101Y37193*
Y41579*
G75*
G02X182703Y45821I1507J3651*
G01*
X150514*
G75*
G02X146608Y41280I-3906J-591*
G01*
G75*
G02X142703Y45821J3950*
G01*
X131459*
G37*
X190514D02*
G36*
G75*
G02X188116Y41579I-3906J-591D01*
G01*
Y36569*
G75*
G02X187674Y35503I-1507J0*
G01*
X183883Y31712*
Y21540*
X184863*
G75*
G02X189113Y25790I4250*
G01*
G75*
G02X193363Y21540J-4250*
G01*
X197801*
G75*
G02X201751Y25490I3950*
G01*
G75*
G02X203319Y17914J-3950*
G01*
X213333Y7899*
X218878*
G75*
G02X213163Y32829I2357J13660*
G01*
G75*
G02X234527Y25489I8071J-11270*
G01*
G75*
G02X234516Y17591I-99J-3949*
G01*
G75*
G02X223591Y7899I-13281J3969*
G01*
X229750*
X240376Y18526*
Y42109*
G75*
G02X237776Y45821I1350J3712*
G01*
X205676*
G75*
G02X201726Y41871I-3950*
G01*
G75*
G02X197776Y45821J3950*
G01*
X190514*
G37*
X245676D02*
G36*
G75*
G02X243076Y42109I-3950D01*
G01*
Y23867*
G75*
G02X246633Y25790I3556J-2327*
G01*
G75*
G02X250883Y21540J-4250*
G01*
X255320*
G75*
G02X259270Y25490I3950*
G01*
G75*
G02X259431Y25487I3J-3949*
G01*
Y42109*
G75*
G02X256831Y45821I1350J3712*
G01*
X245676*
G37*
X264731D02*
G36*
G75*
G02X262131Y42109I-3950D01*
G01*
Y24263*
G75*
G02X263220Y21540I-2861J-2724*
G01*
X265052*
G75*
G02X270841Y32533I13859J-276*
G01*
G75*
G02X292114Y25486I8071J-11270*
G01*
G75*
G02X295898Y21540I-167J-3946*
G01*
X299902*
G75*
G02X304152Y25790I4250*
G01*
G75*
G02X308402Y21540J-4250*
G01*
X312840*
G75*
G02X316790Y25490I3950*
G01*
G75*
G02X320740Y21540J-3950*
G01*
X322530*
G75*
G02X328321Y32829I13861J19*
G01*
G75*
G02X349686Y25484I8071J-11270*
G01*
G75*
G02X353417Y21540I-219J-3944*
G01*
X357422*
G75*
G02X361672Y25790I4250*
G01*
G75*
G02X365922Y21540J-4250*
G01*
X366423*
Y45821*
X363742*
G75*
G02X359837Y41280I-3906J-591*
G01*
G75*
G02X355931Y45821J3950*
G01*
X323742*
G75*
G02X319837Y41280I-3906J-591*
G01*
G75*
G02X315931Y45821J3950*
G01*
X304731*
G75*
G02X300781Y41871I-3950*
G01*
G75*
G02X296831Y45821J3950*
G01*
X264731*
G37*
X355931D02*
G36*
G75*
G02X359837Y49180I3906J-591D01*
G01*
G75*
G02X363742Y45821J-3950*
G01*
X366423*
Y79059*
X365922*
G75*
G02X361672Y74809I-4250*
G01*
G75*
G02X357422Y79059J4250*
G01*
X355124*
Y73183*
G75*
G02X354682Y72117I-1507J0*
G01*
X341395Y58830*
G75*
G02X340329Y58388I-1066J1066*
G01*
X331189*
X321577Y48776*
G75*
G02X323742Y45821I-1741J-3546*
G01*
X355931*
G37*
X20967Y21540D02*
G36*
Y4982D01*
X366423*
Y21540*
X365922*
G75*
G02X361672Y17290I-4250*
G01*
G75*
G02X357422Y21540J4250*
G01*
X353417*
G75*
G02X349674Y17595I-3950*
G01*
G75*
G02X344463Y10289I-13283J3964*
G01*
G75*
G02X322530Y21540I-8071J11270*
G01*
X320740*
G75*
G02X316790Y17590I-3950*
G01*
G75*
G02X312840Y21540J3950*
G01*
X308402*
G75*
G02X304152Y17290I-4250*
G01*
G75*
G02X299902Y21540J4250*
G01*
X295898*
G75*
G02X292281Y17604I-3950*
G01*
G75*
G02X286982Y9994I-13370J3660*
G01*
G75*
G02X265052Y21540I-8071J11270*
G01*
X263220*
G75*
G02X259270Y17590I-3950*
G01*
G75*
G02X255320Y21540J3950*
G01*
X250883*
G75*
G02X246633Y17290I-4250*
G01*
G75*
G02X243076Y19213J4250*
G01*
Y17967*
G75*
G02X242681Y17012I-1350J0*
G01*
X231264Y5594*
G75*
G02X230309Y5199I-954J955*
G01*
X212774*
G75*
G02X211820Y5594I0J1350*
G01*
X200796Y16618*
G75*
G02X200401Y17573I955J954*
G01*
Y17828*
G75*
G02X197801Y21540I1350J3712*
G01*
X193363*
G75*
G02X189113Y17290I-4250*
G01*
G75*
G02X184863Y21540J4250*
G01*
X183883*
Y16884*
G75*
G02X183437Y15813I-1507*
G01*
X173102Y5577*
G75*
G02X172041Y5140I-1061J1071*
G01*
X154074*
G75*
G02X153007Y5581I0J1507*
G01*
X143165Y15424*
G75*
G02X142724Y16490I1066J1066*
G01*
Y17889*
G75*
G02X140281Y21540I1507J3651*
G01*
X135843*
G75*
G02X131593Y17290I-4250*
G01*
G75*
G02X127343Y21540J4250*
G01*
X125124*
Y17081*
G75*
G02X124682Y16015I-1507J0*
G01*
X114151Y5483*
G75*
G02X113085Y5042I-1066J1066*
G01*
X98916*
G75*
G02X97850Y5483I0J1507*
G01*
X85645Y17688*
G75*
G02X85583Y17754I1069J1061*
G01*
G75*
G02X82761Y21540I1128J3785*
G01*
X78324*
G75*
G02X74074Y17290I-4250*
G01*
G75*
G02X69824Y21540J4250*
G01*
X65819*
G75*
G02X61869Y17590I-3950*
G01*
G75*
G02X61766Y17591I-6J3954*
G01*
G75*
G02X56470Y9994I-13366J3673*
G01*
G75*
G02X34541Y21540I-8071J11270*
G01*
X33142*
G75*
G02X29192Y17590I-3950*
G01*
G75*
G02X25242Y21540J3950*
G01*
X20967*
G37*
X148181D02*
G36*
G75*
G02X145739Y17889I-3950D01*
G01*
Y17115*
X154698Y8155*
X171421*
X180869Y17513*
Y21540*
X180858*
G75*
G02X176908Y17590I-3950*
G01*
G75*
G02X176365Y17627I-1J3950*
G01*
G75*
G02X171333Y10880I-13103J4522*
G01*
G75*
G02X149414Y21540I-8071J11270*
G01*
X148181*
G37*
X23746Y79059D02*
G36*
Y77351D01*
X39890Y61206*
X66789*
X83066Y77538*
G75*
G02X82761Y79059I3645J1521*
G01*
X78324*
G75*
G02X74074Y74809I-4250*
G01*
G75*
G02X69824Y79059J4250*
G01*
X66119*
G75*
G02X61869Y74809I-4250*
G01*
G75*
G02X61603Y74818I-1J4249*
G01*
G75*
G02X56470Y67770I-13203J4222*
G01*
G75*
G02X34538Y79059I-8071J11270*
G01*
X33142*
G75*
G02X29192Y75109I-3950*
G01*
G75*
G02X25242Y79059J3950*
G01*
X23746*
G37*
X25242D02*
G36*
G75*
G02X29192Y83009I3950D01*
G01*
G75*
G02X33142Y79059J-3950*
G01*
X34538*
G75*
G02X40329Y90309I13861J-20*
G01*
G75*
G02X61590Y83300I8071J-11270*
G01*
G75*
G02X61869Y83309I277J-4240*
G01*
G75*
G02X66119Y79059J-4250*
G01*
X69824*
G75*
G02X74074Y83309I4250*
G01*
G75*
G02X78324Y79059J-4250*
G01*
X82761*
G75*
G02X86711Y83009I3950*
G01*
G75*
G02Y75109J-3950*
G01*
G75*
G02X85202Y75409I0J3950*
G01*
X68483Y58635*
G75*
G02X67415Y58191I-1068J1064*
G01*
X39266*
G75*
G02X38200Y58633I0J1507*
G01*
X21172Y75660*
G75*
G02X20967Y75917I1067J1065*
G01*
Y52573*
X73788*
G75*
G02X79856Y58641I6068*
G01*
G75*
G02X85924Y52573J-6068*
G01*
X303199*
G75*
G02X309187Y59625I5988J984*
G01*
G75*
G02X315175Y52573J-6068*
G01*
X321110*
X329499Y60962*
G75*
G02X330565Y61403I1066J-1066*
G01*
X339704*
X352109Y73807*
Y76122*
G75*
G02X349686Y75115I-2642J2937*
G01*
G75*
G02X325512Y70450I-13294J3924*
G01*
X315980Y60918*
G75*
G02X314640Y60363I-1340J1340*
G01*
X139640*
G75*
G02X138300Y60918I0J1895*
G01*
X128261Y70957*
G75*
G02X128246Y70972I1340J1354*
G01*
X123620Y75696*
G75*
G02X123081Y76955I1354J1326*
G01*
G75*
G02X119574Y74813I-3693J2105*
G01*
G75*
G02X114443Y67770I-13202J4226*
G01*
G75*
G02X98301Y90309I-8071J11270*
G01*
G75*
G02X115201Y89726I8071J-11270*
G01*
X102276Y102650*
G75*
G02X101933Y103119I1339J1341*
G01*
G75*
G02X98335Y108124I1683J5006*
G01*
G75*
G02X99692Y111657I5281*
G01*
X70692*
G75*
G02X71953Y108124I-4320J-3533*
G01*
G75*
G02X61209Y106006I-5581*
G01*
G75*
G02X51361Y106459I-4837J2119*
G01*
X41196*
G75*
G02X40526Y106302I-671J1350*
G01*
X36187*
X35730Y105804*
G75*
G02X35686Y105759I-1119J1017*
G01*
X32719Y102792*
G75*
G02X24863Y103380I-3906J588*
G01*
G75*
G02X31719Y106056I3950*
G01*
X33532Y107869*
X34416Y108830*
G75*
G02X35526Y109317I1109J-1021*
G01*
X38959*
Y111657*
X23746*
Y79059*
X25242*
G37*
X126869D02*
G36*
Y77795D01*
X130948Y73630*
X140425Y64153*
X313855*
X323542Y73840*
G75*
G02X322530Y79059I12849J5199*
G01*
X320740*
G75*
G02X316790Y75109I-3950*
G01*
G75*
G02X312840Y79059J3950*
G01*
X308402*
G75*
G02X304152Y74809I-4250*
G01*
G75*
G02X299902Y79059J4250*
G01*
X295898*
G75*
G02X292092Y75112I-3950*
G01*
G75*
G02X286785Y67474I-13377J3631*
G01*
G75*
G02X264857Y79059I-8071J11270*
G01*
X263220*
G75*
G02X259270Y75109I-3950*
G01*
G75*
G02X255320Y79059J3950*
G01*
X250883*
G75*
G02X246633Y74809I-4250*
G01*
G75*
G02X242383Y79059J4250*
G01*
X238378*
G75*
G02X234767Y75124I-3950*
G01*
G75*
G02X229600Y67967I-13238J4113*
G01*
G75*
G02X207669Y79059I-8071J11270*
G01*
X205701*
G75*
G02X201751Y75109I-3950*
G01*
G75*
G02X197801Y79059J3950*
G01*
X193363*
G75*
G02X189113Y74809I-4250*
G01*
G75*
G02X184863Y79059J4250*
G01*
X180858*
G75*
G02X176908Y75109I-3950*
G01*
G75*
G02X176502Y75130I-1J3949*
G01*
G75*
G02X171333Y67967I-13239J4106*
G01*
G75*
G02X149401Y79059I-8071J11270*
G01*
X148181*
G75*
G02X144231Y75109I-3950*
G01*
G75*
G02X140281Y79059J3950*
G01*
X135843*
G75*
G02X131593Y74809I-4250*
G01*
G75*
G02X127343Y79059J4250*
G01*
X126869*
G37*
X127343D02*
G36*
G75*
G02X131593Y83309I4250D01*
G01*
G75*
G02X135843Y79059J-4250*
G01*
X140281*
G75*
G02X144231Y83009I3950*
G01*
G75*
G02X148181Y79059J-3950*
G01*
X149401*
G75*
G02X155191Y90506I13860J177*
G01*
G75*
G02X176603Y82998I8071J-11270*
G01*
G75*
G02X176908Y83009I305J-3940*
G01*
G75*
G02X180858Y79059J-3950*
G01*
X184863*
G75*
G02X189113Y83309I4250*
G01*
G75*
G02X193363Y79059J-4250*
G01*
X197801*
G75*
G02X201751Y83009I3950*
G01*
G75*
G02X205701Y79059J-3950*
G01*
X207669*
G75*
G02X213459Y90506I13860J177*
G01*
G75*
G02X234875Y82984I8071J-11270*
G01*
G75*
G02X238378Y79059I-447J-3925*
G01*
X242383*
G75*
G02X246633Y83309I4250*
G01*
G75*
G02X250883Y79059J-4250*
G01*
X255320*
G75*
G02X255861Y81054I3950J0*
G01*
X239552Y97365*
X239069*
G75*
G02X237997Y97812J1507*
G01*
X231411Y104469*
G75*
G02X229915Y104174I-1496J3656*
G01*
G75*
G02X228731Y111892J3950*
G01*
X222778*
X213134Y102248*
G75*
G02X212179Y101853I-954J955*
G01*
X186785*
G75*
G02X185831Y102248I0J1350*
G01*
X182780Y105299*
G75*
G02X182384Y106254I955J954*
G01*
Y106614*
G75*
G02X178734Y104174I-3650J1510*
G01*
G75*
G02X176969Y111657J3950*
G01*
X141096*
G75*
G02X138734Y103874I-2361J-3533*
G01*
G75*
G02X136373Y111657J4250*
G01*
X117936*
G75*
G02X119197Y108124I-4320J-3533*
G01*
G75*
G02X108453Y106006I-5581*
G01*
G75*
G02X106552Y103734I-4838J2119*
G01*
X118173Y92113*
G75*
G02X118932Y91649I-581J-1804*
G01*
X126314Y84267*
G75*
G02X126869Y82927I-1340J-1340*
G01*
Y79059*
X127343*
G37*
X264857D02*
G36*
G75*
G02X270644Y90014I13858J-315D01*
G01*
G75*
G02X291904Y83009I8071J-11270*
G01*
G75*
G02X291948I22J-3966*
G01*
G75*
G02X295898Y79059J-3950*
G01*
X299902*
G75*
G02X304152Y83309I4250*
G01*
G75*
G02X308402Y79059J-4250*
G01*
X312840*
G75*
G02X316790Y83009I3950*
G01*
G75*
G02X320740Y79059J-3950*
G01*
X322530*
G75*
G02X341591Y91889I13861J-20*
G01*
X344930Y95228*
Y108419*
G75*
G02X345485Y109759I1895J0*
G01*
X351292Y115566*
G75*
G02X352632Y116121I1340J-1340*
G01*
X354871*
G75*
G02X352187Y118585I1028J3814*
G01*
X344234*
X333805Y108156*
Y108124*
G75*
G02X332455Y106774I-1350*
G01*
X319612*
G75*
G02X315900Y104174I-3712J1350*
G01*
G75*
G02X314134Y111657J3950*
G01*
X292798*
G75*
G02X288970Y106733I-3828J-974*
G01*
G75*
G02X285143Y111657J3950*
G01*
X273724*
X265004Y102937*
G75*
G02X264049Y102542I-954J955*
G01*
X242789*
G75*
G02X241472Y103595J1350*
G01*
X233175Y111892*
X231100*
G75*
G02X233555Y106589I-1185J-3768*
G01*
X239698Y100380*
X240176*
G75*
G02X241242Y99938J-1508*
G01*
X258293Y82887*
G75*
G02X259270Y83009I978J-3828*
G01*
G75*
G02X263220Y79059J-3950*
G01*
X264857*
G37*
X357422D02*
G36*
G75*
G02X361672Y83309I4250D01*
G01*
G75*
G02X365922Y79059J-4250*
G01*
X366423*
Y90454*
G75*
G02X366395Y90424I-1102J1029*
G01*
X363245Y87274*
G75*
G02X363239Y87269I-1028J1091*
G01*
X355124Y79246*
Y79059*
X357422*
G37*
X20967Y223793D02*
G36*
Y214108D01*
X52030*
Y223793*
X39500*
G75*
G02X35250Y219543I-4250*
G01*
X30250*
G75*
G02X26000Y223793J4250*
G01*
X20967*
G37*
X55045D02*
G36*
Y214108D01*
X91792*
G75*
G02X92108Y215656I3950J0*
G01*
X83970Y223793*
X69500*
G75*
G02X65250Y219543I-4250*
G01*
X60250*
G75*
G02X56000Y223793J4250*
G01*
X55045*
G37*
X87789D02*
G36*
X93953Y217630D01*
G75*
G02X99692Y214108I1789J-3521*
G01*
X103603*
G75*
G02X111503I3950*
G01*
X168920*
Y218750*
G75*
G02X161163Y219797I-3807J1047*
G01*
Y223793*
X159362*
Y219797*
G75*
G02X150862I-4250*
G01*
Y223793*
X149061*
Y219797*
G75*
G02X141163I-3949*
G01*
Y223793*
X139061*
Y219797*
G75*
G02X131163I-3949*
G01*
Y223793*
X87789*
G37*
X131163D02*
G36*
Y224797D01*
G75*
G02X139061I3949*
G01*
Y223793*
X141163*
Y224797*
G75*
G02X149061I3949*
G01*
Y223793*
X150862*
Y224797*
G75*
G02X159362I4250*
G01*
Y223793*
X161163*
Y224797*
G75*
G02X161391Y226120I3949J0*
G01*
X147562Y239950*
X128288*
G75*
G02X125420Y236850I-4987J1737*
G01*
G75*
G02X123301Y226106I-2119J-5163*
G01*
G75*
G02X121183Y236850J5581*
G01*
G75*
G02X123301Y246968I2119J4837*
G01*
G75*
G02X128288Y243424J-5281*
G01*
X148281*
G75*
G02X149510Y242915I0J-1737*
G01*
X163878Y228548*
G75*
G02X168920Y225844I1235J-3751*
G01*
Y247909*
G75*
G02X160862Y249797I-3807J1888*
G01*
Y253793*
X159362*
Y249797*
G75*
G02X150862I-4250*
G01*
Y253793*
X149061*
Y249797*
G75*
G02X141163I-3949*
G01*
Y253793*
X139061*
Y249797*
G75*
G02X131163I-3949*
G01*
Y253793*
X111491*
G75*
G02X106103Y250434I-3937J315*
G01*
X90634Y234965*
G75*
G02X89679Y234569I-954J955*
G01*
X85099*
G75*
G02X81344Y230814I-5105J1350*
G01*
Y230238*
X87789Y223793*
X131163*
G37*
X217442D02*
G36*
G75*
G02X217071Y223094I-1326J256D01*
G01*
X213556Y219579*
G75*
G02X213865Y218045I-3640J-1533*
G01*
G75*
G02X210235Y214108I-3950*
G01*
X219608*
X222018Y216524*
G75*
G02X221713Y218045I3646J1520*
G01*
G75*
G02X229613I3950*
G01*
G75*
G02X225982Y214108I-3950*
G01*
X231918*
Y223793*
X217442*
G37*
X260407D02*
G36*
X262858Y221343D01*
G75*
G02X268983Y218045I2175J-3297*
G01*
G75*
G02X264713Y214108I-3950*
G01*
X241731*
G75*
G02X241091I-320J3937*
G01*
X235393*
Y202612*
X267327*
G75*
G02X278070Y204731I5581*
G01*
G75*
G02X288188Y202612I4837J-2119*
G01*
X313787*
X292606Y223793*
X287230*
G75*
G02X283281Y219844I-3949*
G01*
X278281*
G75*
G02X274333Y223793J3949*
G01*
X260407*
G37*
X296870D02*
G36*
X306555Y214108D01*
X326032*
G75*
G02X322402Y218045I320J3937*
G01*
G75*
G02X325002Y221757I3950*
G01*
Y223793*
X317531*
G75*
G02X313281Y219543I-4250*
G01*
X308281*
G75*
G02X304031Y223793J4250*
G01*
X296870*
G37*
X353045D02*
G36*
X362642Y214197D01*
G75*
G02X362723Y214108I-954J-955*
G01*
X366423*
Y223793*
X353045*
G37*
X21360Y253793D02*
G36*
Y258045D01*
X20967*
Y253793*
X21360*
G37*
X26301D02*
G36*
G75*
G02X30250Y257742I3949D01*
G01*
X35250*
G75*
G02X39199Y253793J-3949*
G01*
X46091*
X41839Y258045*
X24061*
Y253793*
X26301*
G37*
X56301D02*
G36*
G75*
G02X60250Y257742I3949D01*
G01*
X65250*
G75*
G02X69199Y253793J-3949*
G01*
X85959*
X87228Y255063*
G75*
G02X88183Y255458I954J-955*
G01*
X92030*
G75*
G02X92361Y256151I3712J-1351*
G01*
X90467Y258045*
X46102*
X50355Y253793*
X56301*
G37*
X131163D02*
G36*
Y254797D01*
G75*
G02X132867Y258045I3949*
G01*
X107873*
G75*
G02X111503Y254108I-320J-3937*
G01*
G75*
G02X111491Y253793I-3950J0*
G01*
X131163*
G37*
X141163D02*
G36*
Y254797D01*
G75*
G02X142867Y258045I3949*
G01*
X137358*
G75*
G02X139061Y254797I-2246J-3248*
G01*
Y253793*
X141163*
G37*
X150862D02*
G36*
Y254797D01*
G75*
G02X152371Y258045I4250*
G01*
X147358*
G75*
G02X149061Y254797I-2246J-3248*
G01*
Y253793*
X150862*
G37*
X160862D02*
G36*
Y254797D01*
G75*
G02X162371Y258045I4250*
G01*
X157853*
G75*
G02X159362Y254797I-2741J-3248*
G01*
Y253793*
X160862*
G37*
X179362D02*
G36*
Y249797D01*
G75*
G02X171620Y247376I-4250*
G01*
Y227219*
G75*
G02X178538Y227312I3493J-2422*
G01*
G75*
G02X178843Y227780I1259J-487*
G01*
X181008Y229945*
G75*
G02X181963Y230340I954J-955*
G01*
X200565*
G75*
G02X201520Y229945I0J-1350*
G01*
X209492Y221972*
G75*
G02X211718Y221560I424J-3927*
G01*
X214766Y224608*
Y253793*
X211265*
Y250053*
G75*
G02X210870Y249098I-1350J0*
G01*
X202996Y241224*
G75*
G02X202041Y240829I-954J955*
G01*
X189443*
G75*
G02X188488Y241224I0J1350*
G01*
X184157Y245555*
G75*
G02X183840Y246059I955J954*
G01*
G75*
G02X181163Y249797I1272J3738*
G01*
Y253793*
X179362*
G37*
X181163D02*
G36*
Y254797D01*
G75*
G02X182867Y258045I3949*
G01*
X177853*
G75*
G02X179362Y254797I-2741J-3248*
G01*
Y253793*
X181163*
G37*
X214766D02*
G36*
Y257041D01*
G75*
G02X215161Y257996I1350J0*
G01*
X215211Y258045*
X213892*
X213865Y258019*
G75*
G02X211265Y254333I-3950J26*
G01*
Y253793*
X214766*
G37*
X227790D02*
G36*
X227183Y254400D01*
G75*
G02X221713Y258045I-1520J3646*
G01*
X219029*
X217466Y256482*
Y253793*
X227790*
G37*
X304333D02*
G36*
G75*
G02X308281Y257742I3949D01*
G01*
X312588*
X312891Y258045*
X278760*
X279063Y257742*
X283281*
G75*
G02X287230Y253793J-3949*
G01*
X304333*
G37*
X325002D02*
G36*
Y254333D01*
G75*
G02X322402Y258045I1350J3712*
G01*
X317806*
X316206Y256446*
G75*
G02X317230Y253793I-2925J-2653*
G01*
X325002*
G37*
X364806D02*
G36*
Y258045D01*
X330302*
G75*
G02X327702Y254333I-3950*
G01*
Y253793*
X364806*
G37*
X38959Y111657D02*
G36*
Y116223D01*
G75*
G02X36359Y119935I1350J3712*
G01*
X23746*
Y111657*
X38959*
G37*
X99692D02*
G36*
G75*
G02X108453Y110243I3924J-3533D01*
G01*
G75*
G02X117936Y111657I5163J-2119*
G01*
X136373*
G75*
G02X138734Y112374I2361J-3533*
G01*
G75*
G02X141096Y111657J-4250*
G01*
X176969*
G75*
G02X177384Y111836I1765J-3533*
G01*
Y118585*
X169902*
G75*
G02X159960Y117817I-5105J1350*
G01*
G75*
G02X149217Y119935I-5163J2119*
G01*
X132220*
G75*
G02X128242Y117181I-3978J1496*
G01*
X123242*
G75*
G02X119264Y119935J4250*
G01*
X101896*
G75*
G02X98242Y117482I-3654J1496*
G01*
X93242*
G75*
G02X89588Y119935J3949*
G01*
X84559*
G75*
G02X80309Y115685I-4250*
G01*
G75*
G02X76059Y119935J4250*
G01*
X44259*
G75*
G02X41659Y116223I-3950*
G01*
Y109159*
X51194*
G75*
G02X61209Y110243I5178J-1035*
G01*
G75*
G02X70692Y111657I5163J-2119*
G01*
X99692*
G37*
X237228D02*
G36*
X243644Y105242D01*
X263490*
X269906Y111657*
X252798*
G75*
G02X248970Y106733I-3828J-974*
G01*
G75*
G02X245143Y111657J3950*
G01*
X237228*
G37*
X245143D02*
G36*
G75*
G02X247620Y114395I3828J-974D01*
G01*
Y119471*
G75*
G02X246722Y119935I1350J3712*
G01*
X233865*
G75*
G02X229915Y115985I-3950*
G01*
G75*
G02X226203Y118585J3950*
G01*
X216183*
X204768Y107169*
G75*
G02X203813Y106774I-954J955*
G01*
X193628*
G75*
G02X191603Y104553I-3712J1350*
G01*
X211620*
X221264Y114197*
G75*
G02X222219Y114592I954J-955*
G01*
X233734*
G75*
G02X234689Y114197I0J-1350*
G01*
X237228Y111657*
X245143*
G37*
X269906D02*
G36*
X278183Y119935D01*
X251219*
G75*
G02X250320Y119471I-2248J3248*
G01*
Y114395*
G75*
G02X252798Y111657I-1350J-3712*
G01*
X269906*
G37*
X285143D02*
G36*
G75*
G02X288970Y114633I3828J-974D01*
G01*
G75*
G02X292798Y111657J-3950*
G01*
X314134*
G75*
G02X315900Y112074I1765J-3533*
G01*
G75*
G02X319612Y109474J-3950*
G01*
X331339*
G75*
G02X331500Y109669I1117J-759*
G01*
X341766Y119935*
X319850*
G75*
G02X315900Y115985I-3950*
G01*
G75*
G02X312187Y118585J3950*
G01*
X288970*
G75*
G02X287715Y119438J1350*
G01*
G75*
G02X285258Y121833I1255J3745*
G01*
X283900*
X273724Y111657*
X285143*
G37*
X20967Y189030D02*
G36*
Y180053D01*
X51379*
G75*
G02X52030Y180752I2158J-1359*
G01*
Y189030*
X44014*
Y183159*
X32274*
Y189030*
X20967*
G37*
X32274D02*
G36*
Y194900D01*
X44014*
Y189030*
X52030*
Y202612*
X20967*
Y189030*
X32274*
G37*
X55045D02*
G36*
Y180752D01*
G75*
G02X55696Y180053I-1507J-2057*
G01*
X137148*
Y189030*
X135667*
Y182963*
X123533*
Y189030*
X89683*
Y183159*
X77943*
Y189030*
X55045*
G37*
X77943D02*
G36*
Y194900D01*
X89683*
Y189030*
X123533*
Y195096*
X135667*
Y189030*
X137148*
Y191805*
G75*
G02X137543Y192760I1350J0*
G01*
X147396Y202612*
X55045*
Y189030*
X77943*
G37*
X139848D02*
G36*
Y164388D01*
X143384*
Y159502*
X143612*
Y164388*
X152996*
Y164689*
X163370*
Y159502*
X177994*
Y184896*
G75*
G02X178426Y185951I1507J0*
G01*
X181446Y189030*
X173463*
Y182963*
X161329*
Y189030*
X139848*
G37*
X161329D02*
G36*
Y195096D01*
X173463*
Y189030*
X181446*
X182797Y190407*
G75*
G02X187062Y194902I4874J-354*
G01*
G75*
G02X187671Y205240I609J5151*
G01*
G75*
G02X192822Y200662J-5187*
G01*
G75*
G02X196321Y204750I4849J-609*
G01*
Y216038*
G75*
G02X191163Y219797I-1209J3759*
G01*
Y224797*
G75*
G02X192372Y227640I3949*
G01*
X187853*
G75*
G02X189061Y224797I-2741J-2843*
G01*
Y219797*
G75*
G02X181163I-3949*
G01*
Y224797*
G75*
G02X181750Y226869I3948J0*
G01*
X181147Y226266*
Y217967*
G75*
G02X180752Y217012I-1350J0*
G01*
X174059Y210319*
G75*
G02X173104Y209924I-954J955*
G01*
X170572*
G75*
G02X169967I-302J1350*
G01*
X158526*
X139848Y191246*
Y189030*
X161329*
G37*
X192450D02*
G36*
G75*
G02X187671Y185166I-4779J1024D01*
G01*
G75*
G02X183777Y187101J4887*
G01*
X181009Y184280*
Y180053*
X182784*
G75*
G02X187671Y184940I4887*
G01*
G75*
G02X192558Y180053J-4887*
G01*
X192784*
G75*
G02X197671Y184940I4887*
G01*
G75*
G02X202368Y181403J-4887*
G01*
X205014*
G75*
G02X205969Y181008I0J-1350*
G01*
X213526Y173450*
X230428*
G75*
G02X231918Y181688I3228J3670*
G01*
Y189030*
X223148*
Y182963*
X211014*
Y189030*
X202450*
G75*
G02X197671Y185166I-4779J1024*
G01*
G75*
G02X192893Y189030J4887*
G01*
X192450*
G37*
X192893D02*
G36*
G75*
G02X197671Y194940I4779J1024D01*
G01*
G75*
G02X199938Y194383I0J-4887*
G01*
X208144Y202612*
X201835*
G75*
G02X197671Y195166I-4163J-2559*
G01*
G75*
G02X192822Y199444J4887*
G01*
G75*
G02X188280Y194902I-5151J609*
G01*
G75*
G02X192450Y189030I-609J-4849*
G01*
X192893*
G37*
X211014D02*
G36*
Y195096D01*
X223148*
Y189030*
X231918*
Y202612*
X212403*
X202048Y192228*
G75*
G02X202450Y189030I-4376J-2175*
G01*
X211014*
G37*
X235393D02*
G36*
Y181688D01*
G75*
G02X236883Y173450I-1737J-4568*
G01*
X312474*
G75*
G02X313429Y173055I0J-1350*
G01*
X322096Y164388*
X337586*
X327044Y174930*
X280093*
G75*
G02X278753Y175485I0J1895*
G01*
X272648Y181590*
G75*
G02X267627Y186864I260J5274*
G01*
G75*
G02X268091Y189030I5281J0*
G01*
X260943*
Y182963*
X248809*
Y189030*
X235393*
G37*
X248809D02*
G36*
Y195096D01*
X260943*
Y189030*
X268091*
G75*
G02X277744Y188983I4816J-2165*
G01*
G75*
G02X288051Y189030I5163J-2119*
G01*
X298533*
Y195096*
X310667*
Y189030*
X327370*
X313787Y202612*
X288188*
G75*
G02X278070Y200494I-5281*
G01*
G75*
G02X267327Y202612I-5163J2119*
G01*
X235393*
Y189030*
X248809*
G37*
X288051D02*
G36*
G75*
G02X288488Y186864I-5143J-2166D01*
G01*
G75*
G02X277744Y184746I-5581*
G01*
G75*
G02X276553Y183044I-4838J2119*
G01*
X280878Y178720*
X327829*
G75*
G02X329169Y178165I0J-1895*
G01*
X363519Y143814*
G75*
G02X363821Y143420I-1339J-1340*
G01*
Y152578*
X327370Y189030*
X310667*
Y182963*
X298533*
Y189030*
X288051*
G37*
X348463D02*
G36*
Y182963D01*
X337701*
X366395Y154269*
G75*
G02X366423Y154239I-1073J-1059*
G01*
Y189030*
X365431*
G75*
G02X357943I-3744J1260*
G01*
X348463*
G37*
X357943D02*
G36*
G75*
G02X357737Y190289I3744J1260D01*
G01*
G75*
G02X360337Y194002I3950*
G01*
Y202612*
X318051*
X336329Y184335*
Y195096*
X348463*
Y189030*
X357943*
G37*
X366423D02*
G36*
Y202612D01*
X363037*
Y194002*
G75*
G02X365637Y190289I-1350J-3712*
G01*
G75*
G02X365431Y189030I-3950*
G01*
X366423*
G37*
X20967Y371707D02*
G36*
Y356156D01*
X24548*
G75*
G02X28498Y360106I3950*
G01*
G75*
G02X32448Y356156J-3950*
G01*
X64548*
G75*
G02X68498Y360106I3950*
G01*
G75*
G02X72448Y356156J-3950*
G01*
X87424*
Y358813*
G75*
G02X87819Y359768I1350J0*
G01*
X99758Y371707*
X62133*
G75*
G02X54233I-3950*
G01*
X52291*
G75*
G02X44391I-3950*
G01*
X42748*
G75*
G02X34248I-4250*
G01*
X20967*
G37*
X174768D02*
G36*
G75*
G02X174771Y371549I-3948J-158D01*
G01*
G75*
G02X166871I-3950*
G01*
G75*
G02X167340Y373416I3950J0*
G01*
X166364Y374392*
X131713*
G75*
G02X132920Y371549I-2743J-2843*
G01*
G75*
G02X125319Y370042I-3950*
G01*
X111350*
X99070Y357683*
G75*
G02X99377Y356156I-3643J-1527*
G01*
X131477*
G75*
G02X135427Y360106I3950*
G01*
G75*
G02X136961Y359796I0J-3950*
G01*
X140181Y363016*
G75*
G02X141136Y363411I954J-955*
G01*
X166037*
G75*
G02X166992Y363016I0J-1350*
G01*
X170206Y359801*
G75*
G02X171726Y360106I1520J-3646*
G01*
G75*
G02X175676Y356156J-3950*
G01*
X177776*
G75*
G02X180376Y359868I3950*
G01*
Y371707*
X174768*
G37*
X183076D02*
G36*
Y359868D01*
G75*
G02X185676Y356156I-1350J-3712*
G01*
X187776*
G75*
G02X191726Y360106I3950*
G01*
G75*
G02X195676Y356156J-3950*
G01*
X197776*
G75*
G02X200376Y359868I3950*
G01*
Y371707*
X183076*
G37*
X203076D02*
G36*
Y359868D01*
G75*
G02X205676Y356156I-1350J-3712*
G01*
X207776*
G75*
G02X211726Y360106I3950*
G01*
G75*
G02X215676Y356156J-3950*
G01*
X217778*
Y360104*
X220376*
Y371707*
X216657*
G75*
G02X216661Y371549I-3948J-158*
G01*
G75*
G02X208761I-3950*
G01*
G75*
G02X208764Y371707I3950J0*
G01*
X203076*
G37*
X223076D02*
G36*
Y360104D01*
X225675*
Y356156*
X233209*
G75*
G02X237159Y360106I3950*
G01*
G75*
G02X241109Y356156J-3950*
G01*
X273209*
G75*
G02X273713Y358086I3950*
G01*
X261600Y370199*
X258273*
G75*
G02X250611Y371549I-3712J1350*
G01*
G75*
G02X250614Y371707I3950J0*
G01*
X223076*
G37*
X263911D02*
G36*
X275766Y359852D01*
G75*
G02X277159Y360106I1393J-3696*
G01*
G75*
G02X281109Y356156J-3950*
G01*
X284041*
G75*
G02X287947Y360696I3906J591*
G01*
G75*
G02X291852Y356156J-3950*
G01*
X324041*
G75*
G02X327947Y360696I3906J591*
G01*
G75*
G02X331852Y356156J-3950*
G01*
X342302*
G75*
G02X345447Y357302I3145J-3740*
G01*
G75*
G02X348592Y356156J-4887*
G01*
X352301*
G75*
G02X355447Y357302I3146J-3740*
G01*
G75*
G02X358593Y356156J-4887*
G01*
X366423*
Y371707*
X359404*
G75*
G02X353616Y366820I-5788J984*
G01*
G75*
G02X347828Y371707J5871*
G01*
X333814*
G75*
G02X328026Y366820I-5788J984*
G01*
G75*
G02X322237Y371707J5871*
G01*
X321924*
G75*
G02X316136Y366820I-5788J984*
G01*
G75*
G02X310348Y371707J5871*
G01*
X296333*
G75*
G02X290545Y366820I-5788J984*
G01*
G75*
G02X284757Y371707J5871*
G01*
X263911*
G37*
X34248Y391392D02*
G36*
G75*
G02X42748I4250D01*
G01*
X44391*
G75*
G02X52291I3950*
G01*
X54233*
G75*
G02X61557Y393445I3950*
G01*
Y393819*
X53484Y401892*
X32149*
G75*
G02X28498Y399450I-3651J1507*
G01*
G75*
G02X24548Y403400J3950*
G01*
X20967*
Y391392*
X34248*
G37*
X104837D02*
G36*
X96601Y399628D01*
G75*
G02X95427Y399450I-1174J3772*
G01*
G75*
G02X91477Y403400J3950*
G01*
X72448*
G75*
G02X68498Y399450I-3950*
G01*
G75*
G02X64548Y403400J3950*
G01*
X56241*
X64131Y395509*
G75*
G02X64572Y394443I-1066J-1066*
G01*
Y391392*
X104837*
G37*
X166874D02*
G36*
G75*
G02X166871Y391549I3947J158D01*
G01*
G75*
G02X167320Y393378I3950J0*
G01*
X158648Y402050*
X150320*
G75*
G02X146608Y399450I-3712J1350*
G01*
G75*
G02X142658Y403400J3950*
G01*
X139377*
G75*
G02X135427Y399450I-3950*
G01*
G75*
G02X131477Y403400J3950*
G01*
X99377*
G75*
G02X98763Y401284I-3950*
G01*
X107148Y392899*
X125258*
G75*
G02X132920Y391549I3712J-1350*
G01*
G75*
G02X132917Y391392I-3952J0*
G01*
X166874*
G37*
X180376D02*
G36*
Y403400D01*
X161116*
X169315Y395201*
G75*
G02X174771Y391549I1506J-3652*
G01*
G75*
G02X174768Y391392I-3952J0*
G01*
X180376*
G37*
X200376D02*
G36*
Y400415D01*
G75*
G02X197789Y399450I-2587J2985*
G01*
G75*
G02X193839Y403400J3950*
G01*
X190558*
G75*
G02X186608Y399450I-3950*
G01*
G75*
G02X183076Y401631J3950*
G01*
Y391392*
X200376*
G37*
X208764D02*
G36*
G75*
G02X208761Y391549I3947J158D01*
G01*
G75*
G02X216423Y392899I3950*
G01*
X225774*
X234343Y401469*
G75*
G02X233839Y403400I3446J1931*
G01*
X203076*
Y391392*
X208764*
G37*
X235447D02*
G36*
X245524Y401469D01*
G75*
G02X245020Y403400I3446J1931*
G01*
X241739*
G75*
G02X237789Y399450I-3950*
G01*
G75*
G02X236396Y399704J3950*
G01*
X228085Y391392*
X235447*
G37*
X250614D02*
G36*
G75*
G02X250611Y391549I3947J158D01*
G01*
G75*
G02X258273Y392899I3950*
G01*
X261502*
X272002Y403400*
X252920*
G75*
G02X248970Y399450I-3950*
G01*
G75*
G02X247577Y399704J3950*
G01*
X239266Y391392*
X250614*
G37*
X284453D02*
G36*
G75*
G02X290545Y396579I6092J-984D01*
G01*
G75*
G02X296637Y391392J-6171*
G01*
X310044*
G75*
G02X316136Y396579I6092J-984*
G01*
G75*
G02X322081Y392064J-6171*
G01*
G75*
G02X328026Y396579I5945J-1656*
G01*
G75*
G02X334118Y391392J-6171*
G01*
X347524*
G75*
G02X353616Y396579I6092J-984*
G01*
G75*
G02X359708Y391392J-6171*
G01*
X366423*
Y403400*
X361317*
G75*
G02X355447Y398867I-5870J1535*
G01*
G75*
G02X349576Y403400J6068*
G01*
X292920*
G75*
G02X288970Y399450I-3950*
G01*
G75*
G02X285258Y402050J3950*
G01*
X274470*
X263813Y391392*
X284453*
G37*
X20967Y274691D02*
G36*
Y258045D01*
X21360*
Y274691*
X20967*
G37*
X21360D02*
G36*
Y292317D01*
X20967*
Y274691*
X21360*
G37*
X24061Y274691D02*
G36*
Y258045D01*
X41839*
X40563Y259321*
X27748Y272116*
G75*
G02X27306Y273183I1065J1067*
G01*
Y274691*
X24061*
G37*
X30320D02*
G36*
Y273808D01*
X42693Y261455*
X46102Y258045*
X90467*
X86915Y261597*
X68675*
G75*
G02X67720Y261992I0J1350*
G01*
X63587Y266126*
G75*
G02X63191Y267081I955J954*
G01*
Y274167*
G75*
G02X63297Y274691I1350J1*
G01*
X47322*
G75*
G02X46680Y274378I-2760J4850*
G01*
G75*
G02X44561Y264261I-2119J-4837*
G01*
G75*
G02X42443Y274378J5281*
G01*
G75*
G02X41800Y274691I2119J5163*
G01*
X30320*
G37*
X155415D02*
G36*
X171224Y258882D01*
G75*
G02X171620Y257927I-955J-954*
G01*
Y257219*
G75*
G02X177853Y258045I3493J-2422*
G01*
X182867*
G75*
G02X189061Y254797I2246J-3248*
G01*
Y249797*
G75*
G02X187129Y246402I-3949*
G01*
X190002Y243529*
X201482*
X208565Y250612*
Y254333*
G75*
G02X205965Y258045I1350J3712*
G01*
G75*
G02X212786Y260758I3950*
G01*
X218152Y266124*
G75*
G02X218508Y266756I1311J-323*
G01*
X227935Y276183*
Y277640*
G75*
G02X228489Y285221I1350J3712*
G01*
X238345Y295077*
G75*
G02X237942Y297100I4878J2024*
G01*
G75*
G02X248222Y298799I5281*
G01*
G75*
G02X249187Y300506I5000J-1699*
G01*
X243707Y305987*
X242167*
X216285Y280104*
Y272199*
G75*
G02X215890Y271244I-1350J0*
G01*
X206539Y261894*
G75*
G02X205832Y261521I-955J955*
G01*
X199061Y254750*
Y249797*
G75*
G02X191163I-3949*
G01*
Y254797*
G75*
G02X197992Y257499I3949*
G01*
X204295Y263803*
G75*
G02X205003Y264176I955J-955*
G01*
X205443Y264616*
X187268*
Y264315*
X176894*
Y274689*
X187268*
Y274388*
X190731*
Y274691*
X155415*
G37*
X190731D02*
G36*
Y292317D01*
X185073*
X184118Y291362*
G75*
G02X183163Y290967I-954J955*
G01*
X157624*
G75*
G02X148040Y292317I-4697J1350*
G01*
X147814*
G75*
G02X142294Y287471I-4887*
G01*
X132957Y278134*
G75*
G02X132002Y277739I-954J955*
G01*
X78026*
G75*
G02X77183Y278034J1350*
G01*
X70317*
X65891Y273608*
Y267640*
X68455Y265076*
Y274388*
X75766*
X78272Y276894*
G75*
G02X79226Y277289I954J-955*
G01*
X152258*
G75*
G02X153213Y276894I0J-1350*
G01*
X155415Y274691*
X190731*
G37*
X230262D02*
G36*
G75*
G02X230240Y274669I-974J935D01*
G01*
X220774Y265203*
G75*
G02X220417Y264571I-1311J323*
G01*
X213892Y258045*
X215211*
X223626Y266461*
G75*
G02X224581Y266856I954J-955*
G01*
X261620*
X269456Y274691*
X230262*
G37*
X269456D02*
G36*
X275134Y280370D01*
G75*
G02X276451Y281423I1317J-297*
G01*
X276482*
X287376Y292317*
X260624*
X267892Y285048*
G75*
G02X269285Y285302I1393J-3696*
G01*
G75*
G02Y277402J-3950*
G01*
G75*
G02X265839Y283283J3950*
G01*
X256307Y292815*
G75*
G02X248222Y295402I-3085J4286*
G01*
G75*
G02X240002Y292915I-5000J1699*
G01*
X231623Y284537*
G75*
G02X230635Y277640I-2337J-3184*
G01*
Y275624*
G75*
G02X230262Y274691I-1350J0*
G01*
X269456*
G37*
X273274D02*
G36*
X263134Y264551D01*
G75*
G02X262179Y264156I-954J955*
G01*
X225140*
X219029Y258045*
X221713*
G75*
G02X229613I3950*
G01*
X237161*
G75*
G02X245661I4250*
G01*
X261083*
G75*
G02X268685Y259553I3950*
G01*
X276628*
G75*
G02X277694Y259111I0J-1507*
G01*
X278760Y258045*
X312891*
X350501Y295655*
Y299659*
G75*
G02X352104Y301392I1737*
G01*
X360146Y309434*
Y311075*
G75*
G02X355447Y307528I-4700J1340*
G01*
G75*
G02X351116Y314679J4887*
G01*
X349853Y315967*
X348804*
G75*
G02X347342Y307911I-3357J-3552*
G01*
Y304285*
G75*
G02X346787Y302946I-1895J0*
G01*
X315392Y271550*
Y264616*
X296008*
Y264315*
X285634*
Y274689*
X296008*
Y274388*
X299313*
Y274691*
X273274*
G37*
X299313D02*
G36*
Y292317D01*
X291194*
X277996Y279118*
G75*
G02X277338Y278756I-954J955*
G01*
X273274Y274691*
X299313*
G37*
X334452D02*
G36*
X317806Y258045D01*
X322402*
G75*
G02X330302I3950*
G01*
X364806*
Y274691*
X334452*
G37*
X364806D02*
G36*
Y278988D01*
G75*
G02X357339Y281766I-3217J2778*
G01*
G75*
G02X364806Y284543I4250*
G01*
Y292317*
X352077*
X334452Y274691*
X364806*
G37*
X20967Y356156D02*
G36*
Y340407D01*
X27148*
Y340632*
G75*
G02Y348057I1350J3712*
G01*
Y352443*
G75*
G02X24548Y356156I1350J3712*
G01*
X20967*
G37*
X32448D02*
G36*
G75*
G02X29848Y352443I-3950D01*
G01*
Y348057*
G75*
G02Y340632I-1350J-3712*
G01*
Y330080*
G75*
G02X29871Y329946I-1349J-304*
G01*
X37330*
G75*
G02X47435Y330295I5105J-1350*
G01*
G75*
G02X55622Y332807I5000J-1699*
G01*
X65117Y342302*
G75*
G02X68498Y348294I3381J2043*
G01*
G75*
G02X72246Y345590J-3950*
G01*
G75*
G02X73076Y344344I-520J-1246*
G01*
Y340407*
X91477*
G75*
G02X91715Y341757I3950*
G01*
X87819Y345654*
G75*
G02X87424Y346608I955J954*
G01*
Y356156*
X72448*
G75*
G02X68498Y352206I-3950*
G01*
G75*
G02X64548Y356156J3950*
G01*
X32448*
G37*
X99377D02*
G36*
G75*
G02X95427Y352206I-3950D01*
G01*
G75*
G02Y360106J3950*
G01*
G75*
G02X96931Y359808I0J-3950*
G01*
X109653Y372612*
G75*
G02X110722Y373057I1069J-1063*
G01*
X125319*
G75*
G02X126228Y374392I3651J-1508*
G01*
X106262*
X90124Y358254*
Y347167*
X93459Y343832*
G75*
G02X95427Y344357I1968J-3424*
G01*
G75*
G02X99377Y340407J-3950*
G01*
X131477*
G75*
G02X135427Y344357I3950*
G01*
G75*
G02X139078Y341915J-3950*
G01*
X175452*
X188108Y354571*
G75*
G02X187776Y356156I3618J1585*
G01*
X185676*
G75*
G02X181726Y352206I-3950*
G01*
G75*
G02X177776Y356156J3950*
G01*
X175676*
G75*
G02X171726Y352206I-3950*
G01*
G75*
G02X167776Y356156J3950*
G01*
X165676*
G75*
G02X161726Y352206I-3950*
G01*
G75*
G02X157776Y356156J3950*
G01*
X155976*
G75*
G02X151726Y351906I-4250*
G01*
G75*
G02X147476Y356156J4250*
G01*
X139377*
G75*
G02X135427Y352206I-3950*
G01*
G75*
G02X131477Y356156J3950*
G01*
X99377*
G37*
X147476D02*
G36*
G75*
G02X151726Y360406I4250D01*
G01*
G75*
G02X155976Y356156J-4250*
G01*
X157776*
G75*
G02X161726Y360106I3950*
G01*
G75*
G02X165676Y356156J-3950*
G01*
X167776*
G75*
G02X168218Y357971I3950J0*
G01*
X165478Y360711*
X141695*
X138942Y357958*
G75*
G02X139377Y356156I-3515J-1802*
G01*
X147476*
G37*
X195676D02*
G36*
G75*
G02X191726Y352206I-3950D01*
G01*
G75*
G02X190281Y352480J3950*
G01*
X178209Y340407*
X224089*
X212255Y352241*
G75*
G02X211726Y352206I-528J3913*
G01*
G75*
G02X207776Y356156J3950*
G01*
X205676*
G75*
G02X201726Y352206I-3950*
G01*
G75*
G02X197776Y356156J3950*
G01*
X195676*
G37*
X215676D02*
G36*
G75*
G02X214728Y353587I-3950D01*
G01*
X226557Y341757*
X233447*
G75*
G02X237159Y344357I3712J-1350*
G01*
G75*
G02X240702Y338661J-3950*
G01*
X242680Y340638*
Y348937*
X238971Y352645*
G75*
G02X237159Y352206I-1811J3510*
G01*
G75*
G02X233209Y356156J3950*
G01*
X225675*
Y352207*
X217778*
Y356156*
X215676*
G37*
X241109D02*
G36*
G75*
G02X240923Y354957I-3950J0D01*
G01*
X245253Y350627*
G75*
G02X245694Y349561I-1066J-1066*
G01*
Y340407*
X273209*
G75*
G02X277159Y344357I3950*
G01*
G75*
G02X281109Y340407J-3950*
G01*
X281597*
Y341687*
G75*
G02X281992Y342642I1350J0*
G01*
X288094Y348744*
G75*
G02X289049Y349139I954J-955*
G01*
X314443*
G75*
G02X315398Y348744I0J-1350*
G01*
X323734Y340407*
X340664*
G75*
G02X344838Y347567I4783J2008*
G01*
G75*
G02X342302Y356156I609J4849*
G01*
X331852*
G75*
G02X327947Y352796I-3906J591*
G01*
G75*
G02X324041Y356156J3950*
G01*
X291852*
G75*
G02X287947Y352796I-3906J591*
G01*
G75*
G02X284041Y356156J3950*
G01*
X281109*
G75*
G02X277159Y352206I-3950*
G01*
G75*
G02X273209Y356156J3950*
G01*
X241109*
G37*
X348592D02*
G36*
G75*
G02X346056Y347567I-3145J-3740D01*
G01*
G75*
G02X350598Y343024I-609J-5151*
G01*
G75*
G02X355447Y347302I4849J-609*
G01*
G75*
G02X359902Y340407J-4887*
G01*
X366423*
Y356156*
X358593*
G75*
G02X355447Y347528I-3146J-3740*
G01*
G75*
G02X352301Y356156J4887*
G01*
X348592*
G37*
X24548Y403400D02*
G36*
G75*
G02X28498Y407350I3950D01*
G01*
G75*
G02X32149Y404907J-3950*
G01*
X54108*
G75*
G02X55174Y404466I0J-1507*
G01*
X56241Y403400*
X64548*
G75*
G02X68498Y407350I3950*
G01*
G75*
G02X72448Y403400J-3950*
G01*
X91477*
G75*
G02X95427Y407350I3950*
G01*
G75*
G02X99377Y403400J-3950*
G01*
X131477*
G75*
G02X135427Y407350I3950*
G01*
G75*
G02X139377Y403400J-3950*
G01*
X142658*
G75*
G02X146608Y407350I3950*
G01*
G75*
G02X150320Y404750J-3950*
G01*
X159207*
G75*
G02X160161Y404354I0J-1350*
G01*
X161116Y403400*
X180376*
G75*
G02X181726Y404750I1350*
G01*
X182896*
G75*
G02X186608Y407350I3712J-1350*
G01*
G75*
G02X190558Y403400J-3950*
G01*
X193839*
G75*
G02X197789Y407350I3950*
G01*
G75*
G02X201502Y404750J-3950*
G01*
X201726*
G75*
G02X203076Y403400J-1350*
G01*
X233839*
G75*
G02X237789Y407350I3950*
G01*
G75*
G02X241739Y403400J-3950*
G01*
X245020*
G75*
G02X248970Y407350I3950*
G01*
G75*
G02X252920Y403400J-3950*
G01*
X272002*
X272436Y403833*
G75*
G02X273715Y404750I1278J-434*
G01*
X285258*
G75*
G02X288970Y407350I3712J-1350*
G01*
G75*
G02X292920Y403400J-3950*
G01*
X349576*
G75*
G02X355447Y411003I5870J1535*
G01*
G75*
G02X361317Y403400J-6068*
G01*
X366423*
Y414219*
X20967*
Y403400*
X24548*
G37*
X36359Y119935D02*
G36*
G75*
G02X40309Y123885I3950D01*
G01*
G75*
G02X44259Y119935J-3950*
G01*
X76059*
G75*
G02X80309Y124185I4250*
G01*
G75*
G02X84559Y119935J-4250*
G01*
X89588*
G75*
G02X93242Y125380I3654J1496*
G01*
X98242*
G75*
G02X101896Y119935J-3949*
G01*
X119264*
G75*
G02X123242Y125681I3978J1496*
G01*
X128242*
G75*
G02X132220Y119935J-4250*
G01*
X149217*
G75*
G02X159960Y122054I5581*
G01*
G75*
G02X169902Y121285I4837J-2119*
G01*
X177384*
Y128034*
G75*
G02X174797Y131431I1350J3712*
G01*
X167048*
X161670Y126054*
G75*
G02X160604Y125613I-1066J1066*
G01*
X133144*
G75*
G02X132065Y126067J1508*
G01*
X130183Y127993*
G75*
G02X128242Y127482I-1941J3439*
G01*
X123242*
G75*
G02X119293Y131431J3949*
G01*
X102492*
G75*
G02X98242Y127181I-4250*
G01*
X93242*
G75*
G02X88992Y131431J4250*
G01*
X84246*
G75*
G02X80309Y127796I-3937J315*
G01*
G75*
G02X76372Y131431J3950*
G01*
X44246*
G75*
G02X40309Y127796I-3937J315*
G01*
G75*
G02X36372Y131431J3950*
G01*
X23746*
Y119935*
X36359*
G37*
X246722D02*
G36*
G75*
G02X248970Y127133I2248J3248D01*
G01*
G75*
G02X252683Y124533J-3950*
G01*
X258864*
X265762Y131431*
X233865*
G75*
G02X231265Y127739I-3950J20*
G01*
Y123647*
G75*
G02X233865Y119935I-1350J-3712*
G01*
X246722*
G37*
X278183D02*
G36*
X282386Y124138D01*
G75*
G02X283341Y124533I954J-955*
G01*
X285258*
G75*
G02X288970Y127133I3712J-1350*
G01*
G75*
G02X292435Y121285J-3950*
G01*
X312187*
G75*
G02X315900Y123885I3712J-1350*
G01*
G75*
G02X319850Y119935J-3950*
G01*
X341766*
X342720Y120890*
G75*
G02X343675Y121285I954J-955*
G01*
X352187*
G75*
G02X354550Y123647I3712J-1350*
G01*
Y128034*
G75*
G02X352281Y133331I1350J3712*
G01*
X345743Y139870*
G75*
G02X336963Y141858I-3780J3687*
G01*
G75*
G02X329433Y138922I-5000J1699*
G01*
X321303Y130791*
G75*
G02X320348Y130396I-954J955*
G01*
X319612*
G75*
G02X315900Y127796I-3712J1350*
G01*
G75*
G02X311962Y131431J3950*
G01*
X269580*
X260378Y122228*
G75*
G02X259423Y121833I-954J955*
G01*
X252683*
G75*
G02X251219Y119935I-3712J1350*
G01*
X278183*
G37*
X23746Y136588D02*
G36*
Y131431D01*
X36372*
G75*
G02X40309Y135696I3937J315*
G01*
G75*
G02X41849Y135383J-3950*
G01*
X43070Y136588*
X23746*
G37*
X43070D02*
G36*
X47660Y141117D01*
Y141594*
G75*
G02X45230Y143769I1507J4128*
G01*
G75*
G02X38910Y142030I-3937J1953*
G01*
X32525*
G75*
G02X24863Y143380I-3712J1350*
G01*
G75*
G02X32525Y144730I3950*
G01*
X37012*
G75*
G02X45230Y147676I4281J993*
G01*
G75*
G02X53104I3937J-1953*
G01*
G75*
G02X58565Y149844I3937J-1953*
G01*
X68223Y159502*
X29711*
G75*
G02X28321Y149930I-1391J-4685*
G01*
G75*
G02X23746Y153099J4887*
G01*
Y136588*
X43070*
G37*
X47363D02*
G36*
X43967Y133237D01*
G75*
G02X44246Y131431I-3658J-1491*
G01*
X76372*
G75*
G02X80309Y135696I3937J315*
G01*
G75*
G02X81843Y135386I0J-3950*
G01*
X83044Y136588*
X47363*
G37*
X83044D02*
G36*
X88843Y142386D01*
G75*
G02X89521Y142752I954J-955*
G01*
G75*
G02X93242Y145380I3721J-1321*
G01*
X98242*
G75*
G02Y137482J-3949*
G01*
X93242*
G75*
G02X89790Y139514J3949*
G01*
X86863Y136588*
X128459*
X127565Y137482*
X123242*
G75*
G02X119313Y141034J3949*
G01*
X110617Y149878*
X105059Y155435*
X82961*
X76118Y148592*
G75*
G02X76726Y147676I-3328J-2870*
G01*
G75*
G02X82666Y149634I3937J-1953*
G01*
X85417Y152386*
G75*
G02X86372Y152781I954J-955*
G01*
X89531*
G75*
G02X93242Y155380I3711J-1350*
G01*
X98242*
G75*
G02Y147482J-3949*
G01*
X93242*
G75*
G02X89531Y150081J3949*
G01*
X86931*
X84575Y147725*
G75*
G02X85058Y145722I-3912J-2003*
G01*
G75*
G02X76726Y143769I-4395*
G01*
G75*
G02X68852I-3937J1953*
G01*
G75*
G02X60978I-3937J1953*
G01*
G75*
G02X53104I-3937J1953*
G01*
G75*
G02X50675Y141594I-3937J1953*
G01*
Y140486*
G75*
G02X50226Y139413I-1508*
G01*
X47363Y136588*
X83044*
G37*
X86863D02*
G36*
X83824Y133548D01*
G75*
G02X84246Y131431I-3515J-1802*
G01*
X88992*
G75*
G02X93242Y135681I4250*
G01*
X98242*
G75*
G02X102492Y131431J-4250*
G01*
X119293*
G75*
G02X123242Y135380I3949*
G01*
X128242*
G75*
G02X132052Y130394J-3949*
G01*
X133778Y128628*
X136310*
G75*
G02X135253Y133613I2424J3119*
G01*
X132959Y135908*
X129699*
G75*
G02X128744Y136303I0J1350*
G01*
X128459Y136588*
X86863*
G37*
X195133D02*
G36*
G75*
G02X190731Y138341I-1852J1753D01*
G01*
G75*
G02X191774Y140397I2550*
G01*
Y141555*
X178436Y154893*
G75*
G02X177994Y155959I1066J1066*
G01*
Y159502*
X163370*
Y154315*
X152996*
Y154616*
X143612*
Y159502*
X143384*
Y154616*
X134100*
Y149628*
X136754Y146974*
G75*
G02X138734Y147507I1981J-3417*
G01*
G75*
G02Y139607J-3950*
G01*
G75*
G02X135017Y144893J3950*
G01*
X131795Y148114*
G75*
G02X131400Y149060I955J954*
G01*
G75*
G02X128242Y147482I-3158J2371*
G01*
X123242*
G75*
G02Y155380J3949*
G01*
X128242*
G75*
G02X131400Y153802J-3949*
G01*
Y157171*
X121392Y167179*
X114960*
G75*
G02X104842Y165061I-5281*
G01*
G75*
G02X94098Y167179I-5163J2119*
G01*
X79718*
X60698Y148159*
G75*
G02X60978Y147676I-3657J-2439*
G01*
G75*
G02X68852I3937J-1953*
G01*
G75*
G02X73344Y150082I3937J-1953*
G01*
X81270Y158009*
G75*
G02X82337Y158450I1066J-1066*
G01*
X105683*
G75*
G02X106749Y158009I0J-1507*
G01*
X112753Y152005*
G75*
G02X112762Y151996I-1079J-1041*
G01*
X120428Y144201*
G75*
G02X123242Y145380I2814J-2770*
G01*
X128242*
G75*
G02X131003Y138608J-3949*
G01*
X133518*
G75*
G02X134472Y138213I0J-1350*
G01*
X137270Y135415*
G75*
G02X141159Y128628I1464J-3669*
G01*
X159980*
X174786Y143434*
G75*
G02X178734Y147507I3948J123*
G01*
G75*
G02Y139607J-3950*
G01*
G75*
G02X176169Y140553J3950*
G01*
X167048Y131431*
X174797*
G75*
G02X178734Y135696I3937J315*
G01*
G75*
G02X180084Y128034J-3950*
G01*
Y111836*
G75*
G02X182384Y109634I-1350J-3712*
G01*
Y125545*
G75*
G02X182780Y126500I1350J0*
G01*
X186252Y129972*
G75*
G02X189915Y135401I3663J1478*
G01*
G75*
G02Y127501J-3950*
G01*
G75*
G02X188061Y127963J3950*
G01*
X185084Y124986*
Y106813*
X187344Y104553*
X188228*
G75*
G02X189915Y112074I1688J3571*
G01*
G75*
G02X193628Y109474J-3950*
G01*
X203254*
X214628Y120848*
Y138452*
G75*
G02X210978Y141858I1350J5105*
G01*
G75*
G02X207328Y138452I-5000J1699*
G01*
Y119935*
G75*
G02X205978Y118585I-1350*
G01*
X193628*
G75*
G02X189915Y115985I-3712J1350*
G01*
G75*
G02Y123885J3950*
G01*
G75*
G02X193628Y121285J-3950*
G01*
X204628*
Y136588*
X195133*
G37*
X204628D02*
G36*
Y138452D01*
G75*
G02X201275Y145958I1350J5105*
G01*
X187730Y159502*
X181009*
Y156583*
X194348Y143245*
G75*
G02X194789Y142179I-1066J-1066*
G01*
Y140397*
G75*
G02X195831Y138341I-1507J-2057*
G01*
G75*
G02X195133Y136588I-2550*
G01*
X204628*
G37*
X217328D02*
G36*
Y121285D01*
X226203*
G75*
G02X228565Y123647I3712J-1350*
G01*
Y127739*
G75*
G02X229915Y135401I1350J3712*
G01*
G75*
G02X233865Y131431J-3950*
G01*
X265762*
X270337Y136006*
Y146326*
G75*
G02X266687Y149732I1350J5105*
G01*
G75*
G02X261565Y146152I-5000J1699*
G01*
X252616Y137203*
G75*
G02X248970Y131733I-3646J-1520*
G01*
G75*
G02X245126Y136588J3950*
G01*
X217328*
G37*
X245126D02*
G36*
G75*
G02X248970Y139633I3845J-905D01*
G01*
G75*
G02X250786Y139191I0J-3950*
G01*
X258683Y147088*
G75*
G02X256406Y151431I3004J4343*
G01*
G75*
G02X266687Y153130I5281*
G01*
G75*
G02X276968Y151431I5000J-1699*
G01*
G75*
G02X273037Y146326I-5281*
G01*
Y137033*
X285258*
G75*
G02X288970Y139633I3712J-1350*
G01*
G75*
G02X292815Y136588J-3950*
G01*
X323281*
X327472Y140779*
G75*
G02X326682Y143557I4491J2779*
G01*
G75*
G02X336963Y145256I5281*
G01*
G75*
G02X347174Y142702I5000J-1698*
G01*
X354454Y135422*
G75*
G02X355900Y135696I1446J-3676*
G01*
G75*
G02X357250Y128034J-3950*
G01*
Y123647*
G75*
G02X356928Y116121I-1350J-3712*
G01*
X359524*
X360284Y116881*
Y141689*
X338069Y163905*
Y154616*
X332257*
X329405Y151765*
G75*
G02X328065Y151209I-1340J1340*
G01*
X303636*
G75*
G02X302296Y151765I0J1895*
G01*
X296552Y157509*
X250549*
Y154616*
X235606*
X232340Y151349*
G75*
G02X231274Y150908I-1066J1066*
G01*
X220545*
G75*
G02X219479Y151349I0J1507*
G01*
X216968Y153861*
X212278*
G75*
G02X211209Y154305J1507*
G01*
X206040Y159502*
X191549*
X203080Y147971*
G75*
G02X210978Y145256I2898J-4414*
G01*
G75*
G02X221259Y143557I5000J-1699*
G01*
G75*
G02X217328Y138452I-5281*
G01*
Y136588*
X245126*
G37*
X292815D02*
G36*
G75*
G02X288970Y131733I-3845J-905D01*
G01*
G75*
G02X285258Y134333J3950*
G01*
X272482*
X269580Y131431*
X311962*
G75*
G02X315900Y135696I3937J315*
G01*
G75*
G02X319612Y133096J-3950*
G01*
X319789*
X323281Y136588*
X292815*
G37*
X32599Y167179D02*
G36*
G75*
G02X28321Y159930I-4278J-2362D01*
G01*
G75*
G02X23746Y163099J4887*
G01*
Y156535*
G75*
G02X28321Y159704I4575J-1718*
G01*
G75*
G02X29711Y159502J-4887*
G01*
X68223*
X75900Y167179*
X32599*
G37*
X75900D02*
G36*
X84728Y176008D01*
G75*
G02X85683Y176403I954J-955*
G01*
X115427*
G75*
G02X116382Y176008I0J-1350*
G01*
X133612Y158777*
Y164388*
X137148*
Y180053*
X55696*
G75*
G02X56087Y178695I-2158J-1358*
G01*
G75*
G02X50987I-2550*
G01*
G75*
G02X51379Y180053I2550*
G01*
X20967*
Y169563*
G75*
G02X21172Y169820I1273J-809*
G01*
X23961Y172609*
G75*
G02X28321Y179704I4360J2208*
G01*
G75*
G02Y169930J-4887*
G01*
G75*
G02X26087Y170470J4887*
G01*
X23746Y168130*
Y166535*
G75*
G02X28321Y169704I4575J-1718*
G01*
G75*
G02X32599Y167179J-4887*
G01*
X75900*
G37*
X94098D02*
G36*
G75*
G02X104842Y169298I5581D01*
G01*
G75*
G02X114960Y167179I4837J-2119*
G01*
X121392*
X114868Y173703*
X86242*
X79718Y167179*
X94098*
G37*
X181009D02*
G36*
Y159502D01*
X187730*
X186717Y160516*
G75*
G02X186321Y161470I955J954*
G01*
Y165356*
G75*
G02X183719Y167179I1350J4697*
G01*
X181009*
G37*
X183719D02*
G36*
G75*
G02X187671Y174940I3953J2874D01*
G01*
G75*
G02X191624Y167179J-4887*
G01*
X193719*
G75*
G02X197671Y174940I3953J2874*
G01*
G75*
G02X202019Y167820J-4887*
G01*
X212904Y156876*
X217888*
G75*
G02X219347Y155745J-1507*
G01*
X221170Y153923*
X230649*
X231041Y154315*
X220791*
Y164689*
X231165*
Y164388*
X250549*
Y161298*
X297337*
G75*
G02X298676Y160743I0J-1895*
G01*
X304421Y154999*
X308311*
Y164689*
X317977*
X311915Y170750*
X212967*
G75*
G02X212012Y171146I0J1350*
G01*
X204455Y178703*
X202368*
G75*
G02X197671Y175166I-4697J1350*
G01*
G75*
G02X192784Y180053J4887*
G01*
X192558*
G75*
G02X187671Y175166I-4887*
G01*
G75*
G02X182784Y180053J4887*
G01*
X181009*
Y167179*
X183719*
G37*
X191624D02*
G36*
G75*
G02X189021Y165356I-3953J2874D01*
G01*
Y162030*
X191549Y159502*
X206040*
X199881Y165694*
G75*
G02X197671Y165166I-2209J4359*
G01*
G75*
G02X193719Y167179J4887*
G01*
X191624*
G37*
X20967Y214108D02*
G36*
Y202612D01*
X52030*
Y214108*
X20967*
G37*
X55045D02*
G36*
Y202612D01*
X147396*
X157012Y212228*
G75*
G02X157967Y212624I954J-955*
G01*
X168920*
Y214108*
X111503*
G75*
G02X103603I-3950*
G01*
X99692*
G75*
G02X91792I-3950*
G01*
X55045*
G37*
X210235D02*
G36*
G75*
G02X205965Y218045I-320J3937D01*
G01*
G75*
G02X206969Y220676I3950*
G01*
X200006Y227640*
X197853*
G75*
G02X199061Y224797I-2741J-2843*
G01*
Y219797*
G75*
G02X199021Y219238I-3949*
G01*
Y204750*
G75*
G02X201835Y202612I-1350J-4697*
G01*
X208144*
X219608Y214108*
X210235*
G37*
X225982D02*
G36*
G75*
G02X224153Y214396I-319J3937D01*
G01*
X212403Y202612*
X231918*
Y214108*
X225982*
G37*
X306555D02*
G36*
X318051Y202612D01*
X360337*
Y212683*
X344122Y228897*
G75*
G02X334731Y230632I-4286J3085*
G01*
X327702*
Y221757*
G75*
G02X330302Y218045I-1350J-3712*
G01*
G75*
G02X326032Y214108I-3950*
G01*
X306555*
G37*
X362723D02*
G36*
G75*
G02X363037Y213242I-1036J-866D01*
G01*
Y202612*
X366423*
Y214108*
X362723*
G37*
X91706Y292317D02*
G36*
X98565Y285458D01*
X127073*
X130010Y288396*
G75*
G02X128040Y292317I2917J3921*
G01*
X127814*
G75*
G02X118040I-4887*
G01*
X91706*
G37*
X20967Y326156D02*
G36*
Y316687D01*
X21982*
X25070Y319775*
G75*
G02X27148Y324619I3743J1263*
G01*
Y326156*
X20967*
G37*
X27148D02*
G36*
Y329475D01*
G75*
G02Y330080I1350J302*
G01*
Y340407*
X20967*
Y326156*
X27148*
G37*
X73076D02*
G36*
Y316687D01*
X131564*
Y319673*
G75*
G02X128464Y322541I1737J4987*
G01*
G75*
G02X117720Y324659I-5163J2119*
G01*
G75*
G02X117925Y326156I5580*
G01*
X73076*
G37*
X117925D02*
G36*
G75*
G02X128464Y326778I5376J-1496D01*
G01*
G75*
G02X138365Y326156I4837J-2119*
G01*
X147776*
G75*
G02X151726Y330106I3950*
G01*
G75*
G02X155676Y326156J-3950*
G01*
X157776*
G75*
G02X161726Y330106I3950*
G01*
G75*
G02X165676Y326156J-3950*
G01*
X167776*
G75*
G02X171726Y330106I3950*
G01*
G75*
G02X175676Y326156J-3950*
G01*
X177776*
G75*
G02X181726Y330106I3950*
G01*
G75*
G02X185676Y326156J-3950*
G01*
X187476*
G75*
G02X191726Y330406I4250*
G01*
G75*
G02X195976Y326156J-4250*
G01*
X197776*
G75*
G02X201726Y330106I3950*
G01*
G75*
G02X205676Y326156J-3950*
G01*
X207776*
G75*
G02X211726Y330106I3950*
G01*
G75*
G02X213172Y329831J-3950*
G01*
X216940Y333600*
G75*
G02X218006Y334041I1066J-1066*
G01*
X236082*
X238906Y336865*
G75*
G02X233447Y339057I-1746J3543*
G01*
X225998*
G75*
G02X225043Y339453I0J1350*
G01*
X224089Y340407*
X178209*
X177143Y339341*
G75*
G02X176077Y338900I-1066J1066*
G01*
X139078*
G75*
G02X135427Y336457I-3651J1507*
G01*
G75*
G02X131477Y340407J3950*
G01*
X99377*
G75*
G02X95427Y336457I-3950*
G01*
G75*
G02X91477Y340407J3950*
G01*
X73076*
Y326156*
X117925*
G37*
X138365D02*
G36*
G75*
G02X138582Y324659I-5064J-1497D01*
G01*
G75*
G02X135039Y319673I-5281*
G01*
Y316687*
X152226*
G75*
G02X153163Y317013I937J-1181*
G01*
X160472*
X168085Y324626*
G75*
G02X167776Y326156I3642J1530*
G01*
X165676*
G75*
G02X161726Y322206I-3950*
G01*
G75*
G02X157776Y326156J3950*
G01*
X155676*
G75*
G02X151726Y322206I-3950*
G01*
G75*
G02X147776Y326156J3950*
G01*
X138365*
G37*
X175676D02*
G36*
G75*
G02X171726Y322206I-3950D01*
G01*
G75*
G02X170224Y322502I0J3950*
G01*
X164410Y316687*
X170900*
X178338Y324125*
G75*
G02X177776Y326156I3388J2030*
G01*
X175676*
G37*
X185676D02*
G36*
G75*
G02X181726Y322206I-3950D01*
G01*
G75*
G02X180449Y322418I0J3950*
G01*
X174718Y316687*
X200376*
Y322443*
G75*
G02X197776Y326156I1350J3712*
G01*
X195976*
G75*
G02X191726Y321906I-4250*
G01*
G75*
G02X187476Y326156J4250*
G01*
X185676*
G37*
X205676D02*
G36*
G75*
G02X203076Y322443I-3950D01*
G01*
Y316687*
X260172*
X269640Y326156*
X225676*
G75*
G02X221726Y322206I-3950*
G01*
G75*
G02X217776Y326156J3950*
G01*
X215676*
G75*
G02X211726Y322206I-3950*
G01*
G75*
G02X207776Y326156J3950*
G01*
X205676*
G37*
X217776D02*
G36*
G75*
G02X221726Y330106I3950D01*
G01*
G75*
G02X225676Y326156J-3950*
G01*
X269640*
X281597Y338112*
Y340407*
X281109*
G75*
G02X277159Y336457I-3950*
G01*
G75*
G02X273209Y340407J3950*
G01*
X245694*
Y340014*
G75*
G02X245253Y338948I-1507J0*
G01*
X237773Y331467*
G75*
G02X236707Y331026I-1066J1066*
G01*
X218630*
X215344Y327740*
G75*
G02X215676Y326156I-3618J-1585*
G01*
X217776*
G37*
X273459D02*
G36*
X263990Y316687D01*
X300790*
Y333746*
X297015Y337521*
G75*
G02X294711Y335570I-4422J2887*
G01*
G75*
G02X292593Y324827I-2119J-5163*
G01*
G75*
G02X288978Y326156J5581*
G01*
X273459*
G37*
X288978D02*
G36*
G75*
G02X290474Y335570I3615J4252D01*
G01*
G75*
G02X287312Y340407I2119J4837*
G01*
X284297*
Y337553*
G75*
G02X283902Y336598I-1350J0*
G01*
X273459Y326156*
X288978*
G37*
X303490D02*
G36*
Y316687D01*
X305692*
G75*
G02X310406Y318037I2550*
G01*
X332457*
G75*
G02X337170Y316687I2163J-1350*
G01*
X338610*
X340463Y318541*
G75*
G02X341530Y318982I1066J-1066*
G01*
X341969*
G75*
G02X340750Y321065I3478J3434*
G01*
X339423*
G75*
G02X338469Y321461I0J1350*
G01*
X333774Y326156*
X314773*
G75*
G02X312278Y325087I-2496J2382*
G01*
G75*
G02X309782Y326156J3450*
G01*
X303490*
G37*
X309782D02*
G36*
G75*
G02X312278Y331987I2496J2382D01*
G01*
G75*
G02X314191Y331409I0J-3450*
G01*
G75*
G02X313863Y335089I3087J2129*
G01*
X308829*
Y340407*
X297947*
X303094Y335260*
G75*
G02X303490Y334305I-955J-954*
G01*
Y326156*
X309782*
G37*
X333774D02*
G36*
X321953Y337976D01*
G75*
G02X321569Y338754I955J954*
G01*
X319916Y340407*
X315726*
Y336952*
G75*
G02X317278Y337287I1551J-3414*
G01*
G75*
G02Y329787J-3750*
G01*
G75*
G02X315149Y330450I0J3750*
G01*
G75*
G02X314773Y326156I-2871J-1913*
G01*
X333774*
G37*
X358592D02*
G36*
G75*
G02X360311Y322882I-3145J-3740D01*
G01*
X363112Y320081*
G75*
G02X363621Y318852I-1228J-1229*
G01*
Y316687*
X364806*
Y322460*
X361110Y326156*
X358592*
G37*
X361110D02*
G36*
X358591Y328674D01*
G75*
G02X355447Y327528I-3144J3741*
G01*
G75*
G02Y337302J4887*
G01*
G75*
G02X360209Y331320J-4887*
G01*
X366423Y325106*
Y340407*
X359902*
G75*
G02X355447Y337528I-4456J2008*
G01*
G75*
G02X350598Y341806J4887*
G01*
G75*
G02X346056Y337264I-5151J609*
G01*
G75*
G02X345447Y327528I-609J-4849*
G01*
G75*
G02X344838Y337264J4887*
G01*
G75*
G02X340664Y340407I609J5151*
G01*
X323734*
X323862Y340280*
G75*
G02X324246Y339502I-955J-954*
G01*
X339982Y323765*
X340750*
G75*
G02X345447Y327302I4697J-1350*
G01*
G75*
G02X348924Y318982J-4887*
G01*
X350486*
G75*
G02X351563Y318530J-1507*
G01*
X353269Y316790*
G75*
G02X360146Y313756I2178J-4375*
G01*
Y318133*
X359105Y319174*
G75*
G02X355447Y317528I-3658J3241*
G01*
G75*
G02Y327302J4887*
G01*
G75*
G02X358592Y326156J-4887*
G01*
X361110*
G37*
X132867Y258045D02*
G36*
G75*
G02X137358I2246J-3248D01*
G01*
X142867*
G75*
G02X147358I2246J-3248*
G01*
X152371*
G75*
G02X157853I2741J-3248*
G01*
X162371*
G75*
G02X168920Y256685I2741J-3248*
G01*
Y257368*
X151699Y274589*
X98213*
Y264315*
X87839*
Y264616*
X78455*
Y273258*
X78226Y273030*
Y264616*
X68915*
X69234Y264297*
X87474*
G75*
G02X88429Y263902I0J-1350*
G01*
X94480Y257851*
G75*
G02X99692Y254108I1263J-3743*
G01*
G75*
G02X92030Y252758I-3950*
G01*
X88742*
X84559Y248575*
G75*
G02X81693Y240919I-4565J-2656*
G01*
G75*
G02X85099Y237269I-1699J-5000*
G01*
X89120*
X104079Y252228*
G75*
G02X103603Y254108I3474J1880*
G01*
G75*
G02X107873Y258045I3950*
G01*
X132867*
G37*
X229613D02*
G36*
G75*
G02X229172Y256230I-3950J0D01*
G01*
X249588Y235813*
G75*
G02X251524Y236982I3634J-3831*
G01*
G75*
G02X252009Y247122I1699J5000*
G01*
G75*
G02X252268Y247484I1214J-591*
G01*
X261365Y256581*
G75*
G02X261083Y258045I3669J1465*
G01*
X245661*
G75*
G02X237161I-4250*
G01*
X229613*
G37*
X287312Y340407D02*
G36*
G75*
G02X292593Y345688I5281D01*
G01*
G75*
G02X297873Y340481J-5281*
G01*
X297947Y340407*
X308829*
Y341986*
X315726*
Y340407*
X319916*
X313884Y346439*
X289608*
X284297Y341128*
Y340407*
X287312*
G37*
X79584Y274388D02*
X87839D01*
Y274589*
X79785*
X79584Y274388*
G36*
X87839*
Y274589*
X79785*
X79584Y274388*
G37*
X109212Y8057D02*
X112460D01*
X122109Y17705*
Y18676*
G75*
G02X119389Y17590I-2720J2864*
G01*
G75*
G02X119358I-15J3972*
G01*
G75*
G02X109212Y8057I-13281J3969*
G01*
G36*
X112460*
X122109Y17705*
Y18676*
G75*
G02X119389Y17590I-2720J2864*
G01*
G75*
G02X119358I-15J3972*
G01*
G75*
G02X109212Y8057I-13281J3969*
G01*
G37*
X116336Y88676D02*
G75*
G02X119561Y83306I-9965J-9637D01*
G01*
G75*
G02X123080Y81167I-172J-4246*
G01*
Y82142*
X116717Y88506*
G75*
G02X116336Y88676I581J1804*
G01*
G36*
G75*
G02X119561Y83306I-9965J-9637*
G01*
G75*
G02X123080Y81167I-172J-4246*
G01*
Y82142*
X116717Y88506*
G75*
G02X116336Y88676I581J1804*
G01*
G37*
X171620Y212624D02*
X172545D01*
X175485Y215564*
G75*
G02X171620Y217376I-373J4233*
G01*
Y212624*
G36*
X172545*
X175485Y215564*
G75*
G02X171620Y217376I-373J4233*
G01*
Y212624*
G37*
X231165Y154439D02*
X231343Y154616D01*
X231165*
Y154439*
G36*
X231343Y154616*
X231165*
Y154439*
G37*
X302328Y274388D02*
X312869D01*
X343552Y305070*
Y307911*
G75*
G02X341545Y315358I1895J4505*
G01*
X333048Y306861*
G75*
G02X331982Y306420I-1066J1066*
G01*
X314890*
X302328Y293858*
Y274388*
X313652Y292963D02*
Y305096D01*
X325785*
Y292963*
X313652*
X307500Y299030D02*
G36*
X302328Y293858D01*
Y274388*
X312869*
X337511Y299030*
X325785*
Y292963*
X313652*
Y299030*
X307500*
G37*
X313652D02*
G36*
Y305096D01*
X325785*
Y299030*
X337511*
X343552Y305070*
Y307911*
G75*
G02X341545Y315358I1895J4505*
G01*
X333048Y306861*
G75*
G02X331982Y306420I-1066J1066*
G01*
X314890*
X307500Y299030*
X313652*
G37*
X344981Y89919D02*
G75*
G02X349674Y83004I-8589J-10880D01*
G01*
G75*
G02X352796Y81185I-207J-3944*
G01*
X361117Y89410*
X363821Y92115*
Y115151*
G75*
G02X363519Y114757I-1641J946*
G01*
X361649Y112887*
G75*
G02X360309Y112331I-1340J1340*
G01*
X353417*
X348720Y107634*
Y94443*
G75*
G02X348165Y93103I-1895J0*
G01*
X344981Y89919*
X355900Y112074D02*
G75*
G02Y104174J-3950D01*
G01*
G75*
G02Y112074J3950*
G01*
X349209Y108124D02*
G36*
X348720Y107634D01*
Y94443*
G75*
G02X348165Y93103I-1895J0*
G01*
X344981Y89919*
G75*
G02X349674Y83004I-8589J-10880*
G01*
G75*
G02X352796Y81185I-207J-3944*
G01*
X361117Y89410*
X363821Y92115*
Y108124*
X359850*
G75*
G02X355900Y104174I-3950*
G01*
G75*
G02X351950Y108124J3950*
G01*
X349209*
G37*
X351950D02*
G36*
G75*
G02X355900Y112074I3950D01*
G01*
G75*
G02X359850Y108124J-3950*
G01*
X363821*
Y115151*
G75*
G02X363519Y114757I-1641J946*
G01*
X361649Y112887*
G75*
G02X360309Y112331I-1340J1340*
G01*
X353417*
X349209Y108124*
X351950*
G37*
D02*
D12*
X26156Y381549D02*
X24156D01*
X27750Y223793D02*
X25750D01*
X27750Y233793D02*
X25750D01*
X28656Y379049D02*
Y377049D01*
Y384049D02*
Y386049D01*
X31156Y381549D02*
X33156D01*
X32750Y221293D02*
Y219293D01*
Y226293D02*
Y228293D01*
Y231293D02*
Y229293D01*
Y236293D02*
Y238293D01*
X35998Y371707D02*
X33998D01*
X35998Y391392D02*
X33998D01*
X37750Y223793D02*
X39750D01*
X37750Y233793D02*
X39750D01*
X38498Y369207D02*
Y367207D01*
Y374207D02*
Y376207D01*
Y388892D02*
Y386892D01*
Y393892D02*
Y395892D01*
X40998Y371707D02*
X42998D01*
X40998Y391392D02*
X42998D01*
X41852Y276833D02*
X40438Y275419D01*
X41852Y282250D02*
X40438Y283664D01*
X47270Y276833D02*
X48684Y275419D01*
X47270Y282250D02*
X48684Y283664D01*
X57750Y223793D02*
X55750D01*
X62750Y221293D02*
Y219293D01*
Y226293D02*
Y228293D01*
X63637Y77292D02*
X65051Y75878D01*
X63637Y80827D02*
X65051Y82241D01*
X63663Y105415D02*
X62249Y104001D01*
X63663Y110833D02*
X62249Y112247D01*
X67750Y223793D02*
X69750D01*
X69081Y105415D02*
X70495Y104001D01*
X69081Y110833D02*
X70495Y112247D01*
X71574Y21540D02*
X69574D01*
X71574Y79059D02*
X69574D01*
X74074Y19040D02*
Y17040D01*
Y24040D02*
Y26040D01*
Y76559D02*
Y74559D01*
Y81559D02*
Y83559D01*
X76574Y21540D02*
X78574D01*
X76574Y79059D02*
X78574D01*
X77809Y119935D02*
X75809D01*
X80309Y117435D02*
Y115435D01*
Y122435D02*
Y124435D01*
X82809Y119935D02*
X84809D01*
X90742Y131431D02*
X88742D01*
X93026Y266065D02*
Y264065D01*
X95742Y128931D02*
Y126931D01*
Y133931D02*
Y135931D01*
X96463Y269502D02*
X98463D01*
X96970Y164470D02*
X95556Y163056D01*
X96970Y169888D02*
X95556Y171302D01*
X100742Y131431D02*
X102742D01*
X102388Y164470D02*
X103802Y163056D01*
X102388Y169888D02*
X103802Y171302D01*
X110907Y105415D02*
X109493Y104001D01*
X110907Y110833D02*
X109493Y112247D01*
X116325Y105415D02*
X117739Y104001D01*
X116325Y110833D02*
X117739Y112247D01*
X120593Y228978D02*
X119178Y227564D01*
X120593Y234396D02*
X119178Y235810D01*
X120593Y321951D02*
X119178Y320537D01*
X120593Y327368D02*
X119178Y328782D01*
X120742Y121431D02*
X118742D01*
X121156Y77292D02*
X122570Y75878D01*
X121156Y80827D02*
X122570Y82241D01*
X125742Y118931D02*
Y116931D01*
Y123931D02*
Y125931D01*
X126010Y228978D02*
X127424Y227564D01*
X126010Y234396D02*
X127424Y235810D01*
X126010Y321951D02*
X127424Y320537D01*
X126010Y327368D02*
X127424Y328782D01*
X127203Y379781D02*
X125789Y378367D01*
X127203Y383317D02*
X125789Y384731D01*
X129093Y21540D02*
X127093D01*
X130738Y379781D02*
X132152Y378367D01*
X130738Y383317D02*
X132152Y384731D01*
X130742Y121431D02*
X132742D01*
X131593Y19040D02*
Y17040D01*
Y24040D02*
Y26040D01*
Y76559D02*
Y74559D01*
Y81559D02*
Y83559D01*
X134093Y21540D02*
X136093D01*
X134093Y79059D02*
X136093D01*
X136234Y108124D02*
X134234D01*
X138734Y105624D02*
Y103624D01*
Y110624D02*
Y112624D01*
X141234Y108124D02*
X143234D01*
X149959Y354388D02*
X148544Y352974D01*
X149959Y357923D02*
X148544Y359337D01*
X152089Y117226D02*
X150674Y115812D01*
X152089Y122644D02*
X150674Y124058D01*
X152612Y222297D02*
X150612D01*
X152612Y252297D02*
X150612D01*
X153494Y354388D02*
X154908Y352974D01*
X153494Y357923D02*
X154908Y359337D01*
X154600Y155919D02*
X152746Y154065D01*
X154600Y163085D02*
X152746Y164939D01*
X155112Y217297D02*
Y215297D01*
Y227297D02*
Y229297D01*
Y247297D02*
Y245297D01*
Y257297D02*
Y259297D01*
X157506Y117226D02*
X158920Y115812D01*
X157506Y122644D02*
X158920Y124058D01*
X157612Y222297D02*
X159612D01*
X157612Y252297D02*
X159612D01*
X161767Y155919D02*
X163620Y154065D01*
X161767Y163085D02*
X163620Y164939D01*
X162612Y252297D02*
X160612D01*
X165112Y247297D02*
Y245297D01*
Y257297D02*
Y259297D01*
X168321Y381549D02*
X166321D01*
X170821Y379049D02*
Y377049D01*
Y384049D02*
Y386049D01*
X173321Y381549D02*
X175321D01*
X175112Y247297D02*
Y245297D01*
Y257297D02*
Y259297D01*
X177612Y252297D02*
X179612D01*
X178497Y265919D02*
X176644Y264065D01*
X178497Y273085D02*
X176644Y274939D01*
X185241Y197623D02*
X183827Y196209D01*
X185241Y202483D02*
X183827Y203898D01*
X185664Y265919D02*
X187518Y264065D01*
X185664Y273085D02*
X187518Y274939D01*
X186613Y21540D02*
X184613D01*
X186613Y79059D02*
X184613D01*
X189113Y19040D02*
Y17040D01*
Y24040D02*
Y26040D01*
Y76559D02*
Y74559D01*
Y81559D02*
Y83559D01*
X189226Y326156D02*
X187226D01*
X190102Y197623D02*
X191516Y196209D01*
X190102Y202483D02*
X191516Y203898D01*
X191613Y21540D02*
X193613D01*
X191613Y79059D02*
X193613D01*
X191726Y323656D02*
Y321656D01*
Y328656D02*
Y330656D01*
X194226Y326156D02*
X196226D01*
X210211Y381549D02*
X208211D01*
X212711Y379049D02*
Y377049D01*
Y384049D02*
Y386049D01*
X215211Y381549D02*
X217211D01*
X222541Y159502D02*
X220541D01*
X225978Y162939D02*
Y164939D01*
X238911Y258045D02*
X236911D01*
X241411Y255545D02*
Y253545D01*
Y260545D02*
Y262545D01*
X243911Y258045D02*
X245911D01*
X244133Y79059D02*
X242133D01*
X244865Y19772D02*
X243451Y18358D01*
X244865Y23307D02*
X243451Y24722D01*
X246633Y76559D02*
Y74559D01*
Y81559D02*
Y83559D01*
X248400Y19772D02*
X249815Y18358D01*
X248400Y23307D02*
X249815Y24722D01*
X249133Y79059D02*
X251133D01*
X252061Y381549D02*
X250061D01*
X254561Y379049D02*
Y377049D01*
Y384049D02*
Y386049D01*
X257061Y381549D02*
X259061D01*
X270199Y199904D02*
X268785Y198489D01*
X270199Y205321D02*
X268785Y206735D01*
X275616Y199904D02*
X277030Y198489D01*
X275616Y205321D02*
X277030Y206735D01*
X275781Y233793D02*
X273781D01*
X280199Y184156D02*
X278785Y182741D01*
X280199Y189573D02*
X278785Y190987D01*
X280781Y231293D02*
Y229293D01*
Y236293D02*
Y238293D01*
X285616Y184156D02*
X287030Y182741D01*
X285616Y189573D02*
X287030Y190987D01*
X285781Y233793D02*
X287781D01*
X286124Y390407D02*
X284124D01*
X287237Y265919D02*
X285384Y264065D01*
X287237Y273085D02*
X285384Y274939D01*
X289884Y327699D02*
X288470Y326285D01*
X289884Y333116D02*
X288470Y334530D01*
X290545Y385986D02*
Y383986D01*
Y394829D02*
Y396829D01*
X294404Y265919D02*
X296258Y264065D01*
X294404Y273085D02*
X296258Y274939D01*
X294967Y390407D02*
X296967D01*
X295301Y327699D02*
X296715Y326285D01*
X295301Y333116D02*
X296715Y334530D01*
X301652Y21540D02*
X299652D01*
X301652Y79059D02*
X299652D01*
X304152Y19040D02*
Y17040D01*
Y24040D02*
Y26040D01*
Y76559D02*
Y74559D01*
Y81559D02*
Y83559D01*
X305781Y223793D02*
X303781D01*
X306652Y21540D02*
X308652D01*
X306652Y79059D02*
X308652D01*
X310061Y159502D02*
X308061D01*
X310781Y221293D02*
Y219293D01*
Y226293D02*
Y228293D01*
X313009Y387281D02*
X311595Y385867D01*
X313009Y393534D02*
X311595Y394948D01*
X313498Y162939D02*
Y164939D01*
X315278Y333537D02*
X313278D01*
X315781Y223793D02*
X317781D01*
X317278Y331537D02*
Y329537D01*
Y335537D02*
Y337537D01*
X319262Y387281D02*
X320676Y385867D01*
X319262Y393534D02*
X320676Y394948D01*
X319278Y333537D02*
X321278D01*
X324899Y387281D02*
X323485Y385867D01*
X324899Y393534D02*
X323485Y394948D01*
X331152Y387281D02*
X332566Y385867D01*
X331152Y393534D02*
X332566Y394948D01*
X343017Y339985D02*
X341602Y338571D01*
X343017Y344846D02*
X341602Y346260D01*
X347877Y339985D02*
X349291Y338571D01*
X347877Y344846D02*
X349291Y346260D01*
X349195Y390407D02*
X347195D01*
X353616Y385986D02*
Y383986D01*
Y394829D02*
Y396829D01*
X358037Y390407D02*
X360037D01*
X359089Y281766D02*
X357089D01*
X359172Y21540D02*
X357172D01*
X359172Y79059D02*
X357172D01*
X361589Y279266D02*
Y277266D01*
Y284266D02*
Y286266D01*
X361672Y19040D02*
Y17040D01*
Y24040D02*
Y26040D01*
Y76559D02*
Y74559D01*
Y81559D02*
Y83559D01*
X364172Y21540D02*
X366172D01*
X364172Y79059D02*
X366172D01*
D02*
D16*
X28498Y45821D03*
Y344344D03*
Y356156D03*
Y403400D03*
X28656Y381549D03*
X28813Y103380D03*
Y143380D03*
Y281037D03*
Y321037D03*
X38498Y371707D03*
Y391392D03*
X40309Y119935D03*
Y131746D03*
X48341Y371707D03*
Y391392D03*
X58183Y371707D03*
Y391392D03*
X68026Y381549D03*
X68498Y45821D03*
Y344344D03*
Y356156D03*
Y403400D03*
X74074Y21540D03*
Y79059D03*
X80309Y119935D03*
Y131746D03*
X87553Y45230D03*
X95427Y340407D03*
Y356156D03*
Y403400D03*
X95742Y214108D03*
Y254108D03*
X107553Y214108D03*
Y254108D03*
X127553Y45230D03*
X128970Y371549D03*
Y381549D03*
Y391549D03*
X131593Y21540D03*
Y79059D03*
X135427Y340407D03*
Y356156D03*
Y403400D03*
X138734Y108124D03*
Y131746D03*
Y143557D03*
X146608Y45230D03*
Y403400D03*
X151726Y326156D03*
Y356156D03*
X161726Y326156D03*
Y356156D03*
X170821Y371549D03*
Y381549D03*
Y391549D03*
X171726Y326156D03*
Y356156D03*
X178734Y108124D03*
Y131746D03*
Y143557D03*
X181726Y326156D03*
Y356156D03*
X186608Y45230D03*
Y403400D03*
X189113Y21540D03*
Y79059D03*
X189915Y108124D03*
Y119935D03*
Y131451D03*
X191726Y326156D03*
Y356156D03*
X197789Y403400D03*
X201726Y45821D03*
Y326156D03*
Y356156D03*
X209915Y218045D03*
Y258045D03*
X211726Y326156D03*
Y356156D03*
X212711Y371549D03*
Y381549D03*
Y391549D03*
X221726Y326156D03*
X225663Y218045D03*
Y258045D03*
X229285Y281352D03*
X229915Y108124D03*
Y119935D03*
Y131451D03*
X237159Y340407D03*
Y356156D03*
X237789Y403400D03*
X241411Y218045D03*
Y258045D03*
X241726Y45821D03*
X246633Y21540D03*
Y79059D03*
X248970Y110683D03*
Y123183D03*
Y135683D03*
Y403400D03*
X254561Y371549D03*
Y381549D03*
Y391549D03*
X260781Y45821D03*
X265033Y218045D03*
Y258045D03*
X269285Y281352D03*
X277159Y340407D03*
Y356156D03*
X287947Y356746D03*
X288970Y110683D03*
Y123183D03*
Y135683D03*
Y403400D03*
X300781Y45821D03*
X304152Y21540D03*
Y79059D03*
X315900Y108124D03*
Y119935D03*
Y131746D03*
X319837Y45230D03*
X326352Y218045D03*
Y258045D03*
X327947Y356746D03*
X355900Y108124D03*
Y119935D03*
Y131746D03*
X359837Y45230D03*
X361589Y241766D03*
Y281766D03*
X361672Y21540D03*
Y79059D03*
X361687Y190289D03*
Y230289D03*
D02*
D17*
X42435Y328596D03*
X44561Y269541D03*
Y279541D03*
X52435Y328596D03*
X56372Y108124D03*
X66372D03*
X79994Y235919D03*
Y245919D03*
X99679Y167179D03*
X103616Y108124D03*
X109679Y167179D03*
X113616Y108124D03*
X123301Y231687D03*
Y241687D03*
Y324659D03*
X133301D03*
X154797Y119935D03*
X164797D03*
X205978Y143557D03*
X215978D03*
X243222Y297100D03*
X253222Y231982D03*
Y241982D03*
Y297100D03*
X261687Y151431D03*
X271687D03*
X272907Y186864D03*
Y202612D03*
X282907Y186864D03*
Y202612D03*
X292593Y330407D03*
Y340407D03*
X331963Y143557D03*
X339837Y231982D03*
Y241982D03*
X341963Y143557D03*
D02*
D18*
X73341Y269502D03*
X83341D03*
X93026D03*
X138498Y159502D03*
X148498D03*
X158183D03*
X182081Y269502D03*
X192081D03*
X201766D03*
X225978Y159502D03*
X235978D03*
X245663D03*
X290821Y269502D03*
X300821D03*
X310506D03*
X313498Y159502D03*
X323498D03*
X333183D03*
D02*
D19*
X64443Y299030D03*
X102238D03*
X129600Y189030D03*
X167396D03*
X173183Y299030D03*
X210978D03*
X217081Y189030D03*
X254876D03*
X281923Y299030D03*
X304600Y189030D03*
X319719Y299030D03*
X342396Y189030D03*
D02*
D70*
X32750Y223793D03*
Y233793D03*
Y243793D03*
Y253793D03*
X62750Y223793D03*
Y233793D03*
Y243793D03*
Y253793D03*
X95742Y121431D03*
Y131431D03*
Y141431D03*
Y151431D03*
X125742Y121431D03*
Y131431D03*
Y141431D03*
Y151431D03*
X280781Y223793D03*
Y233793D03*
Y243793D03*
Y253793D03*
X310781Y223793D03*
Y233793D03*
Y243793D03*
Y253793D03*
D02*
D71*
X290545Y372691D03*
Y390407D03*
X316136Y372691D03*
Y390407D03*
X328026Y372691D03*
Y390407D03*
X353616Y372691D03*
Y390407D03*
D02*
D20*
X41293Y145722D03*
X49167D03*
X57041D03*
X64915D03*
X72789D03*
X80663D03*
D02*
D21*
X38144Y189030D03*
X83813D03*
D02*
D22*
X221726Y356156D03*
D02*
D25*
X135112Y222297D03*
Y252297D03*
X145112Y222297D03*
Y252297D03*
X155112Y222297D03*
Y252297D03*
X165112Y222297D03*
Y252297D03*
X175112Y222297D03*
Y252297D03*
X185112Y222297D03*
Y252297D03*
X195112Y222297D03*
Y252297D03*
D02*
D26*
X28321Y154817D03*
Y164817D03*
Y174817D03*
X122927Y292317D03*
Y302317D03*
X132927Y292317D03*
Y302317D03*
X142927Y292317D03*
Y302317D03*
X152927Y292317D03*
Y302317D03*
X187671Y170053D03*
Y180053D03*
Y190053D03*
Y200053D03*
X197671Y170053D03*
Y180053D03*
Y190053D03*
Y200053D03*
X233656Y177120D03*
Y234797D03*
X345447Y312415D03*
Y322415D03*
Y332415D03*
Y342415D03*
Y352415D03*
X355447Y312415D03*
Y322415D03*
Y332415D03*
Y342415D03*
Y352415D03*
D02*
D27*
X66372Y108124D02*
X68463D01*
X74074Y102514*
Y79059*
X66372Y108124D02*
Y108321D01*
X77986Y119935*
X80309*
X80388*
X86589Y126136*
Y126530*
X91608Y131549*
X95742*
Y131431*
X104089*
X113616Y121904*
Y108124*
X123301Y241687D02*
X148281D01*
X165112Y224856*
Y222297*
X125742Y121431D02*
X138734D01*
Y108124*
X125742Y121431D02*
X113616D01*
Y108124*
X133301Y324659D02*
Y302317D01*
X132927*
X138734Y108124D02*
X138557D01*
X131593Y101160*
Y79059*
X154797Y119935D02*
Y113144D01*
X167691Y100250*
X167952*
X189113Y79089*
Y79059*
X154797Y119935D02*
X138734D01*
Y108124*
X175112Y252297D02*
Y222297D01*
X233656Y177120D02*
Y234797D01*
X272907Y186864D02*
Y184010D01*
X280093Y176825*
X327829*
X362179Y142474*
Y116096*
X360309Y114226*
X352632*
X346825Y108419*
Y94443*
X314640Y62258*
X139640*
X129600Y72297*
Y72396*
X124974Y77022*
Y82927*
X117593Y90309*
X117297*
X103616Y103990*
Y108124*
X310781Y253793D02*
X311096D01*
X352238Y294935*
Y299659*
X352829*
X361884Y308715*
Y318852*
X358321Y322415*
X355447*
X333183Y159502D02*
Y158222D01*
X328065Y153104*
X303636*
X297337Y159404*
Y159502*
X245663*
X345447Y312415D02*
Y304285D01*
X310663Y269502*
X310506*
D02*
D28*
X53537Y178695D03*
X193281Y138341D03*
X308242Y316687D03*
X334620D03*
D02*
D29*
X28498Y329778D02*
Y321037D01*
X28813*
X28498Y344344D02*
Y329778D01*
Y344344D02*
Y356156D01*
Y403400D02*
X54108D01*
X63065Y394443*
Y386372*
X67888Y381549*
X68026*
X28813Y103380D02*
X31175D01*
X34620Y106825*
Y106904*
X35526Y107809*
X40526*
X28813Y143380D02*
X41293D01*
Y145722*
X32750Y243793D02*
X29561D01*
X22711Y250644*
Y315506*
X28242Y321037*
X28813*
X40309Y119935D02*
Y107809D01*
X40526*
X40309Y131746D02*
X40427D01*
X49167Y140486*
Y145722*
X40526Y107809D02*
X56372D01*
Y108124*
X42435Y328596D02*
X28498D01*
Y329778*
X53537Y178695D02*
Y248478D01*
X41628Y260388*
X41608*
X28813Y273183*
Y281037*
X57041Y145722D02*
Y146411D01*
X85683Y175053*
X115427*
X132750Y157730*
Y149069*
X138262Y143557*
X138734*
X62750Y243793D02*
X79994D01*
Y245919*
X64915Y145722D02*
X72789D01*
X68498Y344344D02*
X71726D01*
Y310388*
X98006Y284108*
X127632*
X132927Y289404*
Y292317*
X68498Y344344D02*
Y343774D01*
X53321Y328596*
X52435*
X72789Y145722D02*
Y147396D01*
X82337Y156943*
X105683*
X111687Y150939*
Y150781*
X121037Y141431*
X125742*
X73341Y269502D02*
Y270053D01*
X79226Y275939*
X152258*
X170270Y257927*
Y211274*
X79994Y235919D02*
Y229679D01*
X95565Y214108*
X95742*
X79994Y235919D02*
X89679D01*
X107553Y253793*
Y254108*
X79994Y235919D02*
Y233793D01*
X62750*
X79994Y245919D02*
X88183Y254108D01*
X95742*
X80309Y131746D02*
Y131943D01*
X89797Y141431*
X95742*
X80663Y145722D02*
X86372Y151431D01*
X95742*
X86711Y79059D02*
Y78995D01*
X67415Y59699*
X39266*
X22238Y76726*
Y168754*
X28301Y174817*
X28321*
X95427Y340407D02*
X94974D01*
X88774Y346608*
Y358813*
X105703Y375742*
X166923*
X170821Y371844*
Y371549*
X95427Y356156D02*
Y356254D01*
X110722Y371549*
X128970*
X95427Y403400D02*
Y402711D01*
X106589Y391549*
X128970*
X127553Y45230D02*
X127455D01*
X123616Y41392*
Y17081*
X113085Y6549*
X98916*
X86711Y18754*
Y21540*
X135427Y340407D02*
X176077D01*
X191726Y356057*
Y356156*
X138734Y131746D02*
Y132041D01*
X133518Y137258*
X129699*
X125742Y141215*
Y141431*
X142927Y292317D02*
Y290014D01*
X132002Y279089*
X78026*
Y279384*
X69758*
X64541Y274167*
Y267081*
X68675Y262947*
X87474*
X95742Y254679*
Y254108*
X142927Y302317D02*
Y305270D01*
X153163Y315506*
X161096*
X171726Y326136*
Y326156*
X146608Y403400D02*
X159207D01*
X170821Y391785*
Y391549*
X148498Y160191D02*
Y159502D01*
X152927Y292317D02*
X183163D01*
X201726Y310880*
Y326156*
X152927Y302317D02*
X158439D01*
X181726Y325604*
Y326156*
X164797Y119935D02*
X178734D01*
Y108124*
X170270Y211274D02*
X157967D01*
X138498Y191805*
Y159502*
X171726Y356156D02*
Y356372D01*
X166037Y362061*
X141136*
X135427Y356352*
Y356156*
X178734Y131746D02*
Y108124D01*
Y143557D02*
X177041D01*
X160604Y127120*
X133144*
Y127219*
X128931Y131431*
X125742*
X185112Y252297D02*
Y246510D01*
X189443Y242179*
X202041*
X209915Y250053*
Y258045*
X186608Y45230D02*
Y36569D01*
X182376Y32337*
X182278*
Y16884*
X172041Y6648*
X154074*
X144231Y16490*
Y21540*
X186608Y403400D02*
X181726D01*
Y356156*
X187671Y170053D02*
Y161470D01*
X205585Y143557*
X205978*
X189915Y108124D02*
X203813D01*
X215978Y120289*
Y143557*
X189915Y131451D02*
X189640D01*
X183734Y125545*
Y106254*
X186785Y103203*
X212179*
X222219Y113242*
X233734*
X242789Y104187*
Y103892*
X264049*
X283341Y123183*
X288970*
X192081Y269502D02*
Y295427D01*
X207140Y310486*
X255880*
X282947Y337553*
Y341687*
X289049Y347789*
X314443*
X322907Y339325*
Y338931*
X339423Y322415*
X345447*
X193281Y138341D02*
Y142179D01*
X179502Y155959*
X179404*
Y184896*
X184561Y190053*
X187671*
X195112Y222297D02*
X197671D01*
Y200053*
X195112Y252297D02*
Y252711D01*
X205250Y262848*
X205585*
X214935Y272199*
Y280663*
X241608Y307337*
X244266*
X253222Y298380*
Y297100*
X197671Y170053D02*
Y169974D01*
X212278Y155368*
X217888*
Y155073*
X220545Y152415*
X231274*
X235978Y157120*
Y159502*
X197789Y403400D02*
X201726D01*
Y356156*
X197789Y403400D02*
X205978Y143557*
Y119935D01*
X189915*
X209915Y217770D02*
Y218045D01*
Y219640*
X200565Y228990*
X181963*
X179797Y226825*
Y217967*
X173104Y211274*
X170270*
X209915Y258045D02*
X211982D01*
X219463Y265526*
Y265801*
X229285Y275624*
Y281352*
X212711Y391549D02*
X226333D01*
X237789Y403006*
Y403400*
X221726Y356156D02*
Y376136D01*
X229699Y384108*
X230073*
X248970Y403006*
Y403400*
X225663Y218045D02*
Y217967D01*
X197750Y190053*
X197671*
X229285Y281352D02*
Y284108D01*
X242278Y297100*
X243222*
X229915Y108124D02*
Y108026D01*
X239069Y98872*
X240176*
X259270Y79778*
Y79059*
X229915Y119935D02*
X215978D01*
Y143557*
X229915Y131451D02*
Y119935D01*
X237159Y340407D02*
X225998D01*
X211726Y354679*
Y356156*
X237159D02*
X237593D01*
X244187Y349561*
Y340014*
X236707Y332533*
X218006*
X211726Y326254*
Y326156*
X241726Y45821D02*
Y17967D01*
X230309Y6549*
X212774*
X201751Y17573*
Y21540*
X248970Y123183D02*
Y110683D01*
Y135683D02*
X249187D01*
X261687Y148183*
Y151431*
X253222Y231982D02*
X251510D01*
X225663Y257829*
Y258045*
X253222Y241982D02*
Y246530D01*
X264738Y258045*
X265033*
X253222Y297100D02*
X253931D01*
X269285Y281746*
Y281352*
X254561Y371549D02*
X262159D01*
X277159Y356549*
Y356156*
X254561Y391549D02*
X262061D01*
X273715Y403203*
Y403400*
X288970*
X260781Y45821D02*
Y21540D01*
X259270*
X265033Y218045D02*
X264246D01*
X253222Y229069*
Y231982*
X265033Y258045D02*
X276628D01*
X280781Y253892*
Y253793*
X271687Y151431D02*
Y135447D01*
X259423Y123183*
X248970*
X280781Y243793D02*
X266116D01*
Y243695*
X254404Y231982*
X253222*
X280781Y253793D02*
X283045D01*
X292199Y244640*
Y226333*
X365329Y153203*
Y91490*
X362179Y88341*
X362081*
X353616Y79876*
Y73183*
X340329Y59896*
X330565*
X319837Y49167*
Y45230*
X288970Y135683D02*
X271687D01*
Y151431*
X292593Y340407D02*
X296037D01*
X302140Y334305*
Y304876*
X298203Y300939*
X297907*
X277041Y280073*
X276451*
Y279778*
X262179Y265506*
X224581*
X216116Y257041*
Y224049*
X210112Y218045*
X209915*
X310781Y233793D02*
X326352D01*
Y218045*
X310781Y243793D02*
X327927D01*
X315900Y108124D02*
X332455D01*
Y108715*
X343675Y119935*
X355900*
X315900D02*
X288970D01*
Y123183*
X323498Y159502D02*
Y161077D01*
X312474Y172100*
X212967*
X205014Y180053*
X197671*
X327927Y243793D02*
X326352D01*
Y258045*
X331963Y143557D02*
Y143360D01*
X320348Y131746*
X315900*
X334620Y316687D02*
X308242D01*
X339837Y231982D02*
X326352D01*
Y218045*
X339837Y241982D02*
X327927D01*
Y243793*
X341963Y143557D02*
X344187D01*
X355900Y131844*
Y131746*
X355447Y312415D02*
Y312514D01*
X350486Y317474*
X341530*
X331982Y307927*
X314266*
X300821Y294482*
Y269502*
X355900Y119935D02*
Y131746D01*
X361589Y241766D02*
X361687D01*
X366313Y246392*
Y323085*
X356982Y332415*
X355447*
X361589Y241766D02*
Y230289D01*
X361687*
Y190289D02*
Y213242D01*
X342947Y231982*
X339837*
D02*
D86*
X48341Y391392D02*
Y371707D01*
D02*
D108*
X29192Y21540D03*
Y79059D03*
X61869Y21540D03*
Y79059D03*
X86711Y21540D03*
Y79059D03*
X119389Y21540D03*
Y79059D03*
X144231Y21540D03*
Y79059D03*
X176908Y21540D03*
Y79059D03*
X201751Y21540D03*
Y79059D03*
X234428Y21540D03*
Y79059D03*
X259270Y21540D03*
Y79059D03*
X291948Y21540D03*
Y79059D03*
X316790Y21540D03*
Y79059D03*
X349467Y21540D03*
Y79059D03*
D02*
D114*
X312278Y328537D03*
X317278Y333537D03*
D02*
D136*
X312278Y338537D03*
X0Y0D02*
M02*
